<?xml version="1.0" encoding="utf-8"?>
<!-- Generator: Adobe Illustrator 16.0.4, SVG Export Plug-In . SVG Version: 6.00 Build 0)  -->
<!DOCTYPE svg PUBLIC "-//W3C//DTD SVG 1.0//EN" "http://www.w3.org/TR/2001/REC-SVG-20010904/DTD/svg10.dtd">
<svg version="1.0" xmlns="http://www.w3.org/2000/svg" xmlns:xlink="http://www.w3.org/1999/xlink" x="0px" y="0px"
	 width="202.49px" height="352.052px" viewBox="0 0 202.49 352.052" enable-background="new 0 0 202.49 352.052"
	 xml:space="preserve">
<g id="Layer_1" display="none">
	<g display="inline">
		<path fill-rule="evenodd" clip-rule="evenodd" fill="#515151" d="M1110.392-1142.483c0,512.32,0,1023.71,0,1535.937
			c-682.346,0-1364.409,0-2046.987,0c0-685.033,0.158-1188.767,0.158-1536.828
			C-254.406-1143.375,427.646-1142.483,1110.392-1142.483z"/>
	</g>
	<g display="inline">
		<path fill-rule="evenodd" clip-rule="evenodd" fill="#C6C6C6" d="M-936.232,49.697c19.863,0.688,92.368,0.621,110.41,1.309
			c9.954,0.383,1016.54-0.338,1032.645-1.042c8.678-0.388,229.17,0.464,266.973,0.568c32.775,0.093,65.568-2.172,98.357-2.65
			c16.068-0.227,455.014-2.673,485.801-4.196c14.477-0.722,36.092-3.654,50.387-2.942c7.105,0.356,18.83,378.259,0.092,366.671
			c-49.686,2.688-2017.474,2.736-2046.987,0C-939.061,362-938.546,143-936.232,49.697z"/>
	</g>
</g>
<g id="Layer_3">
	<g display="none">
		<g display="inline">
			<path fill-rule="evenodd" clip-rule="evenodd" fill="#F9E7D9" d="M173.973,112.408c-0.098-1.461-0.376-2.058-1.641-3.139
				c-1.189-1.016-2.715-1.294-4.097-0.276c-0.582,0.337-1.533,0.723-2.054,1.089c-0.395,0.278-1.68,1.566-1.93,1.938
				c-0.25-0.347,0.285-1.579-0.09-1.806c-0.437-52.663-26.457-58.553-57.445-58.284c-43.859,0.382-69.151,22.674-65.372,56.924
				c-0.276-0.124-3.524-1.567-3.873-1.597c-0.334-0.086-0.771-0.114-1.118-0.116c-0.01,0-0.424,0.006-0.498,0.006
				c-0.278,0-0.525,0.03-0.763,0.089c-0.406,0.007-0.789,0.154-1.223,0.363c-2.295,1.109-2.91,3.658-2.729,5.792
				c0.049,0.463,0.231,1.048,0.307,1.296c0.067,0.223,0.457,1.199,0.78,1.522c0.217,0.283,0.597,0.815,1.104,1.315
				c0.377,0.374,1.014,0.882,1.581,1.289c0.366,0.277,1.735,1.063,2.11,1.341c0.13,0.096,1.351,1.021,1.713,1.358
				c0.328,0.227,1.044,0.919,1.547,1.501c0.26,0.292,0.759,1.263,1.135,2.025c0.098,0.254,1.722,3.136,1.937,3.672
				c0.138,0.347,1.043,2.367,1.29,3.284c0.299,0.846,0.439,1.423,0.824,2.418c0.002,0.015,1.714,5.08,2.036,5.58
				c0.073,0.173,1.998,4.08,2.96,5.616c1.335,2.13,4.934,6.441,6.227,7.353c2.396,1.688,4.965,3.766,7.572,5.151
				c-0.492,0.224-6.848,8.149-7.147,8.664c-3.669,6.34-2.226,4.523-5.611,11.084c-7.179,13.917-13.284,45.021-11.302,66.162
				c-0.319,3.369-1.836,8.219-1.9,10.525c-0.095,3.472-0.035,6.269,2.854,8.306c4.041,2.851,8.177-1.092,10.736-4.896
				c0.328,1.585,1.069,3.269,2.612,2.557c1.104-0.511,0.869-2.153,0.738-3.094c-0.05-0.356-0.115-0.739-0.209-1.116
				c-0.17-0.598-0.093-0.936-0.17-1.401c0,0-0.058-0.769-0.06-0.795c-0.169-2.756-0.384-5.508-0.632-8.258
				c-0.194-2.146-0.51-4.283-0.677-6.431c-0.397-5.115-0.823-10.231-1.071-15.355c-0.15-3.11-0.069-6.241,0.049-9.356
				c0.123-3.227,0.399-6.446,0.641-9.668c0.115-1.521,0.25-3.045,0.472-4.555c0.444-3.018,0.963-6.022,1.434-9.036
				c0.615-3.926,1.929-7.615,3.797-11.108c0.153-0.286,0.587-0.422,0.891-0.629c0.025,0.376-0.889,0.586-0.994,0.922
				c-0.616,1.976-1.842,3.736-2.325,5.74c-1.336,5.547-2.617,11.104-3.126,16.789c-0.317,3.568-0.606,7.139-0.816,10.713
				c-0.119,2.028-0.065,4.068-0.071,6.102c-0.003,1.096,0.021,2.195,0.052,3.291c0.075,2.742,0.123,5.485,0.26,8.225
				c0.098,1.994,0.325,3.98,0.488,5.97c0.07,0.842,0.058,1.956,0.38,2.682c0.573,1.285,0.238,3.019,0.474,4.309
				c0.271,1.481,0.184,2.795,0.39,4.294c0.391,2.843,0.233,5.47,0.761,8.289c0.78,4.162,2.103,9.131,2.905,13.287
				c0.083,0.433,0.36,0.908,0.462,1.331c0.391,1.619,0.891,3.212,1.257,4.836c0.442,1.98,0.78,3.985,1.185,5.974
				c0.48,2.359,0.972,4.716,1.472,7.068c0.403,1.892,2.338,8.695,2.799,10.235c0.619,2.076,1.183,4.169,1.702,6.272
				c0.221,0.9,0.557,1.919,0.338,2.752c-0.405,1.543-1.067,3.055-1.837,4.461c-0.438,0.801-1.067,1.496-1.679,2.2
				c-0.141,0.074-0.281,0.158-0.423,0.263c-6.269,4.608-9.847,11.654-10.008,19.639c-0.042,2.14,5.301,5.229,6.74,5.524
				c3.739,0.772,7.839-0.64,11.264-2.017c2.151-0.862,4.291-1.778,6.365-2.811c3.562-1.772,7.208-5.104,8.919-8.819
				c1.152-2.499,1.484-5.05,1.408-7.718c-0.025-0.822-0.282-1.653-0.201-2.46c0.25-2.461,0.566-4.919,0.944-7.363
				c0.426-2.767,0.9-5.524,1.44-8.27c0.529-2.683,1.179-5.341,1.753-8.013c0.765-3.555,1.49-7.116,2.265-10.669
				c0.544-2.501,1.204-4.979,1.704-7.487c0.646-3.246,1.144-6.521,1.78-9.77c0.39-1.991,0.809-3.989,1.417-5.921
				c0.515-1.635,0.458-1.798,1.202-3.324c0.971-1.986,2.806-2.79,4.361-0.643c1.354,1.874,1.526,3.231,2.107,5.379
				c0.666,2.463,1.387,4.629,1.981,7.113c0.675,2.836,1.596,5.623,2.088,8.485c1.057,6.137,1.379,12.354,1.672,18.57
				c0.205,4.363,0.371,8.745,0.902,13.076c0.47,3.811-0.514,8.384-1.803,11.924c-0.729,1.998-1.215,4.064-0.844,6.197
				c0.737,4.242,3.403,7.207,6.725,9.633c2.86,2.09,6.068,3.565,9.343,4.921c4.81,1.992,10.579,3.283,14.701,0.518
				c2.152-1.445,3.462-3.71,3.581-6.159c0.11-2.276-0.651-4.29-1.755-6.297c-1.629-2.965-2.899-6.125-4.436-9.146
				c-1.551-3.042-2.021-6.2-1.547-9.559c0.413-2.923,0.643-5.875,1.113-8.786c0.582-3.585,1.327-7.144,2.011-10.711
				c0.608-3.191,1.225-6.38,1.853-9.568c0.373-1.902,0.842-3.789,1.148-5.701c0.62-3.841,1.211-7.689,1.713-11.547
				c0.514-3.957,1.591-7.688,2.021-11.654c0.242-2.238,0.428-4.484,0.663-6.723c0.269-2.584,0.59-5.162,0.838-7.748
				c0.25-2.612,0.466-5.229,0.647-7.848c0.209-3.009,0.472-6.019,0.519-9.03c0.12-7.508,0.246-15.022-0.57-22.507
				c-0.224-2.047-0.474-4.094-0.819-6.122c-0.336-1.975-0.841-3.92-1.199-5.889c-0.058-0.314-1.52-1.024-1.308-1.071
				c0.335-0.074,0.781,0.17,1.121,0.375c0.165,0.1,0.236,0.412,0.282,0.643c0.548,2.744,1.146,5.479,1.604,8.237
				c0.634,3.826,0.944,7.683,0.921,11.57c-0.029,4.929,0.157,9.862,0.042,14.788c-0.097,3.941-0.44,7.88-0.793,11.811
				c-0.467,5.193-1.06,10.373-1.56,15.562c-0.01,0.1,0,0.204,0.019,0.308c-0.033,0.12-0.048,0.251-0.033,0.404
				c0.008,0.063,0.009,0.129,0.015,0.193c-0.006,0.056-0.015,0.109-0.015,0.17c0.041,2.268-0.814,4.512-0.646,6.787
				c0.09,1.229,1.017,1.879,1.836,1.558c0.282-0.015,0.563-0.129,0.797-0.328c-0.235,0.2-0.142,0.113-0.055,0.066
				c0.113-0.059,0.215-0.146,0.301-0.239c0.072-0.073,0.131-0.159,0.183-0.248c0.126-0.164,0.237-0.353,0.327-0.575
				c0.118-0.295,0.159-0.616,0.187-0.937c0.121-0.284,0.198-0.575,0.252-0.875c1.734,5.342,6.75,10.854,12.59,7.119
				c4.663-2.981,3.519-9.107,2.42-13.854c-0.352-2.12-1.866-6.576-1.938-6.737c-0.883-2.268-0.582-2.708-0.778-4.093
				c0.102-3.589,0.406-9.871,0.297-14.994c-0.083-3.888-0.651-13.787-0.654-14.1c-0.05-5.084-1.705-9.252-2.253-11.592
				c-0.654-2.798-1.584-5.236-2.238-7.603c-0.617-2.378-1.96-6.977-2.376-7.924c-1.488-3.936-3.107-7.604-5.411-11.144
				c-1.265-1.944-2.756-3.747-4.364-5.414c-0.285-0.297-0.599-0.574-0.92-0.842c-1.228-1.58-2.999-3.017-4.574-4.224
				c2.103-1.095,4.262-2.066,6.295-3.535c1.221-0.88,4.211-2.845,5.398-3.83c0.066-0.03,1.264-0.831,2.377-1.886
				c0.737-0.697,1.256-1.304,2.179-2.32c1.733-1.91,1.826-2.043,2.569-3.082c0.226-0.282,0.889-1.307,1.431-2.64
				c1.35-3.33,2.961-9.11,3.998-12.5c0.672-1.985,1.31-3.536,2.229-4.797c1.035-1.416,3.057-4.371,3.071-4.39
				c0.183-0.213,0.902-1.144,1.132-1.46c0.015-0.019,0.878-1.073,1.332-1.636c0.699-0.991,1.154-2.11,1.297-3.367
				C173.965,113.654,173.982,112.599,173.973,112.408z M64.263,158.114"/>
			<path fill-rule="evenodd" clip-rule="evenodd" fill="#F9E7D9" d="M101.434,160.661c-3.509-0.119-6.701-1.625-10.08-2.413
				c-4.089-0.956-8.276-1.38-12.403-2.133c-3.665-0.669-5.23,4.936-1.545,5.607c1.249,0.227,2.503,0.427,3.759,0.621
				c0.285,0.299,0.643,0.552,1.086,0.735c6.186,2.54,12.531,3.365,19.183,3.396C105.193,166.494,105.169,160.794,101.434,160.661z"
				/>
		</g>
		<g display="inline">
			<path opacity="0.4" fill-rule="evenodd" clip-rule="evenodd" fill="#F4782C" d="M106.559,126.816
				c-0.178-0.585-0.514-0.963-0.936-1.208c-0.4-0.306-0.875-0.477-1.361-0.388c-0.165-0.013-0.334-0.022-0.503-0.022
				c-0.343-0.002-1.438,1.052-0.741,0.761c0.805-0.335,1.998,0.15,2.534,1.11c0.01,0.019,0.374,0.85,0.058,1.257
				C105.496,128.476,106.653,127.127,106.559,126.816z"/>
			<path fill-rule="evenodd" clip-rule="evenodd" fill="#423B3E" d="M104.487,128.832c0.557-0.242,1.573-1.212,1.769-1.575
				c0.243-0.455,0.046-0.97-0.606-1.454c-0.469-0.532-1.43-0.629-2.12-0.156c-0.543,0.371-1.005,0.69-1.204,1.656
				c-0.129,0.101-0.088,0.082-0.2,0.016c0.104-0.357,0.14-0.861,0.392-1.155c1.174-1.368,2.705-1.59,3.828-0.12
				c0.553,0.726,0.236,1.43-0.337,2.027C105.564,128.533,104.342,129.703,104.487,128.832z"/>
		</g>
		<g display="inline">
			<g>
				<path fill-rule="evenodd" clip-rule="evenodd" fill="#423B3E" d="M91.807,146.386c0.302,0.099,0.879,0.934,1.149,1.089
					c4.504,3.062,8.472,3.545,15.357,3.256c2.722-0.276,5.4-1.102,7.626-2.74c0.352-0.235,0.609-0.336,0.918-0.8
					c0.31-0.309,0.386-0.911,0.566-1.207c0.361-0.171,0.532,0.256,0.452,0.458c-0.243,0.619-0.546,1.333-1.05,1.706
					c-2.039,1.511-4.338,2.475-6.867,2.856c-3.476,0.522-6.926,0.342-10.371-0.265c-2.59-0.456-4.878-1.634-6.984-3.157
					c-0.369-0.267-0.615-0.637-0.912-1.001C91.549,146.346,91.708,146.346,91.807,146.386z"/>
			</g>
			<path fill-rule="evenodd" clip-rule="evenodd" fill="#423B3E" d="M75.543,114.261c-0.072,0.962-0.874,1.732-1.839,1.732l0,0
				c-0.966,0-1.413-0.752-1.75-1.749c-0.162-0.48-0.189-0.88-0.22-1.814c-0.014-0.456,0.139-1.839,0.139-1.839
				c0.109-0.964,0.864-1.722,1.831-1.722l0,0c0.965,0,1.695,0.732,1.839,1.739c0,0,0.115,0.546,0.115,1.821
				C75.658,112.888,75.578,113.805,75.543,114.261z"/>
			<path fill-rule="evenodd" clip-rule="evenodd" fill="#423B3E" d="M137.505,114.261c-0.072,0.962-0.874,1.732-1.841,1.732l0,0
				c-0.965,0-1.412-0.752-1.748-1.749c-0.162-0.48-0.19-0.88-0.22-1.814c-0.017-0.456,0.139-1.839,0.139-1.839
				c0.109-0.964,0.864-1.722,1.829-1.722l0,0c0.967,0,1.697,0.732,1.841,1.739c0,0,0.115,0.546,0.115,1.821
				C137.621,112.888,137.54,113.805,137.505,114.261z"/>
		</g>
		
			<ellipse display="inline" opacity="0.4" fill-rule="evenodd" clip-rule="evenodd" fill="#F32842" cx="141.646" cy="129.956" rx="6.88" ry="2.605"/>
		
			<ellipse display="inline" opacity="0.4" fill-rule="evenodd" clip-rule="evenodd" fill="#F32842" cx="66.686" cy="129.956" rx="6.88" ry="2.605"/>
		<g display="inline">
			<path fill-rule="evenodd" clip-rule="evenodd" fill="#40393C" d="M182.486,100.071c0.009-3.202-0.118-6.406-0.18-9.608
				c-0.053-2.712,0.015-5.436-0.18-8.138c-0.162-2.262-41.653-51.604-45.857-52.89c-4.46-1.363-8.941-2.665-13.454-3.842
				c-3.241-0.846-6.547-1.449-9.825-2.14c-1.487-0.313-2.986-0.813-4.476-0.805c-3.125,0.019-6.25,0.287-9.37,0.507
				c-2.209,0.156-4.422,0.334-6.616,0.621c-2.877,0.376-5.75,0.814-8.608,1.32c-3.306,0.585-6.647,1.073-9.873,1.963
				c-3.792,1.045-7.465,2.45-10.947,4.388c-4.297,2.39-8.779,4.405-12.762,7.39c-5.006,3.753-9.446,7.938-12.303,13.587
				c-1.313,2.594-2.743,5.163-3.732,7.884c-1.748,4.813-3.242,9.721-4.759,14.616c-0.716,2.307-1.379,4.647-1.821,7.021
				c-0.459,2.453-0.642,4.959-0.908,7.447c-0.444,4.145-0.999,8.284-1.25,12.442c-0.364,6.036-0.39,12.084,0.579,18.086
				c0.812,5.022,26.15,35.761,31.063,33.887c-1.789-3.541-3.501-7.063-5.332-10.522c-1.99-3.757-3.122-7.784-3.812-11.927
				c-0.672-4.031-1.201-8.095-1.578-12.165c-0.338-3.65-0.425-7.326-0.535-10.995c-0.039-1.273,0.083-2.573,0.309-3.828
				c0.372-2.064,1.78-3.137,4.646-3.354c3.215-0.247,6.459-0.226,9.686-0.15c2.869,0.069,2.839,0.101,2.832-2.641
				c-0.008-3.235,0.007-6.476,0.137-9.707c0.109-2.771,0.365-5.538,0.614-8.301c0.186-2.064,0.417-4.126,0.711-6.178
				c0.414-2.867,0.881-5.729,1.403-8.579c0.051-0.289,0.644-0.478,0.985-0.715c0.149,0.338,0.446,0.684,0.425,1.013
				c-0.198,2.98-0.57,5.953-0.652,8.938c-0.083,3.018,0.094,6.044,0.178,9.066c0.022,0.795,0.115,1.587,0.186,2.38
				c0.206,2.307,0.4,4.617,0.63,6.923c0.2,1.994,0.42,3.988,0.679,5.977c0.135,1.041,0.782,1.595,1.856,1.562
				c1.284-0.037,2.57-0.08,3.853-0.146c3.849-0.197,7.699-0.369,11.543-0.619c5.029-0.329,10.053-0.746,15.082-1.081
				c3.96-0.263,7.923-0.476,11.886-0.68c4.026-0.206,8.284,0.482,12.312,0.487c4.414,0.005,5.376-0.234,9.787,0.009
				c1.996,0.109,7.218-0.135,9.194,0.169c2.847,0.438,5.686,0.941,8.511,1.499c1.421,0.28,2.94,0.497,4.176,1.179
				c1.63,0.9,2.259,2.629,2.311,4.483c0.06,2.074,0.039,4.149,0.087,6.225c0.09,3.823,0.199,7.645,0.312,11.467
				c0.192,6.597-1.522,12.844-3.47,19.048c-0.58,1.843-1.126,3.704-1.843,5.496c-0.747,1.87-1.627,3.696-2.565,5.48
				c-0.349,0.662,30.431-37.56,30.64-40.604c0.091-1.326-0.145-2.674-0.124-4.009C182.31,106.029,182.48,103.051,182.486,100.071z"
				/>
			<path display="none" fill-rule="evenodd" clip-rule="evenodd" fill="#40393C" d="M57.206,154.39
				c-1.789-3.542-3.501-7.064-5.332-10.524c-1.99-3.755-3.122-7.781-3.812-11.925c-0.672-4.032-1.201-8.096-1.578-12.165
				c-0.338-3.65-0.425-7.327-0.535-10.996c-0.039-1.273,0.083-2.573,0.309-3.828c0.372-2.064,1.78-3.136,4.646-3.354
				c3.215-0.246,6.459-0.227,9.686-0.149c2.869,0.068,2.839,0.1,2.832-2.641c-0.008-3.235,0.007-6.476,0.137-9.708
				c0.109-2.771,0.365-5.537,0.614-8.301c0.186-2.063,0.417-4.127,0.711-6.178c0.414-2.867,0.881-5.728,1.403-8.578
				c0.051-0.29,0.644-0.479,0.985-0.715c0.149,0.339,0.446,0.684,0.425,1.011c-0.198,2.981-0.57,5.955-0.652,8.938
				c-0.083,3.02,0.094,6.044,0.178,9.066c0.022,0.794,0.115,1.587,0.186,2.379c0.206,2.309,0.4,4.619,0.63,6.925
				c0.2,1.994,0.42,3.988,0.679,5.975c0.135,1.043,0.782,1.597,1.856,1.564c1.284-0.039,2.57-0.081,3.853-0.146
				c3.849-0.197,7.699-0.369,11.543-0.619c5.029-0.328,10.053-0.746,15.082-1.08c3.96-0.263,7.923-0.476,11.886-0.68
				c4.026-0.207,8.284,0.481,12.312,0.486c4.414,0.005,8.136,0.29,12.12-0.196c5.235,0.392,4.885,0.069,6.861,0.374
				c2.847,0.438,5.686,0.942,8.511,1.498c1.421,0.281,2.94,0.499,4.176,1.181c1.63,0.9,2.259,2.629,2.311,4.482
				c0.06,2.074,0.039,4.15,0.087,6.226c0.09,3.823,0.199,7.644,0.312,11.466c0.192,6.596-1.522,12.844-3.47,19.049
				c-0.58,1.843-1.126,3.703-1.843,5.495c-0.747,1.871-1.627,3.696-2.565,5.48c-0.349,0.662-0.413,1.06,0.362,1.246
				c1.443,0.344,2.907,0.808,4.371,0.841c3.752,0.09,7.513,0.082,11.261-0.105c2.037-0.104,4.074-0.674,5.778-1.879
				c2.196-1.554,3.823-3.551,4.519-6.262c0.574-2.244,1.467-4.411,2.002-6.666c0.367-1.541,0.38-3.17,0.521-4.763
				c0.214-2.45,0.417-4.902,0.591-7.354c0.157-2.181,0.232-4.365,0.409-6.542c0.251-3.042,0.617-6.073,0.826-9.119
				c0.091-1.326-0.145-2.672-0.124-4.01c0.044-2.979,0.214-5.957,0.22-8.937c0.009-3.202-0.118-6.405-0.18-9.608
				c-0.053-2.712,0.015-5.434-0.18-8.139c-0.162-2.262-0.748-4.491-0.931-6.754c-0.35-4.331-1.396-8.509-2.913-12.526
				c-2.886-7.645-7.214-14.396-13.297-19.934c-4.73-4.306-10.247-7.338-16.193-9.555c-4.114-1.533-8.319-2.835-12.523-4.12
				c-4.46-1.363-8.941-2.666-13.454-3.842c-3.241-0.846-6.547-1.45-9.825-2.14c-1.487-0.312-2.986-0.812-4.476-0.803
				c-3.125,0.017-6.25,0.285-9.37,0.506c-2.209,0.155-4.422,0.334-6.616,0.62c-2.877,0.375-5.75,0.816-8.608,1.32
				c-3.306,0.584-6.647,1.073-9.873,1.964c-3.792,1.045-7.465,2.45-10.947,4.387c-4.297,2.39-8.779,4.406-12.762,7.392
				c-5.006,3.751-9.446,7.937-12.303,13.583c-1.313,2.597-2.743,5.166-3.732,7.887c-1.748,4.812-3.242,9.722-4.759,14.615
				c-0.716,2.307-1.379,4.648-1.821,7.02c-0.459,2.454-0.642,4.961-0.908,7.449c-0.444,4.144-0.999,8.283-1.25,12.441
				c-0.364,6.037-0.39,12.084,0.579,18.086c0.812,5.022,1.367,10.11,2.562,15.041c1.127,4.653,3.009,9.118,4.426,13.707
				c0.818,2.65,2.702,3.809,5.191,4.342c1.391,0.298,2.788,0.566,4.182,0.845C47.397,155.415,52.293,156.263,57.206,154.39z
				 M153.191,148.336c1.094-3.756,2.266-7.489,3.394-11.233c1.163-3.857,1.655-7.829,1.703-11.832
				c0.043-3.447-0.197-6.899-0.294-10.35c-0.077-2.639-0.063-5.28-0.212-7.915c-0.072-1.301-0.244-2.765-1.547-3.447
				c-1.205-0.631-2.545-1.104-3.881-1.369c-3.273-0.649-6.562-1.268-9.873-1.662c-12.046,0.683-22.986-0.203-26.977,0.038
				c-2.288,0.138-29.607,1.389-32.038,1.515c-4.407,0.232-8.822,0.349-13.233,0.51c-1.31,0.05-2.435-0.656-2.863-1.84
				c-0.211-0.584-0.436-1.191-0.491-1.802c-0.399-4.333-0.763-8.669-1.122-13.006c-0.099-1.18-0.142-2.364-0.211-3.546
				c-0.126-0.006-0.254-0.012-0.379-0.019c-0.072,0.55-0.19,1.099-0.204,1.648c-0.076,3.165-0.157,6.333-0.175,9.501
				c-0.013,2.018-0.07,4.054,0.167,6.052c0.259,2.184-0.636,3.302-2.883,3.26c-1.617-0.031-3.24,0.073-4.859,0.118
				c-0.973,0.026-1.945,0.082-2.918,0.077c-1.523-0.01-3.045-0.122-4.565-0.076c-1.114,0.035-1.699,0.646-1.877,1.755
				c-0.115,0.717-0.227,1.447-0.214,2.171c0.086,4.794,0.009,9.601,0.38,14.372c0.287,3.709,0.962,7.418,1.802,11.047
				c0.799,3.45,1.956,6.827,3.117,10.18c0.5,1.443,1.327,2.798,2.148,4.101c1.207,1.912,1.28,3.829,2.978,5.807l0.562,1.62
				c0.06,1.297-0.494,1.872-1.816,2.117c-4.704,0.869-9.362,0.709-14.007-0.452c-1.844-0.463-3.768-0.609-5.596-1.113
				c-2.105-0.582-4.18-1.421-5.326-3.455c-0.65-1.153-1.066-2.452-1.484-3.719c-0.898-2.726-1.843-5.442-2.557-8.219
				c-0.81-3.154-1.507-6.348-2.039-9.56c-0.763-4.583-1.532-9.181-1.918-13.805c-0.312-3.733-0.113-7.514-0.049-11.271
				c0.042-2.467,0.155-4.941,0.399-7.396c0.438-4.387,0.923-8.772,1.535-13.138c0.35-2.498,0.854-4.995,1.532-7.424
				c0.984-3.527,2.125-7.016,3.317-10.479c1.371-3.982,2.77-7.958,4.348-11.86c1.326-3.28,3.532-6.026,5.938-8.602
				c3.009-3.222,6.462-5.892,10.029-8.469c3.277-2.367,6.918-4.022,10.401-5.995c3.334-1.889,6.825-3.378,10.459-4.514
				c2.18-0.681,4.459-1.062,6.705-1.518c2.217-0.447,4.438-0.897,6.678-1.205c4.084-0.561,8.179-1.066,12.279-1.5
				c2.591-0.275,5.198-0.474,7.803-0.534c4.011-0.096,7.952,0.401,11.853,1.457c3.166,0.858,6.427,1.36,9.632,2.087
				c1.845,0.419,3.673,0.919,5.483,1.469c4.507,1.368,9.021,2.726,13.494,4.202c4.105,1.354,8.047,3.106,11.854,5.174
				c4.184,2.274,7.864,5.174,11.101,8.641c1.312,1.405,2.51,2.913,3.776,4.359c0.787,0.897,1.709,1.697,2.385,2.667
				c0.947,1.359,1.82,2.789,2.552,4.271c1.687,3.413,2.99,6.98,3.952,10.665c0.596,2.282,1.317,4.559,1.611,6.886
				c0.456,3.575,0.732,7.183,0.832,10.786c0.165,6.059,0.155,12.122,0.181,18.183c0.01,2.287-0.256,4.591-0.068,6.858
				c0.133,1.588,0.166,3.154,0.029,4.718c-0.273,3.096-0.729,6.177-0.981,9.272c-0.179,2.202-0.079,4.428-0.234,6.632
				c-0.195,2.725-0.58,5.436-0.781,8.16c-0.21,2.82-0.719,5.561-1.654,8.229c-0.882,2.514-1.729,5.008-3.681,6.994
				c-2.175,2.209-4.79,3.401-7.803,3.697c-2.689,0.264-5.394,0.389-8.097,0.473c-2.813,0.089-5.603-0.176-8.341-0.893
				c-1.927-0.506-2.405-1.614-1.432-3.424L153.191,148.336z"/>
		</g>
		<g id="girl" display="inline">
			<path fill="#F4E00A" stroke="#F4E00A" stroke-miterlimit="10" d="M103.292,166.659c23.723-2.315,36.006-10.272,37.588-11.706
				c3.153-2.856,7.183-5.589,10.166-8.632c3.842-3.916,6.609-8.212,9.608-12.826c3.356-5.172,5.916-10.722,5.992-17.041
				c0.032-2.61-0.117-5.304-0.743-7.822c-0.688-2.77-9.43-20.255-26.345-30.382c-5.527-3.27-11.326-5.916-17.322-8.172
				c-3.753-1.412-7.523-2.788-11.206-4.366c-2.724-1.168-5.524-1.912-8.433-2.335c-1.473-0.213-2.933-0.506-4.409,0.076
				c-8.415,1.863-24.492,9.227-33.238,16.228c-1.069,0.881-8.217,7.466-10.499,10.079c-2.599,2.974-5.016,6.109-7.642,9.058
				c-2.634,2.955-4.769,6.247-6.841,9.581c-1.9,3.055-3.634,6.213-4.761,9.658c-0.917,2.807-1.064,5.626,0.183,8.355
				c1.911,4.18,4.888,7.567,8.243,10.639c5.709,6.557,30.064,23.806,41.877,27.547c3.825,1.662,6.057,2.228,10.163,2.676
				c0.688,0.074,3.931-0.533,4.758-0.436c0.152,0.018,0.52,0.292,0.244,0.558L103.292,166.659z M102.775,287.096
				c-0.2,0.103-0.283,0.159-0.378,0.19c-2.889,0.924-5.868,0.93-8.861,0.941c-5.371,0.019-10.689-0.407-15.954-1.503
				c-2.855-0.592-5.73-1.087-8.592-1.639c-1.53-0.295-3.101-0.476-4.575-0.948c-3.981-1.278-9.753-3.224-13.701-4.604
				c-0.746-0.427-0.818-0.657-1.047-1.408c0.035-2.986,0.369-7.272,0.513-10.125c0.382-3.09,0.782-6.213,0.637-9.302
				c0.107-4.268,0.058-6.538-0.019-10.811l0.019-3.397c0,0-14.498-0.641-14.452-3.02c0.268-3.227,0.356-8.431,0.545-11.662
				c0.101-1.733,0.098-3.474,0.239-5.203c0.301-3.67,0.606-7.342,1.026-10.999c0.387-3.377,0.746-6.775,1.442-10.094
				c0.905-4.306,1.958-8.595,3.269-12.791c1.483-4.75,2.905-9.524,5.088-14.055c2.59-5.379,5.942-10.254,9.241-15.178
				c0.857-1.281,0.835-2.103-0.511-3.211c-0.659-0.541-4.664-2.525-5.78-3.276c-3.058-2.059-6.075-4.18-9.081-6.311
				c-3.603-2.557-7.223-5.093-10.751-7.747c-2.249-1.689-4.4-3.52-6.498-5.395c-2.151-1.923-3.538-3.478-5.423-5.647
				c-3.823-4.4-6.396-9.465-7.601-15.239c-1.053-5.041-0.546-9.924-0.17-15.081c3.697-50.838,62.233-83.046,81.894-88.508
				c5.808-1.283,12.123-0.204,15.116,0.168c27.033,1.169,85.397,60.224,82.361,90.907c-0.294,2.918-1.117,9.609-2.196,12.287
				c-2.423,6.156-10.121,16.757-10.549,17.389c-1.17,1.721-17.612,17.767-23.229,20.9c-3.686,2.417-6.833,3.872-8.927,5.963
				c-0.83,0.831-0.226,2.779,0.408,3.73c6.124,6.866,9.054,15.149,11.189,20.719c4.14,8.338,10.05,50.585,9.171,54.045
				c0.068,0.98,0.478,3.285-0.381,3.71c-4.935,2.237-15.66,2.544-15.66,2.544c0.091,4.939-0.072,3.443,0.191,8.373
				c0.164,3.005,0.51,5.914,0.897,8.906c0.48,3.717,0.548,4.659,1.035,8.373c0.214,1.621,0.346,4.237,0.618,5.843
				c0.262,1.529,0.562,4.252,1.219,5.768c0.133,0.307-0.039,0.832-0.223,1.176c-0.906,1.694-2.591,2.291-4.28,2.649
				c-3.188,0.671-8.637,2.08-11.865,2.504c-2.579,0.338-5.192,0.47-7.796,0.527c-3.164,0.072-6.335-0.08-9.502-0.048
				c-4.104,0.04-8.207,0.137-12.31,0.269c-1.149,0.035-2.112-0.273-3.007-0.954c-0.497-0.376-1.099-0.628-1.553-1.048
				L102.775,287.096z"/>
			<path opacity="0.3" fill-rule="evenodd" clip-rule="evenodd" fill="#F47527" d="M56.013,281.665
				c-1.196-0.345-2.573-0.973-3.198-1.127c-3.906-0.964-3.516-2.127-3.413-4.301c0.129-2.747,0.285-5.82,0.506-8.563
				c0.172-2.115,0.624-4.123,0.647-6.238c0.063-5.637-0.054-11.274,0.005-16.912c0.05-4.812,0.2-9.628,0.386-14.438
				c0.176-4.548,0.41-9.093,0.707-13.632c0.215-3.293,0.519-6.58,0.884-9.859c0.492-4.416,0.969-8.838,1.665-13.223
				c0.455-2.862,1.262-5.674,1.959-8.495c0.307-1.234,0.775-2.427,1.098-3.659c0.184-0.698,0.66-0.928,1.23-0.818
				c0.719,0.133-0.213,0.535-0.366,1.084c-0.714,2.562-1.524,5.107-2.065,7.709c-0.563,2.703-0.888,5.457-1.267,8.196
				c-0.486,3.506-0.981,7.011-1.36,10.531c-0.297,2.757-0.412,5.533-0.63,8.3c-0.172,2.216-0.389,4.43-0.566,6.646
				c-0.071,0.899-0.092,1.804-0.133,2.706c-0.156,3.361-0.397,6.719-0.442,10.08c-0.045,3.337,0.11,6.677,0.17,10.016
				c0.077,4.272,0.281,8.548,0.174,12.813c-0.077,3.082-0.62,6.151-0.869,9.231c-0.25,3.084-0.711,5.598-0.88,8.686
				c0.059-0.123-0.129,1.522,0.508,2.481C51.131,279.434,54.269,280.792,56.013,281.665z"/>
			<path opacity="0.3" fill-rule="evenodd" clip-rule="evenodd" fill="#F47527" d="M104.038,286.195c0,0-1.368-2.206-1.578-3.588
				c-0.264-2.471-0.586-5.046-0.469-7.376c0.184-3.65,0.541-7.292,0.731-10.94c0.142-2.674,0.109-5.355,0.202-8.032
				c0.079-2.392,0.311-4.781,0.316-7.173c0.009-4.042-0.03-8.084-0.196-12.121c-0.124-3.052-0.485-6.096-0.722-9.145
				c-0.088-1.142-0.14-2.285-0.185-3.43c-0.142-3.648-0.313-7.299-0.39-10.948c-0.039-1.806,0.092-3.616,0.177-5.421
				c0.244-5.179,0.453-10.353-0.197-15.523c-0.181-1.445-0.115-2.92-0.204-4.379c-0.178-2.875-0.417-5.746-0.567-8.622
				c-0.104-1.981-0.132-3.967-0.132-5.952c0.002-1.049-0.166-1.938-0.934-2.764c-1.138-1.223-0.987-2.128,0.086-4.01
				c0.311-0.549,0.932-0.114,1.021,0.188c0.072,0.243-0.194,0.583-0.383,1.606c-0.146,0.794,0.343,1.366,0.818,1.896
				c0.797,0.889,1.107,1.931,1.141,3.148c0.091,3.384,0.237,6.769,0.459,10.146c0.509,7.734,1.23,15.474,0.659,23.22
				c-0.357,4.844-0.265,9.661-0.039,14.485c0.221,4.723,0.712,9.433,0.937,14.153c0.41,8.496,0.565,16.997,0,25.498
				c-0.15,2.287-0.069,4.59-0.229,6.876c-0.215,3.076-0.625,6.137-0.822,9.212c-0.133,2.027-0.076,4.073-0.019,6.108
				c0.013,0.404-0.044,0.383,0.056,1.153C103.647,285.104,103.7,285.201,104.038,286.195z"/>
			<path opacity="0.3" fill-rule="evenodd" clip-rule="evenodd" fill="#F47527" d="M153.323,275.285
				c-0.354-1.59-0.438-3.238-0.65-4.859c-0.487-3.716-1.049-7.647-1.531-11.364c-0.387-2.991-0.581-6.068-0.742-9.074
				c-0.266-4.93-0.745-10.096-0.837-15.033c-0.12-6.444-0.812-12.838-0.757-19.28c0.054-6.488-0.349-12.934-1.169-19.356
				c-0.387-3.027-1.055-5.628-1.654-8.62c-0.17-0.854-0.685-1.288-1.106-2.09c-0.232-0.441-0.824-0.874-1.086-1.357
				c1.047-0.598,1.315-0.419,1.769,0.431c0.486,0.914,1.11,1.814,1.332,2.797c0.745,3.284,1.457,6.587,1.945,9.916
				c0.374,2.536,0.427,5.125,0.555,7.692c0.17,3.442,0.349,6.887,0.391,10.331c0.061,4.798,0.214,9.67,0.345,14.468
				c0.15,5.495,0.57,10.86,0.834,16.351c0.088,1.841-0.077,3.722,0.036,5.56c0.066,1.072,0.847,7.007,1.056,8.902
				c0.509,2.834,0.537,5.528,0.871,8.321c0.179,1.483,0.323,2.991,0.537,4.47c0.292,2.08,0.389,3.516,0.971,5.95
				c0.235,0.87,0.229,0.856,0.367,1.142C154.597,280.453,153.669,276.838,153.323,275.285z"/>
			<path display="none" fill-rule="evenodd" clip-rule="evenodd" d="M49.794,242.982c0.328,1.018-0.049,1.577-0.894,1.587
				c-3.879,0.047-7.773-0.01-11.122-2.348c-0.494-0.345-0.742-1.32-0.759-2.012c-0.03-1.279,0.227-2.562,0.305-3.847
				c0.116-1.912,0.141-3.828,0.277-5.736c0.358-5.031,0.765-10.058,1.132-15.089c0.439-6,1.339-11.948,2.821-17.761
				c1.413-5.542,3.163-11.005,4.965-16.436c1.601-4.824,4.043-9.272,6.807-13.531c1.398-2.153,2.848-4.275,4.282-6.408
				c0.722-1.071,0.668-1.666-0.432-2.439c-0.783-0.552-1.696-0.918-2.51-1.434c-1.701-1.074-3.396-2.165-5.058-3.299
				c-4.33-2.958-8.695-5.869-12.942-8.944c-2.724-1.972-5.304-4.149-7.873-6.327c-2.57-2.178-5.11-4.397-7.542-6.726
				c-3.097-2.964-5.479-6.424-7.27-10.375c-1.826-4.029-2.663-8.226-3.191-12.552c-0.602-4.919,0.261-9.663,1.755-14.283
				c1.705-5.27,3.525-10.51,5.548-15.663c1.42-3.615,3.259-7.067,4.922-10.587c1.409-2.982,2.763-5.992,4.269-8.927
				c2.197-4.284,4.769-8.325,8.078-11.868c2.135-2.285,4.08-4.757,6.307-6.945c2.327-2.285,4.871-4.354,7.356-6.474
				c1.926-1.644,3.885-3.253,5.87-4.825c2.124-1.681,4.222-3.41,6.462-4.926C65,22.344,68.646,19.85,72.49,17.728
				c2.707-1.493,5.728-2.427,8.635-3.54c1.78-0.683,3.596-1.273,5.417-1.832c3.735-1.148,7.589-1.516,11.453-1.215
				c3.113,0.242,6.248,0.672,9.282,1.398c2.62,0.628,5.137,1.729,7.654,2.732c3.811,1.518,7.595,3.109,11.371,4.717
				c2.229,0.948,4.487,1.867,6.62,3.007c4.249,2.271,8.506,4.546,12.593,7.088c2.826,1.757,5.424,3.899,8.029,5.987
				c3.89,3.117,7.765,6.263,11.52,9.538c3.201,2.793,6.337,5.695,8.653,9.313c2.292,3.581,4.543,7.188,6.729,10.836
				c1.537,2.564,3.018,5.169,4.371,7.834c1.662,3.267,2.808,6.737,3.477,10.348c0.64,3.45,0.587,6.936,0.228,10.402
				c-0.246,2.373-0.633,4.742-1.118,7.077c-0.309,1.484-0.768,2.975-1.416,4.342c-2.256,4.771-4.541,9.532-6.986,14.207
				c-1.199,2.299-2.825,4.368-4.166,6.599c-2.611,4.348-6.048,8.033-9.396,11.784c-2.749,3.079-5.499,6.161-8.354,9.144
				c-2.494,2.606-5.145,5.063-7.7,7.609c-1.229,1.226-2.396,2.514-3.594,3.766c-0.542,0.564-0.576,1.117-0.106,1.768
				c1.54,2.129,3.089,4.253,4.566,6.426c2.462,3.621,4.367,7.516,5.635,11.715c1.364,4.523,2.787,9.028,4.115,13.562
				c0.912,3.114,1.605,6.295,2.574,9.391c1.462,4.674,2.18,9.488,2.992,14.292c0.531,3.148,0.391,6.306,0.24,9.474
				c-0.182,3.82-0.24,7.65,0.44,11.443c0.198,1.094-0.165,1.957-1.026,2.633c-0.191,0.15-0.369,0.34-0.585,0.434
				c-1.764,0.76-3.473,1.806-5.317,2.171c-2.41,0.479-4.927,0.434-7.4,0.553c-0.272,0.013-0.564-0.371-0.848-0.571
				c0.247-0.197,0.48-0.534,0.746-0.563c0.964-0.108,1.955-0.016,2.907-0.177c2.35-0.398,4.69-0.865,7.021-1.373
				c0.629-0.137,1.219-0.492,1.81-0.784c0.855-0.424,1.036-1.075,0.967-2.056c-0.25-3.604-0.694-7.242-0.442-10.824
				c0.457-6.562-0.415-12.95-2.022-19.226c-2.164-8.454-4.607-16.84-7.068-25.216c-0.888-3.022-2.016-6.001-3.33-8.863
				c-0.915-1.992-2.305-3.773-3.538-5.611c-1.412-2.099-2.915-4.139-4.32-6.242c-0.635-0.95-0.499-2.119,0.332-2.95
				c2.094-2.091,4.311-4.062,6.34-6.209c4.247-4.493,8.437-9.042,12.592-13.619c2.615-2.884,5.199-5.806,7.647-8.831
				c1.3-1.609,2.252-3.498,3.421-5.219c0.43-0.632,1.113-1.09,1.536-1.726c0.81-1.213,1.614-2.444,2.247-3.752
				c2.455-5.063,5.067-10.068,7.166-15.277c1.078-2.679,1.398-5.724,1.693-8.64c0.289-2.86,0.402-5.804,0.062-8.646
				c-0.349-2.892-1.125-5.782-2.101-8.537c-1.98-5.596-5.335-10.49-8.442-15.499c-1.39-2.244-2.727-4.523-4.132-6.758
				c-2.143-3.397-5.006-6.177-8.025-8.748c-4.676-3.979-9.602-7.67-14.252-11.678c-4.103-3.537-8.885-5.917-13.491-8.626
				c-4.354-2.562-8.928-4.582-13.655-6.344c-4.78-1.78-9.408-3.975-14.206-5.698c-2.488-0.895-5.18-1.345-7.819-1.671
				c-2.993-0.371-6.035-0.562-9.047-0.477c-1.722,0.048-3.478,0.654-5.127,1.259c-3.949,1.448-7.937,2.844-11.729,4.641
				c-3.149,1.493-6.066,3.487-9.041,5.333c-1.623,1.005-3.199,2.101-4.713,3.264c-2.448,1.879-4.852,3.816-7.23,5.784
				c-3.345,2.768-6.714,5.51-9.942,8.411c-1.779,1.597-3.333,3.456-4.911,5.268c-2.008,2.304-4.136,4.543-5.849,7.057
				c-1.948,2.861-3.583,5.948-5.195,9.02c-2.032,3.871-4.061,7.76-5.802,11.766c-2.062,4.741-3.908,9.581-5.674,14.442
				c-1.263,3.483-2.389,7.034-3.306,10.622c-1.282,5.01-0.884,10.043,0.169,15.082c1.205,5.774,3.779,10.838,7.602,15.239
				c1.886,2.169,4.082,4.082,6.232,6.003c2.098,1.876,4.249,3.707,6.498,5.396c3.531,2.655,7.149,5.19,10.751,7.745
				c3.008,2.132,6.025,4.253,9.083,6.312c1.117,0.751,2.368,1.303,3.548,1.958c0.756,0.42,1.572,0.775,2.23,1.319
				c1.347,1.108,1.368,1.931,0.511,3.209c-3.298,4.925-6.649,9.802-9.241,15.18c-2.182,4.53-3.606,9.304-5.088,14.054
				c-1.311,4.196-2.365,8.486-3.269,12.791c-0.697,3.319-1.056,6.719-1.443,10.094c-0.419,3.659-0.724,7.33-1.026,11
				c-0.142,1.729-0.137,3.47-0.239,5.201c-0.189,3.232-0.366,6.467-0.634,9.692c-0.095,1.148,0.428,1.76,1.336,2.217
				c2.236,1.126,4.691,1.322,7.112,1.606C48.069,243.373,48.904,243.099,49.794,242.982z"/>
			<path display="none" fill-rule="evenodd" clip-rule="evenodd" d="M112.026,289.204c-0.395,0.593-0.583,0.875-0.807,1.211
				c1.207,1.093,2.667,1.356,4.146,1.498c3.973,0.385,7.945,0.881,11.927,1.022c2.268,0.08,4.556-0.485,6.839-0.682
				c1.761-0.149,3.53-0.182,5.151-1.012c0.817-0.418,1.812-0.626,1.785-1.892c-0.002-0.162,0.6-0.507,0.887-0.473
				c0.767,0.087,0.896,0.68,0.712,1.328c-0.323,1.134-0.686,2.258-1.022,3.386c-1.923,6.418-3.261,12.936-3.513,19.654
				c-0.126,3.314,1.216,6.072,3.076,8.648c1.441,1.996,3.158,3.823,4.386,5.938c1.847,3.185,2.822,6.678,1.063,10.228
				c-1.13,2.278-3.321,3.432-5.679,4.273c-3.002,1.071-5.916,0.194-8.825-0.328c-2.452-0.439-4.911-0.971-7.27-1.754
				c-2.215-0.734-4.318-1.814-6.437-2.817c-1.472-0.694-2.911-1.468-4.316-2.289c-2.225-1.308-3.426-3.385-3.629-5.869
				c-0.238-2.938-0.238-5.903-0.209-8.854c0.051-5.048,0.313-10.095,0.269-15.141c-0.022-2.658-0.497-5.312-0.78-7.967
				c-0.211-1.964-0.583-3.926-0.596-5.89c-0.006-0.737,0.718-1.551,1.276-2.183C110.666,289.01,111.351,289.204,112.026,289.204z
				 M140.381,292.349c-9.791,2.565-19.413,2.271-29.16-0.067c0.126,1.708,0.207,3.297,0.369,4.879
				c0.19,1.858,0.494,3.704,0.666,5.564c0.127,1.376,0.174,2.768,0.16,4.152c-0.027,2.922-0.136,5.841-0.178,8.763
				c-0.06,4.14-0.236,8.287-0.074,12.417c0.098,2.459,1.174,4.729,3.467,5.966c2.894,1.561,5.821,3.13,8.89,4.273
				c3.207,1.193,6.596,1.902,9.913,2.794c1.965,0.53,3.921,0.697,5.964,0.211c3.102-0.737,6.337-3.999,5.466-7.581
				c-0.435-1.788-0.588-3.571-2.015-5.135c-1.757-1.927-2.925-4.376-4.46-6.521c-2.029-2.84-3.187-5.911-2.95-9.437
				c0.344-5.128,1.195-10.179,2.419-15.164C139.276,295.766,139.853,294.109,140.381,292.349z"/>
			<path display="none" fill-rule="evenodd" clip-rule="evenodd" d="M61.236,286.623c0.993,0.277,1.971,0.618,2.978,0.818
				c3.468,0.694,6.943,1.355,10.424,1.992c1.023,0.188,2.069,0.329,3.108,0.355c3.991,0.104,7.984,0.207,11.975,0.177
				c0.74-0.006,1.458-0.661,2.217-0.932c0.364-0.13,0.798-0.063,1.202-0.088c-0.037,0.312-0.029,0.635-0.119,0.927
				c-0.131,0.418-0.439,0.8-0.494,1.219c-0.486,3.789-0.898,7.589-1.406,11.375c-0.548,4.1-1.092,8.202-1.792,12.277
				c-0.69,4.031-1.533,8.035-2.386,12.035c-0.586,2.744-2.4,4.555-4.648,6.142c-2.716,1.918-5.602,3.502-8.691,4.618
				c-3.854,1.395-7.827,2.466-12.001,2.239c-1.865-0.101-3.744-0.195-5.575-0.519c-0.864-0.152-1.593-0.949-2.456-1.259
				c-1.708-0.61-2.09-1.979-2.292-3.529c-0.428-3.298-0.032-6.49,1.511-9.442c0.767-1.464,1.806-2.79,2.772-4.141
				c2.426-3.391,4.906-6.742,7.323-10.139c1.741-2.449,1.476-5.207,0.788-7.858c-1.266-4.876-2.749-9.694-4.125-14.541
				c-0.15-0.526-0.381-1.13-0.252-1.609c0.136-0.504,0.577-1.139,1.033-1.302C61.322,285.082,61.612,285.465,61.236,286.623z
				 M61.394,287.98c0.303,1.08,0.496,1.816,0.715,2.546c1.336,4.476,2.935,8.88,3.561,13.543c0.261,1.949,0.519,3.913-0.447,5.731
				c-2.199,4.134-4.833,8.002-7.988,11.447c-2.987,3.263-4.388,6.899-4.208,11.342c0.125,3.088,2.217,4.763,4.509,5.415
				c3.148,0.896,6.358,0.44,9.516-0.018c1.732-0.251,3.418-0.843,5.117-1.308c4.19-1.147,7.904-3.222,11.15-6.069
				c0.848-0.741,1.624-1.848,1.888-2.92c0.99-4.003,1.844-8.048,2.574-12.106c0.505-2.804,0.686-5.664,1.074-8.489
				c0.545-3.986,1.166-7.96,1.718-11.946c0.176-1.273,0.238-2.562,0.361-3.947c-0.825,0.065-1.341,0.1-1.859,0.15
				c-0.965,0.095-1.935,0.32-2.894,0.275c-2.809-0.133-5.613-0.355-8.417-0.571c-1.138-0.089-2.288-0.168-3.403-0.39
				C70.125,289.821,65.903,288.918,61.394,287.98z"/>
			<path opacity="0.3" fill-rule="evenodd" clip-rule="evenodd" fill="#F47527" d="M84.157,252.22 M86.248,256.729
				c-1.487,0.249-3.014,0.3-4.526,0.34c-1.69,0.048-3.39,0.077-5.075-0.033c-3.509-0.231-7.011-0.561-10.74-0.866
				c-0.102,2.123-0.301,4.41-0.295,6.695c0.005,1.834,0.147,3.685,0.45,5.492c0.15,0.899,0.742,1.746,1.229,2.562
				c0.239,0.398,0.697,0.758,0.144,1.11c-0.333,0.212-0.976,0.319-1.272,0.136c-1.407-0.863-2.016-2.275-2.188-3.849
				c-0.583-5.355-0.281-10.69,0.507-16.003c0.089-0.605,0.31-1.222,0.609-1.756c0.393-0.704,0.967-1.098,1.893-0.815
				c2.816,0.858,5.7,1.104,8.648,1.03c3.268-0.077,6.539,0.057,9.807,0.135l-1.281,1.313c-2.43-0.008-4.864,0.07-7.29-0.05
				c-3.413-0.171-6.819-0.491-10.396-0.76c-0.093,0.754-0.219,1.766-0.369,2.965c7.029,1.518,13.961,1.435,20.91,1.21
				L86.248,256.729z"/>
			<path opacity="0.3" fill-rule="evenodd" clip-rule="evenodd" fill="#F47527" d="M142.854,251.46 M143.636,255.84
				c-4.947,1.45-9.996,0.875-15.021,0.667c-0.92-0.039-1.827-0.309-2.945-0.507c0,1.448,0.001,2.66,0,3.874
				c-0.003,2.532-0.077,5.065,0.016,7.593c0.054,1.462,0.369,2.884,1.765,3.819c0.286,0.191,0.492,1.015,0.322,1.263
				c-0.379,0.551-0.891,0.258-1.428-0.082c-1.863-1.182-2.393-3.045-2.484-5.009c-0.15-3.198-0.065-6.407-0.136-9.612
				c-0.044-1.943-0.151-3.889-0.316-5.827c-0.105-1.235,0.248-1.617,1.627-1.579c2.576,0.077,5.154,0.185,7.729,0.15
				c2.257-0.031,4.51-0.232,6.764-0.369c0.855-0.052,1.715-0.102,2.564-0.206c1.297-0.16,2.505,0.104,3.555,0.844l-2.793,0.602
				c-2.456,0.01-4.911,0.057-7.366,0.113c-1.558,0.034-3.112,0.138-4.671,0.166c-1.761,0.028-3.521,0.007-5.341,0.007
				c-0.052,2.889,0.051,2.933,2.24,3.346c3.869,0.733,7.762,0.437,11.64,0.323c1.726-0.053,3.436-0.642,5.217-1.001L143.636,255.84z
				"/>
			<path fill-rule="evenodd" clip-rule="evenodd" fill="#F4E00A" stroke="#F4E00A" stroke-miterlimit="10" d="M140.611,288.878
				c2.393,0,0.764,6.063,0.308,7.863c-1.334,5.29-2.262,10.647-2.639,16.087c-0.257,3.739,1.003,6.999,3.217,10.01
				c3.517,4.072,6.738,7.879,6.038,11.803c-0.879,3.42-3.178,6.909-6.558,7.693c-2.226,0.516-3.761,0.688-5.904,0.125
				c-3.617-0.947-7.311-1.697-10.806-2.965c-3.347-1.213-6.538-2.877-9.69-4.531c-2.5-1.312-4.021-3.774-4.128-6.383
				c-0.178-4.383-0.157-8.158-0.069-12.721c0.062-3.099-0.206-6.215-0.175-9.312c0.013-1.469-0.037-2.944-0.175-4.406
				c-0.187-1.972,0.041-3.755-0.166-5.726c-0.177-1.676-0.435-7.538,2.036-7.538C111.027,292.783,139.007,294.379,140.611,288.878z"
				/>
			<path fill-rule="evenodd" clip-rule="evenodd" fill="#F4E00A" stroke="#F4E00A" stroke-miterlimit="10" d="M62.128,287.211
				c0.207,2.396,10.527,3.018,14.5,3.683c1.115,0.223,13.31,1.46,15.844-0.485c0.678,0.123-0.238,3.716-0.413,4.99
				c-0.553,3.986-1.171,7.96-1.718,11.945c-0.388,2.825-0.569,5.686-1.074,8.488c-0.73,4.06-1.537,7.703-2.527,11.706
				c-0.265,1.073-1.088,2.579-1.934,3.323c-3.248,2.846-8.806,6.395-12.998,7.543c-1.699,0.465-3.383,1.057-5.116,1.31
				c-3.159,0.457-6.366,0.912-9.517,0.016c-2.29-0.651-6.274-2.324-6.399-5.415c-0.18-4.441,1.579-9.804,4.566-13.066
				c3.153-3.445,5.79-7.313,7.988-11.447c0.966-1.818,0.708-3.782,0.446-5.731c-0.625-4.663-0.691-6.983-2.027-11.459
				C61.531,291.882,59.492,287.211,62.128,287.211z"/>
			<g>
				<path opacity="0.7" fill-rule="evenodd" clip-rule="evenodd" fill="#F47527" d="M104.922,169.286c-1.875,0-1.875,2.907,0,2.907
					C106.796,172.193,106.796,169.286,104.922,169.286z"/>
				<path opacity="0.7" fill-rule="evenodd" clip-rule="evenodd" fill="#F47527" d="M107.539,196.127c-1.874,0-1.874,2.907,0,2.907
					C109.414,199.034,109.414,196.127,107.539,196.127z"/>
				<path opacity="0.7" fill-rule="evenodd" clip-rule="evenodd" fill="#F47527" d="M107.441,221.417c-1.873,0-1.873,2.907,0,2.907
					C109.316,224.324,109.316,221.417,107.441,221.417z"/>
				<path opacity="0.7" fill-rule="evenodd" clip-rule="evenodd" fill="#F47527" d="M108.506,248.937c-1.873,0-1.873,2.907,0,2.907
					C110.381,251.844,110.381,248.937,108.506,248.937z"/>
				<path opacity="0.7" fill-rule="evenodd" clip-rule="evenodd" fill="#F47527" d="M108.023,274.421c-1.874,0-1.874,2.907,0,2.907
					S109.897,274.421,108.023,274.421z"/>
			</g>
		</g>
	</g>
	<g>
		<g>
			<path fill-rule="evenodd" clip-rule="evenodd" fill="#F2D6C7" d="M173.95,109.165c-0.102-1.473-0.379-2.074-1.656-3.166
				c-1.199-1.025-2.74-1.307-4.133-0.281c-0.59,0.344-1.549,0.73-2.072,1.1c-0.398,0.283-1.697,1.584-1.947,1.957
				c-0.254-0.35,0.287-1.594-0.092-1.822c-0.439-53.141-26.695-59.082-57.967-58.811c-44.256,0.383-69.776,22.879-65.964,57.439
				c-0.277-0.125-3.556-1.582-3.907-1.611c-0.339-0.088-0.778-0.115-1.128-0.119c-0.01,0-0.428,0.01-0.502,0.01
				c-0.28,0-0.529,0.027-0.77,0.086c-0.41,0.008-0.795,0.156-1.234,0.369c-2.314,1.115-2.936,3.688-2.755,5.844
				c0.05,0.467,0.234,1.057,0.311,1.307c0.067,0.225,0.46,1.211,0.787,1.537c0.219,0.285,0.603,0.822,1.114,1.324
				c0.379,0.379,1.022,0.893,1.595,1.305c0.368,0.277,1.749,1.072,2.128,1.352c0.131,0.098,1.363,1.031,1.729,1.371
				c0.332,0.227,1.054,0.926,1.562,1.512c0.261,0.295,0.766,1.275,1.145,2.045c0.098,0.26,1.736,3.164,1.953,3.707
				c0.141,0.348,1.054,2.387,1.302,3.314c0.302,0.85,0.444,1.434,0.832,2.439c0.003,0.014,1.729,5.125,2.055,5.629
				c0.074,0.174,2.017,4.117,2.987,5.668c1.348,2.148,4.979,6.498,6.283,7.418c2.417,1.703,5.01,3.801,7.641,5.199
				c-0.498,0.225-6.911,8.225-7.213,8.742c-3.702,6.396-2.246,4.566-5.66,11.184c-7.246,14.043-13.406,45.43-11.406,66.762
				c-0.322,3.4-1.853,8.293-1.916,10.621c-0.097,3.502-0.037,6.324,2.878,8.381c4.077,2.877,8.251-1.1,10.835-4.943
				c0.33,1.604,1.078,3.301,2.635,2.582c1.113-0.516,0.877-2.172,0.744-3.121c-0.051-0.359-0.116-0.746-0.211-1.125
				c-0.172-0.605-0.094-0.945-0.172-1.414c0,0-0.059-0.775-0.059-0.805c-0.172-2.777-0.389-5.557-0.64-8.33
				c-0.195-2.166-0.515-4.322-0.683-6.488c-0.4-5.164-0.829-10.326-1.08-15.496c-0.15-3.141-0.069-6.299,0.049-9.443
				c0.124-3.254,0.404-6.504,0.647-9.754c0.116-1.535,0.252-3.072,0.476-4.598c0.447-3.043,0.973-6.076,1.448-9.115
				c0.62-3.961,1.946-7.684,3.83-11.211c0.155-0.287,0.594-0.426,0.901-0.635c0.023,0.381-0.898,0.594-1.006,0.932
				c-0.621,1.992-1.857,3.77-2.346,5.793c-1.348,5.596-2.641,11.203-3.152,16.939c-0.322,3.602-0.611,7.205-0.824,10.811
				c-0.121,2.047-0.066,4.104-0.072,6.156c-0.004,1.107,0.021,2.215,0.052,3.32c0.077,2.77,0.124,5.535,0.262,8.301
				c0.101,2.012,0.329,4.016,0.495,6.023c0.069,0.85,0.057,1.975,0.383,2.705c0.576,1.297,0.24,3.047,0.479,4.35
				c0.271,1.494,0.186,2.82,0.393,4.332c0.395,2.869,0.235,5.52,0.77,8.365c0.785,4.197,2.121,9.213,2.93,13.404
				c0.084,0.438,0.363,0.92,0.467,1.344c0.395,1.635,0.9,3.242,1.268,4.881c0.449,1.996,0.789,4.021,1.195,6.027
				c0.484,2.381,0.98,4.758,1.488,7.131c0.404,1.91,2.358,8.775,2.822,10.33c0.625,2.092,1.193,4.207,1.719,6.328
				c0.223,0.91,0.561,1.938,0.34,2.777c-0.409,1.559-1.076,3.08-1.854,4.502c-0.441,0.809-1.076,1.51-1.693,2.221
				c-0.142,0.076-0.285,0.158-0.428,0.264c-6.324,4.65-9.936,11.76-10.099,19.814c-0.043,2.16,5.349,5.277,6.802,5.576
				c3.773,0.779,7.908-0.645,11.365-2.031c2.171-0.875,4.33-1.795,6.424-2.838c3.593-1.789,7.272-5.152,8.999-8.9
				c1.164-2.521,1.498-5.096,1.42-7.787c-0.023-0.828-0.285-1.67-0.201-2.482c0.25-2.482,0.57-4.963,0.951-7.432
				c0.432-2.789,0.908-5.574,1.455-8.344c0.533-2.705,1.189-5.389,1.77-8.084c0.771-3.588,1.502-7.182,2.283-10.766
				c0.551-2.523,1.217-5.023,1.719-7.555c0.654-3.277,1.156-6.58,1.799-9.859c0.393-2.008,0.816-4.025,1.428-5.973
				c0.521-1.65,0.465-1.814,1.215-3.355c0.979-2.002,2.83-2.816,4.398-0.648c1.369,1.891,1.541,3.26,2.129,5.428
				c0.672,2.484,1.4,4.67,1.998,7.18c0.682,2.859,1.611,5.672,2.107,8.561c1.068,6.193,1.391,12.467,1.686,18.738
				c0.209,4.404,0.373,8.824,0.912,13.195c0.475,3.846-0.518,8.457-1.82,12.031c-0.734,2.016-1.225,4.102-0.852,6.254
				c0.744,4.279,3.436,7.271,6.787,9.719c2.887,2.109,6.123,3.596,9.426,4.965c4.854,2.012,10.676,3.314,14.836,0.523
				c2.17-1.459,3.494-3.742,3.613-6.215c0.113-2.299-0.658-4.328-1.77-6.355c-1.646-2.99-2.928-6.18-4.479-9.227
				c-1.562-3.07-2.039-6.256-1.561-9.648c0.418-2.947,0.648-5.924,1.125-8.861c0.588-3.619,1.338-7.209,2.025-10.811
				c0.617-3.221,1.24-6.439,1.871-9.654c0.379-1.918,0.852-3.822,1.16-5.752c0.623-3.877,1.223-7.76,1.729-11.652
				c0.518-3.992,1.604-7.756,2.039-11.76c0.244-2.26,0.432-4.525,0.668-6.785c0.271-2.605,0.596-5.207,0.846-7.816
				c0.254-2.635,0.471-5.277,0.654-7.918c0.209-3.035,0.475-6.074,0.523-9.113c0.119-7.576,0.248-15.158-0.576-22.711
				c-0.227-2.066-0.477-4.131-0.826-6.178c-0.34-1.99-0.848-3.953-1.211-5.943c-0.057-0.314-1.531-1.033-1.32-1.08
				c0.34-0.074,0.789,0.17,1.133,0.379c0.166,0.1,0.238,0.416,0.283,0.65c0.553,2.768,1.158,5.527,1.619,8.311
				c0.641,3.861,0.953,7.752,0.93,11.676c-0.029,4.973,0.16,9.951,0.041,14.922c-0.096,3.977-0.443,7.951-0.799,11.918
				c-0.469,5.238-1.068,10.467-1.572,15.703c-0.01,0.102,0,0.205,0.018,0.311c-0.031,0.121-0.047,0.254-0.031,0.408
				c0.006,0.064,0.008,0.129,0.014,0.195c-0.006,0.055-0.018,0.109-0.014,0.17c0.039,2.291-0.824,4.555-0.658,6.85
				c0.094,1.24,1.031,1.895,1.857,1.57c0.285-0.014,0.566-0.129,0.803-0.33c-0.236,0.201-0.145,0.113-0.057,0.066
				c0.115-0.059,0.219-0.146,0.307-0.24c0.07-0.074,0.131-0.162,0.184-0.25c0.127-0.166,0.238-0.355,0.328-0.582
				c0.121-0.299,0.164-0.621,0.189-0.947c0.123-0.281,0.201-0.576,0.254-0.881c1.75,5.391,6.811,10.955,12.703,7.188
				c4.707-3.012,3.551-9.193,2.443-13.984c-0.355-2.137-1.881-6.633-1.957-6.795c-0.891-2.287-0.586-2.734-0.785-4.131
				c0.104-3.621,0.41-9.959,0.299-15.131c-0.082-3.922-0.656-13.912-0.658-14.227c-0.049-5.131-1.723-9.334-2.273-11.697
				c-0.662-2.822-1.6-5.283-2.258-7.672c-0.625-2.396-1.979-7.037-2.396-7.994c-1.502-3.973-3.137-7.672-5.463-11.246
				c-1.277-1.961-2.781-3.779-4.402-5.461c-0.289-0.301-0.605-0.58-0.93-0.852c-1.238-1.594-3.025-3.043-4.617-4.262
				c2.123-1.104,4.303-2.084,6.354-3.566c1.234-0.889,4.248-2.869,5.449-3.863c0.066-0.033,1.271-0.84,2.398-1.906
				c0.742-0.703,1.264-1.312,2.197-2.34c1.75-1.928,1.842-2.061,2.592-3.109c0.229-0.283,0.898-1.32,1.441-2.664
				c1.365-3.359,2.99-9.191,4.037-12.613c0.676-2.004,1.318-3.568,2.25-4.838c1.043-1.432,3.082-4.414,3.098-4.432
				c0.186-0.217,0.912-1.154,1.143-1.473c0.016-0.02,0.887-1.082,1.344-1.65c0.707-1,1.166-2.129,1.309-3.396
				C173.942,110.423,173.959,109.358,173.95,109.165z M63.246,155.286"/>
			<path fill-rule="evenodd" clip-rule="evenodd" fill="#F4D0B8" d="M100.752,157.858c-3.541-0.125-6.76-1.643-10.17-2.439
				c-4.127-0.963-8.353-1.391-12.517-2.148c-3.697-0.676-5.277,4.977-1.561,5.654c1.262,0.23,2.527,0.432,3.795,0.629
				c0.287,0.301,0.648,0.559,1.095,0.74c6.244,2.566,12.645,3.398,19.357,3.43C104.545,163.743,104.52,157.987,100.752,157.858z"/>
		</g>
		<g>
			<path opacity="0.4" fill-rule="evenodd" clip-rule="evenodd" fill="#F4782C" d="M105.924,123.704
				c-0.18-0.59-0.52-0.969-0.943-1.217c-0.404-0.311-0.885-0.484-1.375-0.391c-0.166-0.018-0.336-0.027-0.506-0.027
				c-0.346,0-1.451,1.062-0.75,0.77c0.812-0.338,2.018,0.152,2.559,1.121c0.01,0.02,0.377,0.857,0.059,1.27
				C104.85,125.378,106.02,124.019,105.924,123.704z"/>
			<path fill-rule="evenodd" clip-rule="evenodd" fill="#423B3E" d="M103.833,125.737c0.562-0.244,1.588-1.221,1.785-1.59
				c0.246-0.457,0.049-0.975-0.613-1.467c-0.473-0.537-1.441-0.635-2.139-0.158c-0.547,0.377-1.014,0.699-1.215,1.672
				c-0.129,0.102-0.088,0.084-0.201,0.016c0.105-0.359,0.139-0.869,0.395-1.166c1.186-1.379,2.729-1.604,3.863-0.119
				c0.559,0.732,0.238,1.443-0.34,2.047C104.92,125.438,103.688,126.616,103.833,125.737z"/>
		</g>
		<g>
			<g>
				<path fill-rule="evenodd" clip-rule="evenodd" fill="#423B3E" d="M91.04,143.45c0.305,0.102,0.887,0.941,1.16,1.1
					c4.543,3.092,8.547,3.578,15.496,3.285c2.744-0.279,5.451-1.111,7.697-2.766c0.352-0.238,0.613-0.34,0.924-0.807
					c0.311-0.312,0.389-0.918,0.57-1.217c0.365-0.174,0.537,0.258,0.455,0.461c-0.244,0.625-0.549,1.346-1.057,1.723
					c-2.059,1.525-4.379,2.496-6.932,2.881c-3.506,0.529-6.986,0.346-10.465-0.268c-2.611-0.459-4.922-1.646-7.047-3.186
					c-0.371-0.268-0.619-0.643-0.92-1.008C90.78,143.411,90.938,143.411,91.04,143.45z"/>
			</g>
			<path fill-rule="evenodd" clip-rule="evenodd" fill="#423B3E" d="M74.628,111.034c-0.074,0.973-0.883,1.748-1.856,1.748l0,0
				c-0.976,0-1.425-0.758-1.767-1.764c-0.163-0.484-0.191-0.887-0.221-1.83c-0.017-0.459,0.141-1.855,0.141-1.855
				c0.109-0.973,0.871-1.738,1.847-1.738l0,0c0.974,0,1.709,0.738,1.856,1.756c0,0,0.114,0.549,0.114,1.838
				C74.743,109.647,74.664,110.573,74.628,111.034z"/>
			<path fill-rule="evenodd" clip-rule="evenodd" fill="#423B3E" d="M137.153,111.034c-0.076,0.973-0.885,1.748-1.859,1.748l0,0
				c-0.973,0-1.424-0.758-1.766-1.764c-0.162-0.484-0.191-0.887-0.221-1.83c-0.014-0.459,0.141-1.855,0.141-1.855
				c0.111-0.973,0.873-1.738,1.846-1.738l0,0c0.975,0,1.709,0.738,1.859,1.756c0,0,0.115,0.549,0.115,1.838
				C137.268,109.647,137.186,110.573,137.153,111.034z"/>
		</g>
		<g id="boy">
			<g>
				<path display="none" fill-rule="evenodd" clip-rule="evenodd" d="M125.252,316.009c1.035,0.127,2.062,0.305,3.127,0.463
					c-0.4-2.061,0.02-2.918,1.887-3.828c2.279-1.109,4.605-1.617,7.021-0.4c0.623,0.314,1.053,0.686,0.965,1.523
					c-0.059,0.561,0.145,1.168,0.322,1.725c0.072,0.219,0.393,0.363,0.602,0.537c0.512,0.424,1.203,0.76,1.457,1.305
					c0.129,0.275-0.551,0.91-0.822,1.406c-0.143,0.258-0.324,0.6-0.266,0.85c0.523,2.15,1.469,4.109,2.762,5.906
					c1.16,1.607,2.35,3.191,3.463,4.832c1.16,1.717,1.355,3.695,1.031,5.656c-0.469,2.834-1.576,5.398-4.184,6.943
					c-0.975,0.576-2.092,1.033-3.199,1.246c-4.156,0.807-7.918-0.4-11.457-2.508c-3.885-2.312-7.77-4.629-11.639-6.965
					c-1.635-0.984-3.422-1.822-4.805-3.094c-2.729-2.506-3.188-5.846-2.797-9.385c0.307-2.756,0.537-5.518,0.775-8.279
					c0.145-1.701,1.57-3.238,3.105-3.158c0.195,1.576,1.107,2.436,2.508,2.969 M111.483,313.472c-0.25,2.387-0.543,4.779-0.74,7.176
					c-0.135,1.629-0.414,3.318-0.141,4.896c0.48,2.795,1.955,4.99,4.607,6.398c3.93,2.094,7.764,4.375,11.633,6.584
					c0.779,0.445,1.533,0.939,2.48,1.521c0.602-7.611,5.076-11.146,12.143-11.975c-1.109-2.504-2.729-0.529-4.006-0.879
					c-0.189,1.082-0.754,1.449-1.574,1.146c-0.861-0.318-2.289,0.324-2.516,1.271c-0.25,1.055-0.881,1.355-1.805,1.152
					c-0.414-0.09-0.992-0.381-1.084-0.697c-0.094-0.328,0.291-0.814,0.52-1.199c0.111-0.189,0.346-0.305,0.521-0.453
					c-0.043-0.076-0.09-0.154-0.135-0.232c-0.248,0.072-0.498,0.143-0.748,0.207c-0.805,0.207-1.611-0.232-1.779-1.041
					c-0.162-0.791,0.297-1.229,1.016-1.424c0.299-0.084,0.654-0.049,0.904-0.199c0.275-0.166,0.574-0.451,0.656-0.74
					c0.109-0.412,0.025-0.871,0.025-1.311c-0.43,0.145-0.611,0.406-0.842,0.617c-0.445,0.41-0.865,0.922-1.398,1.158
					c-0.717,0.316-1.635-0.297-1.791-1.037c-0.164-0.781,0.361-1.369,1.184-1.545c1.049-0.221,2.07-0.57,3.066-0.852
					c-0.156-1.148-0.521-1.473-1.52-1.268c-0.729,0.154-1.607,0.027-2.314-0.244c-1.133-0.436-1.039-1.5-0.777-2.521
					C121.713,316.675,115.993,317.056,111.483,313.472z M140.534,329.692c-2.082,0.014-4.352,1.041-6.314,2.723
					c-2.469,2.119-2.934,5.141-3.387,8.125c-0.035,0.232,0.262,0.658,0.506,0.762c1.09,0.473,2.188,0.992,3.338,1.244
					c2.158,0.48,4.295-0.018,6.396-0.506c0.521-0.121,1.094-0.369,1.469-0.736c2.326-2.289,2.932-5.127,2.32-8.234
					C144.467,331.06,142.862,329.71,140.534,329.692z M134.104,312.956c-1.17,0.289-2.297,0.766-3.414,1.23
					c-0.23,0.096-0.52,0.576-0.449,0.758c0.125,0.334,0.463,0.773,0.764,0.814c0.893,0.121,1.816,0.012,2.514,0.795
					c0.113,0.129,0.475,0.119,0.693,0.062c0.834-0.215,1.656-0.475,2.562-0.738 M135.446,324.692
					c0.307,1.014,0.662,1.439,1.529,1.205c0.869-0.232,1.76-0.389,2.881-0.629c-0.443-0.453-0.732-0.99-1.002-0.98
					C137.741,324.329,136.633,324.536,135.446,324.692z M137.733,322.772c-0.832-1.281-1.414-1.301-3.324-0.109
					c0.303,0.27,0.596,0.736,0.83,0.707C136.053,323.272,136.842,323.001,137.733,322.772z M129.875,317.913
					c-0.215-0.023-0.426-0.043-0.639-0.062c-0.086,0.426-0.242,0.855-0.215,1.275c0.004,0.098,0.621,0.158,0.955,0.236
					C129.942,318.88,129.909,318.396,129.875,317.913z M134.295,326.87c-0.277-0.426-0.506-0.77-0.732-1.115
					c-0.109,0.023-0.215,0.049-0.324,0.072c-0.039,0.609-0.078,1.217-0.131,2.076C133.606,327.47,133.903,327.21,134.295,326.87z"/>
				
					<path fill-rule="evenodd" clip-rule="evenodd" fill="#FFFFFF" stroke="#4C4B4B" stroke-width="0.2835" stroke-miterlimit="10" d="
					M143.438,327.903c-0.906,0.266-6.727,1.51-7.621,1.391c-2.105-0.744-7.445-12.625-7.57-12.957
					c-0.008-0.881,0.283-1.191,0.486-1.533c0.77-1.199,3.475-1.855,4.982-2.021c1.424-0.348,4.098,0.328,4.268,1.758
					C137.983,319.269,143.362,327.499,143.438,327.903z"/>
				
					<path fill-rule="evenodd" clip-rule="evenodd" fill="#FFFFFF" stroke="#4C4B4B" stroke-width="0.2835" stroke-miterlimit="10" d="
					M112.602,310.784c-0.334,3.979,8.889,7.486,14.33,5.799c2.896-0.951,5.242,12.174,10.244,12.398
					c-6.457,3.066-7.369,5.816-7.967,13.428c-0.949-0.582-1.701-1.076-2.482-1.52c-3.869-2.211-7.891-5.238-11.822-7.33
					c-3.195-1.67-5.625-3.766-6.109-6.559c-0.27-1.58,0.084-6.01,0.221-7.639C109.213,316.966,110.237,310.048,112.602,310.784z"/>
				
					<path fill-rule="evenodd" clip-rule="evenodd" fill="#FFFFFF" stroke="#4C4B4B" stroke-width="0.2835" stroke-miterlimit="10" d="
					M54.306,322.755c-0.02,0.162,9.973-12.928,9.996-13.016c0.668-2.602,0.689-2.652,3.623-1.654
					c1.608,0.547,3.523,1.084,5.107,1.697c5.421,2.096-8.494,14.549-9.156,16.59C60.468,326.056,57.203,324.972,54.306,322.755z"/>
				
					<path fill-rule="evenodd" clip-rule="evenodd" fill="#FFFFFF" stroke="#4C4B4B" stroke-width="0.2835" stroke-miterlimit="10" d="
					M68.162,339.313c0.006-0.584,0.061-1.17,0.011-1.748c-0.247-2.793-0.831-5.512-2.024-8.064c-0.334-0.707-2.223-1.816-2.6-2.432
					c1.162-2.125,8.67-12.525,10.395-13.111c1.361-1.041,2.023,0.975,4.627,0.438c4.07-0.453,7.333-1.627,9.122-4.084
					c0.389-0.535,1.682,0.773,1.639,5.033c-0.127,2.016-0.199,4.043-0.428,6.053c-0.178,1.578-0.451,3.16-0.861,4.693
					c-0.551,2.043-2.205,3.273-3.805,4.43c-2.312,1.67-4.632,3.369-7.126,4.734c-2.86,1.566-5.91,2.777-8.879,4.143L68.162,339.313z
					"/>
				<path fill-rule="evenodd" clip-rule="evenodd" fill="#4C4B4B" d="M68.126,338.005c2.723-1.254,5.525-2.365,8.148-3.801
					c2.287-1.252,4.418-2.814,6.539-4.346c1.468-1.062,5.519-5.061,5.519-5.061c-0.236,3.057-1.773,4.312-4.182,5.979
					c-2.233,1.539-4.479,3.064-6.766,4.527c-3.137,2.006-6.626,3.256-10.077,4.586L68.126,338.005"/>
				<path fill-rule="evenodd" clip-rule="evenodd" fill="#FFFFFF" d="M64.472,323.952c-1.434-0.82-6.418-2.889-7.646-3.594
					c0.038-0.1,2.2-2.121,2.573-2.033c1.131,0.264,5.34,2.049,6.35,2.676c0.186,0.117,0.131,0.877-0.035,1.232
					C65.484,322.724,64.738,323.626,64.472,323.952z"/>
				<path fill-rule="evenodd" clip-rule="evenodd" fill="#FFFFFF" d="M63.917,325.702c-2.65-1.006-6.148-2.756-8.609-3.689
					c-0.406-0.625,1.219-0.859,2.343-0.604c1.876,0.426,6.382,3.543,6.645,4.068"/>
				<path fill-rule="evenodd" clip-rule="evenodd" fill="#FFFFFF" d="M67.689,319.726c-1.309-0.613-5.705-2.322-6.961-2.908
					c0.242-0.979,1.115-1.996,1.818-1.783c0.76,0.225,4.786,1.834,5.176,2.471C68.078,318.085,68.646,319.095,67.689,319.726z"/>
				<path fill-rule="evenodd" clip-rule="evenodd" fill="#4C4B4B" d="M129.407,340.313c-0.947-0.584-1.701-1.074-2.484-1.52
					c-3.865-2.211-7.701-4.494-11.633-6.586c-2.648-1.41-6.656-5.898-6.656-5.898c-0.088,0.793-0.139,1.373-0.133,1.838
					c-0.018,0.055-0.016,0.113,0,0.166c0.061,1.457,0.799,1.633,3.102,3.559c2.344,1.512,3.17,2.107,4.803,3.094
					c3.869,2.336,7.754,4.65,11.639,6.965c3.541,2.107,7.051,2.555,11.207,1.748L129.407,340.313z"/>
				<path fill-rule="evenodd" clip-rule="evenodd" fill="#0466C0" d="M68.216,339.54c-2.398,1.182-5.615,1.742-8.084,2.02
					c-3.135,0.008-5.625-1.162-7.5-2.705c-2.414-1.98-3.748-6.309-2.398-9.293c0.213-1.818,2.715-5.125,3.771-6.623
					c0.277-0.5,1.944,0.15,2.603,0.375c2.593,0.875,2.35,0.674,5.902,2.24c1.039,0.395,3.242,2.223,3.452,2.891
					c0.94,2.176,1.485,3.447,1.856,5.85C68.03,335.655,68.216,339.54,68.216,339.54z"/>
				<path fill-rule="evenodd" clip-rule="evenodd" fill="#0466C0" d="M144.024,327.903c1.955,1.561,2.523,3.793,2.918,5.803
					c-0.127,3.305-0.725,6.342-3.307,8.502c-0.371,0.367-2.17,1.434-2.785,1.518c-0.994,0.699-4.238,0.982-6.398,0.508
					c-1.15-0.256-2.438-0.594-3.531-1.064c-0.242-0.105-1.936-0.676-1.902-0.908c0.453-2.982,0.771-6.867,2.869-9.561
					C134.631,329.38,138.665,327.903,144.024,327.903z"/>
				<g>
					<g>
						
							<circle fill-rule="evenodd" clip-rule="evenodd" fill="#FFFFFF" stroke="#4C4B4B" stroke-width="1.4173" stroke-miterlimit="10" cx="66.434" cy="326.022" r="1.144"/>
						
							<circle fill-rule="evenodd" clip-rule="evenodd" fill="#FFFFFF" stroke="#4C4B4B" stroke-width="1.4173" stroke-miterlimit="10" cx="73.854" cy="316.54" r="1.143"/>
						
							<circle fill-rule="evenodd" clip-rule="evenodd" fill="#FFFFFF" stroke="#4C4B4B" stroke-width="1.4173" stroke-miterlimit="10" cx="70.144" cy="321.138" r="1.143"/>
					</g>
					<g>
						
							<path fill-rule="evenodd" clip-rule="evenodd" fill="#FFFFFF" stroke="#4C4B4B" stroke-width="1.4173" stroke-miterlimit="10" d="
							M128.247,318.464c0,0.631-0.512,1.143-1.143,1.143c-0.633,0-1.145-0.512-1.145-1.143c0-0.635,0.512-1.145,1.145-1.145
							C127.735,317.319,128.247,317.829,128.247,318.464z"/>
						
							<circle fill-rule="evenodd" clip-rule="evenodd" fill="#FFFFFF" stroke="#4C4B4B" stroke-width="1.4173" stroke-miterlimit="10" cx="133.035" cy="328.714" r="1.144"/>
						
							<circle fill-rule="evenodd" clip-rule="evenodd" fill="#FFFFFF" stroke="#4C4B4B" stroke-width="1.4173" stroke-miterlimit="10" cx="129.724" cy="323.655" r="1.144"/>
					</g>
					<g>
						<path fill-rule="evenodd" clip-rule="evenodd" fill="#F7143A" d="M73.943,316.165c-2.451-0.752-4.721-2.008-7.11-2.93
							c-1.417-0.549-3.545-1.525-5.071-0.881c-0.344,0.143-0.193,0.711,0.154,0.564c1.486-0.625,3.662,0.457,5.055,0.996
							c2.295,0.887,4.459,2.094,6.816,2.816C74.149,316.843,74.302,316.274,73.943,316.165z"/>
						<path fill-rule="evenodd" clip-rule="evenodd" fill="#F7143A" d="M70.226,320.858c-2.512-0.508-4.543-2.535-6.914-3.473
							c-1.229-0.488-3.656-1.896-4.908-0.852c-0.291,0.244,0.126,0.656,0.415,0.414c1.019-0.848,4.237,0.922,5.273,1.373
							c2.066,0.896,3.716,2.646,5.979,3.104C70.44,321.499,70.597,320.935,70.226,320.858z"/>
						<path fill-rule="evenodd" clip-rule="evenodd" fill="#F7143A" d="M66.386,325.776c-3.139-2.422-6.978-5.199-11.099-5.318
							c-0.103-0.004-0.2,0.057-0.254,0.145c-0.157,0.264-0.114,0.334-0.03,0.617c0.109,0.361,0.676,0.207,0.566-0.156
							c-0.014-0.047-0.025-0.08-0.034-0.109c0.024,0.049,0.065,0.1,0.116,0.102c0.622,0.018,1.232,0.172,1.83,0.332
							c1.229,0.322,2.383,0.893,3.499,1.486c1.808,0.963,3.491,2.16,5.109,3.41C66.39,326.515,66.679,326.005,66.386,325.776z"/>
					</g>
					<g>
						<path fill-rule="evenodd" clip-rule="evenodd" fill="#F7143A" d="M142.559,325.687c-0.906-1.357-2.863-0.574-4.051-0.084
							c-1.875,0.768-3.555,2.152-5.471,2.783c-0.357,0.119-0.203,0.686,0.156,0.566c1.26-0.414,2.422-1.252,3.584-1.873
							c1.025-0.545,4.311-2.539,5.275-1.096C142.262,326.296,142.77,326.001,142.559,325.687z"/>
						<path fill-rule="evenodd" clip-rule="evenodd" fill="#F7143A" d="M140.461,320.835c-0.924-0.84-2.455-0.053-3.406,0.355
							c-2.385,1.021-4.635,1.766-7.266,1.809c-0.375,0.006-0.375,0.594,0,0.588c2.008-0.035,3.902-0.422,5.787-1.107
							c1.008-0.365,3.51-2.105,4.469-1.229C140.323,321.507,140.741,321.091,140.461,320.835z"/>
						<path fill-rule="evenodd" clip-rule="evenodd" fill="#F7143A" d="M138.454,316.202c-0.984-1.473-3.488-0.596-4.807-0.201
							c-1.277,0.381-2.521,0.869-3.768,1.334c-0.803,0.299-1.754,0.779-2.631,0.775c-0.377,0-0.377,0.586,0,0.586
							c1.574,0.006,3.326-1.006,4.773-1.529c1.201-0.438,4.947-2.131,5.926-0.668C138.157,316.81,138.665,316.517,138.454,316.202z"
							/>
					</g>
				</g>
				<path display="none" fill-rule="evenodd" clip-rule="evenodd" d="M97.528,310.542c0.021-2.746,1.852-3.174,3.645-2.719
					c1.842,0.469,3.596,1.324,5.34,2.109c1.49,0.676,1.377,2.041,1.143,3.471c4.188,2.598,7.959,1.025,11.68-1.082
					c0.178-0.1,0.396-0.273,0.432-0.447c0.246-1.16,1.094-1.039,1.959-1.014c0.857,0.025,1.232,0.459,1.211,1.25
					c-0.043,1.438-0.102,2.877-0.215,4.309c-0.215,2.621-0.504,5.232-0.709,7.852c-0.234,3.057-1.887,5.205-4.295,6.867
					c-2.234,1.541-4.482,3.066-6.768,4.527c-3.137,2.01-6.627,3.258-10.08,4.586c-2.684,1.035-5.453,1.797-8.326,1.664
					c-5.074-0.234-10.688-5.016-8.955-11.295c1.037-3.76,3.352-6.654,5.982-9.334c2.305-2.346,3.963-5.145,5.811-7.814
					c0.104-0.146,0.15-0.396,0.111-0.57c-0.398-1.719-0.031-2.197,1.766-2.264C97.323,310.634,97.385,310.593,97.528,310.542z
					 M101.692,338.368c2.723-1.254,5.523-2.367,8.148-3.803c2.289-1.252,4.418-2.812,6.539-4.346
					c1.469-1.061,2.986-2.189,3.49-4.064c0.379-1.408,0.629-2.859,0.795-4.309c0.205-1.844,0.273-3.703,0.391-5.557
					c0.066-1.059,0.113-2.115,0.182-3.381c-0.898,0.426-1.582,0.684-2.201,1.055c-2.631,1.588-5.48,2.24-8.535,2.055
					c-1.324-0.08-2.75-0.994-3.879,0.48c-0.016,0.021-0.066,0.018-0.102,0.018c-1.115-0.068-1.455,0.783-1.9,1.537
					c0.275,0.334,0.533,0.617,0.756,0.928c0.785,1.09,0.828,1.619-0.396,2.096c-1.357,0.525-1.234,1.527-1.418,2.525
					c-0.031,0.166-0.072,0.33-0.109,0.496c-1.182,0.219-2.363,0.768-3.277-0.625c-0.486,0.363-0.887,0.664-1.285,0.963
					c1.002,0.527,1.637,0.984,1.215,1.791c-0.287,0.543-0.971,0.875-1.418,1.254c0.346,0.564,0.785,1.152,1.092,1.803
					c1.096,2.344,1.631,4.836,1.857,7.402c0.047,0.529-0.004,1.068-0.01,1.604c-1.324,0.326-1.307,0.322-1.672-1.092
					c-0.609-2.355-1.178-4.721-1.898-7.043c-0.209-0.668-0.789-1.318-1.365-1.754c-2.205-1.674-4.797-2.541-7.389-3.416
					c-0.658-0.223-1.012-0.078-1.289,0.422c-0.771,1.4-1.59,2.787-2.246,4.242c-1.352,2.984-0.639,6.557,1.775,8.539
					c1.875,1.539,3.842,2.775,6.568,2.346C96.75,340.118,99.295,339.55,101.692,338.368z M99.229,310.726
					c1.988,1.664,4.209,2.166,6.551,2.404c0.295-0.998,0.201-1.75-0.838-2.191c-1.088-0.461-2.121-1.059-3.225-1.469
					c-2.014-0.748-2.029-0.707-2.486,1.244C99.215,310.778,99.215,310.849,99.229,310.726z M98.34,323.802
					c0.268-0.328,0.709-0.717,0.938-1.203c0.168-0.357,0.223-1.119,0.039-1.236c-1.012-0.627-2.07-1.285-3.201-1.551
					c-0.373-0.086-1.016,0.967-1.527,1.504c-0.061,0.062-0.07,0.172-0.109,0.273C95.706,322.29,96.907,322.981,98.34,323.802z
					 M89.61,323.462c2.463,0.936,4.855,1.844,7.504,2.848c-0.264-0.523-0.373-0.916-0.611-1.199
					c-1.285-1.516-3.031-2.197-4.908-2.627C90.469,322.228,90.032,322.468,89.61,323.462z M101.252,320.087
					c0.959-0.631,0.389-1.639,0.033-2.221c-0.389-0.635-1.266-1.119-2.025-1.346c-0.705-0.211-1.574,0.807-1.816,1.787
					C98.698,318.892,99.946,319.476,101.252,320.087z M96.079,315.038c-0.533,0.939-1.008,1.775-1.502,2.646
					c1.15,0.268,2.188-0.674,2.564-2.191C96.836,315.362,96.524,315.229,96.079,315.038z M92.122,320.968
					c1.199,0.518,1.35,0.408,2.127-1.57C93.393,319.155,92.583,319.753,92.122,320.968z M99.948,312.96
					c-1.035-1.014-1.51-1.023-2.127,0C98.553,312.96,99.198,312.96,99.948,312.96z"/>
			</g>
			<path fill="#0466C0" d="M149.374,271.06c0-0.055-0.395-2.525-0.553-3.863c-0.109-0.939-0.162-2.883-0.152-3.049
				c0.035-0.715,0.031-1.432,0.021-2.152c0.082-1.578,0.186-3.158,0.199-4.74c0.002-0.205-0.061-1.318-0.027-2.016
				c-0.07-1.615,0.021-1.574-0.34-3.424c-0.295-1.008-0.348-1.254-0.723-2.506c-0.213-0.715-0.086-0.229-1.074-0.082
				c-0.141,0.021-2.754,0.248-2.865,0.328c-1.172,0.102-2.316,0.271-3.492,0.293c-2.092,0.217-5.582,0.381-5.691,0.406
				c-0.824,0.049-6.65,0.441-8.414,0.369c-3.342,0.23-10.986,0.492-12.273,0.418c-7.631,0.33-14.896,0.301-22.447,0.41
				c-0.557-0.061-17.813,0.305-22.151,0.037c-0.521-0.033-6.92-0.275-7.389-0.33c-1.459-0.18-4.615-0.523-5.156-0.6
				c-1.158-0.215-1.998-0.479-2.682-0.59c-0.742-0.121-0.689-0.219-0.689,0.598c0,0,0.193,3.105,0.717,6.064
				c0.705,3.959,0.609,6.863,0.543,9.17c-0.035,0.699-0.27,2.658-0.297,2.9c-0.059,0.537-0.023,2.324,0.094,2.754
				c0.184,0.658,0.66,1.178,1.217,1.578c0.914,0.66,3.252,1.189,4.312,1.529c1.029,0.33,2.132,0.697,4.205,1.021
				c2.191,0.34,4.385,0.684,6.586,0.922c2.574,0.279,5.168,0.361,7.743,0.641c4.908,0.529,8.545,0.752,14.092,0.521
				c2.129-0.09,3.996-0.373,5.912-0.611c1.471-0.184,1.123-1.785,1.414-4.004c0.559-4.24,0.127-7.711,1.533-11.842
				c0.131-0.389,0.654-2.084,1.006-2.26c1.41,1.166,1.809,3.383,2.066,5.301c0.271,1.283,0.207,2.936,0.123,4.133
				c-0.055,0.75-0.051,1.09-0.1,1.393c-0.061,0.746-0.156,2.625-0.143,3.375c0.025,1.342-0.018,3.721,1.814,3.502
				c0.514-0.061,5.805,0.02,6.998,0.033c5.48,0.062,10.795,0.213,16.123-0.031c2.707-0.125,5.023-0.107,8.059-0.236
				c0.811-0.033,4.955-0.24,5.828-0.256c1.346-0.119,1.646-0.055,2.303-0.193c0.879-0.188,1.885-0.268,2.652-0.727
				C149.553,274.579,149.374,272.919,149.374,271.06z"/>
			<g>
				<path fill-rule="evenodd" clip-rule="evenodd" fill="#FFFFFF" d="M65.795,156.692c1.079,1.773,10.785,5.688,12.308,6.59
					c4.974,2.949,10.37,4.656,16.132,5.072c3.535,0.254,7.104,0.582,10.625,0.355c6.424-0.412,12.754-1.643,18.816-3.85
					c2.096-0.766,2.646-1.629,4.789-2.869c1.346-0.605,3.592-1.943,5.727-1.936c3.273,0.014,5.906,5.865,6.16,6.748
					c2.199,4.547,3.662,8.662,4.752,13.326c1.074,4.602,2.285,9.641,3.002,14.311c0.689,4.49-0.172,9.189,0.188,13.719
					c0.232,2.918,0.135,5.859,0.176,8.789c0.004,0.127,0.852,19.725,1.32,22.541c0.41,2.26,0.398,3.195,0.041,5.139
					c-0.098,0.527-0.514,1.43-0.828,2.199c-0.156,0.537-1.078,1.979-1.393,2.105c-1.355,0.811-18.297,1.602-20.016,1.691
					c-6.512,0.326-13.137,0.387-19.656,0.551c-5.76,0.146-11.635,0.463-17.4,0.502c-3.008,0.287-6.121-0.359-9.146-0.121
					c-3.692,0.285-7.213-0.025-10.929-0.023c-2.729,0-5.569-0.227-8.289-0.373c-1.898-0.104-4.102-0.344-5.964-0.771
					c-0.772-0.178-2.083,0.045-2.743-0.475c-0.053-0.539-0.174-0.871-0.195-1.785c-0.819-4.219,0.067-24.527,0.067-24.932
					c0-2.129-0.062-2.781,0.134-4.629c0.093-0.863-0.23-3.23-0.134-3.512c-0.069-3.814-0.475-5.994-0.207-8.787
					c0.38-3.967,0.738-6.807,1.224-10.76c0.339-2.773,0.781-5.59,1.252-8.342c0.799-4.672,2.15-9.213,3.648-13.715
					c1.111-3.338,2.742-6.639,3.662-10.035C63.16,162.524,65.687,157.696,65.795,156.692z"/>
				<path fill="#FFFFFF" stroke="#4C4B4B" stroke-width="0.2835" stroke-miterlimit="10" d="M140.233,156.413
					c2.17-0.158,4.172,2.838,5.049,3.643c3.033,2.797,5.732,5.91,7.574,9.629c1.875,3.791,3.785,7.594,5.266,11.545
					c1.9,5.068,3.084,11.689,4.072,17.006c1.359,7.305,1.129,14.189,1.037,21.586c-0.072,5.77,0.35,10.254,1.947,16.334
					c0.314,0.867-0.004,2-1.127,2.693c-3.049,1.592-8.117,4.037-11.895,3.928c-0.584-0.01-1.768,0.199-2.072-0.031
					c-0.514-0.393-0.016-1.604-0.174-2.549c-0.508-3.066-1.744-7.248-1.654-10.281c0.072-2.49,0.209-1.611,0.504-3.666
					c-0.576-0.732,0.045-25.016-0.654-31.809c-0.438-4.254-1.723-8.291-3.061-12.336c-1.684-5.084-3.25-9.959-5.162-14.959
					c-1.035-2.697-3.641-6.904-4.725-7.812L140.233,156.413z M65.636,156.917c-0.904,1.961-1.959,4.482-2.719,6.5
					c-1.658,4.404-3.303,8.818-4.755,13.295c-0.94,2.9-1.636,5.889-2.249,8.879c-0.61,2.971-1.049,5.979-1.441,8.984
					c-0.508,3.889-0.863,7.797-1.341,11.693c-0.459,3.746,0.367,7.336,1.176,11.037c0.054,0.246-0.788,9.309-0.792,9.557
					c-0.006,0.375-0.129,0.752-0.129,1.129c-0.004,2.623,0.068,5.248,0.001,7.871c-0.048,1.922,0.167,6.09-0.034,8.006
					c-0.035,0.318-1.373,0.805-1.66,0.889c-2.717,0.777-7.02,0.197-9.756-0.723c-3.243-1.09-5.186-3.637-4.466-6.586
					c0.772-3.16,0.842-6.379,0.509-9.537c-0.481-4.584-0.168-9.129,0.106-13.678c0.149-2.475,1.966-13.143,2.7-15.945
					c0.583-2.225,4.162-13.197,6.372-18.92c3.216-6.453,6.187-12.033,10.015-17.344c0.843-1.168,3.557-4.516,3.92-5.125
					c0.451-0.578,1.596-1.543,2.065-1.6c0,0,2.753,1.184,2.541,1.477L65.636,156.917z"/>
				<g>
					<path fill-rule="evenodd" clip-rule="evenodd" fill="#0466C0" d="M146.944,161.952c-1.559,1.656-4.553,3.189-6.777,3.238
						c-0.377,0.01-0.381,0.598,0,0.588c2.375-0.053,5.527-1.645,7.191-3.412C147.618,162.091,147.204,161.677,146.944,161.952z"/>
					<path fill-rule="evenodd" clip-rule="evenodd" fill="#0466C0" d="M161.887,195.626c-3.594,2-10.549,4.229-13.312,4.047
						c-0.379-0.021-0.426,1.047-0.049,1.07c4.137,0.266,10.254-2.285,13.467-4.07C162.321,196.491,162.217,195.442,161.887,195.626z
						"/>
					<path fill-rule="evenodd" clip-rule="evenodd" fill="#0466C0" d="M163.801,227.817c-4.58,2.469-10.088,4.137-15.102,4.119
						c-0.379,0-0.402,0.91-0.023,0.912c5.131,0.02,10.623-1.633,15.307-4.158C164.317,228.513,164.133,227.636,163.801,227.817z"/>
					<path fill-rule="evenodd" clip-rule="evenodd" fill="#F7143A" d="M156.926,178.862c-3.094,1.797-6.689,3.451-10.922,3.412
						c-0.375-0.002-0.393,0.758-0.016,0.764c4.885,0.057,8.49-1.568,11.377-3.475C157.68,179.356,157.252,178.673,156.926,178.862z"
						/>
					<path fill-rule="evenodd" clip-rule="evenodd" fill="#F7143A" d="M163.071,212.349c-4.451,1.74-9.492,3.443-14.348,3.32
						c-0.381-0.012-0.414,0.951-0.037,0.959c4.91,0.123,10.004-1.582,14.506-3.342C163.542,213.149,163.424,212.21,163.071,212.349z
						"/>
				</g>
				<g>
					<path fill-rule="evenodd" clip-rule="evenodd" fill="#0466C0" d="M53.085,231.655c-5.137,0.291-10.463-1.859-14.589-3.51
						c-0.351-0.141-0.818,0.656,0.081,1.012c5.455,2.162,8.926,3.334,14.743,3.531C53.699,232.698,53.462,231.634,53.085,231.655z"
						/>
					<path fill-rule="evenodd" clip-rule="evenodd" fill="#0466C0" d="M54.694,197.261c-4.231-0.057-8.499-0.822-12.613-2.322
						c-0.356-0.129-0.702,0.547-0.343,0.666c3.76,1.227,6.18,2.146,12.77,2.342C54.886,197.958,55.072,197.267,54.694,197.261z"/>
					<path fill-rule="evenodd" clip-rule="evenodd" fill="#0466C0" d="M62.503,164.026c-1.825-0.271-3.306-0.828-5.27-1.955
						c-0.327-0.188-0.467,0.35-0.154,0.568c1.531,1.059,3.438,1.684,5.266,1.953C62.716,164.649,62.875,164.083,62.503,164.026z"/>
					<path fill-rule="evenodd" clip-rule="evenodd" fill="#F7143A" d="M57.788,179.282c-4.118-0.184-5.577-0.525-9.247-2.359
						c-0.336-0.168-0.297,0.352,0,0.588c2.493,1.979,6.332,2.127,9.092,2.336C58.006,179.876,58.165,179.296,57.788,179.282z"/>
					<path fill-rule="evenodd" clip-rule="evenodd" fill="#F7143A" d="M52.941,214.841c-4.744-0.289-9.24-1.555-14.295-3.49
						c-0.35-0.133-0.447,0.66-0.115,0.838c3.996,2.135,9.648,3.219,14.449,3.512C53.359,215.724,53.316,214.864,52.941,214.841z"/>
				</g>
			</g>
			<g>
				<g>
					<path fill-rule="evenodd" clip-rule="evenodd" fill="#F7143A" d="M132.577,173.55c-24.889,10.225-48.439,3.863-62.563,0.246
						c-0.365-0.094-0.326,0.725,0.045,0.803c10.639,2.234,36.06,10.889,62.815-0.543
						C133.219,173.907,132.924,173.405,132.577,173.55z"/>
					<path fill-rule="evenodd" clip-rule="evenodd" fill="#F7143A" d="M139.907,203.517c-34.02,10.514-53.434,7.174-76.248,2.115
						c-0.368-0.082-0.187,1.473,0.187,1.547c24.198,5.004,42.099,7.975,75.827-2.391
						C140.032,204.679,140.27,203.407,139.907,203.517z"/>
					<path fill-rule="evenodd" clip-rule="evenodd" fill="#F7143A" d="M145.305,237.177c-40.453,9.926-67.009,2.041-87.54,1.473
						c-0.422-0.01-0.406,0.537,0.014,0.588c15.097,1.812,58.522,8.227,87.538-1.473C145.717,237.63,145.715,237.079,145.305,237.177
						z"/>
					<path fill-rule="evenodd" clip-rule="evenodd" fill="#0466C0" d="M137.553,189.062c-27.633,8.398-56.774,2.861-73.585,0.275
						c0,0-0.383,0.52,0,0.586c19.251,3.357,45.952,8.859,73.743-0.297C138.081,189.505,137.924,188.946,137.553,189.062z"/>
					<path fill-rule="evenodd" clip-rule="evenodd" fill="#0466C0" d="M142.198,218.997c-35.432,12.33-62.419,5.592-79.209,2.127
						c-0.371-0.078-0.349,0.5,0.017,0.586c15.747,3.717,40.78,11.947,79.562-1.734C142.922,219.853,142.555,218.872,142.198,218.997
						z"/>
				</g>
				<path fill-rule="evenodd" clip-rule="evenodd" d="M148.125,228.149c0.42,1.098-1.488,0.471-2.713,0.367
					c-1.23-0.107-2.418,0.189-3.643,0.047c-0.156,0.484-1.615-0.17-1.639-0.438c-0.164-1.873-0.025-5.635-0.082-7.514
					c-0.006-0.234,0.539-0.889,0.771-0.934c0.572-0.104,1.807-0.059,2.391-0.012c0.625,0.053,1.428,0.377,2.051,0.416
					c1.529,0.096,2.219-1.424,2.275,0.072C147.584,221.444,148.125,226.858,148.125,228.149z"/>
				<path fill-rule="evenodd" clip-rule="evenodd" d="M61.225,222.315c-0.056-1.438,1.125-3.588-0.508-3.379
					c-1.355,0.176-4.376-0.207-5.728-0.361c-1.762-0.199-1.012,2.805-1.205,4.592c-0.059,0.521-0.089,2.055,0.064,2.406
					c0.065,0.273-0.604-0.84-0.459-0.594c0.152,0.199,0.306,0.395,0.459,0.594c0.365,0.361,0.797,0.615,1.293,0.752
					c0.3,0.123,0.639,0.146,0.961,0.154c0.441,0.273,0.949,0.443,1.498,0.443c1.146,0,1.46,0.654,2.525,0.031
					C61.667,226.052,61.29,223.905,61.225,222.315z"/>
				<path fill="#F7143A" d="M65.795,156.692c1.771,0.637,7.912,3.557,7.868,3.889c-0.218,1.664-0.41,3.057-0.846,4.656
					c-1.243,4.561-2.752,9.047-4.019,13.602c-1.029,3.711-2.026,7.451-2.731,11.232c-0.721,3.859-1.115,7.781-1.559,11.688
					c-0.41,3.607-0.635,7.234-1.061,10.838c-0.191,1.619-0.655,3.871-1.039,5.463c-0.05,0.211-0.336,0.523-0.514,0.523
					c-1.572,0.004-5.162-0.434-6.732-0.436c-1.398-0.066-1.91-0.982-2.021-1.955c-0.363-3.867-0.604-7.775-0.1-11.648
					c0.273-2.109,0.643-4.207,0.897-6.318c0.323-2.674,0.444-5.379,0.892-8.027c0.557-3.293,1.229-6.58,2.094-9.807
					c0.883-3.297,1.965-6.549,3.128-9.758c1.509-4.156,2.94-8.057,4.724-12.164L65.795,156.692z M135.036,159.136
					c1.826,1.701,3.725,4.09,4.689,6.352c0.711,1.582,1.492,3.111,2.012,5.146c1.543,4.473,3.131,8.854,4.523,13.373
					c1.049,3.402,1.842,7.242,2.062,10.811c0.217,3.498,0.359,6.779,0.539,10.277c0.162,3.16-0.117,6.373-0.064,9.537
					c0.021,1.326,0.713,4.684-0.215,4.861c-2.199,0.424-7.168,1.631-8.533,0.348c-1.129-1.061-0.691-5.541-0.832-7.59
					c-0.326-4.775-0.572-9.576-1.23-14.316c-0.709-5.094-1.75-10.15-2.838-15.182c-0.816-3.768-5.344-18.297-6.805-20.959
					C129.319,161.013,135.036,159.136,135.036,159.136z"/>
				<path d="M148.932,236.981c0.312,1.865,0.645,4.498,0.805,6.379c0.121,1.408-1.209,2.91-2.566,3.164
					c-1.154,0.217-3.158,0.105-4.326-0.01c-2.014-0.197-3.461-1.203-2.811-3.158c0.484-1.461,0.861-3.416,0.389-4.836
					c-1.014-3.074-1.119-5.953-0.439-9.092c0.08-0.369,0.221-1.393,0.629-1.107c2.371,0,5.053-0.096,6.637-0.115
					c0.318-0.008,0.432-0.025,0.623,0.346C148.131,228.751,148.528,234.571,148.932,236.981z"/>
				<path fill-rule="evenodd" clip-rule="evenodd" d="M61.292,229.03c0.519,2.053,0.95,4.148,1.706,6.113
					c1.356,3.523,0.795,7.971-0.262,11.523c-0.279,0.945-0.915,1.441-2.088,1.877c-0.833,0.004-5.001,0.189-5.816,0.02
					c-1.736-0.363-2.397-0.82-1.932-2.523c0.816-2.986,0.564-6.822,0.059-9.834c-0.344-2.049,0.093-4.326,0.045-6.422
					c-0.015-0.59,0.659-3.072,0.659-3.488c2.138,0.566,4.934,1.268,7.051,0.926C60.966,227.327,61.187,227.583,61.292,229.03z"/>
				<path fill-rule="evenodd" clip-rule="evenodd" fill="none" stroke="#423B3E" stroke-width="2.8347" stroke-miterlimit="10" d="
					M62.375,222.894c-0.125,2.221-1.121,4.113-3.227,3.994l-3.541-0.105c-2.104-0.117-2.98-2.367-2.855-4.586l0.02-0.334
					c0.126-2.221,0.836-3.818,2.941-3.701l4.364-0.004c2.106,0.119,2.521,2.146,2.397,4.367L62.375,222.894z"/>
				<path fill-rule="evenodd" clip-rule="evenodd" fill="none" stroke="#423B3E" stroke-width="2.8347" stroke-miterlimit="10" d="
					M149.225,224.919c-0.141,2.16,0.131,3.238-2.164,3.289l-5.457,0.352c-2.293,0.053-2.451-2.016-2.5-4.172l-0.008-0.328
					c-0.049-2.154,0.092-4.002,2.387-4.057l6.498-0.162c0.52-0.012,0.701,0.703,1.084,3.574L149.225,224.919z"/>
			</g>
			<g>
				<g>
					<path opacity="0.4" fill-rule="evenodd" clip-rule="evenodd" fill="#E25A3B" d="M130.598,121.021
						c-1.24,0.037-1.178,1.959,0.061,1.918C131.897,122.901,131.836,120.981,130.598,121.021z"/>
					<path opacity="0.4" fill-rule="evenodd" clip-rule="evenodd" fill="#E25A3B" d="M125.028,127.392
						c-1.236,0.041-1.178,1.961,0.062,1.922C126.329,129.274,126.266,127.353,125.028,127.392z"/>
					<path opacity="0.4" fill-rule="evenodd" clip-rule="evenodd" fill="#E25A3B" d="M140.071,125.261
						c-1.238,0.039-1.176,1.961,0.062,1.922S141.311,125.222,140.071,125.261z"/>
					<path opacity="0.4" fill-rule="evenodd" clip-rule="evenodd" fill="#E25A3B" d="M146.676,122.913
						c-1.24,0.037-1.178,1.959,0.061,1.92C147.977,124.794,147.915,122.872,146.676,122.913z"/>
					<path opacity="0.4" fill-rule="evenodd" clip-rule="evenodd" fill="#E25A3B" d="M151.678,129.112
						c-1.238,0.039-1.178,1.959,0.061,1.92S152.917,129.075,151.678,129.112z"/>
					<path opacity="0.4" fill-rule="evenodd" clip-rule="evenodd" fill="#E25A3B" d="M135.848,130.044
						c-1.238,0.041-1.178,1.959,0.061,1.92C137.147,131.927,137.086,130.005,135.848,130.044z"/>
				</g>
				<g>
					<path opacity="0.4" fill-rule="evenodd" clip-rule="evenodd" fill="#E25A3B" d="M66.318,121.267c-1.189,0-1.189,1.844,0,1.844
						C67.509,123.11,67.509,121.267,66.318,121.267z"/>
					<path opacity="0.4" fill-rule="evenodd" clip-rule="evenodd" fill="#E25A3B" d="M59.231,126.509c-1.188,0-1.188,1.844,0,1.844
						C60.421,128.353,60.421,126.509,59.231,126.509z"/>
					<path opacity="0.4" fill-rule="evenodd" clip-rule="evenodd" fill="#E25A3B" d="M73.193,126.048c-1.19,0-1.19,1.844,0,1.844
						C74.381,127.892,74.381,126.048,73.193,126.048z"/>
					<path opacity="0.4" fill-rule="evenodd" clip-rule="evenodd" fill="#E25A3B" d="M77.721,122.397c-1.188,0-1.188,1.846,0,1.846
						C78.912,124.243,78.912,122.397,77.721,122.397z"/>
					<path opacity="0.4" fill-rule="evenodd" clip-rule="evenodd" fill="#E25A3B" d="M83.508,127.726c-1.192,0-1.192,1.846,0,1.846
						C84.698,129.571,84.698,127.726,83.508,127.726z"/>
					<path opacity="0.4" fill-rule="evenodd" clip-rule="evenodd" fill="#E25A3B" d="M68.876,130.368c-1.191,0-1.191,1.844,0,1.844
						C70.065,132.212,70.065,130.368,68.876,130.368z"/>
				</g>
			</g>
			<g>
				<path fill-rule="evenodd" clip-rule="evenodd" fill="#D08836" d="M177.741,85.261c-0.238-0.375-5.709-8.852-6.928-10.01
					c-2.117-2.023-6.824-5.041-6.982-5.137c-1.854-1.137-17.545-5.826-23.592-6.721c-7.557-2.564-35.771-2.523-40.172-2.221
					c-0.994,0.014-14.189,0.887-24.248,2.428c-3.999,0.611-8.837,2.021-13.938,3.832c-1.631,0.289-16.583,8.277-19.757,10.213
					c-1.829,0.842-11.926,6.621-15.012,8.746c-0.35,0.242-2.133,0.936-2.336,1.24c-0.699,0.625,0.451,1.172,0.842,2.367
					c1.465,4.461,2.93,8.973,5.136,13.166c0.883,1.678,0.883,1.678,2.151,0.924c1.115-0.424,4.139,0.432,5.129,0.973
					c0.539,0.438,2.365,1.537,2.812,2.537c0.118,0.305,0.247,0.605,0.372,0.908c0.074,0.188,0.268,0.229,0.413,0.174
					c0.169,0.102,5.757-1.824,5.81-1.863c1.508-0.414,14.102-6.387,15.061-6.916c1.916-1.057,5.121-4.041,6.543-5.699
					c2.35-2.844,3.08-4.545,4.217-7.852c0.615-1.789,0.986-3.701,1.066-5.615c0.107,0.254,0.227,0.508,0.359,0.758
					c1.322,2.469,2.746,4.498,4.285,7.066c1.487,2.029,3.268,3.672,5.294,4.811c2.654,1.959,5.832,3.135,9.301,4.137
					c6.5,1.402,12.93,2.285,19.58,2.566c3.643,0.555,22.01,1.293,20.164,1.172c7.234,0.471,15.895,2.561,17.088,2.871
					c2.949,0.916,6.062,2.557,7.896,4.117c0.586,0.467,2.799,3.23,3.555,3.926c0.104,0.096,1.816-0.102,1.82-0.355
					c0.002-0.227,0.221-2.846,0.748-3.57c0.174-0.354,0.775-0.904,1.584-1.402c0.639-0.395,1.764-1.207,2.168-1.479
					c0.641-0.314,1.148-0.49,1.857-0.562c0.668,0.047,1.307,0.275,1.771,0.562c0.35,0.219,1.453,1.26,1.453,1.26
					c0.232-0.1,0.5-1.398,0.686-1.895c0.195-0.529,0.371-1.338,0.48-1.812c0.715-3.066,1.805-5.938,2.262-8.938
					c0.121-0.318,1.199-5.768,1.225-5.885C178.053,87.427,177.86,85.452,177.741,85.261z"/>
				<path display="none" fill-rule="evenodd" clip-rule="evenodd" d="M73.863,80.116c-0.205,1.363-0.449,2.547-0.552,3.746
					c-0.394,4.654-2.538,8.393-5.735,11.705c-3.432,3.553-7.707,5.738-12.104,7.666c-4.576,2.006-9.308,3.658-13.979,5.467
					c-0.275-0.588-0.43-0.916-0.601-1.277c2.003-0.727,4.04-1.457,6.073-2.197c1.476-0.539,2.947-1.084,4.419-1.635
					c3.864-1.443,7.463-3.428,10.958-5.574c2.557-1.572,4.602-3.736,6.387-6.178c2.268-3.098,2.604-6.705,3.076-10.311
					c0.366-2.773,0.389-5.516-0.34-8.246c-0.087-0.324,0.197-0.75,0.312-1.129c0.288,0.129,0.61,0.211,0.858,0.395
					c0.961,0.701,1.387,1.707,1.641,2.84c0.834,3.725,2.875,6.881,4.863,10.049c1.953,3.115,4.505,5.672,7.81,7.326
					c3.311,1.654,6.838,2.857,10.484,3.414c5.375,0.816,10.785,1.484,16.205,1.914c6.445,0.514,12.926,0.588,19.373,1.066
					c7.742,0.572,15.34,2.021,22.488,5.162c2.131,0.938,4.09,2.326,5.99,3.693c0.811,0.586,1.318,1.623,1.883,2.504
					c0.361,0.57,0.094,1.064-0.463,1.412c-0.605,0.379-0.811-0.09-1.045-0.479c-1.92-3.197-5.174-4.646-8.314-6.131
					c-4.105-1.945-8.559-2.787-13.004-3.604c-5.365-0.984-10.781-1.334-16.225-1.51c-5.264-0.172-10.535-0.389-15.779-0.859
					c-6.408-0.576-12.799-1.373-18.926-3.545c-4.621-1.639-8.517-4.23-11.202-8.408c-1.432-2.227-2.75-4.527-4.125-6.787
					C74.207,80.472,74.082,80.364,73.863,80.116z"/>
				<path display="none" fill-rule="evenodd" clip-rule="evenodd" d="M26.458,87.315c2.192,5.705,4.319,11.24,6.448,16.773
					c0.23,0.598-0.217-1.176-0.938-0.898c-0.72,0.273-0.598-0.957,0.146,0.621c-1.767-4.385-4.141-7.838-5.882-12.23
					c-0.501-1.264-0.941-2.551-1.454-3.949c-0.114-0.023-0.418-0.092-0.725-0.125c-0.752-0.076-0.953-0.537-0.549-1.072
					c0.527-0.697,0.277-1.254,0.022-1.938c-1.792-4.803-2.515-9.775-2.145-14.883c0.364-5.004,1.417-9.867,3.013-14.637
					c2.853-8.523,7.428-15.91,14.066-21.988c3.345-3.062,7.066-5.633,10.979-7.895c3.387-1.959,6.848-3.814,10.396-5.455
					c4.052-1.877,8.178-3.629,12.385-5.117c2.979-1.051,6.133-1.633,9.232-2.311c2.294-0.506,4.618-0.881,6.94-1.215
					c2.633-0.373,5.277-0.66,7.92-0.932c0.691-0.07,1.072-0.174,1.111-1.004c0.055-1.053,1.621-2.438,2.928-2.523
					c1.316-0.088,2.67-0.041,3.975,0.162c1.396,0.215,2.236,1.723,1.881,3.131c1.527,0.154,3.049,0.314,4.566,0.453
					c4.156,0.385,8.217,1.219,12.164,2.588c2.359,0.814,4.727,1.609,7.098,2.391c0.285,0.096,0.637,0.119,0.928,0.051
					c4.732-1.102,9.551-1.604,14.383-1.727c3.586-0.092,7.189,0.188,10.771,0.443c2.617,0.186,5.283,0.332,7.807,0.969
					c4.432,1.115,8.834,2.42,13.123,3.982c2.803,1.018,5.537,2.34,7.816,4.43c1.883,1.723,3.279,3.77,4.27,6.055
					c1.328,3.068,2.506,6.209,3.605,9.369c0.371,1.066,0.441,2.287,0.418,3.432c-0.082,4.174-0.199,8.35-0.439,12.516
					c-0.107,1.871-0.287,3.812-0.881,5.568c-0.85,2.506-1.854,5.031-3.252,7.26c-3.221,5.133-6.703,10.102-10.125,15.109
					c-0.545,0.799-1.404,1.391-0.719,2.541c0.107,0.182-0.223,0.623-0.377,1.012c1.004,0.965,0.406,2.184,0.18,3.229
					c-0.895,4.098-1.953,8.158-2.959,12.23c-0.273,1.117-0.547,2.238-0.852,3.348c-0.27,0.986-0.453-0.516-0.809,0.676
					c-0.498-0.926-0.84,0.338-0.527-0.867c1.387-5.369,2.045-9.916,3.252-15.33c0.318-1.436,0.416-2.896,0.312-4.441
					c-0.135-2.039-1.131-3.51-2.041-5.119c-1.496-2.656-3.291-5.066-5.76-6.902c-2.836-2.109-5.971-3.613-9.387-4.518
					c-4.613-1.223-9.219-2.486-13.855-3.619c-2.861-0.697-5.764-1.256-8.668-1.746c-3.01-0.506-6.035-1.09-9.072-1.211
					c-4.668-0.186-9.35-0.025-14.027,0.031c-3.727,0.043-7.455,0.086-11.182,0.248c-3.541,0.158-7.078,0.465-10.617,0.709
					c-3.357,0.23-6.73,0.316-10.067,0.721c-8.488,1.029-16.609,3.426-24.34,7.09c-4.869,2.305-9.79,4.531-14.531,7.08
					c-4.848,2.611-9.504,5.572-14.242,8.383C27.576,86.618,26.99,86.989,26.458,87.315z M176.547,82.171
					c0.65-0.959,1.137-1.742,1.684-2.482c3.469-4.686,6.809-9.461,9.572-14.602c0.961-1.785,2.037-3.613,2.453-5.555
					c0.969-4.488,1.588-9.027,1.4-13.688c-0.143-3.633-0.221-7.211-1.645-10.623c-0.379-0.904-0.605-1.881-1.047-2.754
					c-1.133-2.248-2.18-4.562-3.566-6.646c-1.932-2.904-5.236-4.012-8.258-5.223c-5.709-2.285-11.607-4.064-17.777-4.662
					c-5.344-0.518-10.697-0.809-16.078-0.467c-4.572,0.289-9.109,0.809-13.506,2.086c-4.139,1.203-8.186,2.723-12.295,4.037
					c-5.461,1.752-10.764,3.926-15.83,6.57c-6.266,3.273-12.414,6.795-18.477,10.438c-3.54,2.127-6.876,4.617-10.188,7.094
					c-4.354,3.256-8.592,6.664-12.887,9.996c-2.437,1.891-4.975,3.658-7.312,5.66c-4.521,3.871-8.973,7.824-13.384,11.82
					c-3.772,3.416-7.45,6.939-11.161,10.424c-0.297,0.279-0.539,0.611-0.807,0.918c0.504-0.148,0.852-0.445,1.24-0.678
					c2.948-1.76,5.83-3.654,8.873-5.234c6.648-3.449,13.332-6.84,20.092-10.061c7.41-3.533,15.269-5.654,23.426-6.551
					c3.663-0.402,7.358-0.502,11.04-0.754c3.26-0.223,6.514-0.57,9.775-0.674c6.395-0.205,12.797-0.189,19.188-0.434
					c5.312-0.205,10.537,0.432,15.705,1.441c4.887,0.953,9.725,2.17,14.545,3.414c4.197,1.078,8.461,1.957,12.422,3.85
					c4.596,2.193,8.289,5.342,10.818,9.799C175.18,79.716,175.784,80.812,176.547,82.171z M25.286,84.108
					c1.003-1.051,1.933-2.15,2.984-3.115c5.408-4.953,10.804-9.924,16.288-14.793c3.727-3.309,7.551-6.51,11.405-9.668
					c3.886-3.184,7.831-6.293,11.807-9.361c5.642-4.352,11.306-8.689,17.523-12.199c5.959-3.361,11.98-6.617,18.057-9.76
					c5.785-2.988,11.99-4.971,18.133-7.074c1.938-0.664,3.898-1.264,5.959-1.928c-0.988-0.535-1.77-1.096-2.641-1.404
					c-4.104-1.459-8.322-2.566-12.646-2.998c-3.828-0.385-7.705-0.516-11.555-0.43c-3.637,0.086-7.275,0.52-10.893,0.953
					c-2.572,0.307-5.127,0.805-7.665,1.336c-2.943,0.617-5.936,1.148-8.77,2.117c-3.711,1.268-7.258,2.996-10.925,4.398
					c-5.144,1.971-9.927,4.604-14.483,7.656c-3.436,2.305-6.955,4.525-9.664,7.754c-1.709,2.039-3.625,3.924-5.168,6.078
					c-3.471,4.848-6.006,10.182-7.684,15.926c-1.516,5.193-2.209,10.469-2.097,15.881C23.328,77.13,23.896,80.644,25.286,84.108z
					 M104.362,9.722c-0.125-1.553-1.189-2.076-3.445-1.871c-1.471,0.133-1.898,0.574-1.754,1.871
					C100.866,9.722,102.575,9.722,104.362,9.722z"/>
				<g>
					
						<path fill-rule="evenodd" clip-rule="evenodd" fill="#FFFFFF" stroke="#4C4B4B" stroke-width="0.2835" stroke-miterlimit="10" d="
						M24.013,86.991c-1.478-3.729-3-7.535-3.081-11.465c-0.12-5.828,0.538-11.035,2.15-16.623
						c1.784-6.184,3.968-11.984,7.663-17.203c1.642-2.316,3.95-5.043,5.77-7.236c3.254-3.018,6.998-6.221,10.656-8.701
						c5.6-3.271,8.025-4.26,13.102-6.746c3.775-1.848,7.593-3.232,11.539-4.596c3.016-1.043,6.547-1.977,9.68-2.643
						c2.698-0.572,5.282-0.939,8.017-1.27c3.852-0.467,8.354-0.699,12.227-0.787c4.094-0.098,8.4,0.373,12.475,0.787
						c4.602,0.465,8.969,1.697,13.334,3.266c0.924,0.334,1.707,0.971,2.762,1.545c-2.193,0.717-3.693,0.365-5.756,1.08
						c-6.535,2.266-12.102,4.164-18.256,7.383c-6.467,3.379-12.873,6.887-19.213,10.506c-6.614,3.775-12.644,8.445-18.645,13.129
						c-4.231,3.301-8.429,6.652-12.562,10.078c-4.102,3.4-8.171,6.846-12.137,10.404c-5.835,5.242-11.576,10.592-17.328,15.926
						C25.289,84.862,25.08,85.858,24.013,86.991z"/>
					<g>
						<path fill-rule="evenodd" clip-rule="evenodd" fill="#0466C0" d="M157.03,68.212c0.006,0.002,0.02,0.006,0.041,0.014
							C157.055,68.22,157.043,68.216,157.03,68.212z"/>
						<g>
							<path fill-rule="evenodd" clip-rule="evenodd" fill="#F7143A" d="M101.178,9.651v16.816c0,0.379,0.969,0.504,0.969-1.047
								V9.397C102.147,10.192,101.178,9.272,101.178,9.651z"/>
							<path fill-rule="evenodd" clip-rule="evenodd" fill="#0466C0" d="M119.696,18.524c-3.287-3.309-7.291-7.973-12.246-8.549
								c-0.375-0.043-2.078-0.236-1.707-0.193c4.754,0.555,9.166,5.734,12.316,8.908C118.329,18.958,119.963,18.794,119.696,18.524z
								"/>
							<path fill-rule="evenodd" clip-rule="evenodd" fill="#F7143A" d="M91.299,10.312C64.185,21.646,60.322,28.892,54.9,34.464
								c-3.545,3.645-14.727,19.043-22.793,44.488c-0.113,0.357,1.787-1.256,1.914-1.613c8.727-24.492,19.455-39.506,21.853-42.387
								C66.042,22.729,76.848,17.655,94.395,9.995C94.741,9.841,91.649,10.167,91.299,10.312z"/>
						</g>
						<path fill-rule="evenodd" clip-rule="evenodd" fill="#0466C0" d="M195.381,42.288c-0.154-2.299-0.68-5.428-2.219-8.58
							c-1.422-2.914-2.059-4.412-2.727-5.354c-0.695-0.982-0.752-1.082-1.281-1.803c-0.648-0.885-1.154-1.52-2.018-2.268
							c-0.949-0.826-1.75-1.598-2.676-2.238c-0.65-0.447-1.668-1.178-2.129-1.502c-1.361-0.969-3.568-1.932-6.928-3.189
							c-4.203-1.576-8.182-2.207-9.117-2.402c-2.758-0.582-5.859-0.967-8.676-1.102c-2.369-0.111-15.096-0.166-19.1,0.336
							c-2.002,0.252-5.244,0.424-8.477,1.076c-4.285,0.865-8.49,2.242-9.137,2.566c-5.213,1.488-15.271,6.162-15.371,6.221
							c-1.514,0.621-16.371,8.805-16.871,9.186c-0.602,0.248-8.483,5.658-14.771,10.016c1.381-3.232,2.879-6.408,4.578-9.482
							c1.891-3.43,4.275-6.57,6.718-9.619c2.117-2.646,4.326-5.23,6.574-7.766c2.154-2.424,5.148-5.271,8.115-6.676
							c0.344-0.162-1.469-0.102-1.811,0.057c-2.881,1.367-5.166,3.703-7.283,6.031c-2.385,2.621-4.662,5.352-6.887,8.107
							c-2.38,2.951-4.679,6.008-6.563,9.305c-1.893,3.311-3.5,6.789-4.988,10.299c-0.055,0.131-0.016,0.254,0.062,0.338
							c-2.113,1.479-3.889,2.779-4.887,3.641c-0.008,0.004-0.013,0.01-0.018,0.014c-3.705,2.418-11.625,8.777-14.559,11.703
							c-3.289,3.281-13.35,12.18-16.252,14.844c-1.607,1.479-12.648,11.883-12.648,11.883s-0.8,1.711,0.738,1.703
							c0.748,0.324,14.338-8.057,16.539-9.58c0.428-0.127,13.09-7.006,13.678-7.35c14.079-7.443,29.63-8.23,41.651-9.252
							c5.568-0.311,7.727,0.195,13.396-0.023c6.957,0.619,19.668,0.967,22.637,1.539c-2.787-0.537,12.074,1.318,17.059,2.787
							c2.02,0.516,3.512,1.25,5.506,1.85c0.602,0.184,1.195,0.393,1.787,0.609c-0.166-0.07,4.779,1.408,7.391,2.75l0.02,0.018
							c0.002,0.006,0.002,0.006,0.008,0.01c5.92,3.072,6.998,5.262,9.082,7.902c1.045,1.428,3.895,6.953,4.211,6.369
							c0.971-1.793,2.186-3.574,7.492-11.92c1.695-2.662,5.873-8.922,6.969-11.781c0.252-0.66,1.402-3.668,1.609-4.898
							c0.297-1.777,0.83-3.836,1.119-5.953c0.199-1.469,0.348-1.885,0.42-2.846C195.51,45.747,195.454,43.397,195.381,42.288z"/>
					</g>
					<path fill-rule="evenodd" clip-rule="evenodd" fill="#0466C0" d="M106.561,10.509c-3.305,0-6.457,0-9.605,0
						c-0.268-2.752,0.521-3.691,3.238-3.975C104.368,6.101,106.333,7.216,106.561,10.509z"/>
				</g>
			</g>
		</g>
	</g>
</g>
<g id="Layer_2">
	
		<rect x="-933.82" y="-1193" display="none" opacity="0.2" fill-rule="evenodd" clip-rule="evenodd" fill="#777777" width="2047.725" height="1535.809"/>
</g>
</svg>
