<?xml version="1.0" encoding="utf-8"?>
<!-- Generator: Adobe Illustrator 16.0.4, SVG Export Plug-In . SVG Version: 6.00 Build 0)  -->
<!DOCTYPE svg PUBLIC "-//W3C//DTD SVG 1.0//EN" "http://www.w3.org/TR/2001/REC-SVG-20010904/DTD/svg10.dtd">
<svg version="1.0" id="Layer_1" xmlns="http://www.w3.org/2000/svg" xmlns:xlink="http://www.w3.org/1999/xlink" x="0px" y="0px"
	 width="656px" height="388px" viewBox="0 0 656 388" enable-background="new 0 0 656 388" xml:space="preserve">
<g>
	<g>
		<path fill-rule="evenodd" clip-rule="evenodd" fill="#0164C0" d="M553.222,290.83c-0.938-1.94-1.941-3.845-2.986-5.703
			c-3.055-5.437-6.581-10.973-11.149-15.072c-5.254-8.555-31.492-9.391-40.632-5.336c-39.103,8.613-38.829,57.074-38.829,57.074
			s-258.189,8.422-258.649,6.348c-4.044-18.239-15.111-44.991-23.574-51.072c-6.305-4.53-13.186-8.491-21.118-8.641
			c-12.275-0.232-23.503,3.414-33.551,10.748c-10.147,7.406-16.665,16.764-20.717,27.453l-86.921-0.37
			C1.837,288.508,4.34,268.229,7.062,248.302c0.444-3.247,0.735-5.972,2.912-14.563c3.835-15.136,16.967-34.221,29.697-43.415
			c21.997-14.489,46.683-19.837,72.294-22.532c3.777-0.397,7.713-0.883,11.177-2.3c6.024-2.466,11.259-5.819,13.725-12.729
			c7.256-20.337,14.13-40.878,22.753-60.642c9.361-21.453,18.94-42.312,32.214-61.62c8.25-12,12.25-15,26.877-19.254
			c11.172-2.29,22.6-4.06,33.975-4.495c27.279-1.046,54.591-1.309,81.894-1.582c7.096-0.071,14.252,0.626,21.293,1.599
			c10.285,1.42,15.295,5.898,18.765,14.141c3.03,7.091,2.448,27.799,3.696,45.342c0.451,18.398,1.505,33.549,1.25,47.25
			c-0.272,14.63-0.138,27.571-0.25,42.201c-0.075,9.779,1.618,11.439,11.397,11.068c13.799-0.524,23.603,0.047,41.728-0.687
			c26.26-0.916,52.529-1.759,78.801-2.133c35.973-0.513,72.181-0.326,108.157-0.367c7.32,0.128,12.065-0.027,19.333,0.667
			c4.153,0.397,8,3.583,8.594,7.795c0.739,11.122,0.544,22.242,1.015,33.354c0.682,16.09,2.297,32.182,2.094,48.254
			c-0.149,11.829,1.173,25.55-6.121,35.015L553.222,290.83z"/>
	</g>
	<polygon fill-rule="evenodd" clip-rule="evenodd" fill="#F4F4F2" points="467.5,326.835 204.666,332.001 204.666,327.334 
		466.333,321.669 	"/>
	<path fill-rule="evenodd" clip-rule="evenodd" d="M216.029,163.899c0.008,0.23,20.616-0.164,30.885-0.944
		c17.548-1.334,35.068-3.02,52.613-4.397c3.803-0.299,4.869-1.718,4.812-5.607c-0.339-22.96-0.434-45.924-0.437-68.887
		c-0.002-15.983,0.28-31.968,0.424-47.951c0.032-3.511-0.634-6.934-4.48-7.958c-3.151-0.839-6.533-1.076-9.816-1.103
		c-9.657-0.079-19.401-0.708-28.952,0.341c-12.486,1.371-25.616,2.166-37.034,6.77c-17.771,7.165-28.806,22.466-36.641,39.649
		c-4.196,9.202-8.012,18.644-11.122,28.261c-6.009,18.587-11.312,37.399-17.093,56.062c-1.586,5.12,1.206,5.752,5.006,5.757
		C181.472,163.91,198.75,163.899,216.029,163.899z"/>
	<path fill-rule="evenodd" clip-rule="evenodd" d="M365.621,84.055c0.104-0.009,0.207-0.018,0.31-0.027
		c-0.853-14.599-1.726-29.195-2.548-43.796c-0.405-7.207-1.981-9.415-9.362-10.106c-8.546-0.801-17.163-0.948-25.754-1.127
		c-7.208-0.15-7.703,0.437-7.642,7.562c0.226,26.569,0.434,53.141,0.778,79.709c0.167,12.964,0.637,25.924,0.938,38.886
		c0.102,4.399,2.502,6.068,6.672,6.255c7.641,0.342,15.267,0.999,22.907,1.367c14.763,0.71,15.576,0.014,15.292-14.905
		C366.806,126.598,366.163,105.327,365.621,84.055z"/>
	<path fill-rule="evenodd" clip-rule="evenodd" fill="#0A0042" d="M302.862,181.845c3.22-20.595,5.459,148.119,2.388,124.432
		C304.455,264.8,303.659,223.322,302.862,181.845z"/>
	<path fill-rule="evenodd" clip-rule="evenodd" fill="#0A0042" d="M284.501,218.914c-2.504,1.912-12.138,1.532-14.22,0.954
		c-3.574-0.993-2.626-2.868,0.717-3.598C275.558,216.031,285.958,215.125,284.501,218.914z"/>
	<g>
		<path fill-rule="evenodd" clip-rule="evenodd" d="M93.078,321.793c1.248-19.543,13.754-37.043,24.922-44.341
			c10.048-7.334,38.945-18.909,64.833-2.202c20.862,13.043,30.926,41.018,23.424,66.403c-7.922,24.351-26.635,36.725-45.844,40.795
			c-26.831,3.802-47.524-7.817-56.081-19.948C93.566,346.381,93.078,337,93.078,321.793z"/>
		<path fill-rule="evenodd" clip-rule="evenodd" d="M515.01,369.621c-22.842-1.504-42.526-12.268-51.91-33.287
			c-4.741-10.621-4.717-26.752-1.423-37.33c5.216-16.753,15.846-29.169,32.138-36.397c9.141-4.055,37.852-7.271,54.518,5.395
			c10,8,17.421,25.579,19.107,31.776C583.752,349.109,535,371.667,515.01,369.621z"/>
	</g>
	<g>
		<path fill-rule="evenodd" clip-rule="evenodd" fill="#F4F4F2" d="M96.42,305.942c-2.921,8.474-4.171,16.057-3.002,28.479
			c-5.796,0.327-13.438,0.161-20.168,0.328c-9.614,0.239-18.134,0.261-27.75,0.167c-6.136-0.061-21.976-0.038-28.094-0.533
			C9.333,334.375,6.17,327.75,6.208,320.83c0.294-7.847,2.641-14.318,10.986-14.888c8.587-0.585,26.888,0.325,35.511,0.308
			C67.476,306.222,82.658,305.942,96.42,305.942z"/>
		<path fill-rule="evenodd" clip-rule="evenodd" fill="#F4F4F2" d="M571.208,319.68c-0.484-12.305-3.216-18.151-7.482-29.63
			c21.651-0.691,52.267-1.304,74.469-2.011c2.323-0.074,4.646-0.18,6.971-0.204c6.494-0.067,8.595,7.182,8.167,13.749
			c-0.5,7.666-4.144,12.8-9.093,14.045c-4.627,1.164-6.65,1.422-11.403,1.664C612.795,318.312,591.06,318.854,571.208,319.68z"/>
	</g>
	<g>
		<path fill-rule="evenodd" clip-rule="evenodd" fill="#FFD629" d="M7.896,272.574c-0.066-10.906-0.001-22.573,5.078-38.836
			c3.022-0.054,9.942,1.139,12.994,1.646c14.165,2.355,19.365,18.051,12.53,29.635c-5.677,7.029-14.4,7.341-22.798,8.046
			C13.822,273.223,11.193,273.121,7.896,272.574z"/>
		<path fill-rule="evenodd" clip-rule="evenodd" fill="#AA0000" d="M648.079,245.833c0.39,8.833,0.535,16.1,0.458,24.603
			c-8.787,0.512-22.627,2.081-25.877-3.919c-2.688-4.062-2.847-13.379,1.006-16.516
			C630.832,244.167,634.874,246.126,648.079,245.833z"/>
		<path fill-rule="evenodd" clip-rule="evenodd" fill="#FFA233" d="M646.069,205.283c0.899,13.053,2.075,39.727,2.01,38.55
			c-7.621,0.038-10.913,0.099-14.871-0.25c-11.006-0.97-13.249-8.258-13.846-22.608C621.117,206.787,625.74,205.281,646.069,205.283
			z"/>
	</g>
	<g>
		<path fill-rule="evenodd" clip-rule="evenodd" fill="#DCEBF4" d="M164.194,163.891c-3.8-0.005-6.592-0.637-5.006-5.757
			c5.781-18.662,11.084-37.475,17.093-56.062c3.109-9.617,6.926-19.059,11.122-28.261c7.835-17.184,18.883-38.611,36.655-45.776
			c11.417-4.604,24.547-5.398,37.034-6.77c9.55-1.049,19.295-0.42,28.952-0.341c3.284,0.026,6.666,0.264,9.816,1.103
			c3.846,1.024,4.512,4.447,4.48,7.958c-0.144,15.983-0.44,38.095-0.438,54.078c0.003,22.963,0.098,50.933,0.437,73.893
			c0.057,3.89-1.009,5.309-4.812,5.607c-22.694,1.483-38.569,0.889-57.194,0.889c-13.375,0.139-28.25-0.466-39.5-0.327
			C202.824,163.895,181.472,163.91,164.194,163.891z"/>
		<path fill-rule="evenodd" clip-rule="evenodd" fill="#DCEBF4" d="M367.252,83c0.542,21.272-0.446,43.598-0.041,64.872
			c0.284,14.919,0.135,17.461-14.628,16.751c-9.75,0.106-13.75,0.157-23.828-0.032c-4.173-0.078-6.57-1.855-6.672-6.255
			c-0.301-12.962-0.513-29.103-0.681-42.066c-0.344-26.568-0.398-61.138-0.625-87.707c-0.061-7.126,0.434-7.713,7.642-7.562
			c8.591,0.179,23.117-0.819,31.663-0.019c7.381,0.691,5.457,3.657,5.862,10.864C366.767,46.446,367.252,83,367.252,83z"/>
	</g>
</g>
<path fill-rule="evenodd" clip-rule="evenodd" fill="#F4F4F2" d="M120.482,325.186c0.657-10.281,7.236-19.488,13.111-23.327
	c5.287-3.858,20.489-9.948,34.108-1.159c10.976,6.862,16.271,21.58,12.323,34.936c-4.168,12.811-14.013,19.32-24.118,21.462
	c-14.115,2-25.002-4.112-29.504-10.495C120.739,338.122,120.482,333.187,120.482,325.186z"/>
<path fill-rule="evenodd" clip-rule="evenodd" fill="#F4F4F2" d="M515.022,346.621c-12.513-0.824-23.295-6.719-28.435-18.233
	c-2.598-5.818-2.584-14.655-0.78-20.449c2.857-9.178,8.681-15.979,17.604-19.938c5.007-2.222,20.735-3.984,29.865,2.954
	c5.477,4.383,9.543,14.012,10.466,17.407C552.679,335.386,525.972,347.742,515.022,346.621z"/>
</svg>
