<?xml version="1.0" encoding="utf-8"?>
<!-- Generator: Adobe Illustrator 16.0.4, SVG Export Plug-In . SVG Version: 6.00 Build 0)  -->
<!DOCTYPE svg PUBLIC "-//W3C//DTD SVG 1.0//EN" "http://www.w3.org/TR/2001/REC-SVG-20010904/DTD/svg10.dtd">
<svg version="1.0" id="Layer_1" xmlns="http://www.w3.org/2000/svg" xmlns:xlink="http://www.w3.org/1999/xlink" x="0px" y="0px"
	 width="656px" height="371.334px" viewBox="0 0 656 371.334" enable-background="new 0 0 656 371.334" xml:space="preserve">
<g>
	<path fill-rule="evenodd" clip-rule="evenodd" fill="#F32842" d="M126.452,321.292 M339.958,324.611
		c-17.929,0.203-35.863-0.107-53.794-0.006c-15.285,0.087-30.569,0.381-45.848,0.787l-7.629-0.234
		c2.38-13.363,1.958-26.62-3.951-38.343c-9.292-18.431-24.462-29.444-46.97-28.543c-21.596-1.823-47.724,15.356-51.963,33.466
		c-1.358,5.802-3.799,11.5-4.157,17.343c-0.246,4.015-0.325,8.128,0.375,12.188l-4.598-0.098c-13.624,0-75.194-9.975-78.589-17.248
		c-6.301-3.46-12.071-7.175-17.192-10.604c-11.308-9.629-15.217-17.488-18.822-28.55c-4.833-14.829-5.162-29.99-0.574-45.083
		c4.626-15.219,14.785-26.575,26.074-37.066c13.845-12.866,30.41-20.423,48.567-25.27c12.182-3.252,24.588-7.021,33.463-16.733
		c6.931-7.587,13.123-15.89,19.238-24.174c17.732-24.018,36.607-47.092,58.911-66.977c11.357-10.125,23.571-19.592,36.492-27.585
		c17.096-10.575,59.009-18.102,80.92-18.069c26.314-0.447,51.395,3.71,74.31,18.153c19.683,12.405,38.874,25.297,52.964,44.082
		c10.233,13.643,18.464,28.557,26.626,43.656c13.542,25.051,32.463,44.438,63.649,48c24.89,2.843,49.643,7.486,74.178,12.652
		c18.307,3.854,31.691,15.696,40.896,31.829c15.61,27.357,12.325,54.94-0.217,82.223c-2.585,5.625-7.668,12.214-11.16,17.41
		c8.587,7.245-124.233,6.082-128.707,6.212c-2.814-24.253-21.744-49.948-54.869-54.073c-17.875,0.5-32.583,8.125-40.25,14.625
		c-12.958,15.125-18.667,27.417-18.667,46.712c-0.583,3.788-0.229,5.884,0.184,7.79L339.958,324.611z"/>
	<g>
		<path fill-rule="evenodd" clip-rule="evenodd" fill="#F4F4F2" d="M499.307,326.209c2.095-7.878,2.866-13.876,2.22-24.714
			c10.639,0,24.666,0.186,35.912,0.052c26.555-0.312,53.109-0.729,79.663-1.131c4.434-0.067,8.907-0.739,13.285-0.268
			c4.374,0.471,7.772,3.052,8.13,8.521c0.347,5.31-2.355,10.354-6.983,11.696c-3.755,1.089-7.75,1.44-11.659,1.612
			c-34.76,1.538-69.522,2.986-104.287,4.392C510.652,326.569,504.477,326.209,499.307,326.209z"/>
		<path fill-rule="evenodd" clip-rule="evenodd" fill="#F4F4F2" d="M121.486,321.557c-17.496,0-35.593,0.04-52.986-0.044
			c-11.219-0.053-20.122-5.777-26.45-18.021c26.72-0.778,52.666-1.649,79.624-2.436C120.833,306.749,120,313.249,121.486,321.557z"
			/>
	</g>
	<g>
		<path fill-rule="evenodd" clip-rule="evenodd" fill="#F4CE18" d="M648.676,222.044c3.748,10.952,1.934,29.761,0.686,37.077
			c-2.925-0.175-7.882-1.262-6.78-1.003c-8.487-1.631-11.795-6.963-13.132-11.36c-0.821-2.698-1.803-9.856-0.152-14.272
			c2.082-5.565,6.167-7.712,11.213-9.188C642.321,222.768,646.198,222.227,648.676,222.044z"/>
		<g>
			<path fill-rule="evenodd" clip-rule="evenodd" fill="#FFA233" d="M5.804,232.344c0.464-3.432,2.075-7.129,4.154-9.012
				c4.876-4.417,11.076-2.75,11.076-2.75s0.604,26.185,0,31.125c-9.201,0-4.931,0.326-14.599,0.156
				C4.999,245.499,5.149,237.188,5.804,232.344z"/>
			<path fill-rule="evenodd" clip-rule="evenodd" fill="#AA0000" d="M6.5,253.946c6.145-0.083,14.534,0.136,14.534,0.136
				s-0.139,7.313,0,16.743C9.784,271.046,8.25,264.624,6.5,253.946z"/>
		</g>
	</g>
	<g>
		<path fill-rule="evenodd" clip-rule="evenodd" fill="#AA0000" d="M297.983,165.082c2.276,3.19-2.604,137.417-3.874,141.449
			c-0.276,6.3-1.572,8.676-1.572-1.569c0.5-23.442,1.008-46.885,1.659-70.324c0.636-22.931,1.431-45.858,2.194-68.786
			C296.42,164.955,296.958,159.332,297.983,165.082z"/>
		<path fill-rule="evenodd" clip-rule="evenodd" fill="#AA0000" d="M261.219,214.648c2.948,4.869-8.385,6.35-14.351,4.247
			c-0.81-0.286-1.214-1.6-1.308-2.479c-0.058-0.536,0.836-1.678,1.326-1.69C251.661,214.597,256.44,214.648,261.219,214.648z"/>
		<path fill-rule="evenodd" clip-rule="evenodd" fill="#AA0000" d="M346.42,217.1c1.194,1.277-0.393,3.414-1.865,3.814
			c-2.042,0.556-10.6,0.387-12.386-0.083c-2.681-0.706-3.283-3.842-2.362-3.832C333.583,217.042,340.485,217.092,346.42,217.1z"/>
	</g>
	<g>
		<path fill-rule="evenodd" clip-rule="evenodd" fill="#DCEBF4" d="M305.581,20.923c7.704,0,14.739,1.128,21.471,2.159
			c27.485,4.205,54.437,18.339,74.426,38.259c16.13,16.073,26.391,30.265,39.768,48.478c9.975,13.582,18.378,25.757,27.401,40.047
			c0.607,0.961,2.032,4.291-2.653,4.291c-14.988,0-25.271,0.346-40.091,0c-16.975-0.396-30.993-0.584-51.681-0.917
			c-20.77-0.351-41.551-0.124-62.327-0.01c-3.827,0.021-5.685-1.007-5.648-5.312c0.206-24.638,0.335-49.278,0.238-73.917
			c-0.059-14.865-0.582-28.055-0.877-42.918C305.555,28.487,305.581,23.886,305.581,20.923z"/>
		<path fill-rule="evenodd" clip-rule="evenodd" fill="#DCEBF4" d="M292.357,21.014c-1.295,42.927-1.049,83.136-1.049,125.802
			c0,4.902-3.498,5.252-7.506,5.329c-12.036,0.231-22.605-0.368-34.34,0.049c-24.017,0.856-44.736,0.555-68.746,1.625
			c-9.52,0.424-23.241,0.094-32.768,0.263c-4.62,0.048-6.314,0.058-3.577-4.891c8.825-14.699,17.432-29.636,27.506-43.417
			c10.19-13.937,21.472-27.158,33.284-39.693c25.561-25.028,38.787-33.87,67.616-42.191C278.934,21.969,286.7,21.014,292.357,21.014
			z"/>
	</g>
	<g>
		<path fill-rule="evenodd" clip-rule="evenodd" d="M177.455,253.356c26.038-1.358,42.845,10.367,52.878,30.334
			c6.382,12.7,8.483,27.792,5.912,42.269c-3.63,20.443-21.607,30.937-30.641,35.039c-8.188,3.23-18.92,6.394-27.783,5.664
			c-12.301-1.013-20.675-2.179-28.422-7.212c-11.989-7.792-18.862-15.923-26.522-31.277c-1.581-6.36-2.622-13.143-2.226-19.63
			c0.387-6.33,2.069-12.805,4.49-18.788C133,270.332,152.333,253.214,177.455,253.356z"/>
		<path fill-rule="evenodd" clip-rule="evenodd" d="M406.61,351.575c-13.97-13.313-21.76-28.267-18.366-50.909
			c1.367-9.117,13.087-42.667,47.849-48.246c28.284-3.421,55.905,11.912,63.834,41.912c9.825,33.878-14.929,57.244-29.047,62.992
			C450.454,366.755,422.895,364.666,406.61,351.575z"/>
		<path fill-rule="evenodd" clip-rule="evenodd" fill="#F4F4F2" d="M178.483,285.865c11.792-0.614,19.402,4.697,23.946,13.738
			c2.891,5.75,3.842,12.584,2.678,19.14c-1.645,9.257-9.786,14.01-13.876,15.868c-3.708,1.462-8.568,2.895-12.582,2.565
			c-5.57-0.458-9.362-0.988-12.87-3.267c-5.429-3.528-8.542-7.21-12.011-14.164c-0.716-2.88-1.187-5.952-1.008-8.889
			c0.175-2.867,0.937-5.799,2.034-8.508C158.353,293.554,167.107,285.802,178.483,285.865z"/>
		<path fill-rule="evenodd" clip-rule="evenodd" fill="#F4F4F2" d="M429.638,328.221c-6.097-5.812-9.499-12.339-8.016-22.222
			c0.596-3.979,5.712-18.624,20.886-21.059c12.345-1.493,24.402,5.2,27.863,18.295c4.289,14.787-6.517,24.986-12.679,27.496
			C448.775,334.847,436.746,333.935,429.638,328.221z"/>
	</g>
</g>
</svg>
