<?xml version="1.0" encoding="utf-8"?>
<!-- Generator: Adobe Illustrator 16.0.4, SVG Export Plug-In . SVG Version: 6.00 Build 0)  -->
<!DOCTYPE svg PUBLIC "-//W3C//DTD SVG 1.0//EN" "http://www.w3.org/TR/2001/REC-SVG-20010904/DTD/svg10.dtd">
<svg version="1.0" xmlns="http://www.w3.org/2000/svg" xmlns:xlink="http://www.w3.org/1999/xlink" x="0px" y="0px" width="2048px"
	 height="1536px" viewBox="0 0 2048 1536" enable-background="new 0 0 2048 1536" xml:space="preserve">
<g id="Layer_1">
	<g>
		<g>
			<path fill-rule="evenodd" clip-rule="evenodd" fill="#515151" d="M2489,153.537c0,482.985,0,965.092,0,1447.987
				c-2232.096,0-4463.267,0-6696.124,0c0-645.808,0-1235.197,0-1563.328C-1976.056,38.196,255.595,153.537,2489,153.537z"/>
		</g>
		<g>
			<g>
				<g>
					<path fill-rule="evenodd" clip-rule="evenodd" fill="#515151" d="M-784.524,1229.281
						c280.933-2.239,561.355-4.475,842.236-6.714c5.438,682.324,10.875,1364.365,16.315,2046.923
						c-375.64,2.994-651.865,5.037-842.726,6.559C-774.135,2594.039-779.082,1912.005-784.524,1229.281z"/>
					<g>
						<path fill-rule="evenodd" clip-rule="evenodd" fill="#FFFFFF" d="M62.363,1298.926c0.002,3.857,0.004,8.471,0.006,12.108
							c-2.584,0.279-129.479-0.235-153.102-0.605c-16.457-0.257-220.484,0.681-231.711,0.602
							c-34.656-0.245-277.802-0.512-296.191-0.377c-10.064,0.073-140.188,1.276-166.934,0.032
							c-0.163-10.151-0.163-10.151-0.163-10.151s109.099-0.332,146.269-0.955c24.982-0.417,188.914-0.214,205.189-0.116
							c22.867,0.139,329.928-0.772,350.258-0.336C-64.074,1299.554,53.025,1298.713,62.363,1298.926z"/>
						<path fill-rule="evenodd" clip-rule="evenodd" fill="#FFFFFF" d="M62.436,1469.485c0.002,3.867,0.004,8.491,0.006,12.138
							c-2.59,0.28-129.793-0.235-153.473-0.606c-16.498-0.259-221.023,0.683-232.277,0.604
							c-34.738-0.246-278.477-0.514-296.912-0.379c-10.088,0.073-140.527,1.279-167.338,0.033
							c-0.164-10.177-0.164-10.177-0.164-10.177s109.363-0.333,146.625-0.957c25.042-0.42,189.375-0.215,205.689-0.116
							c22.92,0.139,330.73-0.774,351.109-0.338C-64.311,1470.115,53.076,1469.272,62.436,1469.485z"/>
					</g>
				</g>
			</g>
			<g>
				<g>
					<path fill-rule="evenodd" clip-rule="evenodd" fill="#515151" d="M-799.523-1640.539
						c280.933-2.239,561.355-4.475,842.236-6.714c5.438,682.324,7.853,1392.303,13.293,2074.86
						c-375.854,2.994-648.95-22.901-839.703-21.379C-789.134-275.781-794.081-957.815-799.523-1640.539z"/>
					<g>
						<path fill-rule="evenodd" clip-rule="evenodd" fill="#FFFFFF" d="M52.232,176.483c0.002,3.857,0.004,8.471,0.006,12.108
							c-2.584,0.279-129.479-0.235-153.102-0.605c-16.457-0.257-220.484,0.681-231.711,0.602
							c-34.656-0.245-277.802-0.512-296.191-0.377c-10.064,0.073-140.188,1.276-166.934,0.032
							c-0.163-10.151-0.163-10.151-0.163-10.151s109.099-0.332,146.269-0.955c24.982-0.417,188.914-0.214,205.189-0.116
							c22.867,0.139,329.928-0.772,350.258-0.336C-74.205,177.111,42.895,176.27,52.232,176.483z"/>
						<path fill-rule="evenodd" clip-rule="evenodd" fill="#FFFFFF" d="M52.305,347.042c0.002,3.867,0.004,8.491,0.006,12.138
							c-2.59,0.28-129.793-0.235-153.473-0.606c-16.498-0.259-221.023,0.683-232.277,0.604
							c-34.738-0.246-278.477-0.514-296.912-0.379c-10.088,0.073-140.527,1.279-167.338,0.033
							c-0.164-10.177-0.164-10.177-0.164-10.177s109.363-0.333,146.625-0.957c25.042-0.42,189.375-0.215,205.689-0.116
							c22.92,0.139,330.73-0.774,351.109-0.338C-74.441,347.672,42.945,346.83,52.305,347.042z"/>
					</g>
				</g>
				<g>
					<path fill-rule="evenodd" clip-rule="evenodd" fill="#C6C6C6" d="M58.765,283.896c0.303-9.957-8.441-1016.505-9.273-1032.604
						c-0.457-8.674-1.363-229.166-1.56-266.969c-0.169-32.774-2.694-65.549-3.435-98.333c-0.354-16.066-6.3-454.978-8.068-485.752
						c-0.837-14.471-3.941-36.062-3.344-50.361c0.3-7.108,378.097-21.845,366.658-3.015
						c3.084,49.663,21.318,1987.855,18.817,2017.388"/>
				</g>
			</g>
		</g>
	</g>
	<g>
		<path fill-rule="evenodd" clip-rule="evenodd" fill="#FFFFFF" d="M263.074,1229.057c-3.857,0-8.471,0-12.108,0
			c-0.278-2.583,0.29-129.478,0.67-153.1c0.265-16.457-0.587-220.486-0.503-231.713c0.26-34.654,0.63-277.801,0.503-296.191
			c-0.068-10.062-1.217-140.188,0.039-166.932c10.151-0.16,10.151-0.16,10.151-0.16s0.286,109.099,0.893,146.269
			c0.407,24.982,0.134,188.915,0.029,205.189c-0.148,22.866,0.632,329.928,0.188,350.258
			C262.5,1102.618,263.291,1219.719,263.074,1229.057z"/>
		<path fill-rule="evenodd" clip-rule="evenodd" fill="#FFFFFF" d="M92.515,1229.057c-3.867,0-8.491,0-12.138,0
			c-0.279-2.589,0.29-129.792,0.672-153.472c0.266-16.498-0.589-221.024-0.505-232.278c0.261-34.737,0.632-278.476,0.505-296.911
			c-0.069-10.087-1.22-140.528,0.038-167.338c10.177-0.16,10.177-0.16,10.177-0.16s0.286,109.364,0.895,146.626
			c0.409,25.042,0.135,189.374,0.029,205.688c-0.148,22.921,0.634,330.73,0.188,351.11
			C91.938,1102.311,92.731,1219.696,92.515,1229.057z"/>
	</g>
	<g>
		<path fill-rule="evenodd" clip-rule="evenodd" fill="#C6C6C6" d="M82.04,1228.45c177.026-0.076,2191.556-0.298,2215.702-0.268
			c6.662,0.01,80.301,0.09,86.014,0.098c4.818,0.007,9.646-0.043,14.473-0.047c1.332-0.002,2.674,0.07,4.988,0.137
			c3.928-0.301,30.17-0.268,37.4,0.125c1.783-0.178,3.242-0.324,6.816-0.129c2.227,0.121,7.106,0.083,9.471-0.054
			c4.705-0.271,8.195-0.07,12.326,0.04c1.593,0.041,62.224-0.169,69.134,0.016c3.886,0.104,8.548-0.005,12.856-0.023
			c10.673-0.047,21.342-0.121,32.021-0.138c11.22-0.017,22.468-0.007,33.668,0.046c6.534,0.031,158.066-0.286,165.246-0.314
			c14.468-0.058,28.932-0.128,43.406-0.168c9.604-0.028,19.229-0.001,28.838-0.022c10.328-0.022,20.646-0.081,30.974-0.107
			c2.557-0.007,415.335,0.83,415.916,0.856c7.019,0.326,107.751-0.031,113.769-0.045c5.801-0.012,11.594-0.049,17.648-0.076
			c0.1,0.188-0.362,472.445-0.258,472.646c-16.785,0.062-3371.96-0.283-3379.422-0.305l-0.269-446L82.04,1228.45z"/>
		<path fill-rule="evenodd" clip-rule="evenodd" fill="#C6C6C6" d="M3453.707,382.609c-19.863-0.688-92.367-0.621-110.41-1.309
			c-9.953-0.383-3233.811,5.325-3249.916,6.029l-39.737-43.464c1.22-102.023-16.108-608.847-0.577-599.243
			c49.686-2.688,3369.802-7.688,3399.313-4.952C3452.886-214.915,3456.021,289.307,3453.707,382.609z"/>
	</g>
	<path fill-rule="evenodd" clip-rule="evenodd" fill="#C6C6C6" d="M51.615,344.304c-0.234-29.44-1.34-145.642-1.492-158.72
		c-0.131-11.279-0.21-22.588-0.331-33.881c-0.177-16.495-0.397-32.979-0.554-49.479c-0.148-15.684-0.233-31.38-0.362-47.072
		c-0.134-16.278-0.286-32.556-0.432-48.834c-0.133-14.64-1.028-146.302-1.148-162.817c-0.056-7.616-0.085-15.233-0.158-22.842
		c-0.084-8.684-0.22-17.354-0.305-26.038c-0.059-6.065-0.06-12.139-0.104-18.213c-0.051-6.77-0.829-106.816-0.955-121.892
		c-0.113-13.56-0.218-27.116-0.318-40.674c-0.145-19.165-0.944-121.832-1.027-134.27c-0.045-6.682-0.553-80.521-0.59-86.251
		c-0.032-4.832-0.119-9.672-0.162-14.512c-0.013-1.337,0.047-2.681,0.096-5.003c-0.333-3.938-0.509-30.25-0.173-37.504
		c-0.193-1.787-0.352-3.248-0.185-6.834c0.104-2.233,0.026-7.128-0.129-9.496c-0.31-4.716-0.137-8.218-0.059-12.361
		c0.029-1.597-0.666-62.393-0.538-69.323c0.073-3.897-0.072-8.572-0.126-12.891c-0.131-10.702-0.291-21.4-0.394-32.109
		c-0.106-11.25-0.186-22.529-0.222-33.761c-0.021-6.553-1.55-158.498-1.636-165.696c-0.174-14.507-0.36-29.01-0.516-43.524
		c-0.104-9.63-0.153-19.281-0.253-28.916c-0.104-10.356-0.245-20.702-0.354-31.059c-0.026-2.563-2.49-416.48-2.469-417.062
		c0.27-7.041-0.893-108.046-0.953-114.08c-0.06-5.816-0.143-11.626-0.218-17.696c0.188-0.103,118.789-0.464,118.988-0.57
		c0.197,16.831,17.131,2037.809,17.17,2045.292c-2.48,0.33-76.668,0.279-81.494,0.306C57.539,386.701,51.906,380.898,51.615,344.304
		z"/>
	<path fill-rule="evenodd" clip-rule="evenodd" fill="#C6C6C6" d="M66.96,3278.645c-0.061-4.348-0.139-8.691-0.18-13.041
		c-0.067-7.236-0.104-14.473-0.166-21.713c-0.248-29.357-1.381-160.547-1.533-173.588c-0.131-11.248-0.209-22.525-0.33-33.787
		c-0.177-16.449-0.396-32.889-0.553-49.342c-0.148-15.641-0.232-31.295-0.361-46.943c-0.133-16.232-0.285-32.465-0.431-48.699
		c-0.132-14.598-1.025-145.896-1.145-162.367c-0.056-7.594-0.085-15.189-0.158-22.777c-0.083-8.66-0.219-17.307-0.304-25.967
		c-0.059-6.049-0.06-12.105-0.104-18.162c-0.05-6.75-0.826-106.521-0.952-121.555c-0.113-13.521-0.217-27.041-0.317-40.561
		c-0.144-19.113-0.941-121.496-1.024-133.898c-0.045-6.664-0.551-80.299-0.588-86.012c-0.032-4.82-0.119-9.646-0.162-14.473
		c-0.013-1.332,0.048-2.674,0.096-4.988c-0.332-3.928-0.508-30.168-0.172-37.4c-0.193-1.783-0.352-3.24-0.184-6.816
		c0.104-2.227,0.026-7.107-0.129-9.469c-0.31-4.703-0.137-8.195-0.059-12.328c0.029-1.592-0.665-62.219-0.536-69.131
		c0.073-3.887-0.072-8.549-0.126-12.855c-0.131-10.672-0.291-21.34-0.393-32.02c-0.106-11.219-0.186-22.467-0.222-33.668
		c-0.021-6.533-1.546-158.059-1.632-165.238c-0.174-14.467-0.359-28.928-0.515-43.402c-0.104-9.604-0.153-19.229-0.252-28.836
		c-0.104-10.328-0.245-20.646-0.354-30.973c-0.026-2.557-2.48-415.33-2.459-415.91c0.27-7.021-1.011-98.877-1.071-104.895
		c-0.054-6.6,5.229-28.559,29.228-29.189c0.188-0.102,320.241,1.879,320.44,1.773c0.197,16.785,15.977,2039.305,16.016,2046.766
		c0.007,1.543-349.132,0.264-349.191,1.779C67.078,3278.854,67.02,3278.75,66.96,3278.645z"/>
	<g>
		<g>
			<path fill-rule="evenodd" clip-rule="evenodd" fill="#F2F2F2" d="M1873.907,855.335c-19.535,0.306-29.453-0.121-50.633-0.441
				c-21.779-0.031-30.156-0.983-47.166-1.076c-2.707-0.014-10.996,0.235-13.719-0.042c-3.289-0.338-1.373-1.371-2.07-4.297
				c-0.469-3.784,0.285-15.453,0.307-23.442c-0.162-1.224-0.592-15.641-0.021-22.777c0.281-3.521-0.256-3.915,3.961-3.842
				c16.75,0.284,36.715,0.973,51.465,1.061c19.162,0.116,38.324-0.094,57.482-0.361c3.24-0.047,3.561,1.568,3.518,3.715
				c-0.168,8.539-0.506,17.074-0.629,25.614c-0.096,6.668,0.031,22.534-0.105,24.265
				C1876.157,855.44,1873.907,855.286,1873.907,855.335z"/>
			<path fill-rule="evenodd" clip-rule="evenodd" fill="#F2F2F2" d="M456.665,849.416c-19.535,0.307-29.453-0.121-50.633-0.441
				c-21.779-0.031-30.156-0.982-47.166-1.076c-2.707-0.014-10.996,0.236-13.719-0.041c-3.289-0.338-1.373-1.371-2.07-4.297
				c-0.469-3.785,0.285-15.453,0.307-23.442c-0.162-1.224-0.592-15.641-0.021-22.777c0.281-3.521-0.256-3.915,3.961-3.842
				c15.75,0.268,35.715,0.967,51.465,1.061c19.162,0.116,38.324-0.094,57.482-0.361c3.24-0.047,3.561,1.568,3.518,3.715
				c-0.168,8.539-0.506,17.074-0.629,25.614c-0.096,6.668,0.031,22.533-0.105,24.264
				C458.915,849.521,456.665,849.367,456.665,849.416z"/>
			<path fill-rule="evenodd" clip-rule="evenodd" fill="#FFFFFF" d="M750.591,849.127c-19.098,0.113-37.127,0.531-55.168,0.606
				c-13.973,0.058-26.65,0.196-41.332,0.002c-6.795,0.254-13.334,0.057-20.834-0.776c0-19.01,0-37.211,0-56.896
				c16.182,0,31.658,0.189,47.133-0.047c17.111-0.258,30.922,0.463,48.033-0.055c4.865-0.145,13.031,0.844,17.877,0.379
				c3.26-0.311,4.316,0.951,4.291,4.43C750.474,813.326,750.591,830.549,750.591,849.127z"/>
			<path fill-rule="evenodd" clip-rule="evenodd" fill="#FFFFFF" d="M917.55,792.92c19.098-0.113,32.5,0.206,50.541,0.132
				c13.975-0.057,26.65-0.195,41.334-0.002c6.793-0.254,13.334-0.057,20.832,0.775c0,19.012,0,37.212,0,56.897
				c-16.182,0-31.656-0.189-47.131,0.047c-17.113,0.258-30.924-0.463-48.035,0.055c-19.959,0.02-22.172-0.48-22.172-3.182
				c0.104-14.715-0.125-35.952,0.273-52.327C913.241,793.266,915.019,792.894,917.55,792.92z"/>
		</g>
		<path fill-rule="evenodd" clip-rule="evenodd" fill="#FFFFFF" d="M1202.279,852.732c-9.325,0.341-7.073-1.869-7.37-8.867
			c-0.338-11.496-0.562-31.481-0.33-41.875c0.039-4.452-0.256-6.371,5.201-6.932c15.699-1.611,33.498-0.39,53.374-0.62
			c8.997-0.104,13.122-0.152,22.747-0.209c5.129-0.03,22.129-0.249,27.373-0.373c10.925,0.62,8.374-0.098,8.967,19.812
			c0.206,6.883,0.479,23.586-0.008,30.46c-0.693,9.87,0.746,7.551-15.078,7.735c-20.833,0.079-45.33,0.525-51.458,0.52
			C1241.806,851.956,1219.452,852.766,1202.279,852.732z"/>
		<path fill-rule="evenodd" clip-rule="evenodd" fill="#FFFFFF" d="M1592.8,797.606c0,16.045,0.066,30.852,0.01,46.5
			c-0.031,9.121,0.855,7.685-6.023,7.935c-33.471,1.204-65.166,0.535-107.799,0.535c-6.627,1.28-5.303-2.22-5.303-5.47
			c-0.449-13.51,0-23.016,0.037-37.419c0.389-12.59-1.982-15.223,4.822-15.578c14.359-0.749,30.307,0,43.297,0
			c21.648,0,46.252,0,65.828,0C1592.833,794.109,1592.833,794.109,1592.8,797.606z"/>
	</g>
	<path fill-rule="evenodd" clip-rule="evenodd" fill="#88A80D" d="M2675.564,1883.884c0.118,50.1-0.497,100.992-0.673,151.287
		c-0.155,47.632,1.893,218.622-0.501,254.405c0.346,54.876-56.798,55.989-91.794,57.891c-73.553,4.038-438.823-0.522-544.819-1.912
		c-82.325-1.085-797.221,1.295-868.996,2.898c-75.867,1.716-151.879,2.19-227.707,0.286c-131.025,1.236-95.024,5.973-132.225-64.244
		c-57.852-92.289-68.307-118.954-131.264-197.344c-44.148-54.964-66.863-78.992-136.042-138.51
		c-39.452-33.938-186.714-120.159-224.366-133.525c-42.377-17.005-48.216-21.514-47.301-46.68
		c2.431-66.105-0.128-79.84,1.988-145.945c1.451-45.238,0.924-90.548,1.076-135.833c0.139-38.844,16.396-65.633,61.21-72.703
		c30.503-4.784,221.001-0.584,285.901,0.152c97.307,1.094,889.708-0.854,926.874-0.704c71.273,0.293,966.515-6.008,1028.419-4.752
		c35.107,0.711,58.766,7.187,79.693,24.086c13.081,10.563,20.936,29.808,21.326,44.772c1.257,49.017,1.114,113.069-0.781,162.14
		C2675.176,1649.883,2675.425,1824.529,2675.564,1883.884z"/>
	<path fill-rule="evenodd" clip-rule="evenodd" fill="#88A80D" d="M2512.196-185.229c0.205,8.187,0.563,16.369,0.641,24.552
		c0.345,36.475-1.519,147.325-1.787,166.002c-0.355,24.576,0.64,104.695,0.459,116.217c-0.54,34.443,0.193,123.233-1.375,137.306
		c-2.843,8.747-5.674,10.622-12.097,11.734c-14.036,2.433-62.377,0.546-67.587,0.454c-1.63-0.027-110.177,0.214-122.59-0.047
		c-14.613-0.305-1980.402-0.616-1995.025-0.47c-19.43,0.193-74.368,1.494-82.292,1.466c-13.323-0.054-21.39-5.977-22.025-19.57
		c-0.376-8.062,0.307-113.562,0.155-117.661c-0.611-16.944,0.764-161.498,0.813-176.671c0.091-28.129-0.157-56.266,0.287-84.387
		c0.265-16.659-1.353-32.178-0.378-48.816c0.746-12.812,6.291-20.227,18.769-20.301c7.338-0.044,2041.364,0.005,2048.655-0.152
		c10.387-0.225,188.347,1.625,192.471,1.512c4.631-0.126,29.853-1.512,37.707-0.355
		C2513.387-193.478,2512.192-185.449,2512.196-185.229z"/>
	<g>
		<g>
			<path fill-rule="evenodd" clip-rule="evenodd" d="M1896.134-107.496c-7.677,8.428-12.357,17.418-16.329,26.938
				c-10.619,25.462-18.954,51.635-25.451,78.434c-2.578,10.636-5.969,21.068-8.688,31.669c-4.061,15.851-7.693,31.811-11.811,47.645
				c-3.283,12.634-7.456,25.045-10.438,37.744c-3.472,14.785-9.704,28.323-17.737,40.952c-12.495,19.63-27.41,37.421-46.953,50.308
				c-11.939,7.876-25.405,13.401-37.904,20.476c-22.011,12.463-46.073,19.583-69.768,27.742c-7.337,2.528-14.325,6.048-21.623,8.716
				c-2.838,1.038-6.07,1.137-9.143,1.385c-6.314,0.506-12.645,1.163-18.969,1.149c-13.807-0.023-25.01-6.083-34.104-16.115
				c-4.787-5.286-9.721-10.517-11.679-17.817c-2.32-8.646-2.983-17.264,0.244-25.681c3.053-7.965,5.835-16.028,10.99-23.139
				c7.489-10.345,16.453-18.976,26.547-26.71c13.905-10.65,29.735-17.761,45.518-24.704c22.318-9.817,38.708-25.271,50.364-46.504
				c8.789-16.012,15.912-32.655,19.788-50.419c4.215-19.279,7.135-38.843,10.772-58.252c3.271-17.454,6.519-34.916,10.218-52.28
				c2.299-10.787,4.937-21.555,8.321-32.039c2.523-7.806,6.297-15.23,9.85-22.663c6.164-12.896,16.064-22.649,27.482-30.84
				c7.062-5.069,14.643-9.426,21.986-14.1c0.396-0.254,0.777-0.661,1.204-0.725c7.644-1.122,7.746-7.023,7.917-12.7
				c0.381-12.266,0.484-24.539,0.928-36.802c0.206-5.638,0.757-11.282,1.488-16.88c0.838-6.417,4.496-11.552,8.447-16.426
				c0.568-0.703,7.621-6.667,9.369-7.523c8.75-4.298,15.227-7.083,25.26-7.962c22.498-0.068,33.258,8.458,38.417,18.713
				c2.745,5.446,4.878,8.359,4.886,14.637c0.009,4.45,0.514,8.9,0.83,13.891c2.693-1.766,4.988-3.533,7.507-4.874
				c11.521-6.141,23.613-9.205,36.681-6.181c2.976,0.688,19.531,8.637,26.709,18.54c3.993,5.501,4.879,7.806,7.011,24.64
				c0.825,6.806,0.227,13.825-0.188,20.722c-0.214,3.563,0.072,4.555,3.728,4.338c2.18-0.128,3.078,0.847,3.368,2.683
				c0.971,6.143,2.163,12.266,2.724,18.445c0.953,10.435,2.107,20.908,2.072,31.359c-0.076,26.194-1.191,52.383-1.132,78.572
				c0.085,37.048,0.89,74.095,1.315,111.142c0.133,11.217-0.272,22.447,0.121,33.651c0.614,17.441,1.529,34.876,2.649,52.293
				c0.966,15.167,2.326,30.314,3.639,45.46c0.372,4.3,1.188,8.564,1.939,13.852c-3.714,0-6.817,0.377-9.737-0.181
				c-1.154-0.222-2.568-2.447-2.74-3.895c-1.359-11.583-2.402-23.203-3.711-34.79c-0.115-1.032-1.209-2.458-2.176-2.812
				c-14.341-5.252-28.76-10.296-43.111-15.522c-5.064-1.845-9.998-4.048-15.422-6.263c0.242,4.685,0.401,9.193,0.723,13.688
				c0.521,7.273,1.23,14.534,1.675,21.812c0.124,1.956-0.227,3.76-3.091,4.114c-2.881,0.359-5.805,1.888-7.767-1.434
				c-0.595-1.005-0.368-2.521-0.433-3.805c-0.885-17.635-1.568-35.282-2.676-52.902c-1.172-18.577-2.959-37.118-4.065-55.701
				c-0.777-13.062-0.765-26.168-1.286-39.247c-0.465-11.888-1.312-23.761-1.744-35.652c-0.604-16.618-0.961-33.247-1.449-49.871
				c-0.324-11.198-0.773-22.391-1.009-33.591c-0.185-8.479-0.115-16.964-0.167-25.45
				C1896.318-105.001,1896.236-105.766,1896.134-107.496z M1886.944-201c-2.245,0.218-4.216,0.257-6.118,0.624
				c-4.27,0.825-8.49,1.95-12.769,2.708c-15.474,2.753-30.385,7.462-44.902,13.326c-13.286,5.369-26.55,10.828-38.344,19.316
				c-9.495,6.833-19.183,13.423-26.205,22.949c-10.122,13.735-16.538,29.309-21.108,45.605c-2.6,9.283-4.471,18.786-6.34,28.254
				c-3.21,16.259-6.228,32.561-9.195,48.865c-3.121,17.121-5.578,34.376-9.262,51.366c-3.96,18.224-10.82,35.487-19.771,51.925
				c-11.85,21.771-28.09,38.565-51.127,48.816c-16.196,7.207-32.338,14.703-46.696,25.514c-12.513,9.422-23.23,20.282-30.868,34.027
				c-0.596,1.066-1.014,2.231-1.723,3.834c25.926-14.356,53.891-21.273,81.143-30.289c-0.748,1.171-1.701,1.951-2.799,2.332
				c-9.191,3.228-18.417,6.369-27.621,9.554c-16.008,5.536-32.325,10.385-46.658,19.796c-2.684,1.757-5.592,4.023-6.964,6.771
				c-5.646,11.274-4.771,22.768,1.633,33.336c3.297,5.438,7.993,10.176,12.676,14.571c4.911,4.612,10.849,7.872,17.659,9.138
				c9.938,1.84,19.843,2.045,29.82,0.028c3.235-0.659,5.112-1.898,6.383-5.04c6.095-15.065,16.471-26.987,30.294-34.917
				c15.386-8.825,31.71-16.045,47.767-23.671c17.787-8.45,34.801-17.984,47.941-33.055c6.412-7.353,13.059-14.654,18.334-22.802
				c6.395-9.888,10.448-21.068,13.578-32.476c4.449-16.21,8.746-32.462,13.272-48.653c2.979-10.655,6.186-21.248,9.399-31.834
				c6.353-20.944,12.209-42.066,19.374-62.729c5.429-15.655,12.49-30.745,18.958-46.031c5.844-13.812,8.186-28.923,16.201-41.964
				c6.512-10.586,13.017-21.042,23.422-28.322c1.642-1.15,2.27-2.304,2.146-4.352c-0.611-9.836-1.133-19.681-1.496-29.53
				C1886.772-189.53,1886.944-195.066,1886.944-201z M1630.064,259.081c7.412-2.723,14.424-5.425,21.52-7.87
				c10.572-3.648,21.221-7.068,31.812-10.671c13.752-4.679,26.627-11.301,39.479-17.976c9.617-4.991,19.389-9.714,28.807-15.057
				c13.162-7.473,23.836-17.862,33.66-29.334c12.683-14.816,23.416-30.843,30.329-49.047c4.325-11.394,7.267-23.342,10.401-35.15
				c8.6-32.41,17.26-64.808,25.352-97.345c7.084-28.498,15.762-56.433,27.685-83.274c5.569-12.536,12.626-23.999,26.575-29.203
				c6.482-2.418,12.535-6.064,19.105-8.142c7.459-2.357,15.222-3.986,22.963-5.189c8.857-1.374,17.424-5.433,26.717-3.268
				c-0.102-2.032-0.269-4.02-0.294-6.006c-0.081-8.381-0.202-16.762-0.133-25.143c0.025-3.169-1.308-4.802-4.374-5.181
				c-1.047-0.128-2.09-0.335-3.137-0.451c-11.657-1.297-23.003,1.147-34.224,3.557c-8.345,1.791-16.423,4.85-24.556,7.553
				c-13.404,4.461-24.639,12.023-33.085,23.54c-8.401,11.447-14.817,23.857-19.181,37.389c-2.378,7.38-4.891,14.75-7.914,21.882
				c-10.553,24.941-21.325,49.761-28.384,76.035c-4.578,17.05-10.302,33.79-15.107,50.783
				c-5.437,19.212-10.216,38.614-15.671,57.818c-4.031,14.186-8.959,28.119-17.796,40.164c-3.599,4.917-8.404,8.944-12.103,13.8
				c-7.616,10.009-16.971,18.2-27.631,24.426c-12.885,7.526-26.512,13.801-39.947,20.362c-14.039,6.861-28.834,12.299-40.734,22.984
				C1641.504,238.865,1633.977,247.432,1630.064,259.081z M1816.137-183.916c21.655-9.887,44.684-15.361,68.502-19.777
				c0.316-8.255,0.795-16.227,0.852-24.202c0.025-3.74-1.261-7.511-1.09-11.228c0.436-9.659-4.912-15.633-12.654-19.453
				c-12.648-6.243-32.641-3.169-43.452,5.444c-4.172,3.326-7.207,7.774-8.81,13.316c-2.527,8.727-3.365,17.535-3.353,26.516
				C1816.146-203.644,1816.137-193.991,1816.137-183.916z M1963.719-172.343c0.129-0.603,0.377-1.165,0.342-1.714
				c-0.475-8.347-0.672-16.728-1.6-25.027c-0.692-6.23-3.115-11.839-7.792-16.504c-9.013-8.995-19.558-12.596-32.112-10.524
				c-6.288,1.034-11.909,2.984-16.086,8.331c-4.245,5.436-6.682,11.549-8.242,18.119c-0.179,0.746-0.248,1.723,0.086,2.355
				c3.369,6.425,3.18,13.453,3.445,20.372c0.124,3.137,1.479,4.604,4.472,5.149c6.249,1.137,12.452,2.511,18.702,3.644
				c1.701,0.308,3.578,0.449,5.24,0.073C1941.182-170.561,1952.159-173.16,1963.719-172.343z M1913.481,99.401
				c1.013,14.047,1.962,27.425,2.983,40.796c0.052,0.644,0.62,1.554,1.186,1.8c2.137,0.925,4.354,1.686,6.573,2.411
				c13.987,4.57,27.979,9.128,41.979,13.658c3.492,1.13,7.022,2.141,10.43,3.176c0-4.737,0.025-8.967-0.005-13.197
				c-0.067-9.321-0.106-18.644-0.329-27.961c-0.025-1.052-0.975-2.736-1.842-3.007c-8.311-2.582-16.689-4.924-25.046-7.333
				C1937.698,106.369,1925.985,102.998,1913.481,99.401z M1974.209-27.111c-21.798-4.762-43.201-9.443-64.502-14.098
				c-0.287,0.459-0.518,0.654-0.518,0.851c-0.038,12.263-0.08,24.527,0.014,36.789c0.004,0.667,1.106,1.702,1.875,1.918
				c3.566,1,7.178,1.842,10.803,2.605c14.693,3.104,29.393,6.19,44.107,9.191c2.945,0.601,5.972,0.787,9.404,1.22
				C1974.991-1.766,1974.602-14.451,1974.209-27.111z M1975.218,66.135c-21.822-5.883-43.091-11.615-64.626-17.42
				c0,0.816-0.034,1.375,0.004,1.926c0.604,9.505,1.253,19.006,1.817,28.511c0.401,6.839,0.88,7.487,7.681,9.336
				c0.906,0.244,1.83,0.425,2.736,0.684c11.114,3.219,22.258,6.348,33.326,9.708c6.4,1.941,12.479,5.053,19.062,5.185
				C1975.218,91.301,1975.218,78.827,1975.218,66.135z M1909.66,9.407c0,8.085-0.01,15.391,0,22.696c0,4.606,1.09,5.84,5.779,6.641
				c0.809,0.139,1.607,0.335,2.393,0.566c15.428,4.479,30.839,8.999,46.275,13.432c3.441,0.987,6.963,1.682,10.973,2.64
				c0-11.187,0-21.872,0-32.409C1953.339,18.465,1931.697,13.979,1909.66,9.407z M1975.004-69.753
				c-0.979-0.079-2.154-0.077-3.292-0.28c-6.806-1.225-13.593-2.546-20.407-3.741c-12.568-2.202-25.158-4.281-37.717-6.538
				c-3.816-0.687-5.249,0.124-5.305,4.104c-0.09,6.358-0.021,12.724,0.133,19.082c0.055,2.29,0.611,4.358,3.505,4.948
				c13.688,2.796,27.354,5.692,41.021,8.58c7.143,1.509,14.27,3.072,22.062,4.751C1975.004-49.476,1975.004-59.462,1975.004-69.753z
				 M1976.428-81.13c-0.574-9.328-1.095-17.798-1.586-25.786c-4.574-0.506-8.303-0.791-11.991-1.354
				c-5.793-0.892-11.528-2.135-17.33-2.941c-10.101-1.4-20.224-2.667-30.358-3.778c-2.138-0.234-4.441,0.226-6.527,0.839
				c-0.81,0.237-1.736,1.783-1.744,2.742c-0.069,5.062,0.118,10.127,0.272,15.191c0.081,2.757,1.42,4.222,4.301,4.586
				c6.519,0.827,13.025,1.796,19.511,2.864C1945.789-86.331,1960.594-83.796,1976.428-81.13z M1973.562-118.347
				c-0.17-3.135-0.307-5.921-0.479-8.703c-0.137-2.208-1.333-3.117-3.518-2.786c-6.955,1.049-13.928,1.982-20.857,3.172
				c-4.386,0.752-8.707,1.885-13.06,2.845c0.009,0.456,0.018,0.911,0.026,1.364C1948.15-121.104,1960.623-119.749,1973.562-118.347z
				 M1897.682-157.307c8.319-2.966,16.142-5.76,24.947-8.902c-9.066-1.704-17.227-3.231-25.979-4.875
				C1897.023-166.139,1897.34-161.849,1897.682-157.307z M1897.143-174.31c2.57-1.422,2.471-13.53,0-17.942
				C1897.143-186.187,1897.143-180.314,1897.143-174.31z"/>
			<path fill-rule="evenodd" clip-rule="evenodd" fill="#F4E00A" d="M1886.944-201c0,5.934-0.172,11.469,0.034,16.993
				c0.363,9.849,0.885,19.694,1.496,29.53c0.123,2.048-0.505,3.202-2.146,4.352c-10.405,7.28-16.91,17.736-23.422,28.322
				c-8.016,13.041-10.357,28.152-16.201,41.964c-6.468,15.286-13.529,30.376-18.958,46.031
				c-7.165,20.664-13.021,41.785-19.374,62.729c-3.214,10.586-6.421,21.179-9.399,31.834c-4.526,16.191-8.823,32.443-13.272,48.653
				c-3.13,11.407-7.184,22.588-13.578,32.476c-5.275,8.147-11.922,15.449-18.334,22.802c-13.141,15.07-30.154,24.605-47.941,33.055
				c-16.057,7.625-32.381,14.846-47.767,23.671c-13.823,7.93-24.199,19.852-30.294,34.917c-1.271,3.142-3.147,4.381-6.383,5.04
				c-9.978,2.017-19.882,1.812-29.82-0.028c-6.811-1.266-12.748-4.525-17.659-9.138c-4.683-4.395-9.379-9.132-12.676-14.571
				c-6.403-10.569-7.278-22.062-1.633-33.336c1.372-2.748,4.28-5.014,6.964-6.771c14.333-9.411,30.65-14.261,46.658-19.796
				c9.204-3.185,18.43-6.327,27.621-9.554c1.098-0.381,2.051-1.161,2.799-2.332c-27.252,9.016-55.217,15.933-81.143,30.289
				c0.709-1.604,1.127-2.768,1.723-3.834c7.638-13.745,18.355-24.605,30.868-34.027c14.358-10.811,30.5-18.307,46.696-25.514
				c23.037-10.251,39.277-27.044,51.127-48.816c8.951-16.438,15.812-33.702,19.771-51.925c3.684-16.99,6.141-34.245,9.262-51.366
				c2.968-16.304,5.985-32.605,9.195-48.865c1.869-9.468,3.74-18.971,6.34-28.254c4.57-16.296,10.986-31.87,21.108-45.605
				c7.022-9.526,16.71-16.116,26.205-22.949c11.794-8.488,25.058-13.947,38.344-19.316c14.518-5.864,29.429-10.573,44.902-13.326
				c4.278-0.759,8.499-1.883,12.769-2.708C1882.729-200.743,1884.699-200.781,1886.944-201z M1754.396-17.633
				c0.299,0.12,0.594,0.237,0.898,0.354c0.512-0.87,1.298-1.684,1.494-2.622c0.783-3.798,1.48-7.62,2.04-11.458
				c1.476-10.138,2.308-20.408,4.45-30.4c1.757-8.235,4.946-16.169,7.622-24.197c5.261-15.774,14.308-29.316,24.952-41.888
				c1.672-1.971,3.552-3.756,5.339-5.626c-5.335,1.417-8.729,5.191-11.705,9.186c-9.767,13.093-18.175,27-22.874,42.767
				c-2.822,9.449-5.326,19.029-7.229,28.698c-2,10.153-3.129,20.479-4.607,30.731C1754.562-20.613,1754.521-19.119,1754.396-17.633z
				 M1682.033,145.675c0.453,0.316,0.897,0.628,1.347,0.945c21.339-12.63,34.091-32.343,42.9-54.677
				c3.519-8.923,5.481-18.781,4.968-28.763c-1.316,2.27-2.154,4.657-2.483,7.115c-2.134,15.875-7.853,30.359-16.556,43.746
				c-7.459,11.467-16.305,21.56-27.957,28.981C1683.324,143.61,1682.764,144.777,1682.033,145.675z M1883.404-166.542
				c-5.399-3.415-60.719,14.374-62.339,22.646C1840.76-155.479,1861.987-161.154,1883.404-166.542z"/>
			<path fill-rule="evenodd" clip-rule="evenodd" fill="#F4E00A" d="M1630.064,259.081c3.912-11.649,11.439-20.216,20.135-28.015
				c11.9-10.685,26.695-16.123,40.734-22.984c13.436-6.561,27.062-12.836,39.947-20.362c10.66-6.227,20.015-14.417,27.631-24.426
				c3.698-4.856,8.504-8.883,12.103-13.8c8.837-12.045,24.393-53.35,17.796-40.164c-16.287,32.555,10.563-48.574,15.671-57.818
				c8.54-15.457,10.529-33.733,15.107-50.783c7.059-26.274,17.831-51.094,28.384-76.035c3.023-7.132,5.536-14.502,7.914-21.882
				c4.363-13.531,10.779-25.941,19.181-37.389c8.446-11.517,19.681-19.079,33.085-23.54c8.133-2.704,16.211-5.763,24.556-7.553
				c11.221-2.409,22.566-4.854,34.224-3.557c1.047,0.115,2.09,0.322,3.137,0.451c3.066,0.379,4.399,2.012,4.374,5.181
				c-0.069,8.381,0.052,16.762,0.133,25.143c0.025,1.986,0.192,3.974,0.294,6.006c-9.293-2.165-17.859,1.894-26.717,3.268
				c-7.741,1.204-15.504,2.832-22.963,5.189c-6.57,2.078-12.623,5.724-19.105,8.142c-13.949,5.204-21.006,16.667-26.575,29.203
				c-11.923,26.841-20.601,54.776-27.685,83.274c-8.092,32.537-16.752,64.936-25.352,97.345
				c-3.135,11.809-6.076,23.757-10.401,35.15c-6.913,18.204-17.646,34.23-30.329,49.047c-9.824,11.472-20.498,21.861-33.66,29.334
				c-9.418,5.343-19.189,10.066-28.807,15.057c-12.852,6.675-25.727,13.297-39.479,17.976c-10.592,3.603-21.24,7.023-31.812,10.671
				C1644.488,253.655,1637.477,256.357,1630.064,259.081z"/>
			<path fill-rule="evenodd" clip-rule="evenodd" d="M1682.033,145.675c0.73-0.898,1.291-2.065,2.219-2.652
				c11.652-7.421,20.498-17.514,27.957-28.981c8.703-13.386,14.422-27.871,16.556-43.746c0.329-2.458,1.167-4.845,2.483-7.115
				c0.514,9.981-1.449,19.839-4.968,28.763c-8.81,22.334-21.562,42.046-42.9,54.677
				C1682.931,146.304,1682.486,145.992,1682.033,145.675z"/>
		</g>
		<g>
			<path fill-rule="evenodd" clip-rule="evenodd" fill="#0164C0" d="M1394.684,209.911c0.61,5.736,1.269,11.375,1.141,17.272
				c0.736,4.964,0.128,8.513-5.039,10.558c-1.268,0.969-5.077,0.528-6.227-0.698c-1.961-2.063-3.392-5.141-3.859-7.982
				c-1.67-10.243-2.954-20.546-4.073-30.861c-0.336-3.129-1.644-3.88-4.504-4.068c-13.788-0.874-27.59-1.72-41.329-3.032
				c-11.127-1.067-22.191-2.788-33.385-4.23c0.469,9.556,0.974,18.559,1.294,27.564c0.104,3.563-0.074,7.156-0.428,10.705
				c-0.679,6.988-6.296,10.907-13.061,9.177c-4.28-1.074-4.472-4.677-4.704-8.13c-0.859-13.065-0.48-26.373-2.889-39.146
				c-2.9-15.479-6.887-31.031-12.742-45.6c-7.418-18.428-15.915-36.69-26.257-53.625c-16.442-26.95-34.702-52.856-61.54-70.959
				c-6.99-4.719-14.511-8.818-22.222-12.244c-2.36-1.05-6.386,0.56-9.232,1.855c-13.974,6.309-28.641,11.591-41.45,19.756
				c-16.736,10.676-32.638,22.927-47.61,35.992c-11.587,10.129-21.387,22.36-31.587,34c-13.443,15.36-20.497,34.402-29.011,52.535
				c-11.555,24.591-18.343,50.576-20.942,77.643c-0.703,7.114-1.947,14.183-3.062,21.253c-0.732,4.728-3.894,7.167-7.943,6.414
				c-5.038-0.934-8.076-5.258-6.956-9.895c0.231-0.978,0.507-1.956,0.629-2.943c0.999-8.258,1.961-16.5,2.847-24.046
				c-41.023-2.731-81.824-5.439-122.982-8.169c-1.07,9.261-1.971,17.533-3.007,25.796c-0.659,5.235-1.103,10.568-2.454,15.635
				c-0.564,2.055-3.126,4.626-5.136,4.974c-2.655,0.462-5.879-0.904-5.968-4.718c-0.172-7.82-0.88-15.702-0.127-23.443
				c1.799-18.652,3.676-37.335,6.728-55.806c7.67-59.329,47.995-111.534,84.04-140.351c33.924-27.155,66.425-44.858,101.73-55.71
				c40.887-11.54,90.856-5.914,121.818,0.599c5.805,1.222,11.684,2.343,17.395,3.975c3.652,1.032,7.014,2.954,11.085,4.729
				c15.654,0,32.534-0.796,49.31,0.211c22.365,3.058,37.264,8.884,54.925,16.683c58.532,25.663,67.975,48.972,85.635,72.3
				C1378.984,107.548,1394.684,209.911,1394.684,209.911z M851.484,140.25c12.186,1.554,32.19,3.462,44.391,4.778
				c19.337,2.079,38.714,3.871,58.07,5.765c7.907,0.782,15.809,1.548,23.053,2.253c5.229-10.828,10.165-21.089,15.252-31.637
				c-5.176-1.012-10.302-2.202-15.498-3.005c-26.617-4.087-53.234-8.175-79.895-12.036c-8.237-1.184-16.559-1.725-24.885-2.305
				c-1.289-0.083-3.27,0.857-3.958,1.941C858.893,120.313,850.48,140.107,851.484,140.25z M1391.464,220.114
				c0.246-0.021,0.511-0.043,0.753-0.066c-0.816-6.751-1.81-13.495-2.483-20.278c-2.948-30.559-11.335-59.798-22.423-88.23
				c-6.721-17.243-13.336-34.756-25.457-49.208c-7.102-8.459-13.719-17.85-22.443-24.279
				c-15.316-11.293-31.649-21.411-48.377-30.502c-11.384-6.171-23.898-10.737-36.393-14.247
				c-16.085-4.518-32.746-6.247-49.543-4.898c-8.325,0.664-16.839,0.558-24.935,2.35c-23.997,5.342-45.792,16.279-66.951,28.459
				c-19.8,11.402-36.345,26.951-52.299,43c-18.183,18.312-34.329,38.365-45.833,61.742c-4.506,9.182-9.814,18.042-13.473,27.541
				c-3.76,9.824-5.721,20.308-8.847,30.392c-6.124,19.773-9.943,39.991-11.875,60.564c-0.217,2.265,1.999,6.402,3.809,6.889
				c4.243,1.126,3.244-3.182,3.623-5.563c2.615-16.329,4.408-32.821,7.801-48.982c5.121-24.332,15.1-46.995,26.425-69.039
				c9.328-18.208,18.461-36.591,33.572-51c26.881-25.608,55.292-49,89.512-64.582c16.374-7.446,33.258-13.214,51.027-13.48
				c17.966-0.261,36.241,0.912,53.92,3.974c22.311,3.874,42.878,13.195,61.404,26.626c16.461,11.94,31.924,24.934,44.592,41
				c8.152,10.327,15.532,21.03,20.441,33.439c8.74,22.205,12.619,45.616,17.534,68.74c4.104,19.45,6.861,39.208,10.219,58.837
				c0.035,0.337-0.039,0.767,0.143,0.991c1.081,1.325,2.217,2.617,3.348,3.9c1.057-1.277,2.871-2.458,3.056-3.858
				C1391.76,226.994,1391.464,223.541,1391.464,220.114z M971.906,172.132c-42.17-5.304-83.301-10.463-124.777-15.681
				c-2.196,13.215-4.423,26.543-6.748,40.473c41.533,2.328,82.298,4.602,123.001,6.889
				C966.297,193.011,969.016,182.901,971.906,172.132z M1154.938-11.13c0.089-0.723,0.168-1.443,0.261-2.173
				c-4.012-1.314-8.041-2.495-11.969-3.959c-17.415-6.513-35.483-9.4-53.976-10.086c-26.258-0.966-52.074,1.909-77.293,9.569
				c-5.393,1.63-11.336,1.588-16.585,3.53c-20.349,7.535-39.539,17.447-57.293,29.999c-23.205,16.407-44.105,35.213-61.87,57.523
				c-11.59,14.567-19.671,31.044-28.351,47.272c-6.887,12.888-11.773,26.429-14.28,40.723c-3.312,18.933-6.24,37.952-8.709,57.011
				c-1.254,9.758-1.244,19.694-1.494,29.556c-0.025,1.252,1.857,2.548,2.864,3.836c1.009-1.106,2.192-2.108,3.02-3.349
				c0.417-0.622,0.205-1.667,0.31-2.513c1.666-12.999,3.082-26.043,5.097-38.981c2.011-12.75,5.354-25.309,6.877-38.103
				c3.323-27.994,14.461-52.743,30.259-75.559c14.122-20.384,30.555-38.741,50.426-53.804
				c16.417-12.456,32.182-25.744,50.865-35.017c37.263-18.482,76.816-25.063,117.889-23.053c15.616,0.762,31.145,3.626,46.727,5.521
				C1143.426-12.479,1149.184-11.818,1154.938-11.13z M879.979,86.667c4.764,0.794,7.756,1.305,10.774,1.792
				c32.791,5.193,65.655,9.971,98.322,15.867c8.831,1.604,14.347,1.246,18.692-7.508c3.182-6.41,8.425-11.802,13.11-18.157
				c-2.325-0.578-4.05-1.116-5.815-1.455c-13.557-2.633-27.128-5.004-40.605-7.857c-20.154-4.284-40.232-8.923-60.385-13.259
				c-1.957-0.406-4.986-0.447-6.105,0.698C898.652,66.355,889.677,76.226,879.979,86.667z M1254.395,84.995
				c5.801,10.801,11.261,20.597,16.363,30.585c1.539,3.057,3.24,4.106,6.655,3.752c3.357-0.358,6.812,0.264,10.22,0.264
				c23.672,0.029,47.35,0.024,71.376,0.024c-3.639-11.497-7.796-23.08-14.201-33.818c-1.617-2.723-3.382-3.831-6.384-3.737
				c-19.604,0.6-39.221,1.086-58.818,1.705C1271.475,84.036,1263.359,84.552,1254.395,84.995z M1280.702,135.18
				c4.046,11.937,7.671,22.874,11.53,33.727c0.35,0.993,2.174,1.917,3.402,2.044c8.149,0.844,16.304,1.441,24.454,2.158
				c17.243,1.516,34.452,3.058,51.733,4.593c0.133-0.597,0.398-1.113,0.32-1.565c-2.724-12.795-5.438-25.594-8.347-38.347
				c-0.217-0.905-1.834-2.062-2.827-2.106c-7.814-0.35-15.655-0.556-23.494-0.61c-10.514-0.063-21.028,0.076-31.566,0.105
				C1297.631,135.19,1289.319,135.18,1280.702,135.18z M924.807,41.732c36.305,9.165,71.051,17.934,104.953,26.497
				c7.982-7.899,15.374-15.245,22.719-22.55c-14.569-4.021-29.292-8.213-44.077-12.111c-17.11-4.513-34.27-8.772-51.423-13.056
				c-1.22-0.304-2.97-0.526-3.83,0.094C943.977,27.273,934.958,34.113,924.807,41.732z M1327.623,65.449
				c0.217-1.367,0.335-1.6,0.236-1.686c-10.489-12.896-23.028-23.547-36.684-32.928c-0.564-0.4-1.704-0.113-2.55,0.054
				c-1.627,0.317-3.204,1.037-4.803,1.138c-13.462,0.895-26.911,1.643-40.375,2.519c-7.732,0.507-15.468,1.136-23.136,1.708
				c7.943,10.165,15.635,19.998,22.797,29.195C1271.534,65.449,1299.592,65.449,1327.623,65.449z M1099.798,11.323
				c-6.586-1.916-12.23-3.802-18-5.192c-17.026-4.1-34.073-8.128-51.169-11.929c-4.763-1.05-10.176-2.792-14.5-1.53
				c-13.37,3.891-26.406,9.084-39.544,13.767c1.279,1.692,2.31,2.105,3.393,2.378c26.183,6.762,52.471,13.221,78.555,20.451
				c7.61,2.108,13.296,1.497,19.506-3.667C1084.497,20.267,1092.061,16.295,1099.798,11.323z M1161.027,3.104
				c26.977,13.412,46.362,33.813,63.341,57.055c13.241,18.091,24.596,37.13,34.337,57.317
				c16.684,34.589,26.632,70.646,26.326,109.261c0,1.108,0.457,2.214,0.734,3.448c5.219-0.471,8.315-3.13,8.253-8.026
				c-0.183-11.603,0.388-23.404-1.623-34.729c-2.252-12.827-5.977-25.606-10.854-37.691c-6.649-16.542-14.5-32.663-22.719-48.497
				c-13.601-26.28-29.167-51.237-51.119-71.723c-9.989-9.334-20.183-18.113-32.027-25.159
				C1170.79,1.451,1166.744,1.421,1161.027,3.104z M1177.952,0.563c6.915,5.195,13.733,9.693,19.783,15.081
				c4.581,4.055,6.474,4.352,15.179,4.895c5.624,0.467,7.462-0.103,11.207-0.103c16.771,0.012,33.572,0.012,50.428,0.012
				C1244.668,3.727,1212.094-0.668,1177.952,0.563z M1044.186-13.089c11.27,3.189,20.162,4.414,21.789,4.741
				c15.656,3.108,27.812,7.481,43.236,11.526c9.379,2.455,15.65-6.67,31.33-10.344C1140.531-7.78,1108.312-20.295,1044.186-13.089z"
				/>
			
				<path fill-rule="evenodd" clip-rule="evenodd" fill="#0164C0" stroke="#0164C0" stroke-width="1.4409" stroke-miterlimit="10" d="
				M1391.464,220.114c0,3.426,0.296,6.879-0.153,10.229c-0.185,1.401-1.999,2.581-3.056,3.858c-1.131-1.283-2.267-2.575-3.348-3.9
				c-0.182-0.224-0.107-0.653-0.143-0.991c-3.357-19.629-6.114-39.387-10.219-58.837c-4.915-23.124-8.794-46.536-17.534-68.74
				c-4.909-12.409-12.289-23.112-20.441-33.439c-12.668-16.066-28.131-29.06-44.592-41c-18.526-13.431-39.094-22.752-61.404-26.626
				c-17.679-3.062-35.954-4.234-53.92-3.974c-17.77,0.266-34.653,6.034-51.027,13.48c-34.22,15.582-62.631,38.974-89.512,64.582
				c-15.111,14.408-24.244,32.791-33.572,51c-11.325,22.044-21.304,44.707-26.425,69.039c-3.393,16.161-5.186,32.653-7.801,48.982
				c-0.379,2.381,0.62,6.689-3.623,5.563c-1.81-0.486-4.025-4.624-3.809-6.889c1.932-20.573,5.751-40.791,11.875-60.564
				c3.126-10.084,5.087-20.568,8.847-30.392c3.658-9.499,8.967-18.359,13.473-27.541c11.504-23.377,27.65-43.429,45.833-61.742
				c15.954-16.048,32.499-31.598,52.299-43c21.159-12.18,42.954-23.117,66.951-28.459c8.096-1.792,16.609-1.686,24.935-2.35
				c16.797-1.349,33.458,0.38,49.543,4.898c12.494,3.51,25.009,8.076,36.393,14.247c16.728,9.091,33.061,19.209,48.377,30.502
				c8.725,6.43,15.342,15.82,22.443,24.279c12.121,14.452,18.736,31.964,25.457,49.208c11.088,28.433,19.475,57.672,22.423,88.23
				c0.674,6.783,1.667,13.527,2.483,20.278C1391.975,220.071,1391.71,220.093,1391.464,220.114z"/>
			
				<path fill-rule="evenodd" clip-rule="evenodd" fill="#0164C0" stroke="#0164C0" stroke-width="1.4409" stroke-miterlimit="10" d="
				M1154.938-11.13c-5.754-0.688-11.512-1.349-17.227-2.057c-15.582-1.895-31.11-4.758-46.727-5.521
				c-41.072-2.01-80.626,4.571-117.889,23.053c-18.684,9.273-34.448,22.562-50.865,35.017
				c-19.871,15.063-36.304,33.419-50.426,53.804c-15.798,22.816-26.936,47.565-30.259,75.559
				c-1.523,12.794-4.866,25.353-6.877,38.103c-2.015,12.938-3.431,25.982-5.097,38.981c-0.104,0.846,0.107,1.891-0.31,2.513
				c-0.827,1.241-2.011,2.243-3.02,3.349c-1.007-1.288-2.89-2.583-2.864-3.836c0.25-9.862,0.24-19.798,1.494-29.556
				c2.469-19.059,5.396-38.078,8.709-57.011c2.507-14.294,7.394-27.835,14.28-40.723c8.68-16.228,16.761-32.705,28.351-47.272
				c17.765-22.311,38.665-41.116,61.87-57.523c17.754-12.551,36.944-22.463,57.293-29.999c5.249-1.941,11.192-1.899,16.585-3.53
				c25.219-7.66,51.035-10.536,77.293-9.569c18.492,0.686,36.561,3.573,53.976,10.086c3.928,1.465,7.957,2.645,11.969,3.959
				C1155.105-12.573,1155.026-11.853,1154.938-11.13z"/>
			
				<path fill-rule="evenodd" clip-rule="evenodd" fill="#0164C0" stroke="#0164C0" stroke-width="1.4409" stroke-miterlimit="10" d="
				M1161.027,3.104c5.717-1.683,9.763-1.653,14.649,1.256c11.845,7.046,22.038,15.825,32.027,25.159
				c21.952,20.485,37.519,45.443,51.119,71.723c8.219,15.834,16.069,31.955,22.719,48.497c4.877,12.084,8.602,24.864,10.854,37.691
				c2.011,11.325,1.44,23.126,1.623,34.729c0.062,4.896-3.034,7.556-8.253,8.026c-0.277-1.233-0.734-2.339-0.734-3.448
				c0.306-38.614-9.643-74.671-26.326-109.261c-9.741-20.188-21.096-39.226-34.337-57.317
				C1207.39,36.917,1188.004,16.517,1161.027,3.104z"/>
			<path fill-rule="evenodd" clip-rule="evenodd" fill="#FFFFFF" d="M902.864,104.021"/>
			<path fill-rule="evenodd" clip-rule="evenodd" fill="#FFFFFF" d="M838.582,205.454"/>
		</g>
	</g>
	<path fill-rule="evenodd" clip-rule="evenodd" fill="#437419" d="M825.555,289.013c-3.693,0.156-12.346-149.547-1.191-153.521
		c40.131-14.291,81.342-14.594,122.49-3.209c22.174,6.135,43.482,13.91,56.793,33.369c2.635-2.715,5.119-5.365,7.711-7.93
		c22.637-22.387,50.367-35.698,83.422-39.312c20.031-2.191,39.842,0.1,59.361,3.901c29.033,5.655,57.756,12.215,75.904,37.037
		c2.033,2.778,4.518,3.922,8.236,0.815c24.07-20.129,54.057-23.303,84.229-21.531c28.488,1.672,53.547,13.057,75.443,33.382
		c2.375-2.808,4.617-5.716,7.141-8.405c17.916-19.098,42.258-25.059,67.932-25.453c23.875-0.369,44.455,9.531,62.018,24.135
		c10.232,8.504,18.891,18.337,22.744,30.862c1.293,4.196,1.305,8.729,1.885,12.972c36.953,4.441,56.307,21.481,58.357,53.44
		c2.027,31.633-15.955,59.186-44.318,62.025c-2.824-1.656-4.797-2.81-7.527-4.409C1568.691,314.158,838.639,288.454,825.555,289.013
		z"/>
	<path fill-rule="evenodd" clip-rule="evenodd" fill="#53891F" d="M1377.156,311.508c15.117,26.927-45.652-156.448-38.156-158.05
		c14.95-3.198,47.434-28.959,105.698-30.347c12.616,3.326,24.825,8.525,36.806,13.842c3.582,1.592,5.675,1.838,8.844-0.031
		c20.607-12.149,42.703-19.646,66.646-21.156c14.248-0.899,28.207,1.329,41.445,6.21c16.075,5.929,31.643,13.253,47.542,19.693
		c2.41,0.98,5.452,0.784,8.152,0.545c7.818-0.688,15.914-0.626,23.344-2.782c12.603-3.653,24.684-9.058,37.146-13.237
		c22.092-7.408,44.55-8.79,67.704-5.209c18.382,2.845,36.602,5.818,52.947,15c10.448,5.872,20.004,13.351,29.749,19.969
		c8.68-6.648,17.988-14.762,28.232-21.403c17.873-11.584,37.764-16.743,59.044-18.673c23.89-2.166,45.812,3.368,67.106,12.919
		c13.508,6.052,26.2,13.671,36.771,24.316c2.6,2.615,4.437,1.925,7.402,0.438c18.666-9.354,36.914-20.021,56.43-27.08
		c26.784-9.684,54.868-8.938,82.854-4.219c19.714,3.323,38.603,8.673,55.509,19.818c1.472,0.97,3.293,1.792,4.204,3.181
		c5.114,7.791,10.415,4.733,16.55,1.179c31.491-18.259,65.317-24.479,101.083-18.006c17.011,3.079,33.228,8.643,46.446,20.848
		c1.4,1.291,4.802,1.332,6.914,0.71c8.825-2.596,17.384-6.184,26.286-8.436c12.958-3.277,25.706-0.251,38.395,2.678
		c15.307,3.531,27.131,13.289,38.969,22.6c9.399,7.398,15.26,18.275,17.703,29.781c3.701,17.475,5.74,35.33,7.952,53.089
		c0.518,4.184-0.551,8.824-1.894,12.921c-1.475,4.511,0.076,7.377,2.619,10.829c11.027,14.955,11.431,38.509-2.595,51.036
		c-2.662,2.374-6.292,3.939-9.741,4.986c-1.509,0.459-4.641-0.855-5.31-2.223C2545.253,325.811,1372.662,312.916,1377.156,311.508z"
		/>
	<g>
		<path fill-rule="evenodd" clip-rule="evenodd" fill="#53891F" d="M260.446,303.094c-2.73,1.6-4.702,2.753-7.527,4.409
			c-28.362-2.84-46.346-30.393-44.318-62.025c2.051-31.959,21.404-48.999,58.358-53.44c0.579-4.243,0.591-8.775,1.884-12.972
			c3.854-12.525,12.512-22.358,22.744-30.862c17.562-14.604,38.143-24.504,62.018-24.135c25.675,0.395,50.016,6.355,67.932,25.453
			c2.524,2.689,4.767,5.598,7.141,8.405c21.896-20.325,46.956-31.71,75.444-33.382c30.171-1.771,60.157,1.402,84.228,21.531
			c3.719,3.106,6.203,1.963,8.237-0.815c18.147-24.822,46.87-31.382,75.904-37.037c19.519-3.802,39.329-6.093,59.36-3.901
			c33.055,3.614,60.785,16.926,83.423,39.312c2.591,2.564,5.075,5.215,7.711,7.93c13.31-19.459,34.619-27.234,56.792-33.369
			c41.148-11.385,74.053,23.079,114.185,37.37c11.153,3.975,10.808,119.517,7.114,119.36
			C987.991,274.368,257.939,300.072,260.446,303.094z"/>
		<path fill-rule="evenodd" clip-rule="evenodd" fill="#88A80D" d="M890.43,336.331c-0.669,1.368-3.801,2.683-5.31,2.223
			c-3.449-1.047-7.079-2.613-9.741-4.986c-14.025-12.526-13.622-36.081-2.595-51.036c2.543-3.452,4.094-6.318,2.619-10.829
			c-1.343-4.098-2.411-8.738-1.894-12.921c2.212-17.759,4.251-35.614,7.952-53.089c2.443-11.506,8.304-22.383,17.703-29.781
			c11.838-9.312,23.662-19.069,38.969-22.6c12.688-2.929,25.437-5.955,38.395-2.678c8.902,2.252,17.461,5.84,26.286,8.436
			c2.112,0.622,5.514,0.581,6.914-0.71c13.219-12.206,29.436-17.769,46.446-20.848c35.766-6.473,69.592-0.253,101.083,18.006
			c6.135,3.555,11.436,6.612,16.55-1.179c0.911-1.389,2.732-2.211,4.204-3.181c16.906-11.145,35.795-16.495,55.509-19.818
			c27.985-4.719,56.069-5.465,82.854,4.219c19.516,7.059,37.765,17.726,56.43,27.08c2.966,1.487,4.802,2.178,7.402-0.438
			c10.571-10.645,23.264-18.264,36.772-24.316c21.294-9.551,43.215-15.084,67.105-12.919c21.28,1.93,41.171,7.088,59.044,18.673
			c10.244,6.641,19.553,14.754,28.232,21.403c9.745-6.618,19.301-14.097,29.749-19.969c16.346-9.182,34.565-12.156,52.947-15
			c23.154-3.581,45.612-2.199,67.704,5.209c12.463,4.179,24.544,9.583,37.146,13.237c7.43,2.156,15.525,2.094,23.344,2.782
			c2.7,0.239,5.742,0.435,8.152-0.545c15.899-6.44,31.467-13.765,47.542-19.693c13.238-4.881,27.197-7.11,41.446-6.21
			c23.941,1.511,46.039,9.007,66.645,21.156c3.17,1.869,5.262,1.623,8.846,0.031c11.98-5.317,24.188-10.516,36.805-13.842
			c14.946-3.939,30.22-1.346,45.17,1.853c7.496,1.602,7.256,213.471,22.372,186.544
			C2063.722,322.002,891.132,334.896,890.43,336.331z"/>
		<path fill-rule="evenodd" clip-rule="evenodd" fill="#437419" d="M1910.537,308.095c-2.73,1.6-4.702,2.753-7.527,4.409
			c-28.362-2.84-46.346-30.393-44.318-62.026c2.051-31.958,21.404-48.998,58.358-53.44c0.579-4.243,0.591-8.775,1.884-12.971
			c3.854-12.525,12.512-22.359,22.744-30.862c17.562-14.604,38.143-24.504,62.018-24.135c25.675,0.395,50.016,6.355,67.932,25.453
			c2.524,2.689,4.767,5.599,7.141,8.406c21.896-20.326,46.956-31.71,75.444-33.381c30.171-1.771,60.157,1.402,84.228,21.53
			c3.719,3.107,6.203,1.964,8.237-0.815c18.147-24.822,46.87-31.382,75.904-37.037c19.519-3.802,39.329-6.093,59.36-3.902
			c33.055,3.615,60.785,16.927,83.423,39.313c2.591,2.563,5.075,5.214,7.711,7.929c13.31-19.459,34.619-27.234,56.792-33.369
			c41.148-11.384-43.754,174.159-47.447,174.003C2469.336,296.64,1908.03,305.073,1910.537,308.095z"/>
	</g>
	<path fill-rule="evenodd" clip-rule="evenodd" fill="#437419" d="M583.264,198.685c14.271-11.301,54.837,139.577-10.264,139.662
		c-46.817,0.055-244.911,21.708-240.769,16.178c-3.644-1.816-7.019-3.615-10.527-5.211c-24.646-11.231-33.158-29.932-22.546-50.225
		c8.967-17.136,24.803-30.159,44.461-39.897c19.549-9.69,40.608-5.228,60.71,0.204c12.845,3.468,12.812,3.524,13.369-6.466
		c2.395-43.832,31.478-78.063,95.618-83.195C541.992,167.434,562.426,175.666,583.264,198.685z"/>
	<path fill-rule="evenodd" clip-rule="evenodd" fill="#437419" d="M473.002,375.802c-4.54,0.351-21.641-183.607-8.078-188.981
		c48.797-19.325,99.528-21.472,150.686-9.226c27.565,6.599,54.14,15.255,71.365,38.641c3.13-3.456,6.073-6.826,9.153-10.095
		c26.91-28.54,60.482-46.125,101.026-51.998c24.57-3.562,49.062-1.593,73.26,2.247c35.993,5.712,71.643,12.553,95.056,42.335
		c2.624,3.333,5.733,4.634,10.178,0.649c28.771-25.822,65.558-31.021,102.782-30.138c35.151,0.831,66.496,13.77,94.333,37.853
		c2.805-3.559,5.438-7.236,8.43-10.657c21.237-24.286,50.952-32.674,82.548-34.266c29.385-1.483,55.15,9.822,77.402,27.047
		c12.968,10.029,24.05,21.764,29.335,37.021c1.772,5.111,1.981,10.691,2.879,15.891c45.693,3.877,70.257,24.025,74.158,63.289
		c3.859,38.863-17.097,73.562-51.898,78.281c-3.55-1.918-6.028-3.252-9.458-5.106C1389.115,374.759,489.09,374.55,473.002,375.802z"
		/>
	<rect x="110.55" y="293" fill-rule="evenodd" clip-rule="evenodd" fill="#C6C6C6" width="2440" height="90.694"/>
	<path fill-rule="evenodd" clip-rule="evenodd" fill="#53891F" d="M294.471,1631.724c-0.67,1.367-3.801,2.682-5.311,2.223
		c-3.449-1.047-7.078-2.613-9.74-4.986c-14.025-12.526-13.623-36.08-2.596-51.035c2.543-3.453,4.094-6.318,2.619-10.83
		c-1.342-4.098-2.41-8.737-1.893-12.921c2.211-17.759,4.25-35.614,7.951-53.089c2.443-11.506,8.305-22.383,17.703-29.781
		c11.838-9.312,23.662-19.069,38.969-22.6c12.689-2.93,25.438-5.955,38.395-2.678c8.902,2.252,17.461,5.84,26.287,8.436
		c2.111,0.621,5.514,0.581,6.914-0.71c13.219-12.206,29.436-17.769,46.445-20.849c35.766-6.473,69.592-0.252,101.084,18.006
		c6.135,3.555,11.436,6.613,16.549-1.178c0.912-1.389,2.732-2.211,4.205-3.182c16.906-11.145,35.795-16.495,55.508-19.818
		c27.986-4.719,56.07-5.465,82.854,4.22c19.516,7.06,37.764,17.726,56.43,27.08c2.967,1.487,4.803,2.178,7.402-0.438
		c10.572-10.646,23.264-18.265,36.773-24.316c21.293-9.551,43.215-15.085,67.105-12.919c21.279,1.93,41.17,7.088,59.043,18.673
		c10.244,6.641,19.555,14.755,28.232,21.403c9.746-6.618,19.301-14.098,29.75-19.969c16.346-9.183,34.566-12.156,52.947-15.001
		c23.154-3.581,45.611-2.199,67.703,5.209c12.465,4.179,24.545,9.583,37.146,13.237c7.432,2.155,15.525,2.094,23.346,2.781
		c2.699,0.24,5.74,0.436,8.15-0.545c15.9-6.439,31.469-13.764,47.543-19.693c13.238-4.881,27.197-7.109,41.445-6.21
		c23.943,1.511,46.039,9.007,66.646,21.156c3.168,1.869,5.262,1.623,8.844,0.031c11.98-5.317,24.189-10.517,36.805-13.842
		c14.947-3.939,71.771,12.969,86.721,16.167c7.496,1.602-34.295,199.156-19.178,172.229
		C1467.764,1617.395,295.172,1630.289,294.471,1631.724z"/>
	<path fill-rule="evenodd" clip-rule="evenodd" fill="#437419" d="M315.514,1615.586c-2.73,1.6-4.701,2.753-7.527,4.409
		c-28.361-2.84-46.346-30.393-44.318-62.025c2.051-31.959,21.404-48.999,58.359-53.44c0.578-4.243,0.59-8.775,1.883-12.972
		c3.855-12.525,12.512-22.358,22.744-30.862c17.562-14.604,38.143-24.504,62.018-24.135c25.676,0.395,50.016,6.355,67.932,25.453
		c2.525,2.689,4.768,5.598,7.141,8.405c21.896-20.325,46.957-31.71,75.445-33.382c30.17-1.771,60.156,1.402,84.227,21.531
		c3.719,3.106,6.203,1.963,8.238-0.815c18.146-24.822,46.869-31.382,75.904-37.037c19.518-3.802,39.328-6.093,59.359-3.901
		c33.055,3.614,60.785,16.926,83.424,39.312c2.59,2.564,5.074,5.215,7.711,7.93c13.309-19.459,34.619-27.234,56.791-33.369
		c41.148-11.385,102.143-10.798,127.723,33.65c11.152,3.975-2.73,123.236-6.424,123.08
		C1043.059,1586.859,313.008,1612.563,315.514,1615.586z"/>
	<path fill-rule="evenodd" clip-rule="evenodd" fill="#53891F" d="M1258.95,1620.01c15.521,26.696-29.238-170.208-21.768-171.922
		c14.9-3.423,71.464-21.184,86.468-17.47c12.665,3.136,24.95,8.15,37.009,13.287c3.606,1.537,5.702,1.753,8.844-0.165
		c20.422-12.458,42.401-20.285,66.32-22.156c14.233-1.113,28.223,0.904,41.533,5.586c16.163,5.688,31.839,12.777,47.834,18.976
		c2.425,0.944,5.463,0.703,8.158,0.423c7.809-0.806,15.902-0.865,23.301-3.132c12.546-3.843,24.543-9.429,36.943-13.794
		c21.979-7.74,44.412-9.459,67.617-6.228c18.421,2.568,36.686,5.268,53.167,14.203c10.535,5.714,20.202,13.049,30.047,19.52
		c8.577-6.778,17.763-15.032,27.906-21.826c17.698-11.852,37.508-17.309,58.756-19.559c23.856-2.524,45.857,2.679,67.293,11.908
		c13.599,5.848,26.404,13.275,37.134,23.761c2.64,2.575,4.465,1.857,7.408,0.326c18.523-9.635,36.608-20.573,56.016-27.927
		c26.636-10.086,54.729-9.763,82.781-5.466c19.762,3.027,38.729,8.093,55.801,18.982c1.486,0.948,3.319,1.743,4.251,3.117
		c5.231,7.714,10.485,4.575,16.565,0.929c31.213-18.729,64.943-25.458,100.801-19.523c17.055,2.823,33.354,8.142,46.756,20.147
		c1.418,1.271,4.82,1.259,6.923,0.605c8.786-2.728,17.29-6.444,26.156-8.829c12.907-3.473,25.699-0.64,38.431,2.1
		c15.358,3.3,27.327,12.879,39.305,22.011c9.51,7.256,15.533,18.044,18.148,29.512c3.963,17.417,6.271,35.24,8.75,52.964
		c0.58,4.175-0.418,8.829-1.699,12.947c-1.406,4.534,0.188,7.376,2.781,10.789c11.252,14.788,12.01,38.333-1.826,51.069
		c-2.626,2.412-6.232,4.033-9.665,5.132c-1.501,0.481-4.653-0.785-5.343-2.143C2427.13,1616.741,1254.478,1621.485,1258.95,1620.01z
		"/>
	<path fill-rule="evenodd" clip-rule="evenodd" fill="#437419" d="M305.579,1002.592c2.507-3.022-727.545-28.727-740.629-28.168"/>
	<path fill-rule="evenodd" clip-rule="evenodd" fill="#437419" d="M960.19,1616.893c15.348,26.796,13.29-185.062,20.772-186.729
		c14.922-3.326,30.173-6.05,45.152-2.24c12.645,3.219,24.896,8.312,36.921,13.526c3.598,1.561,5.691,1.789,8.846-0.107
		c20.501-12.324,42.533-20.01,66.461-21.727c14.24-1.021,28.218,1.087,41.498,5.855c16.125,5.79,31.755,12.98,47.709,19.285
		c2.419,0.959,5.459,0.736,8.156,0.475c7.812-0.756,15.908-0.764,23.32-2.983c12.57-3.76,24.604-9.269,37.03-13.554
		c22.028-7.599,44.474-9.172,67.658-5.789c18.405,2.687,36.649,5.503,53.073,14.545c10.498,5.782,20.117,13.18,29.92,19.713
		c8.622-6.723,17.861-14.916,28.048-21.645c17.772-11.735,37.618-17.066,58.881-19.178c23.871-2.37,45.839,2.976,67.214,12.343
		c13.561,5.937,26.317,13.446,36.979,24.001c2.623,2.592,4.452,1.886,7.405,0.374c18.585-9.514,36.742-20.338,56.196-27.563
		c26.7-9.913,54.789-9.408,82.813-4.929c19.742,3.152,38.676,8.34,55.678,19.341c1.48,0.956,3.309,1.763,4.23,3.144
		c5.182,7.748,10.456,4.646,16.56,1.038c31.333-18.529,65.104-25.038,100.925-18.871c17.037,2.932,33.3,8.356,46.623,20.447
		c1.412,1.28,4.814,1.291,6.92,0.65c8.803-2.671,17.33-6.333,26.213-8.66c12.93-3.39,25.703-0.471,38.416,2.348
		c15.337,3.4,27.244,13.056,39.162,22.266c9.463,7.317,15.416,18.145,17.957,29.628c3.852,17.443,6.043,35.28,8.408,53.019
		c0.553,4.18-0.476,8.829-1.783,12.938c-1.437,4.522,0.139,7.376,2.713,10.805c11.153,14.86,11.759,38.411-2.158,51.057
		c-2.643,2.397-6.258,3.993-9.697,5.07c-1.506,0.473-4.648-0.816-5.328-2.179C2128.368,1621.179,955.71,1618.339,960.19,1616.893z"
		/>
</g>
<g id="Layer_3" display="none">
	<g display="inline">
		<g>
			<g>
				<path fill-rule="evenodd" clip-rule="evenodd" fill="#FFE20D" d="M225.37,1135.823c8.467,4.302,12.888,16.454,8.236,25.666
					c-1.071,2.122-4.17,4.157-6.576,4.488c-6.554,0.902-13.233,1.06-19.868,1.166c-10.307,0.165-20.618,0.044-31.484,0.044
					c-4.867-41.942-12.045-46.192-32.045-56.817c-24.753-13.15-41.5-3-62.841,6.125c-14.134,13.389-22.909,22.959-26.512,52.442
					c-22.343,0-44.599,0.407-66.831-0.122c-19.622-0.468-343.269,6.782-359.072,7.358c-8.974,0.326-22.977,0.361-31.944,0.907
					c4.118-1.962,0.256-29.836-0.573-27.188c-5.976-16.107-22.976-36.774-45.84-37.945c-15.504-0.649-40.335,3.277-51.11,16.945
					c-8.177,10.371-12.219,37.477-12.219,37.477c-0.837-3.031-56.879-12.442-56.726-12.481c-0.61-10.46-1.861-20.677-1.658-30.864
					c0.379-18.998,1.9-37.971,11.351-55.107c8.812-15.979,22.09-26.556,39.562-32.166c15.07-4.84,30.229-8.916,46.069-10.307
					c6.632-0.583,10.068-4.548,10.685-12.316c1.197-15.092,2.099-30.21,2.881-45.33c1.377-26.643,4.56-53.082,11.558-78.81
					c4.398-16.168,12.254-30.866,29.21-37.459c6.367-2.476,13.36-3.875,20.187-4.528c19.981-1.911,40.596-0.326,60.624-1.698
					c9.794-0.671,23.252-0.403,33.068-0.517c32.457-0.371,64.919-0.977,97.372-0.674c24.628,0.229,45.024-1.496,69.654-1.139
					c31.31,0.455,62.631,0.206,93.946,0.043c33.635-0.176,67.271-0.437,100.9-0.983c20.641-0.336,41.268-1.415,61.907-1.904
					c16.698-0.396,33.26,1.005,49.54,5.009c9.974,2.452,18.454,7.835,27.283,12.838c10.473,5.936,17.014,14.688,21.449,25.178
					c5.353,12.66,7.601,26.206,8.169,39.861c1.1,26.42,1.887,52.857,2.388,79.295c0.527,27.803,0.516,55.615,0.85,83.422
					c0.139,11.476,0.834,22.95,0.737,34.421C227.654,1125.157,226.257,1130.151,225.37,1135.823z"/>
				<path fill-rule="evenodd" clip-rule="evenodd" d="M54.535,1164.42c1.263-23.444,14.293-43.902,36.146-54.045
					c16.191-7.515,32.204-9.15,50.87-1.591c21,9,30.999,22.666,35.574,47.666c2.425,17,0.953,26.51-8.241,41.334
					c-11.243,15.336-18.611,18.726-36.366,24.639c-15.277,5.088-36.791,0.514-50.489-6.543
					C63.584,1206.378,55.968,1184.829,54.535,1164.42z"/>
				<path fill-rule="evenodd" clip-rule="evenodd" fill="#F4F4F2" d="M178.147,1167.698c0.015-8.391-2.597-22.578-7.337-32.126
					c3.4,0,14.355,0.048,17.959,0.048c10.802,0.001,23.522-0.141,34.321,0.027c11.289,0.176,18.301,15.785,13.793,26.225
					c-0.73,1.691-3.68,4.242-5.7,4.684c-3.695,0.805-7.568,1.023-11.372,1.062C207.874,1167.739,189.8,1167.698,178.147,1167.698z"
					/>
				<path fill-rule="evenodd" clip-rule="evenodd" fill="#FFA233" d="M223.301,1056.663c0,9.619,0,18.194,0,27.346
					c-7.706,0.359-15.436-0.103-23.161-0.14c-5.134-0.025-8.121-2.979-8.163-8.107c-0.035-4.396,0.376-9.099,2.005-13.088
					c0.936-2.29,4.515-4.42,7.207-4.895C208.143,1056.554,213.633,1056.663,223.301,1056.663z"/>
				<path fill-rule="evenodd" clip-rule="evenodd" fill="#AA0000" d="M223.961,1088.2c0,8.851,0,17.103,0,25.955
					c-7.83,0-17.218-0.628-24.912-0.999c-4.405-0.213-6.77-3.271-6.908-7.735c-0.092-2.979-0.375-6.026,0.108-8.93
					c0.647-3.896,3.096-6.742,7.209-7.198C206.719,1088.486,214.378,1088.644,223.961,1088.2z"/>
				<g>
					<path fill-rule="evenodd" clip-rule="evenodd" fill="#DCEBF4" d="M110.55,1004.968c0,6.667-3.597,8.689-9.299,9.028
						c-21.034,1.251-24.084,0.071-40.701,0.371c-35.662,0.643-51.332-0.019-85.666-1.012c-6.664-0.887-9.894-5.235-9.111-10.565
						c-1.184-33.762,0.569-61.352-0.561-95.115c-0.226-6.748,0.486-19.028-0.027-26c-0.56-7.588-0.56-11.594,9.36-11.594
						c52.095,0.634,68.5,1.396,120.672,0.642c12.666-0.183,12.666,1.05,13.333,9.579
						C110.363,925.655,108.714,959.056,110.55,1004.968z"/>
					<path fill-rule="evenodd" clip-rule="evenodd" fill="#DCEBF4" d="M203.383,1012.469c-25.465,0-50.123,0-77,0
						c-1.851-44.237-1.415-94.042-3.332-139.845c9.731,0,49.39,0.508,60.981,5.505c7.539,3.25,16.302,12.53,21.351,44.991
						c4.776,32.677,2.562,50.09,2.147,83.053C207.526,1006.479,207.638,1012.469,203.383,1012.469z"/>
				</g>
			</g>
			<path fill-rule="evenodd" clip-rule="evenodd" fill="#F4F4F2" d="M82.137,1164.765c0.686-12.764,7.78-23.901,19.678-29.424
				c8.815-4.09,17.532-4.98,27.694-0.865c11.433,4.9,16.877,12.34,19.367,25.951c1.321,9.254,0.519,14.432-4.487,22.502
				c-6.12,8.35-10.132,10.195-19.799,13.414c-8.314,2.77-20.029,0.28-27.486-3.562C87.062,1187.608,82.915,1175.876,82.137,1164.765
				z"/>
		</g>
		<path fill-rule="evenodd" clip-rule="evenodd" d="M226.88,1042.667c-4.162,0.02-20.643,0.73-24.422,0.746
			c-2.085,0.009-213.08,2.271-216.458,2.331c-1.819,0.033-48.036,0.492-55.96,0.573c-6.869,0.07-13.748,0.221-20.622,0.311
			c-3.368,0.043-95.382,1.104-101.84,1.226c-3.035,0.057-7.573,0.206-10.568,0.213c-1.488,0.004-3.105-13.044,0.796-12.684
			c10.421-0.205,422.894-4.58,429.074-4.55C226.885,1032.403,227.573,1039.433,226.88,1042.667z"/>
		<path fill-rule="evenodd" clip-rule="evenodd" d="M187.422,1071.947c-4.162,0.02-20.643,0.73-24.422,0.746
			c-2.085,0.009-171.132-0.056-174.51,0.005c-1.819,0.033-48.036,0.492-55.96,0.573c-6.869,0.07-13.748,0.221-20.622,0.311
			c-3.368,0.043-95.382,1.104-101.84,1.226c-3.035,0.057-7.573,0.206-10.568,0.213c-1.488,0.004-7.833-8.617,0.796-12.684
			c10.421-0.205,380.945-2.254,387.126-2.224C187.427,1061.684,188.115,1068.713,187.422,1071.947z"/>
	</g>
</g>
<g id="Layer_2" display="none">
	<path display="inline" opacity="0.2" fill-rule="evenodd" clip-rule="evenodd" fill="#777777" d="M0,0h-2047.725v857.696
		c1.377,6.206,1.628,12.534,1.631,18.869c0.001,3.271-0.572,6.492-1.631,9.511v137.049c7.405,153.295,11.559,306.77,0,459.807
		v52.877h441.932c21.104-1.239,42.218-2.223,63.324-2.975c86.205-3.068,172.464-1.69,258.673-4.701
		c78.229-2.732,156.325-5.139,234.601-5.801c58.399-0.494,116.979-0.934,175.199,4.388c22.709,2.076,45.553,4.712,68.002,9.089H0
		V806.477c-1.644-22.224-1.641-44.396,0-66.678V0z"/>
</g>
</svg>
