<?xml version="1.0" encoding="utf-8"?>
<!-- Generator: Adobe Illustrator 16.0.4, SVG Export Plug-In . SVG Version: 6.00 Build 0)  -->
<!DOCTYPE svg PUBLIC "-//W3C//DTD SVG 1.0//EN" "http://www.w3.org/TR/2001/REC-SVG-20010904/DTD/svg10.dtd">
<svg version="1.0" xmlns="http://www.w3.org/2000/svg" xmlns:xlink="http://www.w3.org/1999/xlink" x="0px" y="0px" width="2048px"
	 height="1536px" viewBox="0 0 2048 1536" enable-background="new 0 0 2048 1536" xml:space="preserve">
<g id="Layer_1">
	<g>
		<rect x="-2118.975" y="-59.65" fill-rule="evenodd" clip-rule="evenodd" fill="#E9F8FF" width="2177.755" height="453.917"/>
	</g>
	<rect x="13.361" y="-49.139" fill-rule="evenodd" clip-rule="evenodd" fill="#E9F8FF" width="2177.755" height="453.917"/>
	<g>
		<g>
			<path fill-rule="evenodd" clip-rule="evenodd" fill="#53891F" d="M-1099.024,395.132
				c15.117,26.927-26.675-170.627-19.179-172.229c14.951-3.198,71.774-20.106,86.721-16.167
				c12.617,3.326,24.825,8.525,36.806,13.842c3.582,1.592,5.675,1.838,8.844-0.031c20.607-12.149,42.703-19.646,66.646-21.156
				c14.248-0.899,28.207,1.329,41.445,6.21c16.075,5.929,31.643,13.253,47.542,19.693c2.41,0.98,5.452,0.784,8.152,0.545
				c7.818-0.688,15.914-0.626,23.344-2.782c12.603-3.653,24.684-9.058,37.146-13.237c22.092-7.408,44.55-8.79,67.704-5.209
				c18.382,2.845,36.602,5.818,52.947,15c10.448,5.872,20.004,13.351,29.749,19.969c8.68-6.648,17.988-14.762,28.232-21.403
				c17.873-11.584,37.764-16.743,59.044-18.673c23.89-2.166,45.812,3.368,67.106,12.919c13.508,6.052,26.2,13.671,36.771,24.316
				c2.6,2.615,4.437,1.925,7.402,0.438c18.666-9.354,36.914-20.021,56.43-27.08c26.784-9.684,54.868-8.938,82.854-4.219
				c19.714,3.323,38.603,8.673,55.509,19.818c1.472,0.97,3.293,1.792,4.204,3.181c5.114,7.791,10.415,4.733,16.55,1.179
				c31.491-18.259,65.317-24.479,101.083-18.006c17.011,3.079,33.228,8.643,46.446,20.848c1.4,1.291,4.802,1.332,6.914,0.71
				c8.825-2.596,17.384-6.184,26.286-8.436c12.958-3.277,25.706-0.251,38.395,2.678c15.307,3.531,27.131,13.289,38.969,22.6
				c9.399,7.398,15.26,18.275,17.703,29.781c3.701,17.475,5.74,35.33,7.952,53.089c0.518,4.184-0.551,8.824-1.894,12.921
				c-1.475,4.511,0.076,7.377,2.619,10.829c11.027,14.955,11.431,38.509-2.595,51.036c-2.662,2.374-6.292,3.939-9.741,4.986
				c-1.509,0.459-4.641-0.855-5.31-2.223C69.072,409.435-1103.518,396.54-1099.024,395.132z"/>
		</g>
		<g>
			<path fill-rule="evenodd" clip-rule="evenodd" fill="#437419" d="M-565.644,391.719c-2.73,1.6-4.702,2.753-7.527,4.409
				c-28.362-2.84-46.346-30.393-44.318-62.026c2.051-31.958,21.404-48.998,58.358-53.44c0.579-4.243,0.591-8.775,1.884-12.971
				c3.854-12.525,12.512-22.359,22.744-30.862c17.562-14.604,38.143-24.504,62.018-24.135c25.675,0.395,50.016,6.355,67.932,25.453
				c2.524,2.689,4.767,5.599,7.141,8.406c21.896-20.326,46.956-31.71,75.444-33.381c30.171-1.771,60.157,1.402,84.228,21.53
				c3.719,3.107,6.203,1.964,8.237-0.815c18.147-24.822,46.87-31.382,75.904-37.037c19.519-3.802,39.329-6.093,59.36-3.902
				c33.055,3.615,60.785,16.927,83.423,39.313c2.591,2.563,5.075,5.214,7.711,7.929c13.31-19.459,34.619-27.234,56.792-33.369
				C94.835,195.436,9.933,380.979,6.239,380.823C-6.845,380.264-568.15,388.697-565.644,391.719z"/>
		</g>
	</g>
	<g>
		<path fill="#345613" d="M120.323-331.851c-9.358-23.108-28.854-37.102-41.721-50.847c0.193-9.219-4.403-27.364-5.54-36.562
			c-1.339-10.837-2.718-21.616-5.438-32.197c-2.711-10.557-7.159-20.403-11.393-30.422C45.01-508.466,24.365-531.77,1.799-549.412
			c-24.948-19.504-51.566-35.146-79.487-49.979c-12.681-6.734-43.401-6.116-43.401-6.116s-18.194-33.235-30.58-41.983
			c-10.438-7.378-21.211-14.302-32.656-20.022c-19.166-9.587-36.957-14.895-58.062-17.376c-22.088-2.597-43.674,2.576-63.189,12.354
			c-6.946-3.666-14.322-6.313-21.801-7.714c-28.177-5.282-56.803-1.449-83.765,7.872c-25.231,8.719-50.178,20.567-71.446,36.864
			c-13.553,10.383-27.246,22.067-37.734,35.893c-19.956,3.836-39.23,11.176-57.786,19.479
			c-27.809,12.44-53.705,30.901-75.608,51.955c-23.172,22.269-32.739,40.66-41.032,71.988c-4.493,16.983-8.264,49.241-5.544,66.567
			c-9.533,6.821-26.807,21.924-34.251,30.739c-23.324,27.64-34.493,47.979-36.993,84.071c-1.085,15.623,0.922,32.215,4.574,47.34
			c3.978,16.444,12.188,29.561,22.511,42.523c10.667,13.389,26.151,21.893,40.122,31.678c2.775,2.401,11.68,4.597,14.203,7.254
			c-6.302,17.142-8.579,24.883-7.678,37.185c2.314,31.902,16.293,60.11,40.76,80.997c10.957,9.357,21.938,18.593,33.773,26.857
			c11.749,8.199,24.597,13.754,37.868,19.074c17.538,7.028,45.487,5.593,64.92,3.686c17.784,25.846,19.541,26.338,41.372,38.6
			c26.687,14.987,48.754,21.668,73.506,15.817c22.582-5.344,40.214-15.123,57.492-41.415c5.842,2.755,24.257,8.683,33.713,10.069
			c20.888,3.069,34.105,1.851,50.283-11.093c10.564-8.448,12.222-7.252,27.64-25.91c0.049,0.051,1.715,3.515,40.716,28.266
			c38.615,24.495,108.736,24.411,131.991,4.157c18.925-16.477,17.171-18.984,22.648-25.651C-31.697,15.008-38.347,17.153-12,19
			c67.324,4.724,113.713-47.15,119.725-68.413c13.523-47.856,9.889-65.104,0.465-94.763c-2.703-8.512-6.013-20.336-12.018-29.086
			c15.713-11.127,11.092-32.852,11.092-32.852C141-233.54,139.412-284.707,120.323-331.851z"/>
	</g>
	<g>
		<g>
			<path fill-rule="evenodd" clip-rule="evenodd" fill="#515151" d="M2099.855,400.432c0,278.538,0,561.756,0,840.242
				c-720.902,0-1441.505,35.818-2162.653,35.818c0-372.469-12.168-718.621-12.168-907.933
				C645.604,368.56,1378.531,400.432,2099.855,400.432z"/>
			<g>
				<g display="none">
					<path display="inline" fill-rule="evenodd" clip-rule="evenodd" fill="#FFFFFF" d="M1270.562,529.537
						c-9.045,0-14.502-0.048-23.699,0c-13.666,0.074-26.848-0.459-40.5,0.001c-23.881,0.804-48.873-0.759-72.75-0.001
						c-16.77,0.531-33.134-0.133-49.917,0c-22.701,0.184-54.797-0.016-77.498,0.153c-2.188,0.085-2.188,0.085-2.164-2
						c-0.287-3.949-0.055-14.097-0.254-17.793c-0.035-14.501-0.002-33,0.496-45.063c87.938-0.767,177.226,0.776,266.286,0
						C1271.252,485.856,1270.949,507.355,1270.562,529.537z"/>
					<path display="inline" fill-rule="evenodd" clip-rule="evenodd" fill="#FFFFFF" d="M1272.111,590.643
						c0,10.204,0.037,21.002-0.008,31.803c-0.037,8.859-0.264,17.719-0.221,26.577c0.021,5.363-1.412,6.633-6.297,6.537
						c-11.918-0.234-23.848-0.059-35.771-0.093c-22.068-0.061-44.135-0.125-66.203-0.238c-14.689-0.074-27.896,0.583-42.582,0.357
						c-19.005-0.289-38.001,0.17-57.001-0.021c-18.732-0.188-38.951-0.18-58.498-0.18c0-20.822,0-42.867,0-64.742
						C1093.269,590.643,1181.943,590.643,1272.111,590.643z"/>
					<path display="inline" fill-rule="evenodd" clip-rule="evenodd" fill="#FFFFFF" d="M1270.471,787.604
						c-9.084,0-18.035,0.215-27.273,0.264c-13.721,0.074-27.459-0.08-41.168,0.383c-23.982,0.809-48.223-1.354-72.199-0.592
						c-16.842,0.535-33.702,0.438-50.556,0.57c-22.797,0.186-44.016-0.875-66.812-0.707c-7.391,0.053-7.779-0.314-8.105-8.59
						c-0.148-3.725-0.117-7.457-0.318-11.174c-0.633-11.645,0.326-24.209,0.248-36.494c-0.018-2.81-1.166-9.742,4.242-8.565
						c88.307-0.771,172.505,0.978,261.942,0.196C1271.832,743.172,1269.062,766.641,1270.471,787.604z"/>
					<path display="inline" fill-rule="evenodd" clip-rule="evenodd" fill="#FFFFFF" d="M1263.695,852.456
						c4.176,0.154,6.994,0.9,6.871,5.9c-0.225,9.02,0.033,19.123-0.004,28.041c-0.037,8.959-0.119,15.439-0.076,24.398
						c0.023,5.424-1.412,6.709-6.307,6.611c-11.939-0.236-23.207,0.775-35.15,0.74c-22.105-0.062-44.514,0.592-66.619,0.479
						c-14.717-0.076-29.432-0.152-44.141-0.381c-19.036-0.291-38.067-0.883-57.101-1.076c-18.766-0.189-37.533-0.043-57.119-0.043
						c0-20.459,0-39.688,0-61.102c0-3.568,1.113-2.893,3.646-2.834C1095.587,853.19,1173.371,852.456,1263.695,852.456z"/>
					<path display="inline" fill-rule="evenodd" clip-rule="evenodd" fill="#FFFFFF" d="M1004.224,1106.508
						c9.084,0.002,18.035-0.213,27.273-0.26c13.721-0.07,27.459,0.086,41.168-0.375c23.982-0.805,48.222,1.363,72.2,0.605
						c16.84-0.531,33.701-0.432,50.553-0.561c22.799-0.184,44.018,0.883,66.814,0.717c7.393-0.053,7.779,0.316,8.104,8.592
						c0.146,3.725,0.117,7.457,0.318,11.176c0.631,11.645-0.332,24.207-0.256,36.492c0.018,2.809,1.164,9.742-4.246,8.564
						c-88.305,0.756-172.503-1.008-261.94-0.242C1002.854,1150.94,1005.628,1127.471,1004.224,1106.508z"/>
					<path display="inline" fill-rule="evenodd" clip-rule="evenodd" fill="#FFFFFF" d="M1012.009,1044.659
						c-4.174-0.156-6.992-0.902-6.867-5.902c0.225-9.02-0.031-19.123,0.008-28.041c0.039-8.959,0.033-22.9-0.008-31.859
						c8.887-0.363,29.604,0.08,41.547,0.117c22.105,0.066,44.512-0.586,66.62-0.467c14.715,0.08,29.43,0.156,44.139,0.389
						c19.035,0.295,38.068,0.889,57.1,1.086c18.768,0.193,37.533,0.049,57.121,0.053c-0.006,20.459-0.008,39.688-0.012,61.104
						c0,3.566-1.113,2.891-3.646,2.832C1180.117,1043.954,1102.335,1044.674,1012.009,1044.659z"/>
				</g>
				<g>
					<path fill-rule="evenodd" clip-rule="evenodd" fill="#F2F2F2" d="M1629.436,841.084c-19.535,0.307-29.453-0.121-50.633-0.441
						c-21.777-0.031-30.154-0.982-47.166-1.076c-2.707-0.014-10.996,0.236-13.719-0.041c-3.287-0.338-1.373-1.371-2.07-4.297
						c-0.467-3.785,0.285-15.453,0.307-23.443c-0.162-1.223-0.592-15.641-0.021-22.777c0.283-3.52-0.256-3.914,3.963-3.842
						c16.75,0.285,36.715,0.973,51.465,1.061c19.162,0.117,38.322-0.094,57.482-0.361c3.238-0.047,3.559,1.568,3.518,3.715
						c-0.17,8.539-0.508,17.074-0.631,25.615c-0.096,6.668,0.031,22.533-0.105,24.264
						C1631.686,841.19,1629.436,841.036,1629.436,841.084z"/>
					<path fill-rule="evenodd" clip-rule="evenodd" fill="#FFFFFF" d="M1806.029,784.327c19.098-0.113,38.127-0.531,56.168-0.607
						c13.973-0.057,25.65-0.195,40.332-0.002c6.795-0.254,13.334-0.057,20.834,0.777c0,19.01,0,37.211,0,56.896
						c-16.182,0-31.658-0.189-47.133,0.047c-17.111,0.258-30.922-0.463-48.033,0.055c-4.865,0.145-13.031-0.844-17.877-0.379
						c-3.26,0.311-4.316-0.951-4.291-4.43C1806.146,820.127,1806.029,802.905,1806.029,784.327z"/>
					<path fill-rule="evenodd" clip-rule="evenodd" fill="#F2F2F2" d="M212.194,835.167c-19.535,0.307-29.453-0.121-50.633-0.441
						c-21.779-0.031-30.156-0.982-47.166-1.076c-2.707-0.014-10.996,0.236-13.719-0.041c-3.289-0.338-1.373-1.371-2.07-4.297
						c-0.469-3.785,0.285-15.453,0.307-23.443c-0.162-1.223-0.592-15.641-0.021-22.777c0.281-3.52-0.256-3.914,3.961-3.842
						c15.75,0.268,35.715,0.967,51.465,1.061c19.162,0.117,38.324-0.094,57.482-0.361c3.24-0.047,3.561,1.568,3.518,3.715
						c-0.168,8.539-0.506,17.074-0.629,25.615c-0.096,6.668,0.031,22.533-0.105,24.264
						C214.444,835.272,212.194,835.118,212.194,835.167z"/>
					<path fill-rule="evenodd" clip-rule="evenodd" fill="#FFFFFF" d="M506.12,834.877c-19.098,0.113-37.127,0.531-55.168,0.605
						c-13.973,0.059-26.65,0.197-41.332,0.002c-6.795,0.254-13.334,0.057-20.834-0.775c0-19.01,0-37.211,0-56.896
						c16.182,0,31.658,0.189,47.133-0.047c17.111-0.258,30.922,0.463,48.033-0.055c4.865-0.145,13.031,0.844,17.877,0.379
						c3.26-0.311,4.316,0.951,4.291,4.43C506.003,799.077,506.12,816.299,506.12,834.877z"/>
					<path fill-rule="evenodd" clip-rule="evenodd" fill="#FFFFFF" d="M673.079,778.67c19.098-0.113,32.5,0.205,50.541,0.131
						c13.975-0.057,26.65-0.195,41.334-0.002c6.793-0.254,13.334-0.057,20.832,0.775c0,19.012,0,37.213,0,56.898
						c-16.182,0-31.656-0.189-47.131,0.047c-17.113,0.258-30.924-0.463-48.035,0.055c-19.959,0.02-22.172-0.48-22.172-3.182
						c0.104-14.715-0.125-35.953,0.273-52.328C668.771,779.016,670.548,778.643,673.079,778.67z"/>
				</g>
				<path fill-rule="evenodd" clip-rule="evenodd" fill="#FFFFFF" d="M957.81,838.483c-9.326,0.34-7.074-1.869-7.371-8.867
					c-0.338-11.496-0.562-31.482-0.33-41.875c0.039-4.453-0.256-6.371,5.201-6.932c15.699-1.611,33.498-0.391,53.375-0.621
					c8.996-0.104,13.121-0.152,22.746-0.209c5.129-0.029,22.129-0.248,27.373-0.373c10.924,0.621,8.373-0.098,8.967,19.812
					c0.205,6.883,0.479,23.586-0.008,30.459c-0.693,9.871,0.746,7.551-15.078,7.736c-20.832,0.078-45.33,0.525-51.457,0.52
					C997.335,837.706,974.981,838.516,957.81,838.483z"/>
				<path fill-rule="evenodd" clip-rule="evenodd" fill="#FFFFFF" d="M1348.328,783.356c0,16.045,0.066,30.852,0.012,46.5
					c-0.031,9.121,0.855,7.686-6.025,7.936c-33.469,1.203-65.164,0.535-107.799,0.535c-6.627,1.279-5.301-2.221-5.301-5.471
					c-0.451-13.51,0-23.016,0.037-37.418c0.389-12.59-1.982-15.223,4.822-15.578c14.359-0.75,30.307,0,43.297,0
					c21.648,0,46.252,0,65.828,0C1348.361,779.86,1348.361,779.86,1348.328,783.356z"/>
			</g>
		</g>
		<g>
			<g>
				<path fill-rule="evenodd" clip-rule="evenodd" fill="#53891F" d="M845.714,374.346c15.117,26.928-26.675-170.627-19.179-172.229
					c14.95-3.198,71.774-20.106,86.721-16.167c12.616,3.326,24.825,8.525,36.806,13.842c3.582,1.592,5.675,1.838,8.844-0.031
					c20.607-12.149,42.703-19.646,66.646-21.156c14.248-0.899,28.207,1.329,41.445,6.21c16.075,5.929,31.643,13.253,47.542,19.693
					c2.41,0.98,5.452,0.784,8.152,0.545c7.818-0.688,15.914-0.626,23.344-2.782c12.603-3.653,24.684-9.058,37.146-13.237
					c22.092-7.408,44.55-8.79,67.704-5.209c18.382,2.845,36.602,5.818,52.947,15c10.448,5.872,20.004,13.351,29.749,19.969
					c8.68-6.648,17.988-14.762,28.232-21.403c17.873-11.584,37.764-16.743,59.044-18.673c23.89-2.166,45.812,3.368,67.106,12.919
					c13.508,6.052,26.2,13.671,36.771,24.316c2.6,2.615,4.437,1.925,7.402,0.438c18.666-9.354,36.914-20.021,56.43-27.08
					c26.784-9.684,54.868-8.938,82.854-4.219c19.714,3.323,38.603,8.673,55.509,19.818c1.472,0.97,3.293,1.792,4.204,3.181
					c5.114,7.791,10.415,4.733,16.55,1.179c31.491-18.259,65.317-24.479,101.083-18.006c17.011,3.079,33.228,8.643,46.446,20.848
					c1.4,1.291,4.802,1.332,6.914,0.71c8.825-2.596,17.384-6.184,26.286-8.436c12.958-3.277,25.706-0.251,38.395,2.678
					c15.307,3.531,27.131,13.289,38.969,22.6c9.399,7.398,15.26,18.275,17.703,29.781c3.701,17.475,5.74,35.33,7.952,53.089
					c0.518,4.184-0.551,8.824-1.894,12.921c-1.475,4.511,0.076,7.377,2.619,10.829c11.027,14.955,11.431,38.509-2.595,51.036
					c-2.662,2.373-6.292,3.939-9.741,4.986c-1.509,0.459-4.641-0.855-5.31-2.224C2013.811,388.649,841.22,375.754,845.714,374.346z"
					/>
				<path fill-rule="evenodd" clip-rule="evenodd" fill="#437419" d="M269.697,371.634c15.116,26.927-26.675-170.627-19.179-172.229
					c14.951-3.198,71.774-20.106,86.721-16.167c12.617,3.326,24.824,8.525,36.805,13.842c3.584,1.592,5.676,1.838,8.846-0.031
					c20.605-12.149,42.703-19.646,66.645-21.156c14.249-0.899,28.208,1.329,41.446,6.21c16.075,5.929,31.643,13.253,47.542,19.693
					c2.41,0.98,5.452,0.784,8.152,0.545c7.818-0.688,15.914-0.626,23.344-2.782c12.603-3.653,24.684-9.058,37.146-13.237
					c22.092-7.408,44.55-8.79,67.704-5.209c18.382,2.845,36.602,5.818,52.947,15c10.448,5.872,20.004,13.351,29.749,19.969
					c8.68-6.648,17.988-14.762,28.232-21.403c17.873-11.584,37.764-16.743,59.044-18.673c23.89-2.166,45.812,3.368,67.106,12.919
					c13.508,6.052,26.2,13.671,36.771,24.316c2.6,2.615,4.437,1.925,7.402,0.438c18.666-9.354,36.914-20.021,56.43-27.08
					c26.784-9.684,54.868-8.938,82.854-4.219c19.714,3.323,38.603,8.673,55.509,19.818c1.472,0.97,3.293,1.792,4.204,3.181
					c5.114,7.791,10.415,4.733,16.55,1.179c31.491-18.259,65.317-24.479,101.083-18.006c17.011,3.079,33.228,8.643,46.446,20.848
					c1.4,1.291,4.802,1.332,6.914,0.71c8.825-2.596,17.384-6.184,26.286-8.436c12.958-3.277,25.706-0.251,38.395,2.678
					c15.307,3.531,27.131,13.289,38.969,22.6c9.399,7.398,15.26,18.275,17.703,29.781c3.701,17.475,5.74,35.33,7.952,53.089
					c0.518,4.184-0.551,8.824-1.894,12.921c-1.475,4.511,0.076,7.377,2.619,10.83c11.027,14.955,11.431,38.509-2.595,51.035
					c-2.662,2.373-6.292,3.939-9.741,4.986c-1.509,0.459-4.641-0.855-5.31-2.223C1437.794,385.937,265.204,373.042,269.697,371.634z
					"/>
				<path fill-rule="evenodd" clip-rule="evenodd" fill="#88A80D" d="M355.987,399.169c-0.669,1.368-3.801,2.683-5.31,2.224
					c-3.449-1.047-7.079-2.613-9.741-4.986c-14.025-12.527-13.622-36.081-2.595-51.036c2.543-3.452,4.094-6.318,2.619-10.829
					c-1.343-4.098-2.411-8.738-1.894-12.921c2.212-17.759,4.251-35.614,7.952-53.089c2.443-11.506,8.304-22.383,17.703-29.781
					c11.838-9.312,23.662-19.069,38.969-22.6c12.688-2.929,25.437-5.955,38.395-2.678c8.902,2.252,17.461,5.84,26.286,8.436
					c2.112,0.622,5.514,0.581,6.914-0.71c13.219-12.206,29.436-17.769,46.446-20.848c35.766-6.473,69.592-0.253,101.083,18.006
					c6.135,3.555,11.436,6.612,16.55-1.179c0.911-1.389,2.732-2.211,4.204-3.181c16.906-11.145,35.795-16.495,55.509-19.818
					c27.985-4.719,56.069-5.465,82.854,4.219c19.516,7.059,37.765,17.726,56.43,27.08c2.966,1.487,4.802,2.178,7.402-0.438
					c10.571-10.645,23.264-18.264,36.772-24.316c21.294-9.551,43.215-15.084,67.105-12.919c21.28,1.93,41.171,7.088,59.044,18.673
					c10.244,6.641,19.553,14.754,28.232,21.403c9.745-6.618,19.301-14.097,29.749-19.969c16.346-9.182,34.565-12.156,52.947-15
					c23.154-3.581,45.612-2.199,67.704,5.209c12.463,4.179,24.544,9.583,37.146,13.237c7.43,2.156,15.525,2.094,23.344,2.782
					c2.7,0.239,5.742,0.435,8.152-0.545c15.899-6.44,31.467-13.765,47.542-19.693c13.238-4.881,27.197-7.11,41.446-6.21
					c23.941,1.511,46.039,9.007,66.645,21.156c3.17,1.869,5.262,1.623,8.846,0.031c11.98-5.317,24.188-10.516,36.805-13.842
					c14.946-3.939,30.22-1.346,45.17,1.853c7.496,1.602,7.256,213.471,22.372,186.543
					C1529.279,384.84,356.689,397.735,355.987,399.169z"/>
				<path fill-rule="evenodd" clip-rule="evenodd" fill="#88A80D" d="M-266.996,365.933c-2.73,1.6-4.702,2.753-7.527,4.409
					c-28.362-2.84-46.346-30.393-44.318-62.025c2.051-31.959,21.404-48.999,58.358-53.44c0.579-4.243,0.591-8.775,1.884-12.972
					c3.854-12.525,12.512-22.358,22.744-30.862c17.562-14.604,38.143-24.504,62.018-24.135c25.675,0.395,50.016,6.355,67.932,25.453
					c2.524,2.689,4.767,5.598,7.141,8.405c21.896-20.325,46.956-31.71,75.444-33.382c30.171-1.771,60.157,1.402,84.228,21.531
					c3.719,3.106,6.203,1.963,8.237-0.815c18.147-24.822,46.87-31.382,75.904-37.037c19.519-3.802,39.329-6.093,59.36-3.901
					c33.055,3.614,60.785,16.926,83.423,39.312c2.591,2.564,5.075,5.215,7.711,7.93c13.31-19.459,34.619-27.234,56.792-33.369
					c41.148-11.385,74.053,23.079,114.185,37.37c11.153,3.975,10.808,119.517,7.114,119.36
					C460.549,337.207-269.503,362.911-266.996,365.933z"/>
				<path fill-rule="evenodd" clip-rule="evenodd" fill="#53891F" d="M134.532,382.934c-2.73,1.6-4.702,2.752-7.527,4.408
					c-28.362-2.84-46.346-30.393-44.318-62.025c2.051-31.959,21.404-48.999,58.358-53.44c0.579-4.243,0.591-8.775,1.884-12.972
					c3.854-12.525,12.512-22.358,22.744-30.862c17.562-14.604,38.143-24.504,62.018-24.135c25.675,0.395,50.016,6.355,67.932,25.453
					c2.524,2.689,4.767,5.598,7.141,8.405c21.896-20.325,46.956-31.71,75.444-33.382c30.171-1.771,60.157,1.402,84.228,21.531
					c3.719,3.106,6.203,1.963,8.237-0.815c18.147-24.822,46.87-31.382,75.904-37.037c19.519-3.802,39.329-6.093,59.36-3.901
					c33.055,3.614,60.785,16.926,83.423,39.312c2.591,2.564,5.075,5.215,7.711,7.93c13.31-19.459,34.619-27.234,56.792-33.369
					c41.148-11.385,91.656,15.37,114.185,37.37c37.472,37.92,10.808,119.517,7.114,119.361
					C862.077,354.208,132.025,379.911,134.532,382.934z"/>
				<path fill-rule="evenodd" clip-rule="evenodd" fill="#88A80D" d="M1480.677,235.544c16.424-7.851,22.482,148.267-41.013,133.898
					c-45.661-10.34-243.619-33.205-238.353-37.677c-3.149-2.58-6.041-5.083-9.107-7.418c-21.538-16.422-25.686-36.546-10.833-53.977
					c12.547-14.717,30.879-23.9,52.208-29.031c21.213-5.109,40.756,3.917,59.15,13.677c11.754,6.232,11.709,6.28,14.471-3.337
					c12.065-42.206,48.022-69.127,111.701-59.892C1447.373,195.91,1465.469,208.473,1480.677,235.544z"/>
				<path fill-rule="evenodd" clip-rule="evenodd" fill="#437419" d="M1392.008,370.934c-2.73,1.6-4.702,2.753-7.527,4.408
					c-28.362-2.84-46.346-30.393-44.318-62.025c2.051-31.958,21.404-48.998,58.358-53.44c0.579-4.243,0.591-8.775,1.884-12.971
					c3.854-12.525,12.512-22.359,22.744-30.862c17.562-14.604,38.143-24.504,62.018-24.135c25.675,0.395,50.016,6.355,67.932,25.453
					c2.524,2.689,4.767,5.599,7.141,8.406c21.896-20.326,46.956-31.71,75.444-33.381c30.171-1.771,60.157,1.402,84.228,21.53
					c3.719,3.107,6.203,1.964,8.237-0.815c18.147-24.822,46.87-31.382,75.904-37.037c19.519-3.802,39.329-6.093,59.36-3.902
					c33.055,3.615,60.785,16.927,83.423,39.313c2.591,2.563,5.075,5.214,7.711,7.929c13.31-19.459,58.674-29.436,75.896-5.782
					c77.272,71.7-62.858,146.572-66.552,146.416C1950.807,359.479,1389.501,367.912,1392.008,370.934z"/>
			</g>
		</g>
		<g>
			<path fill-rule="evenodd" clip-rule="evenodd" fill="#C6C6C6" d="M2047.85,401.305c-4.347,0.026-8.692,0.069-13.042,0.075
				c-7.236,0.01-14.473-0.01-21.713-0.006c-29.359,0.014-160.553,0.101-173.594,0.149c-11.25,0.041-22.527,0.028-33.789,0.061
				c-16.451,0.046-32.891,0.134-49.346,0.159c-15.642,0.023-37.295-0.018-52.944-0.014c-16.233,0.004-26.467,0.026-42.701,0.043
				c-14.599,0.016-145.899-0.137-162.37-0.149c-7.596-0.005-15.191-0.036-22.779-0.023c-8.66,0.015-17.307,0.081-25.968,0.097
				c-6.049,0.01-12.105-0.037-18.162-0.04c-6.751-0.005-106.524-0.022-121.559-0.017c-13.522,0.005-27.041,0-40.562-0.006
				c-19.113-0.009-121.499-0.027-133.902-0.043c-6.663-0.01-80.301-0.09-86.014-0.098c-4.819-0.007-9.646,0.043-14.473,0.047
				c-1.333,0.002-2.674-0.07-4.988-0.137c-3.929,0.301-30.17,0.268-37.4-0.125c-1.784,0.178-3.242,0.324-6.817,0.129
				c-2.226-0.121-7.105-0.083-9.47,0.054c-4.705,0.271-8.195,0.07-12.327-0.04c-1.592-0.041-62.223,0.169-69.133-0.016
				c-3.886-0.104-8.549,0.005-12.856,0.023c-10.673,0.047-21.343,0.121-32.022,0.138c-11.219,0.017-22.467,0.007-33.668-0.046
				c-6.533-0.031-158.066,0.286-165.246,0.314c-14.467,0.058-28.931,0.128-43.406,0.168c-9.604,0.028-19.229,0.001-28.837,0.022
				c-10.328,0.022-20.646,0.081-30.974,0.107c-2.557,0.007-415.336-0.83-415.916-0.856c-7.02-0.326-107.751,0.031-113.77,0.045
				c-5.801,0.012-11.594,0.049-17.648,0.076c-0.1-0.188,0.482-118.789,0.378-118.99c16.786-0.063,2039.367,0.279,2046.829,0.3
				c1.543,0.005-1.009,118.35,0.507,118.422C2048.06,401.188,2047.956,401.246,2047.85,401.305z"/>
			<path fill-rule="evenodd" clip-rule="evenodd" fill="#C6C6C6" d="M-1.971,1241.749c19.863,0.688,92.368,0.621,110.409,1.309
				c9.955,0.383,1016.54-0.338,1032.646-1.041c8.678-0.389,229.17,0.463,266.973,0.568c32.775,0.092,65.568-2.172,98.357-2.65
				c16.068-0.227,456.328,3.264,487.115,1.74c14.477-0.721,35.568-0.066,49.863,0.645c7.105,0.357,18.039,368.734-0.699,357.146
				c-49.686,2.688-2017.474,2.736-2046.987,0C-4.8,1554.051-4.285,1335.051-1.971,1241.749z"/>
		</g>
		<g>
			<path fill-rule="evenodd" clip-rule="evenodd" fill="#53891F" d="M993.595,1630.37c15.117,26.928-26.674-170.627-19.178-172.229
				c14.95-3.199,71.773-20.107,86.721-16.168c12.616,3.326,24.824,8.525,36.805,13.842c3.582,1.592,5.676,1.838,8.845-0.031
				c20.607-12.148,42.703-19.645,66.646-21.156c14.248-0.898,28.207,1.33,41.445,6.211c16.074,5.928,31.643,13.254,47.541,19.693
				c2.41,0.98,5.453,0.783,8.152,0.545c7.818-0.689,15.914-0.627,23.344-2.783c12.604-3.652,24.684-9.057,37.146-13.236
				c22.092-7.408,44.551-8.789,67.705-5.209c18.381,2.846,36.602,5.818,52.947,15c10.447,5.873,20.004,13.352,29.748,19.969
				c8.68-6.648,17.988-14.762,28.232-21.402c17.873-11.584,37.764-16.742,59.045-18.672c23.889-2.166,45.811,3.367,67.105,12.918
				c13.508,6.053,26.201,13.672,36.771,24.316c2.6,2.615,4.438,1.926,7.402,0.438c18.666-9.354,36.914-20.021,56.43-27.08
				c26.785-9.684,54.869-8.938,82.854-4.219c19.715,3.322,38.604,8.672,55.51,19.818c1.471,0.969,3.293,1.791,4.203,3.18
				c5.115,7.791,10.416,4.734,16.551,1.18c31.49-18.26,65.316-24.479,101.082-18.006c17.012,3.078,33.229,8.643,46.447,20.848
				c1.4,1.291,4.801,1.332,6.914,0.711c8.824-2.596,37.158,34.848,49.846,37.775c15.307,3.531,41.965-30.246,53.803-20.934
				c9.4,7.398,15.26,18.275,17.703,29.781c3.701,17.475,5.74,35.33,7.953,53.088c0.518,4.184-0.551,8.824-1.895,12.922
				c-1.475,4.51,0.076,7.377,2.619,10.828c11.027,14.955,11.432,38.51-2.594,51.037c-2.662,2.373-6.293,3.939-9.742,4.986
				c-1.508,0.459-4.641-0.855-5.309-2.225C2161.691,1644.672,989.102,1631.778,993.595,1630.37z"/>
			<path fill-rule="evenodd" clip-rule="evenodd" fill="#53891F" d="M417.579,1627.657c15.116,26.928-26.676-170.627-19.18-172.229
				c14.951-3.199,71.775-20.107,86.721-16.168c12.617,3.326,24.825,8.525,36.806,13.842c3.583,1.592,5.675,1.838,8.845-0.031
				c20.606-12.148,42.703-19.645,66.646-21.156c14.249-0.898,28.208,1.33,41.446,6.211c16.074,5.93,31.643,13.254,47.542,19.693
				c2.41,0.98,5.452,0.785,8.151,0.545c7.819-0.688,15.914-0.627,23.345-2.781c12.603-3.654,24.683-9.059,37.146-13.238
				c22.092-7.408,44.55-8.789,67.704-5.209c18.381,2.846,36.602,5.818,52.947,15.002c10.447,5.871,20.004,13.35,29.749,19.969
				c8.679-6.648,17.987-14.764,28.231-21.404c17.874-11.584,37.764-16.742,59.045-18.672c23.89-2.166,45.811,3.367,67.105,12.918
				c13.508,6.053,26.201,13.672,36.771,24.316c2.6,2.615,4.438,1.926,7.402,0.438c18.667-9.354,36.915-20.02,56.431-27.08
				c26.783-9.684,54.867-8.938,82.854-4.219c19.713,3.322,38.602,8.674,55.508,19.818c1.473,0.971,3.293,1.793,4.205,3.182
				c5.113,7.791,10.414,4.732,16.549,1.178c31.492-18.258,65.318-24.479,101.084-18.006c17.01,3.08,33.227,8.643,46.445,20.848
				c1.4,1.291,4.803,1.332,6.914,0.711c8.826-2.596,17.385-6.184,26.287-8.436c12.957-3.277,25.705-0.252,38.395,2.678
				c15.307,3.529,27.131,13.287,38.969,22.6c9.398,7.398,15.26,18.275,17.703,29.781c3.701,17.475,5.74,35.33,7.951,53.088
				c0.518,4.184-0.551,8.824-1.893,12.922c-1.475,4.512,0.076,7.377,2.619,10.83c11.027,14.955,11.43,38.508-2.596,51.035
				c-2.662,2.373-6.291,3.939-9.74,4.986c-1.51,0.459-4.641-0.855-5.311-2.223C1585.676,1641.959,413.085,1629.065,417.579,1627.657
				z"/>
			<path fill-rule="evenodd" clip-rule="evenodd" fill="#437419" d="M503.868,1655.192c-0.668,1.369-3.801,2.684-5.309,2.225
				c-3.449-1.047-7.08-2.613-9.742-4.986c-14.025-12.527-13.621-36.082-2.594-51.037c2.543-3.451,4.094-6.318,2.619-10.828
				c-1.344-4.098-2.412-8.738-1.895-12.922c2.213-17.758,4.252-35.613,7.953-53.088c2.443-11.506,8.303-22.383,17.703-29.781
				c11.838-9.312,23.662-19.07,38.969-22.602c12.688-2.928,25.436-5.955,38.395-2.678c8.902,2.252,17.461,5.842,26.285,8.438
				c2.113,0.621,5.514,0.58,6.914-0.711c13.219-12.205,29.436-17.77,46.447-20.848c35.766-6.473,69.592-0.254,101.082,18.006
				c6.135,3.555,11.436,6.611,16.551-1.18c0.91-1.389,2.732-2.211,4.203-3.18c16.906-11.146,35.795-16.496,55.51-19.818
				c27.984-4.719,56.068-5.465,82.854,4.219c19.516,7.059,37.764,17.727,56.43,27.08c2.965,1.488,4.801,2.178,7.402-0.438
				c10.57-10.645,23.264-18.264,36.771-24.316c21.295-9.551,43.215-15.084,67.105-12.918c21.28,1.93,41.171,7.088,59.044,18.672
				c10.244,6.641,19.553,14.754,28.232,21.402c9.746-6.617,19.301-14.096,29.75-19.969c16.346-9.182,34.564-12.154,52.947-15
				c23.154-3.58,45.611-2.199,67.703,5.209c12.463,4.18,24.545,9.584,37.146,13.236c7.43,2.156,15.525,2.094,23.344,2.783
				c2.701,0.238,5.742,0.436,8.152-0.545c15.9-6.439,31.467-13.766,47.543-19.693c13.238-4.881,27.197-7.109,41.445-6.211
				c23.941,1.512,46.039,9.008,66.645,21.156c3.17,1.869,5.262,1.623,8.846,0.031c11.98-5.316,24.188-10.516,36.805-13.842
				c14.947-3.939,30.221-1.346,45.17,1.854c7.496,1.602,7.256,213.471,22.373,186.543
				C1677.16,1640.864,504.571,1653.758,503.868,1655.192z"/>
			<path fill-rule="evenodd" clip-rule="evenodd" fill="#437419" d="M-119.114,1621.956c-2.73,1.6-4.703,2.754-7.527,4.41
				c-28.363-2.84-46.346-30.393-44.318-62.025c2.051-31.959,21.404-49,58.357-53.441c0.58-4.242,0.592-8.775,1.885-12.971
				c3.854-12.525,12.512-22.359,22.744-30.863c17.562-14.604,38.143-24.504,62.018-24.135c25.674,0.395,50.016,6.355,67.932,25.453
				c2.523,2.689,4.766,5.598,7.141,8.406c21.896-20.326,46.955-31.711,75.443-33.383c30.172-1.771,60.158,1.402,84.229,21.531
				c3.719,3.107,6.203,1.963,8.236-0.814c18.148-24.822,46.871-31.383,75.904-37.037c19.52-3.803,39.33-6.094,59.361-3.902
				c33.055,3.615,60.785,16.926,83.422,39.312c2.592,2.564,5.076,5.215,7.711,7.93c13.311-19.459,34.619-27.234,56.793-33.369
				c41.148-11.385,74.053,23.08,114.184,37.371c11.154,3.975,10.809,119.516,7.115,119.359
				C608.431,1593.229-121.622,1618.934-119.114,1621.956z"/>
			<path fill-rule="evenodd" clip-rule="evenodd" fill="#88A80D" d="M282.413,1638.958c-2.73,1.6-4.701,2.752-7.527,4.408
				c-28.361-2.84-46.346-30.393-44.318-62.025c2.051-31.959,21.404-48.998,58.359-53.439c0.578-4.244,0.59-8.775,1.883-12.973
				c3.855-12.525,12.512-22.357,22.744-30.861c17.562-14.604,38.143-24.504,62.018-24.135c25.676,0.395,50.016,6.355,67.932,25.453
				c2.525,2.689,4.768,5.598,7.141,8.404c21.896-20.324,46.957-31.709,75.445-33.381c30.17-1.771,60.156,1.402,84.227,21.531
				c3.719,3.105,6.203,1.963,8.238-0.816c18.146-24.822,46.869-31.381,75.904-37.037c19.518-3.801,39.328-6.092,59.359-3.9
				c33.055,3.613,60.785,16.926,83.424,39.312c2.59,2.564,5.074,5.215,7.711,7.93c13.309-19.459,34.619-27.234,56.791-33.369
				c41.148-11.385,91.656,15.369,114.186,37.369c37.471,37.92,10.807,119.518,7.113,119.361
				C1009.958,1610.231,279.907,1635.934,282.413,1638.958z"/>
			<path fill-rule="evenodd" clip-rule="evenodd" fill="#88A80D" d="M1628.559,1491.567c16.424-7.85,22.482,148.268-41.014,133.898
				c-45.66-10.34-243.619-33.205-238.352-37.678c-3.15-2.58-6.041-5.082-9.107-7.418c-21.539-16.422-25.686-36.547-10.834-53.977
				c12.547-14.717,30.879-23.9,52.209-29.031c21.213-5.109,40.756,3.918,59.15,13.676c11.754,6.232,11.709,6.281,14.471-3.336
				c12.064-42.207,48.021-69.127,111.701-59.893C1595.254,1451.934,1613.35,1464.497,1628.559,1491.567z"/>
			<path fill-rule="evenodd" clip-rule="evenodd" fill="#437419" d="M1526.977,1626.958c-2.73,1.6-4.703,2.752-7.527,4.408
				c-28.363-2.84-46.346-30.393-44.318-62.025c2.051-31.959,21.404-48.998,58.357-53.441c0.58-4.242,0.592-8.773,1.885-12.971
				c3.854-12.525,12.512-22.359,22.744-30.861c17.562-14.604,38.143-24.504,62.018-24.135c25.674,0.395,50.016,6.354,67.932,25.451
				c2.523,2.689,4.766,5.6,7.141,8.406c21.896-20.326,46.955-31.709,75.443-33.381c30.172-1.771,60.158,1.402,84.229,21.529
				c3.719,3.107,6.203,1.965,8.236-0.814c18.148-24.822,46.871-31.383,75.904-37.037c19.52-3.801,39.33-6.094,59.361-3.902
				c33.055,3.615,60.785,16.928,83.422,39.314c2.592,2.562,5.076,5.215,7.711,7.93c13.311-19.461,59.016-21.807,91.402-6.416
				c98.613,128.609-78.363,147.205-82.057,147.049C2085.775,1615.502,1524.469,1623.934,1526.977,1626.958z"/>
		</g>
	</g>
	<g>
		<path fill-rule="evenodd" clip-rule="evenodd" fill="#515151" d="M2146.113,405.912c0,280.941,0,561.373,0,842.263
			c-743.234,0-1486.16,0-2229.649,0c0-375.652,0.172-651.885,0.172-842.752C659.528,405.423,1402.442,405.912,2146.113,405.912z"/>
		<g>
			<g display="none">
				<path display="inline" fill-rule="evenodd" clip-rule="evenodd" fill="#FFFFFF" d="M1090.498,543.302
					c-9.045,0-14.502-0.048-23.699,0c-13.666,0.073-26.848-0.459-40.5,0c-23.881,0.804-48.874-0.759-72.751,0
					c-16.77,0.531-33.134-0.134-49.916,0c-22.701,0.183-54.798-0.016-77.499,0.153c-2.188,0.084-2.188,0.084-2.163-2
					c-0.287-3.949-0.056-14.096-0.255-17.793c-0.035-14.501-0.001-33,0.496-45.063c87.938-0.767,177.227,0.776,266.287,0
					C1091.188,499.621,1090.884,521.121,1090.498,543.302z"/>
				<path display="inline" fill-rule="evenodd" clip-rule="evenodd" fill="#FFFFFF" d="M1092.046,604.407
					c0,10.204,0.037,21.001-0.008,31.803c-0.037,8.859-0.264,17.718-0.221,26.577c0.022,5.363-1.411,6.633-6.296,6.537
					c-11.919-0.234-23.849-0.059-35.771-0.092c-22.068-0.062-44.136-0.125-66.203-0.238c-14.689-0.075-27.897,0.583-42.583,0.356
					c-19.004-0.289-38,0.17-57-0.021c-18.733-0.188-38.952-0.18-58.499-0.18c0-20.823,0-42.868,0-64.742
					C913.203,604.407,1001.879,604.407,1092.046,604.407z"/>
				<path display="inline" fill-rule="evenodd" clip-rule="evenodd" fill="#FFFFFF" d="M1090.406,801.369
					c-9.085,0-18.036,0.215-27.274,0.264c-13.721,0.074-27.458-0.08-41.168,0.383c-23.982,0.809-48.222-1.354-72.199-0.592
					c-16.841,0.535-33.701,0.438-50.555,0.57c-22.798,0.186-44.017-0.875-66.813-0.707c-7.391,0.053-7.779-0.314-8.105-8.59
					c-0.148-3.725-0.117-7.457-0.317-11.174c-0.634-11.645,0.326-24.208,0.248-36.494c-0.018-2.809-1.167-9.742,4.242-8.565
					c88.306-0.772,172.504,0.978,261.942,0.196C1091.767,756.937,1088.997,780.406,1090.406,801.369z"/>
				<path display="inline" fill-rule="evenodd" clip-rule="evenodd" fill="#FFFFFF" d="M1083.631,866.22
					c4.175,0.154,6.994,0.9,6.87,5.9c-0.224,9.02,0.034,19.123-0.003,28.041c-0.038,8.959-0.12,15.439-0.077,24.398
					c0.024,5.424-1.412,6.709-6.306,6.611c-11.939-0.236-23.208,0.775-35.151,0.74c-22.105-0.062-44.514,0.592-66.619,0.479
					c-14.716-0.076-29.431-0.152-44.141-0.381c-19.035-0.291-38.066-0.883-57.1-1.076c-18.766-0.189-37.534-0.043-57.119-0.043
					c0-20.459,0-39.688,0-61.102c0-3.568,1.113-2.893,3.646-2.834C915.522,866.955,993.306,866.22,1083.631,866.22z"/>
				<path display="inline" fill-rule="evenodd" clip-rule="evenodd" fill="#FFFFFF" d="M824.158,1120.273
					c9.084,0.002,18.036-0.213,27.274-0.26c13.72-0.07,27.458,0.086,41.168-0.375c23.982-0.805,48.221,1.363,72.199,0.605
					c16.841-0.531,33.701-0.432,50.554-0.561c22.798-0.184,44.017,0.883,66.813,0.717c7.393-0.053,7.78,0.316,8.104,8.592
					c0.146,3.725,0.116,7.457,0.317,11.176c0.631,11.645-0.332,24.207-0.256,36.492c0.018,2.809,1.165,9.742-4.245,8.564
					c-88.306,0.756-172.503-1.008-261.941-0.242C822.789,1164.705,825.562,1141.236,824.158,1120.273z"/>
				<path display="inline" fill-rule="evenodd" clip-rule="evenodd" fill="#FFFFFF" d="M831.944,1058.423
					c-4.175-0.156-6.993-0.902-6.868-5.902c0.225-9.02-0.031-19.123,0.008-28.041c0.039-8.959,0.033-22.9-0.008-31.859
					c8.887-0.363,29.604,0.08,41.547,0.117c22.106,0.066,44.513-0.586,66.62-0.467c14.715,0.08,29.431,0.156,44.14,0.389
					c19.035,0.295,38.067,0.889,57.099,1.086c18.768,0.193,37.534,0.049,57.121,0.053c-0.005,20.459-0.007,39.688-0.012,61.104
					c0,3.566-1.113,2.891-3.646,2.832C1000.053,1057.718,922.271,1058.439,831.944,1058.423z"/>
			</g>
			<g>
				<path fill-rule="evenodd" clip-rule="evenodd" fill="#F2F2F2" d="M1449.371,854.849c-19.535,0.307-29.453-0.121-50.633-0.441
					c-21.778-0.031-30.155-0.982-47.166-1.076c-2.707-0.014-10.996,0.236-13.719-0.041c-3.288-0.338-1.373-1.371-2.07-4.297
					c-0.468-3.785,0.285-15.453,0.307-23.443c-0.162-1.223-0.592-15.641-0.021-22.777c0.282-3.52-0.256-3.914,3.962-3.842
					c16.75,0.285,36.715,0.973,51.465,1.061c19.162,0.117,38.323-0.094,57.482-0.361c3.239-0.047,3.56,1.568,3.518,3.715
					c-0.169,8.539-0.507,17.074-0.63,25.615c-0.096,6.668,0.031,22.533-0.105,24.264
					C1451.621,854.955,1449.371,854.8,1449.371,854.849z"/>
				<path fill-rule="evenodd" clip-rule="evenodd" fill="#FFFFFF" d="M1625.965,798.091c19.098-0.113,38.126-0.531,56.167-0.607
					c13.974-0.057,25.65-0.195,40.333-0.002c6.794-0.254,13.334-0.057,20.833,0.777c0,19.01,0,37.211,0,56.896
					c-16.182,0-31.657-0.189-47.132,0.047c-17.112,0.258-30.923-0.463-48.034,0.055c-4.864,0.145-13.031-0.844-17.876-0.379
					c-3.26,0.311-4.316-0.951-4.291-4.43C1626.082,833.892,1625.965,816.669,1625.965,798.091z"/>
				<path fill-rule="evenodd" clip-rule="evenodd" fill="#FFFFFF" d="M1910.256,798.353c20.098-0.119,33.501,0.201,50.542,0.131
					c13.974-0.057,26.65-0.195,41.333-0.002c6.794-0.254,13.334-0.057,20.833,0.775c0,19.012,0,37.213,0,56.898
					c-16.182,0-31.657-0.189-47.132,0.047c-17.112,0.258-30.923-0.463-48.034,0.055c-4.864,0.145-13.031-0.844-17.876-0.379
					c-3.26,0.311-4.316-0.951-4.291-4.43c0.104-14.715-0.131-34.326,0.268-50.701
					C1905.948,798.699,1907.725,798.326,1910.256,798.353z"/>
				<path fill-rule="evenodd" clip-rule="evenodd" fill="#F2F2F2" d="M32.129,848.931c-19.535,0.307-29.453-0.121-50.633-0.441
					c-21.778-0.031-30.155-0.982-47.166-1.076c-2.707-0.014-10.996,0.236-13.719-0.041c-3.288-0.338-1.373-1.371-2.07-4.297
					c-0.468-3.785,0.285-15.453,0.307-23.443c-0.162-1.223-0.592-15.641-0.021-22.777c0.282-3.52-0.256-3.914,3.962-3.842
					c15.75,0.268,35.715,0.967,51.465,1.061c19.162,0.117,38.323-0.094,57.482-0.361c3.239-0.047,3.56,1.568,3.518,3.715
					c-0.169,8.539-0.507,17.074-0.63,25.615c-0.096,6.668,0.031,22.533-0.105,24.264C34.379,849.037,32.129,848.882,32.129,848.931z
					"/>
				<path fill-rule="evenodd" clip-rule="evenodd" fill="#FFFFFF" d="M326.055,848.642c-19.098,0.113-37.126,0.531-55.167,0.605
					c-13.974,0.059-26.65,0.197-41.333,0.002c-6.794,0.254-13.334,0.057-20.833-0.775c0-19.01,0-37.211,0-56.896
					c16.182,0,31.657,0.189,47.132-0.047c17.112-0.258,30.923,0.463,48.034-0.055c4.864-0.145,13.031,0.844,17.876,0.379
					c3.26-0.311,4.316,0.951,4.291,4.43C325.938,812.841,326.055,830.064,326.055,848.642z"/>
				<path fill-rule="evenodd" clip-rule="evenodd" fill="#FFFFFF" d="M493.014,792.435c19.098-0.113,32.501,0.205,50.542,0.131
					c13.974-0.057,26.65-0.195,41.333-0.002c6.794-0.254,13.334-0.057,20.833,0.775c0,19.012,0,37.213,0,56.898
					c-16.182,0-31.657-0.189-47.132,0.047c-17.112,0.258-30.923-0.463-48.034,0.055c-19.959,0.02-22.173-0.48-22.173-3.182
					c0.104-14.715-0.125-35.953,0.273-52.328C488.706,792.781,490.482,792.408,493.014,792.435z"/>
			</g>
			<path fill-rule="evenodd" clip-rule="evenodd" fill="#FFFFFF" d="M777.744,852.248c-9.326,0.34-7.074-1.869-7.37-8.867
				c-0.339-11.496-0.563-31.482-0.331-41.875c0.04-4.453-0.256-6.371,5.202-6.932c15.699-1.611,33.497-0.391,53.374-0.621
				c8.996-0.104,13.121-0.152,22.746-0.209c5.129-0.029,22.13-0.248,27.373-0.373c10.925,0.621,8.374-0.098,8.968,19.812
				c0.205,6.883,0.479,23.586-0.008,30.459c-0.693,9.871,0.746,7.551-15.079,7.736c-20.832,0.078-45.33,0.525-51.457,0.52
				C817.27,851.47,794.917,852.281,777.744,852.248z"/>
			<path fill-rule="evenodd" clip-rule="evenodd" fill="#FFFFFF" d="M1168.264,797.121c0,16.045,0.066,30.852,0.011,46.5
				c-0.031,9.121,0.855,7.686-6.024,7.936c-33.47,1.203-65.165,0.535-107.799,0.535c-6.627,1.279-5.302-2.221-5.302-5.471
				c-0.45-13.51,0-23.016,0.037-37.418c0.389-12.59-1.982-15.223,4.822-15.578c14.359-0.75,30.307,0,43.297,0
				c21.648,0,46.252,0,65.828,0C1168.297,793.625,1168.297,793.625,1168.264,797.121z"/>
		</g>
	</g>
	<g>
		<g>
			<g>
				<path fill-rule="evenodd" clip-rule="evenodd" fill="#FFFFFF" d="M-53.928,792.755c20.098-0.119,33.501,0.202,50.542,0.132
					c13.974-0.057,26.65-0.195,41.333-0.002c6.794-0.254,13.334-0.057,20.833,0.775c0,19.012,0,37.213,0,56.897
					c-16.182,0-31.657-0.188-47.132,0.048c-17.112,0.258-30.923-0.463-48.034,0.055c-4.864,0.145-13.031-0.844-17.876-0.38
					c-3.26,0.311-4.316-0.95-4.291-4.43c0.104-14.714-0.131-34.325,0.268-50.7C-58.235,793.101-56.459,792.729-53.928,792.755z"/>
			</g>
		</g>
	</g>
	<g>
		<path fill-rule="evenodd" clip-rule="evenodd" fill="#C6C6C6" d="M2.464,400.443c-4.347,0.026-8.692,0.069-13.042,0.075
			c-7.236,0.01-14.473-0.01-21.713-0.006c-29.359,0.014-160.553,0.101-173.594,0.15c-11.25,0.041-22.527,0.029-33.789,0.061
			c-16.451,0.045-32.891,0.134-49.346,0.159c-15.642,0.024-31.295-0.017-46.944-0.013c-16.233,0.004-32.467,0.026-48.701,0.043
			c-14.599,0.016-145.899-0.137-162.37-0.149c-7.596-0.005-15.191-0.037-22.779-0.023c-8.66,0.015-17.307,0.081-25.968,0.096
			c-6.049,0.01-12.105-0.037-18.162-0.04c-6.751-0.005-106.524-0.023-121.559-0.017c-13.522,0.005-27.041,0.001-40.562-0.006
			c-19.113-0.008-121.499-0.027-133.902-0.043c-6.663-0.009-80.301-0.089-86.014-0.097c-4.819-0.007-9.646,0.042-14.473,0.047
			c-1.333,0.001-2.674-0.07-4.988-0.136c-3.929,0.3-30.17,0.267-37.4-0.125c-1.784,0.178-3.242,0.325-6.817,0.129
			c-2.226-0.122-7.106-0.083-9.47,0.054c-4.705,0.271-8.195,0.07-12.327-0.04c-1.592-0.042-62.223,0.168-69.133-0.016
			c-3.885-0.104-8.548,0.004-12.856,0.023c-10.673,0.046-21.343,0.122-32.022,0.138c-11.22,0.017-22.468,0.007-33.668-0.046
			c-6.534-0.031-158.066,0.287-165.246,0.315c-14.468,0.058-28.931,0.128-43.406,0.168c-9.604,0.028-19.229,0-28.837,0.022
			c-10.328,0.022-20.646,0.081-30.974,0.107c-2.557,0.006-415.335-0.83-415.916-0.856c-7.019-0.326-107.75,0.032-113.769,0.044
			c-5.801,0.013-11.594,0.049-17.648,0.077c-0.1-0.189,0.482-118.789,0.377-118.99c16.786-0.063,2039.367,0.279,2046.829,0.3
			c1.543,0.005-1.009,118.35,0.507,118.422C2.674,400.327,2.57,400.384,2.464,400.443z"/>
		<path fill-rule="evenodd" clip-rule="evenodd" fill="#C6C6C6" d="M-2044.576,1242.211c19.863,0.688,92.368,0.621,110.41,1.309
			c9.954,0.383,1016.54-0.338,1032.645-1.042c8.678-0.388,229.17,0.464,266.973,0.568c32.775,0.093,65.568-2.172,98.357-2.65
			c16.068-0.227,449.685,3.817,480.472,2.294c14.477-0.722,40.692-0.824,54.987-0.112c7.105,0.356,19.559,368.938,0.82,357.351
			c-49.686,2.688-2017.474,2.736-2046.987,0C-2047.405,1554.514-2046.891,1335.514-2044.576,1242.211z"/>
	</g>
	<g display="none">
		<g display="inline">
			<g>
				<path fill-rule="evenodd" clip-rule="evenodd" fill="#515151" d="M-796.744,1228.471c280.933-2.239,561.355-4.475,842.236-6.714
					c5.438,682.324,10.875,1364.365,16.315,2046.923c-375.64,2.994-651.865,5.037-842.726,6.559
					C-786.354,2593.229-791.302,1911.195-796.744,1228.471z"/>
			</g>
			<g>
				<path fill-rule="evenodd" clip-rule="evenodd" fill="#C6C6C6" d="M61.115,3283.322c0.528-19.868-0.115-92.369,0.429-110.416
					c0.303-9.957-8.441-1016.505-9.273-1032.604c-0.457-8.674-1.363-229.166-1.56-266.969c-0.169-32.774-2.694-65.549-3.435-98.333
					c-0.354-16.066-6.3-454.978-8.068-485.752c-0.837-14.471-3.941-36.062-3.344-50.361c0.3-7.108,378.097-21.845,366.658-3.015
					c3.084,49.663,18.817,2017.389,16.316,2046.922C373.431,3283.661,154.433,3284.893,61.115,3283.322z"/>
			</g>
		</g>
		<g display="inline">
			<g>
				<path fill-rule="evenodd" clip-rule="evenodd" fill="#515151" d="M-796.743-1641.349c280.933-2.239,561.355-4.475,842.236-6.714
					C50.932-965.738,56.368-283.697,61.809,398.86c-375.854,2.994-651.973,5.037-842.726,6.559
					C-786.354-276.591-791.301-958.625-796.743-1641.349z"/>
			</g>
			<g>
				<path fill-rule="evenodd" clip-rule="evenodd" fill="#C6C6C6" d="M61.116,393.502c0.528-19.869-0.115-92.37,0.429-110.417
					c0.303-9.957-8.441-1016.505-9.273-1032.604c-0.457-8.674-1.363-229.166-1.56-266.969c-0.169-32.774-2.694-65.549-3.435-98.333
					c-0.354-16.066-6.3-454.978-8.068-485.752c-0.837-14.471-3.941-36.062-3.344-50.361c0.3-7.108,378.097-21.845,366.658-3.015
					c3.084,49.663,18.817,2017.388,16.316,2046.921C373.432,393.84,154.434,395.073,61.116,393.502z"/>
			</g>
		</g>
	</g>
	<g id="Layer_4">
		<g>
			<path fill-rule="evenodd" clip-rule="evenodd" fill="#C6C6C6" d="M2046.308,402.809c-4.347,0.026-8.692,0.069-13.042,0.075
				c-7.236,0.01-14.473-0.01-21.713-0.006c-29.359,0.014-160.553,0.101-173.594,0.15c-11.25,0.041-22.527,0.029-33.789,0.061
				c-16.451,0.045-32.891,0.134-49.346,0.159c-15.642,0.024-37.295-0.017-52.944-0.013c-16.233,0.004-26.467,0.026-42.701,0.043
				c-14.599,0.016-145.899-0.137-162.37-0.149c-7.596-0.005-15.191-0.037-22.779-0.023c-8.66,0.015-17.307,0.081-25.968,0.096
				c-6.049,0.01-12.105-0.037-18.162-0.04c-6.751-0.005-106.524-0.023-121.559-0.017c-13.522,0.005-27.041,0.001-40.562-0.006
				c-19.113-0.008-121.499-0.027-133.902-0.043c-6.663-0.009-80.301-0.089-86.014-0.097c-4.819-0.007-9.646,0.042-14.473,0.047
				c-1.333,0.001-2.674-0.07-4.988-0.136c-3.929,0.3-30.17,0.267-37.4-0.125c-1.783,0.178-3.242,0.325-6.816,0.129
				c-2.227-0.122-7.107-0.083-9.471,0.054c-4.705,0.271-8.195,0.07-12.327-0.04c-1.593-0.042-62.224,0.168-69.134-0.016
				c-3.885-0.104-8.548,0.004-12.855,0.023c-10.674,0.046-21.343,0.122-32.021,0.138c-11.221,0.017-22.469,0.007-33.669-0.046
				c-6.534-0.031-158.066,0.287-165.245,0.315c-14.469,0.058-28.932,0.128-43.406,0.168c-9.604,0.028-19.23,0-28.838,0.022
				c-10.328,0.022-20.646,0.081-30.975,0.107c-2.557,0.006-415.335-0.83-415.916-0.856c-7.018-0.326-107.75,0.032-113.768,0.044
				c-5.801,0.013-11.594,0.049-17.648,0.077c-0.1-0.189,0.482-118.789,0.377-118.99c16.785-0.063,2039.367,0.279,2046.829,0.3
				c1.543,0.005-1.009,118.35,0.507,118.422C2046.518,402.693,2046.414,402.75,2046.308,402.809z"/>
			<path fill-rule="evenodd" clip-rule="evenodd" fill="#C6C6C6" d="M-3.513,1242.253c19.863,0.688,92.367,0.621,110.41,1.309
				c9.953,0.383,1016.539-0.338,1032.645-1.041c8.678-0.389,229.17,0.463,266.973,0.568c32.775,0.092,65.568-2.172,98.357-2.65
				c16.068-0.227,455.014-2.674,485.801-4.197c14.477-0.721,36.092-3.654,50.387-2.941c7.104,0.355,18.83,378.258,0.092,366.67
				c-49.686,2.688-2017.475,2.736-2046.986,0C-6.341,1554.556-5.827,1335.556-3.513,1242.253z"/>
		</g>
		<g>
			<path fill-rule="evenodd" clip-rule="evenodd" fill="#53891F" d="M-758.876,1645.656c-0.669,1.367-3.801,2.682-5.31,2.223
				c-3.449-1.047-7.079-2.613-9.741-4.986c-14.025-12.525-13.622-36.08-2.595-51.035c2.543-3.453,4.094-6.318,2.619-10.83
				c-1.343-4.098-2.411-8.736-1.894-12.92c2.212-17.76,4.251-35.615,7.952-53.09c2.443-11.506,8.304-22.383,17.703-29.781
				c11.838-9.311,23.662-19.068,38.969-22.6c12.688-2.93,25.437-5.955,38.395-2.678c8.902,2.252,17.461,5.84,26.286,8.436
				c2.112,0.621,5.514,0.582,6.914-0.709c13.219-12.207,29.436-17.77,46.446-20.85c35.766-6.473,69.592-0.252,101.083,18.006
				c6.135,3.555,11.436,6.613,16.55-1.178c0.911-1.389,2.732-2.211,4.204-3.182c16.906-11.145,35.795-16.494,55.509-19.818
				c27.985-4.719,56.069-5.465,82.854,4.221c19.516,7.059,37.764,17.725,56.43,27.08c2.966,1.486,4.803,2.178,7.402-0.438
				c10.571-10.646,23.264-18.266,36.772-24.316c21.294-9.551,43.215-15.086,67.105-12.92c21.28,1.93,41.17,7.088,59.044,18.674
				c10.244,6.641,19.554,14.754,28.231,21.402c9.746-6.617,19.302-14.098,29.75-19.969c16.346-9.182,34.566-12.156,52.947-15
				c23.154-3.582,45.611-2.199,67.703,5.209c12.465,4.178,24.545,9.582,37.146,13.236c7.432,2.156,15.525,2.094,23.346,2.781
				c2.699,0.24,5.74,0.436,8.15-0.545c15.9-6.439,31.469-13.764,47.543-19.693c13.238-4.881,27.197-7.109,41.445-6.209
				c23.943,1.51,46.039,9.006,66.646,21.156c3.169,1.869,5.262,1.623,8.844,0.031c11.98-5.318,24.189-10.518,36.806-13.842
				c14.946-3.939,71.771,12.969,86.721,16.166c7.496,1.602-34.296,199.156-19.179,172.23
				C414.417,1631.328-758.174,1644.222-758.876,1645.656z"/>
			<path fill-rule="evenodd" clip-rule="evenodd" fill="#437419" d="M-737.832,1629.519c-2.73,1.6-4.702,2.752-7.527,4.408
				c-28.362-2.84-46.346-30.393-44.318-62.025c2.051-31.959,21.404-48.998,58.358-53.439c0.579-4.244,0.591-8.775,1.884-12.973
				c3.854-12.525,12.512-22.357,22.744-30.861c17.562-14.604,38.143-24.504,62.018-24.135c25.675,0.395,50.016,6.355,67.932,25.453
				c2.524,2.689,4.767,5.598,7.141,8.404c21.896-20.324,46.956-31.709,75.444-33.381c30.171-1.771,60.157,1.402,84.228,21.531
				c3.719,3.105,6.203,1.963,8.237-0.816c18.147-24.822,46.87-31.381,75.904-37.037c19.519-3.801,39.329-6.092,59.36-3.9
				c33.055,3.613,60.785,16.926,83.423,39.312c2.591,2.564,5.075,5.215,7.711,7.93c13.31-19.459,34.619-27.234,56.792-33.369
				c41.148-11.385,82.359-11.082,122.491,3.209c11.153,3.975,2.501,153.678-1.192,153.521
				C-10.287,1600.792-740.339,1626.496-737.832,1629.519z"/>
		</g>
		<g>
			<path fill-rule="evenodd" clip-rule="evenodd" fill="#53891F" d="M1007.843,1624.416
				c15.116,26.928-26.675-170.627-19.179-172.229c14.951-3.199,71.774-20.107,86.721-16.168
				c12.617,3.326,24.825,8.525,36.806,13.842c3.582,1.592,5.675,1.838,8.844-0.031c20.607-12.148,42.703-19.645,66.646-21.156
				c14.248-0.898,28.207,1.33,41.445,6.211c16.075,5.93,31.643,13.254,47.542,19.693c2.41,0.98,5.452,0.785,8.152,0.545
				c7.818-0.688,15.914-0.627,23.344-2.781c12.603-3.654,24.684-9.059,37.146-13.238c22.092-7.408,44.55-8.789,67.704-5.209
				c18.382,2.846,36.602,5.818,52.947,15.002c10.448,5.871,20.004,13.35,29.749,19.969c8.68-6.648,17.988-14.764,28.232-21.404
				c17.873-11.584,37.764-16.742,59.044-18.672c23.89-2.166,45.812,3.367,67.106,12.918c13.508,6.053,26.2,13.672,36.771,24.316
				c2.6,2.615,4.437,1.926,7.402,0.438c18.666-9.354,36.914-20.02,56.43-27.08c26.784-9.684,54.868-8.938,82.854-4.219
				c19.714,3.322,38.603,8.674,55.509,19.818c1.472,0.971,3.293,1.793,4.204,3.182c5.114,7.791,10.415,4.732,16.55,1.178
				c31.491-18.258,65.317-24.479,101.083-18.006c17.011,3.08,33.228,8.643,46.446,20.848c1.4,1.291,4.802,1.332,6.914,0.711
				c8.825-2.596,17.384-6.184,26.286-8.436c12.958-3.277,25.705-0.252,38.395,2.678c15.307,3.529,27.131,13.287,38.969,22.6
				c9.399,7.398,15.26,18.275,17.703,29.781c3.701,17.475,5.74,35.33,7.952,53.088c0.518,4.184-0.551,8.824-1.894,12.922
				c-1.475,4.512,0.076,7.377,2.619,10.83c11.027,14.955,11.431,38.508-2.595,51.035c-2.662,2.373-6.292,3.939-9.741,4.986
				c-1.509,0.459-4.641-0.855-5.31-2.223C2175.939,1638.718,1003.35,1625.824,1007.843,1624.416z"/>
			<path fill-rule="evenodd" clip-rule="evenodd" fill="#53891F" d="M431.826,1621.705c15.117,26.926-26.675-170.629-19.179-172.23
				c14.95-3.197,71.774-20.105,86.721-16.166c12.616,3.324,24.825,8.523,36.806,13.842c3.582,1.592,5.675,1.838,8.844-0.031
				c20.607-12.15,42.703-19.646,66.646-21.156c14.248-0.9,28.207,1.328,41.445,6.209c16.074,5.93,31.643,13.254,47.543,19.693
				c2.41,0.98,5.451,0.785,8.15,0.545c7.82-0.688,15.914-0.625,23.346-2.781c12.602-3.654,24.682-9.059,37.146-13.236
				c22.092-7.408,44.549-8.791,67.703-5.209c18.381,2.844,36.602,5.818,52.947,15c10.448,5.871,20.004,13.352,29.75,19.969
				c8.678-6.648,17.987-14.762,28.231-21.402c17.874-11.586,37.764-16.744,59.044-18.674c23.891-2.166,45.812,3.369,67.105,12.92
				c13.509,6.051,26.201,13.67,36.772,24.316c2.6,2.615,4.437,1.924,7.402,0.438c18.666-9.355,36.914-20.021,56.43-27.08
				c26.784-9.686,54.868-8.939,82.854-4.221c19.714,3.324,38.603,8.674,55.509,19.818c1.472,0.971,3.293,1.793,4.204,3.182
				c5.114,7.791,10.415,4.732,16.55,1.178c31.491-18.258,65.317-24.479,101.083-18.006c17.011,3.08,33.228,8.643,46.446,20.85
				c1.4,1.291,4.802,1.33,6.914,0.709c8.825-2.596,17.384-6.184,26.286-8.436c12.958-3.277,25.706-0.252,38.395,2.678
				c15.307,3.531,27.131,13.289,38.969,22.6c9.399,7.398,15.26,18.275,17.703,29.781c3.701,17.475,5.74,35.33,7.952,53.09
				c0.518,4.184-0.551,8.822-1.894,12.92c-1.475,4.512,0.076,7.377,2.619,10.83c11.027,14.955,11.431,38.51-2.595,51.035
				c-2.662,2.373-6.292,3.939-9.741,4.986c-1.509,0.459-4.641-0.855-5.31-2.223
				C1599.923,1636.007,427.332,1623.113,431.826,1621.705z"/>
			<path fill-rule="evenodd" clip-rule="evenodd" fill="#437419" d="M518.116,1649.24c-0.669,1.367-3.801,2.682-5.31,2.223
				c-3.449-1.047-7.079-2.613-9.741-4.986c-14.025-12.527-13.622-36.08-2.595-51.035c2.543-3.453,4.094-6.318,2.619-10.83
				c-1.343-4.098-2.411-8.738-1.894-12.922c2.212-17.758,4.251-35.613,7.952-53.088c2.443-11.506,8.304-22.383,17.703-29.781
				c11.838-9.312,23.662-19.07,38.969-22.6c12.688-2.93,25.437-5.955,38.395-2.678c8.902,2.252,17.461,5.84,26.286,8.436
				c2.112,0.621,5.514,0.58,6.914-0.711c13.219-12.205,29.436-17.768,46.446-20.848c35.766-6.473,69.592-0.252,101.083,18.006
				c6.135,3.555,11.436,6.613,16.55-1.178c0.911-1.389,2.732-2.211,4.204-3.182c16.906-11.145,35.795-16.496,55.509-19.818
				c27.985-4.719,56.069-5.465,82.854,4.219c19.516,7.061,37.765,17.727,56.43,27.08c2.966,1.488,4.802,2.178,7.402-0.438
				c10.571-10.645,23.264-18.264,36.772-24.316c21.294-9.551,43.215-15.084,67.105-12.918c21.28,1.93,41.171,7.088,59.044,18.672
				c10.244,6.641,19.553,14.756,28.232,21.404c9.745-6.619,19.301-14.098,29.749-19.969c16.346-9.184,34.565-12.156,52.947-15.002
				c23.154-3.58,45.612-2.199,67.704,5.209c12.463,4.18,24.544,9.584,37.146,13.238c7.43,2.154,15.525,2.094,23.344,2.781
				c2.7,0.24,5.742,0.436,8.152-0.545c15.899-6.439,31.467-13.764,47.542-19.693c13.238-4.881,27.197-7.109,41.446-6.211
				c23.941,1.512,46.039,9.008,66.645,21.156c3.17,1.869,5.262,1.623,8.846,0.031c11.98-5.316,24.188-10.516,36.805-13.842
				c14.946-3.939,30.22-1.346,45.17,1.854c7.496,1.602,7.256,213.471,22.372,186.543
				C1691.408,1634.91,518.818,1647.804,518.116,1649.24z"/>
			<path fill-rule="evenodd" clip-rule="evenodd" fill="#437419" d="M-104.867,1616.003c-2.73,1.6-4.702,2.752-7.527,4.408
				c-28.362-2.84-46.346-30.393-44.318-62.025c2.051-31.959,21.404-48.998,58.358-53.439c0.579-4.244,0.591-8.775,1.884-12.973
				c3.854-12.525,12.512-22.357,22.744-30.861c17.562-14.604,38.143-24.504,62.018-24.135c25.675,0.395,50.016,6.355,67.932,25.453
				c2.524,2.689,4.767,5.598,7.141,8.404c21.896-20.324,46.956-31.709,75.444-33.381c30.171-1.771,60.157,1.402,84.228,21.531
				c3.719,3.105,6.203,1.963,8.237-0.816c18.147-24.822,46.87-31.381,75.904-37.037c19.519-3.801,39.329-6.092,59.36-3.9
				c33.055,3.613,60.785,16.926,83.423,39.312c2.591,2.564,5.075,5.215,7.711,7.93c13.31-19.459,34.619-27.234,56.792-33.369
				c41.148-11.385,74.053,23.078,114.185,37.369c11.153,3.975,10.808,119.518,7.114,119.361
				C622.678,1587.277-107.374,1612.98-104.867,1616.003z"/>
			<path fill-rule="evenodd" clip-rule="evenodd" fill="#88A80D" d="M296.661,1633.003c-2.73,1.6-4.702,2.752-7.527,4.408
				c-28.362-2.84-46.346-30.393-44.318-62.025c2.051-31.959,21.404-48.998,58.358-53.439c0.579-4.244,0.591-8.775,1.884-12.973
				c3.854-12.525,12.512-22.357,22.744-30.861c17.562-14.604,38.143-24.504,62.018-24.135c25.675,0.395,50.016,6.355,67.932,25.453
				c2.524,2.689,4.767,5.598,7.141,8.404c21.896-20.324,46.956-31.709,75.444-33.381c30.171-1.771,60.157,1.402,84.228,21.531
				c3.719,3.105,6.203,1.963,8.237-0.816c18.147-24.822,46.87-31.381,75.904-37.037c19.519-3.801,39.329-6.092,59.36-3.9
				c33.055,3.613,60.785,16.926,83.423,39.312c2.591,2.564,5.075,5.215,7.711,7.93c13.31-19.459,34.619-27.234,56.792-33.369
				c41.148-11.385,91.656,15.369,114.185,37.369c37.472,37.922,10.808,119.518,7.114,119.361
				C1024.206,1604.277,294.154,1629.98,296.661,1633.003z"/>
			<path fill-rule="evenodd" clip-rule="evenodd" fill="#88A80D" d="M1642.806,1485.613c16.424-7.85,22.482,148.268-41.013,133.898
				c-45.661-10.34-243.619-33.205-238.353-37.676c-3.149-2.58-6.041-5.084-9.107-7.42c-21.538-16.422-25.686-36.545-10.833-53.977
				c12.547-14.717,30.879-23.9,52.208-29.031c21.213-5.109,40.756,3.918,59.15,13.678c11.754,6.232,11.709,6.279,14.471-3.338
				c12.065-42.205,48.022-69.127,111.701-59.891C1609.502,1445.98,1627.598,1458.542,1642.806,1485.613z"/>
			<path fill-rule="evenodd" clip-rule="evenodd" fill="#437419" d="M1541.224,1621.003c-2.73,1.6-4.702,2.754-7.527,4.408
				c-28.362-2.84-46.346-30.393-44.318-62.025c2.051-31.959,21.404-48.998,58.358-53.439c0.579-4.244,0.591-8.775,1.884-12.973
				c3.854-12.525,12.512-22.357,22.744-30.861c17.562-14.604,38.143-24.504,62.018-24.135c25.675,0.395,50.016,6.355,67.932,25.453
				c2.524,2.689,4.767,5.598,7.141,8.404c21.896-20.324,46.956-31.709,75.444-33.381c30.171-1.771,60.157,1.402,84.228,21.531
				c3.719,3.105,6.203,1.963,8.237-0.816c18.147-24.822,46.87-31.381,75.904-37.037c19.519-3.801,39.329-6.092,59.36-3.9
				c33.055,3.613,60.784,16.926,83.423,39.312c2.591,2.564,5.075,5.215,7.711,7.93c13.31-19.459,34.619-27.234,56.792-33.369
				c41.148-11.385-43.754,174.158-47.447,174.002C2100.022,1609.548,1538.717,1617.982,1541.224,1621.003z"/>
		</g>
	</g>
	<path fill-rule="evenodd" clip-rule="evenodd" fill="#88A80D" d="M265.553,1887.184c0.118,50.1-0.497,100.992-0.673,151.287
		c-0.155,47.632,1.893,218.622-0.501,254.405c0.346,54.876-56.798,55.989-91.794,57.891c-73.553,4.038-438.823-0.522-544.819-1.912
		c-82.325-1.085-797.221,1.295-868.997,2.898c-75.867,1.716-151.879,2.19-227.707,0.286c-131.025,1.236-95.024,5.973-132.225-64.244
		c-57.852-92.289-68.306-118.954-131.263-197.344c-44.149-54.964-66.863-78.992-136.042-138.51
		c-39.452-33.938-186.713-120.159-224.366-133.525c-42.376-17.005-48.216-21.514-47.301-46.68
		c2.431-66.105-0.128-79.84,1.989-145.945c1.45-45.238,0.923-90.548,1.076-135.833c0.138-38.844,16.395-65.633,61.209-72.703
		c30.502-4.784,221.001-0.584,285.901,0.152c97.307,1.094,889.708-0.854,926.874-0.704c71.273,0.293,966.515-6.008,1028.419-4.752
		c35.107,0.711,58.766,7.187,79.693,24.086c13.081,10.563,20.936,29.808,21.326,44.772c1.257,49.017,1.114,113.069-0.781,162.14
		C265.164,1653.183,265.413,1827.83,265.553,1887.184z"/>
	<g>
		<g>
			<g>
				<g>
					<g>
						<path fill-rule="evenodd" clip-rule="evenodd" fill="#402F3C" d="M-598.108,1474.831
							c53.836-0.189,107.657-3.998,161.494-4.379c107.729-0.768,215.458,0.236,323.186-0.519
							c75.585-0.531,151.164-2.473,226.73-4.493c12.459-0.33,17.827,2.91,20.791,15.582c4.561,19.474,11.969,38.292,19.628,61.89
							c-10.562-2.172-18.212-4.367-26.009-5.11c-4.434-0.427-10.422-0.014-13.44,2.618c-23.62,20.604-52.486,24.588-80.104,9.124
							c-9.025-5.051-15.596-5.461-24.709,0.678c-22.71,15.294-47.357,16.973-72.031,4.504c-12.617-6.375-23.465-9.605-36.771,0.191
							c-8.471,6.228-20.288,8.354-30.918,11.104c-15.431,4-28.802-0.922-40.346-11.616c-4.053-3.754-8.148-7.795-12.971-10.224
							c-2.729-1.375-8.727-1.133-10.272,0.772c-21.789,27.057-50.179,23.181-78.159,15.711
							c-12.018-3.201-22.562-11.938-34.117-18.349c-27.769,28.009-60.383,29.595-95.135,16.669
							c-6.469-2.408-12.003-7.469-17.786-11.566c-4.528-3.217-7.52-3.544-11.842,1.347c-25.084,28.371-80.975,25.794-103.053-4.793
							c-4.676-6.483-7.677-4.843-12.062-0.624c-29.414,28.31-57.462,33.587-92.903,13.008"/>
						<path fill-rule="evenodd" clip-rule="evenodd" fill="#F2EBCF" d="M-701.645,1692.183c-1.321-5.77,10.803-5.016,15.703-8.281
							c7.201-4.79,11.62-3.919,17.606,3.124c22.935,26.965,64.548,27.899,88.007,1.807c8.687-9.66,15.283-9.621,25.446-2.754
							c23.664,16.005,63.914,14.934,82.062-3.201c8.828-8.822,14.295-7.778,22.326-0.734c25.233,22.13,70.353,18.889,92.449-0.645
							c9.575-8.467,14.627-6.319,23.4,0.783c21.521,17.436,54.798,25.948,78.695,2.55c5.479-5.373,10.563-5.986,16.382-0.673
							c2.898,2.652,6.26,4.814,9.434,7.17c22.442,16.628,57.46,18.761,76.646-0.852c13.714-14.02,22.164-8.343,33.65-1.436
							c2.369,1.427,4.823,2.729,7.287,3.994c21.445,11.026,47.499,6.67,61.892-12.86c7.753-10.528,13.194-9.731,22.62-3.551
							c31.073,20.379,62.789,24.878,93.202-0.874c7.618-6.45,12.425-10.884,18.754-0.01c9.431,16.211,25.612,20.098,42.231,22.803
							c16.723,2.719,27.216-5.272,39.835-17.034c15.3-14.255,29.926,0.365,29.926,0.365l3.024,13.819
							c-2.673-8.227-19.918-9.61-26.972-4.453c-7.738,5.662-15.89,12.81-24.776,14.485c-28.538,5.382-53.667-2.388-73.572-25.87
							c-8.58,5.495-16.652,12.227-25.906,16.17c-9.384,3.99-20.459,8.451-29.87,6.947c-15.593-2.493-30.776-8.834-45.476-15.093
							c-7.704-3.287-11.726-4.405-18.844,2.478c-14.802,14.315-33.804,20.825-54.424,16.336
							c-10.534-2.297-20.16-8.597-30.426-12.463c-3.016-1.14-7.961-1.607-10.1,0.063c-32.095,25.181-67.197,25.562-99.555,0.631
							c-1.815-1.398-3.865-2.496-6.176-3.966c-34.335,29.223-66.754,18.117-98.549-4.384c-38.201,25.611-76.479,27.245-114.63,0.747
							c-29.253,22.729-66.035,25.638-98.073,7.445c-6.038-3.428-9.349-3.838-14.972,1.679
							c-17.405,17.073-38.805,25.631-62.786,18.238c-15.018-4.626-28.655-13.745-45.078-21.925
							C-681.249,1692.76-700.501,1697.154-701.645,1692.183z M-108.886,1457.947c0-18.84-0.257-37.343,0.086-55.833
							c0.24-13.397,1.218-26.774,1.962-40.158c0.375-6.696,3.444-9.179,10.712-9.155c32.459,0.133,64.922-0.254,97.365-1.002
							c10.73-0.239,16.048,2.589,15.816,14.587c-0.588,30.355-0.197,60.733-0.197,91.387l0.303,10.098
							c-75.564,2.015-50.633,1.504-126.224,2.031L-108.886,1457.947z M-642.218,1554.495c35.44,20.581,66.799,17.163,96.213-11.146
							c4.385-4.219,7.386-5.859,12.062,0.624c22.078,30.587,77.969,33.164,103.053,4.793c4.322-4.891,7.313-4.563,11.842-1.347
							c5.783,4.098,11.317,9.158,17.786,11.566c34.752,12.926,67.366,11.34,95.135-16.669c11.555,6.411,22.1,15.147,34.117,18.349
							c27.98,7.47,56.37,11.346,78.159-15.711c1.546-1.905,7.544-2.147,10.272-0.772c4.822,2.429,8.918,6.47,12.971,10.224
							c11.544,10.694,24.915,15.616,40.346,11.616c10.63-2.75,22.447-4.877,30.918-11.104c13.307-9.797,24.154-6.566,36.771-0.191
							c24.674,12.469,49.321,10.79,72.031-4.504c9.113-6.139,15.684-5.729,24.709-0.678c27.618,15.464,56.484,11.479,80.104-9.124
							c3.019-2.632,9.007-3.045,13.44-2.618c7.797,0.743,15.447,2.938,26.009,5.11l9.841,27.518
							c-3.27-11.886-6.341-22.897-22.872-19.485c-3.878,0.791-8.405-2.298-12.659-2.378c-3.719-0.08-8.197,0.541-11.096,2.603
							c-27.111,19.248-55.673,23.791-85.81,8.301c-7.749-3.982-13.22-3.54-20.616,0.799c-21.532,12.63-46.181,17.928-68.086,6.425
							c-20.003-10.513-35.389-6.349-52.434,2.617c-0.345,0.183-0.65,0.468-1.016,0.604c-24.649,8.867-47.983,9.238-68.269-10.495
							c-2.197-2.136-4.79-3.868-7.093-5.698c-33.687,28.139-80.28,28.271-116.812,0.852c-39.166,28.052-78.938,27.389-119.581,3.213
							c-38.91,29.453-74.568,27.588-116.993-6.923c-20.575,28.375-50.703,30.101-80.054,22.542
							c-12.551-3.236-18.707-6.682-26.203-6.629 M7.466,1392.65c-13.813-0.975-26.62-1.876-39.347-2.781c0,7,0,12.085,0,16.745
							c13.438,0,26.141,0,39.347,0C7.466,1401.531,7.466,1397.714,7.466,1392.65z M8.237,1360.171c-7.363,0-13.361,0-19.216,0
							c-0.86,8.577-1.61,15.955-2.417,24.011c7.112,0,13.999,0,21.338,0c0.466-3.723,1.164-6.82,1.168-9.927
							C9.121,1369.953,8.605,1365.653,8.237,1360.171z M7.05,1416.184c-7.068,0-12.863,0-19.047,0c0,5.587,0,10.498,0,15.219
							c6.898,0,12.982,0,19.047,0C7.05,1425.865,7.05,1421.229,7.05,1416.184z M-100.298,1405.009c5.914,0,10.062,0,14.923,0
							c0.472-5.277,0.902-10.095,1.363-15.24c-5.287-0.974-9.78-1.811-15.413-2.859
							C-99.721,1393.167-99.981,1398.467-100.298,1405.009z"/>
						<path fill-rule="evenodd" clip-rule="evenodd" fill="#402F3C" d="M7.466,1392.65c0,5.064,0,8.881,0,13.964
							c-13.206,0-25.908,0-39.347,0c-7.508,0-5.035-16.745,0-16.745C-19.154,1390.774-6.348,1391.675,7.466,1392.65z"/>
						<path fill-rule="evenodd" clip-rule="evenodd" fill="#402F3C" d="M8.237,1360.171c3.747,0.786,2.212,9.563,2.202,13.868
							c0,3.1-1.329,8.271-2.497,10.143c-7.339,0-14.226,0-21.338,0c-6.175,0-3.868-24.011,2.417-24.011
							C-5.124,1360.171,0.874,1360.171,8.237,1360.171z"/>
						<path fill-rule="evenodd" clip-rule="evenodd" fill="#402F3C" d="M-34.726,1442.067c4.296-3.216,26.841-0.733,41.043,0.22
							c0.479,3.221,0.682,9.094,1.323,13.372c-2.884,0-5.128-0.025-7.362,0c-8.69,0.092-17.381,0.021-26.055,0.354
							C-36.465,1456.417-39.249,1451.948-34.726,1442.067z"/>
						<path fill-rule="evenodd" clip-rule="evenodd" fill="#402F3C" d="M7.05,1416.184c0,5.045,0,9.681,0,15.219
							c-6.064,0-12.148,0-19.047,0c0-4.721,0-9.632,0-15.219C-5.813,1416.184-0.019,1416.184,7.05,1416.184z"/>
					</g>
				</g>
			</g>
		</g>
	</g>
	<g>
		<g>
			<path fill-rule="evenodd" clip-rule="evenodd" fill="#FFFFFF" d="M991.548,98.562c-1.565,0.917-21.083-0.949-22.702,0
				c-16.256-1.627-26.562-17.418-25.4-35.548c1.176-18.316,12.268-28.083,33.447-30.628c0.332-2.432,0.338-5.03,1.08-7.435
				c2.209-7.179,7.17-12.814,13.035-17.688c10.064-8.37,21.859-14.043,35.543-13.832c14.715,0.226,28.665,3.643,38.934,14.588
				c1.446,1.541,2.731,3.208,4.092,4.817c12.549-11.648,26.912-18.173,43.238-19.132c17.293-1.015,24.718,3.143,38.514,14.679
				c2.131,1.78,52.561,66.216,12.158,75.98C1156.19,86.127,990.111,96.831,991.548,98.562z"/>
			<path fill-rule="evenodd" clip-rule="evenodd" fill="#FFFFFF" d="M1145.21,20.419c1.565-0.917,23.804,6.877,25.423,5.928
				c16.255,1.627,26.562,17.419,25.4,35.548c-1.176,18.316-12.268,28.082-33.447,30.627c-0.332,2.433-0.338,5.029-1.08,7.435
				c-2.209,7.178-7.17,12.813-13.035,17.687c-10.064,8.37-21.859,14.044-35.543,13.833c-14.715-0.226-28.665-3.643-38.934-14.588
				c-1.446-1.542-2.731-3.208-4.092-4.817c-12.55,11.648-26.912,18.173-43.239,19.131c-17.292,1.016-47.903-11.926-49.433-37.955
				c-2.131-1.78,30.324-39.774,22.937-59.849C997.575,26.356,1138.332,6.754,1145.21,20.419z"/>
		</g>
		<g>
			<path fill-rule="evenodd" clip-rule="evenodd" fill="#FFFFFF" d="M314.645,98.464c-1.033,0.605-13.926-0.627-14.995,0
				c-10.737-1.075-17.546-11.506-16.778-23.481c0.777-12.099,8.104-18.55,22.094-20.231c0.219-1.606,0.224-3.322,0.713-4.911
				c1.459-4.742,4.736-8.464,8.61-11.684c6.649-5.528,14.44-9.276,23.478-9.137c9.721,0.149,18.936,2.406,25.718,9.636
				c0.956,1.018,1.804,2.119,2.703,3.182c8.29-7.694,17.776-12.004,28.562-12.638c11.422-0.67,22.773,0.531,31.886,8.151
				c1.408,1.176,2.349,0.743,3.118-0.309c6.871-9.397,17.744-11.88,28.736-14.021c7.389-1.439,14.889-2.307,22.472-1.477
				c12.514,1.368,23.012,6.407,31.581,14.882c0.981,0.971,22.43,43.15-4.259,49.599C503.463,87.192,313.696,97.32,314.645,98.464z"
				/>
			<path fill-rule="evenodd" clip-rule="evenodd" fill="#FFFFFF" d="M508.702,42.304c1.034-0.605,15.724,4.543,16.793,3.916
				c10.737,1.075,17.545,11.506,16.778,23.481C541.496,81.8,534.17,88.25,520.18,89.932c-0.219,1.606-0.224,3.322-0.713,4.911
				c-1.459,4.742-4.736,8.464-8.61,11.683c-6.649,5.528-14.44,9.276-23.478,9.137c-9.721-0.149-18.936-2.406-25.718-9.636
				c-0.956-1.019-1.805-2.119-2.703-3.182c-8.29,7.694-17.776,12.004-28.562,12.637c-11.422,0.671-22.773-0.531-31.886-8.151
				c-1.408-1.176-2.349-0.743-3.118,0.309c-6.871,9.397-17.744,11.88-28.736,14.021c-7.389,1.439-27.402,0.938-34.985,0.109
				c-17.026-9.056-15.442-18.342-24.013-26.816c-0.98-0.971-1.922-1.974-2.919-3.002c-21.843-13.253-9.953-4.021-14.833-17.281
				C288.194,70.018,504.159,33.278,508.702,42.304z"/>
		</g>
		<g>
			<path fill-rule="evenodd" clip-rule="evenodd" fill="#FFFFFF" d="M1727.121,115.136c-1.211,0.71-16.327-0.735-17.581,0
				c-12.589-1.261-20.571-13.49-19.672-27.53c0.912-14.186,9.501-21.749,25.904-23.721c0.257-1.883,0.262-3.895,0.836-5.757
				c1.711-5.56,5.553-9.924,10.096-13.699c7.796-6.482,16.931-10.876,27.525-10.712c11.397,0.175,22.201,2.821,30.153,11.297
				c1.121,1.194,2.115,2.485,3.169,3.731c9.721-9.021,20.843-14.075,33.487-14.817c13.392-0.786,26.701,0.623,37.385,9.557
				c1.651,1.378,2.754,0.871,3.657-0.362c8.054-11.018,20.803-13.929,33.689-16.44c8.664-1.687,17.457-2.704,26.349-1.731
				c14.672,1.604,26.98,7.512,37.028,17.449c1.149,1.139,26.296,50.591-4.994,58.153
				C1948.504,101.92,1726.01,113.795,1727.121,115.136z"/>
			<path fill-rule="evenodd" clip-rule="evenodd" fill="#FFFFFF" d="M1954.646,49.292c1.212-0.71,18.435,5.326,19.689,4.591
				c12.589,1.26,20.57,13.491,19.671,27.531c-0.909,14.185-9.501,21.749-25.903,23.72c-0.258,1.883-0.262,3.895-0.836,5.758
				c-1.712,5.56-5.554,9.923-10.095,13.698c-7.795,6.482-16.93,10.876-27.528,10.712c-11.395-0.175-22.198-2.821-30.151-11.297
				c-1.12-1.194-2.116-2.484-3.169-3.73c-9.719,9.021-20.843,14.074-33.486,14.816c-13.393,0.787-26.702-0.623-37.386-9.557
				c-1.651-1.378-2.754-0.872-3.656,0.362c-8.056,11.018-20.804,13.929-33.692,16.439c-8.662,1.687-32.128,1.101-41.019,0.128
				c-19.963-10.618-18.105-21.505-28.153-31.441c-1.15-1.139-2.254-2.314-3.423-3.52c-25.609-15.539-11.669-4.714-17.391-20.262
				C1696.109,81.784,1949.319,38.708,1954.646,49.292z"/>
		</g>
	</g>
</g>
<g id="Layer_3" display="none">
	<g display="inline">
		<g>
			<g>
				<path fill-rule="evenodd" clip-rule="evenodd" fill="#FFE20D" d="M228.15,1135.013c8.467,4.302,12.888,16.454,8.236,25.666
					c-1.071,2.122-4.17,4.157-6.576,4.488c-6.554,0.902-13.233,1.06-19.868,1.166c-10.307,0.165-20.618,0.044-31.484,0.044
					c-4.867-41.942-12.045-46.192-32.045-56.817c-24.753-13.15-41.5-3-62.841,6.125c-14.134,13.389-22.909,22.959-26.512,52.442
					c-22.343,0-44.599,0.407-66.831-0.122c-19.622-0.468-343.269,6.782-359.072,7.358c-8.974,0.326-22.977,0.361-31.944,0.907
					c4.118-1.962,0.256-29.836-0.573-27.188c-5.976-16.107-22.976-36.774-45.84-37.945c-15.504-0.649-40.335,3.277-51.11,16.945
					c-8.177,10.371-12.219,37.477-12.219,37.477c-0.837-3.031-56.879-12.442-56.726-12.481c-0.61-10.46-1.861-20.677-1.658-30.864
					c0.379-18.998,1.9-37.971,11.351-55.107c8.812-15.979,22.09-26.556,39.562-32.166c15.07-4.84,30.229-8.916,46.069-10.307
					c6.632-0.583,10.068-4.548,10.685-12.316c1.197-15.092,2.099-30.21,2.881-45.33c1.377-26.643,4.56-53.082,11.558-78.81
					c4.398-16.168,12.254-30.866,29.21-37.459c6.367-2.476,13.36-3.875,20.187-4.528c19.981-1.911,40.596-0.326,60.624-1.698
					c9.794-0.671,23.252-0.403,33.068-0.517c32.457-0.371,64.919-0.977,97.372-0.674c24.628,0.229,45.024-1.496,69.654-1.139
					c31.31,0.455,62.631,0.206,93.946,0.043c33.635-0.176,67.271-0.437,100.9-0.983c20.641-0.336,41.268-1.415,61.907-1.904
					c16.698-0.396,33.26,1.005,49.54,5.009c9.974,2.452,18.454,7.835,27.283,12.838c10.473,5.936,17.014,14.688,21.449,25.178
					c5.353,12.66,7.601,26.206,8.169,39.861c1.1,26.42,1.887,52.857,2.388,79.295c0.527,27.803,0.516,55.615,0.85,83.422
					c0.139,11.476,0.834,22.95,0.737,34.421C230.435,1124.347,229.037,1129.341,228.15,1135.013z"/>
				<path fill-rule="evenodd" clip-rule="evenodd" d="M57.315,1163.61c1.263-23.444,14.293-43.902,36.146-54.045
					c16.191-7.515,32.204-9.15,50.87-1.591c21,9,30.999,22.666,35.574,47.666c2.425,17,0.953,26.51-8.241,41.334
					c-11.243,15.336-18.611,18.726-36.366,24.639c-15.277,5.088-36.791,0.514-50.489-6.543
					C66.364,1205.568,58.748,1184.019,57.315,1163.61z"/>
				<path fill-rule="evenodd" clip-rule="evenodd" fill="#F4F4F2" d="M180.928,1166.888c0.015-8.391-2.597-22.578-7.337-32.126
					c3.4,0,14.355,0.048,17.959,0.048c10.802,0.001,23.522-0.141,34.321,0.027c11.289,0.176,18.301,15.785,13.793,26.225
					c-0.73,1.691-3.68,4.242-5.7,4.684c-3.695,0.805-7.568,1.023-11.372,1.062C210.654,1166.929,192.58,1166.888,180.928,1166.888z"
					/>
				<path fill-rule="evenodd" clip-rule="evenodd" fill="#FFA233" d="M226.081,1055.853c0,9.619,0,18.194,0,27.346
					c-7.706,0.359-15.436-0.103-23.161-0.14c-5.134-0.025-8.121-2.979-8.163-8.107c-0.035-4.396,0.376-9.099,2.005-13.088
					c0.936-2.29,4.515-4.42,7.207-4.895C210.923,1055.744,216.413,1055.853,226.081,1055.853z"/>
				<path fill-rule="evenodd" clip-rule="evenodd" fill="#AA0000" d="M226.741,1087.39c0,8.851,0,17.103,0,25.955
					c-7.83,0-17.218-0.628-24.912-0.999c-4.405-0.213-6.77-3.271-6.908-7.735c-0.092-2.979-0.375-6.026,0.108-8.93
					c0.647-3.896,3.096-6.742,7.209-7.198C209.499,1087.676,217.158,1087.833,226.741,1087.39z"/>
				<g>
					<path fill-rule="evenodd" clip-rule="evenodd" fill="#DCEBF4" d="M113.33,1004.158c0,6.667-3.597,8.689-9.299,9.028
						c-21.034,1.251-24.084,0.071-40.701,0.371c-35.662,0.643-51.332-0.019-85.666-1.012c-6.664-0.887-9.894-5.235-9.111-10.565
						c-1.184-33.762,0.569-61.352-0.561-95.115c-0.226-6.748,0.486-19.028-0.027-26c-0.56-7.588-0.56-11.594,9.36-11.594
						c52.095,0.634,68.5,1.396,120.672,0.642c12.666-0.183,12.666,1.05,13.333,9.579
						C113.144,924.845,111.494,958.246,113.33,1004.158z"/>
					<path fill-rule="evenodd" clip-rule="evenodd" fill="#DCEBF4" d="M206.163,1011.659c-25.465,0-50.123,0-77,0
						c-1.851-44.237-1.415-94.042-3.332-139.845c9.731,0,49.39,0.508,60.981,5.505c7.539,3.25,16.302,12.53,21.351,44.991
						c4.776,32.677,2.562,50.09,2.147,83.053C210.307,1005.669,210.418,1011.659,206.163,1011.659z"/>
				</g>
			</g>
			<path fill-rule="evenodd" clip-rule="evenodd" fill="#F4F4F2" d="M84.917,1163.955c0.686-12.764,7.78-23.901,19.678-29.424
				c8.815-4.09,17.532-4.98,27.694-0.865c11.433,4.9,16.877,12.34,19.367,25.951c1.321,9.254,0.519,14.432-4.487,22.502
				c-6.12,8.35-10.132,10.195-19.799,13.414c-8.314,2.77-20.029,0.28-27.486-3.562C89.843,1186.798,85.695,1175.066,84.917,1163.955
				z"/>
		</g>
		<path fill-rule="evenodd" clip-rule="evenodd" d="M229.66,1041.857c-4.162,0.02-20.643,0.73-24.422,0.746
			c-2.085,0.009-213.08,2.271-216.458,2.331c-1.819,0.033-48.036,0.492-55.96,0.573c-6.869,0.07-13.748,0.221-20.622,0.311
			c-3.368,0.043-95.382,1.104-101.84,1.226c-3.035,0.057-7.573,0.206-10.568,0.213c-1.488,0.004-3.105-13.044,0.796-12.684
			c10.421-0.205,422.894-4.58,429.074-4.55C229.665,1031.593,230.354,1038.623,229.66,1041.857z"/>
		<path fill-rule="evenodd" clip-rule="evenodd" d="M190.202,1071.137c-4.162,0.02-20.643,0.73-24.422,0.746
			c-2.085,0.009-171.132-0.056-174.51,0.005c-1.819,0.033-48.036,0.492-55.96,0.573c-6.869,0.07-13.748,0.221-20.622,0.311
			c-3.368,0.043-95.382,1.104-101.84,1.226c-3.035,0.057-7.573,0.206-10.568,0.213c-1.488,0.004-7.833-8.617,0.796-12.684
			c10.421-0.205,380.945-2.254,387.126-2.224C190.207,1060.874,190.896,1067.903,190.202,1071.137z"/>
	</g>
</g>
<g id="Layer_2" display="none">
	<g display="inline">
		<g>
			<path fill-rule="evenodd" clip-rule="evenodd" fill="#E9F8FF" d="M-12.141,965.065c-3.841,1.594-0.568-5.068,1.104-6.715
				c3.497-3.441,9.546-13.152,11.806-10.678C2.41,949.659-8.319,959.141-12.141,965.065z"/>
		</g>
	</g>
	<path display="inline" opacity="0.2" fill-rule="evenodd" clip-rule="evenodd" fill="#777777" d="M2.78-0.81h-2047.725v857.696
		c1.377,6.206,1.628,12.534,1.631,18.869c0.001,3.271-0.572,6.492-1.631,9.511v137.049c7.405,153.295,11.559,306.77,0,459.807
		v52.877h441.932c21.104-1.239,42.218-2.223,63.324-2.975c86.205-3.068,172.464-1.69,258.673-4.701
		c78.229-2.732,156.325-5.139,234.601-5.801c58.399-0.494,116.979-0.934,175.199,4.388c22.709,2.076,45.553,4.712,68.002,9.089H2.78
		V805.667c-1.644-22.224-1.641-44.396,0-66.678V-0.81z"/>
</g>
</svg>
