<?xml version="1.0" encoding="utf-8"?>
<!-- Generator: Adobe Illustrator 16.0.4, SVG Export Plug-In . SVG Version: 6.00 Build 0)  -->
<!DOCTYPE svg PUBLIC "-//W3C//DTD SVG 1.0//EN" "http://www.w3.org/TR/2001/REC-SVG-20010904/DTD/svg10.dtd">
<svg version="1.0" xmlns="http://www.w3.org/2000/svg" xmlns:xlink="http://www.w3.org/1999/xlink" x="0px" y="0px" width="2048px"
	 height="1536px" viewBox="0 0 2048 1536" enable-background="new 0 0 2048 1536" xml:space="preserve">
<g id="Layer_1">
	<g>
		<path fill-rule="evenodd" clip-rule="evenodd" fill="#515151" d="M2105.327,401.81c0,278.538,0,561.756,0,840.243
			c-720.902,0-1441.505,35.818-2162.654,35.818c0-372.47-12.167-718.622-12.167-907.934
			C651.076,369.938,1384.002,401.81,2105.327,401.81z"/>
		<g>
			<g display="none">
				<path display="inline" fill-rule="evenodd" clip-rule="evenodd" fill="#FFFFFF" d="M1276.034,530.915
					c-9.045,0-14.502-0.048-23.699,0c-13.666,0.074-26.848-0.459-40.5,0.001c-23.881,0.804-48.874-0.759-72.751-0.001
					c-16.77,0.531-33.134-0.133-49.916,0c-22.701,0.184-54.798-0.016-77.499,0.153c-2.188,0.085-2.188,0.085-2.163-2
					c-0.287-3.949-0.056-14.097-0.255-17.793c-0.035-14.501-0.001-33,0.496-45.063c87.938-0.767,177.227,0.776,266.287,0
					C1276.724,487.234,1276.42,508.733,1276.034,530.915z"/>
				<path display="inline" fill-rule="evenodd" clip-rule="evenodd" fill="#FFFFFF" d="M1277.582,592.021
					c0,10.204,0.037,21.002-0.008,31.803c-0.037,8.859-0.264,17.719-0.221,26.577c0.022,5.363-1.411,6.633-6.296,6.537
					c-11.919-0.234-23.849-0.059-35.771-0.093c-22.068-0.061-44.136-0.125-66.203-0.238c-14.689-0.074-27.897,0.583-42.583,0.357
					c-19.004-0.289-38,0.17-57-0.021c-18.733-0.188-38.952-0.18-58.499-0.18c0-20.822,0-42.867,0-64.742
					C1098.739,592.021,1187.415,592.021,1277.582,592.021z"/>
				<path display="inline" fill-rule="evenodd" clip-rule="evenodd" fill="#FFFFFF" d="M1275.942,788.981
					c-9.085,0-18.036,0.216-27.274,0.265c-13.721,0.073-27.458-0.08-41.168,0.383c-23.982,0.809-48.222-1.354-72.199-0.593
					c-16.841,0.535-33.701,0.438-50.555,0.571c-22.798,0.186-44.017-0.876-66.813-0.707c-7.391,0.053-7.779-0.314-8.105-8.59
					c-0.148-3.725-0.117-7.457-0.317-11.175c-0.634-11.645,0.326-24.209,0.248-36.493c-0.018-2.81-1.167-9.742,4.242-8.565
					c88.306-0.771,172.504,0.978,261.942,0.196C1277.303,744.55,1274.533,768.02,1275.942,788.981z"/>
				<path display="inline" fill-rule="evenodd" clip-rule="evenodd" fill="#FFFFFF" d="M1269.167,853.834
					c4.175,0.154,6.994,0.899,6.87,5.9c-0.224,9.02,0.034,19.123-0.003,28.041c-0.038,8.959-0.12,15.438-0.077,24.398
					c0.024,5.423-1.412,6.708-6.306,6.61c-11.939-0.236-23.208,0.775-35.151,0.741c-22.105-0.063-44.514,0.592-66.619,0.478
					c-14.716-0.076-29.431-0.151-44.141-0.38c-19.035-0.292-38.066-0.883-57.1-1.077c-18.766-0.189-37.534-0.042-57.119-0.042
					c0-20.459,0-39.688,0-61.103c0-3.568,1.113-2.892,3.646-2.834C1101.059,854.567,1178.842,853.834,1269.167,853.834z"/>
				<path display="inline" fill-rule="evenodd" clip-rule="evenodd" fill="#FFFFFF" d="M1009.694,1107.887
					c9.084,0.002,18.036-0.213,27.274-0.26c13.72-0.07,27.458,0.086,41.168-0.375c23.982-0.805,48.221,1.362,72.199,0.605
					c16.841-0.532,33.701-0.432,50.554-0.562c22.798-0.183,44.017,0.883,66.813,0.718c7.393-0.053,7.78,0.316,8.104,8.591
					c0.146,3.726,0.116,7.458,0.317,11.176c0.631,11.645-0.332,24.208-0.256,36.492c0.018,2.809,1.165,9.743-4.245,8.564
					c-88.306,0.757-172.503-1.007-261.941-0.241C1008.325,1152.318,1011.099,1128.85,1009.694,1107.887z"/>
				<path display="inline" fill-rule="evenodd" clip-rule="evenodd" fill="#FFFFFF" d="M1017.48,1046.036
					c-4.175-0.155-6.993-0.901-6.868-5.902c0.225-9.019-0.031-19.123,0.008-28.041c0.039-8.959,0.033-22.9-0.008-31.859
					c8.887-0.363,29.604,0.08,41.547,0.117c22.106,0.067,44.513-0.585,66.62-0.466c14.715,0.079,29.431,0.155,44.14,0.388
					c19.035,0.295,38.067,0.89,57.099,1.087c18.768,0.193,37.534,0.048,57.121,0.053c-0.005,20.458-0.007,39.688-0.012,61.103
					c0,3.567-1.113,2.892-3.646,2.833C1185.589,1045.331,1107.807,1046.053,1017.48,1046.036z"/>
			</g>
			<g>
				<path fill-rule="evenodd" clip-rule="evenodd" fill="#F2F2F2" d="M1634.907,842.463c-19.535,0.306-29.453-0.121-50.633-0.441
					c-21.778-0.031-30.155-0.983-47.166-1.076c-2.707-0.014-10.996,0.235-13.719-0.042c-3.288-0.338-1.373-1.371-2.07-4.297
					c-0.468-3.784,0.285-15.453,0.307-23.442c-0.162-1.224-0.592-15.641-0.021-22.777c0.282-3.521-0.256-3.915,3.962-3.842
					c16.75,0.284,36.715,0.973,51.465,1.061c19.162,0.116,38.323-0.094,57.482-0.361c3.239-0.047,3.56,1.568,3.518,3.715
					c-0.169,8.539-0.507,17.074-0.63,25.614c-0.096,6.668,0.031,22.534-0.105,24.265
					C1637.157,842.568,1634.907,842.414,1634.907,842.463z"/>
				<path fill-rule="evenodd" clip-rule="evenodd" fill="#FFFFFF" d="M1811.501,785.705c19.098-0.113,38.126-0.532,56.167-0.607
					c13.974-0.057,25.65-0.195,40.333-0.002c6.794-0.254,13.334-0.057,20.833,0.776c0,19.011,0,37.212,0,56.896
					c-16.182,0-31.657-0.188-47.132,0.048c-17.112,0.258-30.923-0.463-48.034,0.055c-4.864,0.145-13.031-0.844-17.876-0.38
					c-3.26,0.311-4.316-0.95-4.291-4.43C1811.618,821.506,1811.501,804.282,1811.501,785.705z"/>
				<path fill-rule="evenodd" clip-rule="evenodd" fill="#F2F2F2" d="M217.665,836.544c-19.535,0.307-29.453-0.121-50.633-0.441
					c-21.778-0.031-30.155-0.982-47.166-1.076c-2.707-0.014-10.996,0.236-13.719-0.041c-3.288-0.338-1.373-1.371-2.07-4.297
					c-0.468-3.785,0.285-15.453,0.307-23.442c-0.162-1.224-0.592-15.641-0.021-22.777c0.282-3.521-0.256-3.915,3.962-3.842
					c15.75,0.268,35.715,0.967,51.465,1.061c19.162,0.116,38.323-0.094,57.482-0.361c3.239-0.047,3.56,1.568,3.518,3.715
					c-0.169,8.539-0.507,17.074-0.63,25.614c-0.096,6.668,0.031,22.533-0.105,24.264
					C219.915,836.649,217.665,836.495,217.665,836.544z"/>
				<path fill-rule="evenodd" clip-rule="evenodd" fill="#FFFFFF" d="M511.591,836.255c-19.098,0.113-37.126,0.531-55.167,0.606
					c-13.974,0.058-26.65,0.196-41.333,0.002c-6.794,0.254-13.334,0.057-20.833-0.776c0-19.01,0-37.211,0-56.896
					c16.182,0,31.657,0.189,47.132-0.047c17.112-0.258,30.923,0.463,48.034-0.055c4.864-0.145,13.031,0.844,17.876,0.379
					c3.26-0.311,4.316,0.951,4.291,4.43C511.474,800.454,511.591,817.677,511.591,836.255z"/>
				<path fill-rule="evenodd" clip-rule="evenodd" fill="#FFFFFF" d="M678.55,780.048c19.098-0.113,32.501,0.206,50.542,0.132
					c13.974-0.057,26.65-0.195,41.333-0.002c6.794-0.254,13.334-0.057,20.833,0.775c0,19.012,0,37.212,0,56.897
					c-16.182,0-31.657-0.189-47.132,0.047c-17.112,0.258-30.923-0.463-48.034,0.055c-19.959,0.02-22.173-0.48-22.173-3.182
					c0.104-14.715-0.125-35.952,0.273-52.327C674.242,780.394,676.019,780.021,678.55,780.048z"/>
			</g>
			<path fill-rule="evenodd" clip-rule="evenodd" fill="#FFFFFF" d="M963.28,839.86c-9.326,0.341-7.074-1.869-7.37-8.867
				c-0.339-11.496-0.563-31.481-0.331-41.875c0.04-4.452-0.256-6.371,5.202-6.932c15.699-1.611,33.497-0.39,53.374-0.62
				c8.996-0.104,13.121-0.152,22.746-0.209c5.129-0.03,22.13-0.249,27.373-0.373c10.925,0.62,8.374-0.098,8.968,19.812
				c0.205,6.883,0.479,23.586-0.008,30.46c-0.693,9.87,0.746,7.551-15.079,7.735c-20.832,0.079-45.33,0.525-51.457,0.52
				C1002.806,839.084,980.453,839.894,963.28,839.86z"/>
			<path fill-rule="evenodd" clip-rule="evenodd" fill="#FFFFFF" d="M1353.8,784.734c0,16.045,0.066,30.852,0.011,46.5
				c-0.031,9.121,0.855,7.685-6.024,7.935c-33.47,1.204-65.165,0.535-107.799,0.535c-6.627,1.28-5.302-2.22-5.302-5.47
				c-0.45-13.51,0-23.016,0.037-37.419c0.389-12.59-1.982-15.223,4.822-15.578c14.359-0.749,30.307,0,43.297,0
				c21.648,0,46.252,0,65.828,0C1353.833,781.237,1353.833,781.237,1353.8,784.734z"/>
		</g>
	</g>
	<g>
		<g>
			<rect x="1984.245" y="-58.84" fill-rule="evenodd" clip-rule="evenodd" fill="#E9F8FF" width="2177.755" height="453.917"/>
			<rect x="-151.765" y="-59.057" fill-rule="evenodd" clip-rule="evenodd" fill="#E9F8FF" width="2177.755" height="453.917"/>
		</g>
		<g>
			<g>
				<g>
					<path fill-rule="evenodd" clip-rule="evenodd" fill="#FFFFFF" d="M826.421,90.645c-1.565,0.917-21.083-0.949-22.702,0
						c-16.256-1.627-26.562-17.418-25.4-35.548c1.176-18.316,12.268-28.083,33.447-30.628c0.332-2.432,0.338-5.03,1.08-7.435
						c2.209-7.179,7.17-12.814,13.035-17.688c10.064-8.37,21.859-14.043,35.543-13.832c14.715,0.226,28.665,3.643,38.934,14.588
						c1.446,1.541,2.731,3.208,4.092,4.817c12.549-11.648,26.912-18.173,43.238-19.132c17.293-1.015,24.718,3.143,38.514,14.679
						c2.131,1.78,52.561,66.216,12.158,75.98C991.064,78.209,824.985,88.913,826.421,90.645z"/>
					<path fill-rule="evenodd" clip-rule="evenodd" fill="#FFFFFF" d="M980.083,12.501c1.565-0.917,23.804,6.877,25.423,5.928
						c16.255,1.627,26.562,17.419,25.4,35.548c-1.176,18.316-12.268,28.082-33.447,30.627c-0.332,2.433-0.338,5.029-1.08,7.435
						c-2.209,7.178-7.17,12.813-13.035,17.687c-10.064,8.37-21.859,14.044-35.543,13.833c-14.715-0.226-28.665-3.643-38.934-14.588
						c-1.446-1.542-2.731-3.208-4.092-4.817c-12.55,11.648-26.912,18.173-43.239,19.131c-17.292,1.016-47.903-11.926-49.433-37.955
						c-2.131-1.78,30.324-39.774,22.937-59.849C832.449,18.438,973.206-1.164,980.083,12.501z"/>
				</g>
				<g>
					<path fill-rule="evenodd" clip-rule="evenodd" fill="#FFFFFF" d="M149.519,90.546c-1.034,0.605-13.926-0.627-14.996,0
						c-10.737-1.075-17.545-11.506-16.778-23.481c0.776-12.099,8.103-18.55,22.093-20.231c0.219-1.606,0.224-3.322,0.713-4.911
						c1.459-4.742,4.737-8.464,8.61-11.684c6.649-5.528,14.44-9.276,23.478-9.137c9.72,0.149,18.935,2.406,25.717,9.636
						c0.956,1.018,1.804,2.119,2.703,3.182c8.29-7.694,17.776-12.004,28.561-12.638c11.422-0.67,22.774,0.531,31.886,8.151
						c1.408,1.176,2.349,0.743,3.119-0.309c6.87-9.397,17.744-11.88,28.735-14.021c7.389-1.439,14.889-2.307,22.472-1.477
						c12.514,1.368,23.012,6.407,31.582,14.882c0.981,0.971,22.429,43.15-4.259,49.599C338.337,79.274,148.57,89.402,149.519,90.546
						z"/>
					<path fill-rule="evenodd" clip-rule="evenodd" fill="#FFFFFF" d="M343.576,34.386c1.034-0.605,15.723,4.543,16.793,3.916
						c10.737,1.075,17.545,11.506,16.778,23.481c-0.776,12.099-8.104,18.549-22.093,20.231c-0.219,1.606-0.224,3.322-0.713,4.911
						c-1.459,4.742-4.737,8.464-8.61,11.683c-6.649,5.528-14.44,9.276-23.478,9.137c-9.72-0.149-18.935-2.406-25.717-9.636
						c-0.956-1.019-1.805-2.119-2.703-3.182c-8.29,7.694-17.776,12.004-28.561,12.637c-11.422,0.671-22.774-0.531-31.886-8.151
						c-1.408-1.176-2.349-0.743-3.119,0.309c-6.87,9.397-17.744,11.88-28.735,14.021c-7.389,1.439-27.402,0.938-34.986,0.109
						c-17.026-9.056-15.442-18.342-24.013-26.816c-0.981-0.971-1.921-1.974-2.919-3.002c-21.842-13.253-9.953-4.021-14.833-17.281
						C123.068,62.1,339.033,25.36,343.576,34.386z"/>
				</g>
				<g>
					<path fill-rule="evenodd" clip-rule="evenodd" fill="#FFFFFF" d="M1561.995,107.218c-1.211,0.71-16.327-0.735-17.581,0
						c-12.589-1.261-20.571-13.49-19.672-27.53c0.912-14.186,9.501-21.749,25.904-23.721c0.257-1.883,0.262-3.895,0.836-5.757
						c1.711-5.56,5.553-9.924,10.096-13.699c7.796-6.482,16.931-10.876,27.525-10.712c11.397,0.175,22.201,2.821,30.153,11.297
						c1.121,1.194,2.115,2.485,3.169,3.731c9.721-9.021,20.843-14.075,33.487-14.817c13.392-0.786,26.701,0.623,37.385,9.557
						c1.651,1.378,2.754,0.871,3.657-0.362c8.054-11.018,20.803-13.929,33.689-16.44c8.664-1.687,17.457-2.704,26.349-1.731
						c14.672,1.604,26.98,7.512,37.028,17.449c1.149,1.139,26.296,50.591-4.994,58.153
						C1783.377,94.002,1560.883,105.877,1561.995,107.218z"/>
					<path fill-rule="evenodd" clip-rule="evenodd" fill="#FFFFFF" d="M1789.519,41.374c1.212-0.71,18.435,5.326,19.689,4.591
						c12.589,1.26,20.57,13.491,19.671,27.531c-0.909,14.185-9.501,21.749-25.903,23.72c-0.258,1.883-0.262,3.895-0.836,5.758
						c-1.712,5.56-5.554,9.923-10.095,13.698c-7.795,6.482-16.93,10.876-27.528,10.712c-11.395-0.175-22.198-2.821-30.151-11.297
						c-1.12-1.194-2.116-2.484-3.169-3.73c-9.719,9.021-20.843,14.074-33.486,14.816c-13.393,0.787-26.702-0.623-37.386-9.557
						c-1.651-1.378-2.754-0.872-3.656,0.362c-8.056,11.018-20.804,13.929-33.692,16.439c-8.662,1.687-32.128,1.101-41.019,0.128
						c-19.963-10.618-18.105-21.505-28.153-31.441c-1.15-1.139-2.254-2.314-3.423-3.52c-25.609-15.539-11.669-4.714-17.391-20.262
						C1530.983,73.866,1784.193,30.791,1789.519,41.374z"/>
				</g>
			</g>
		</g>
	</g>
	<g>
		<g>
			<path fill-rule="evenodd" clip-rule="evenodd" fill="#437419" d="M1874.485,365.528c-2.73,1.6-4.702,2.753-7.527,4.409
				c-28.362-2.84-46.346-30.393-44.318-62.025c2.051-31.959,21.404-48.999,58.358-53.44c0.579-4.243,0.591-8.775,1.884-12.972
				c3.854-12.525,12.512-22.358,22.744-30.862c17.562-14.604,38.143-24.504,62.018-24.135c25.675,0.395,50.016,6.355,67.932,25.453
				c2.524,2.689,4.767,5.598,7.141,8.405c21.896-20.325,46.956-31.71,75.444-33.382c30.171-1.771,60.157,1.402,84.228,21.531
				c3.719,3.106,6.203,1.963,8.237-0.815c18.147-24.822,46.87-31.382,75.904-37.037c19.519-3.802,39.329-6.093,59.36-3.901
				c33.055,3.614,60.785,16.926,83.423,39.312c2.591,2.564,5.075,5.215,7.711,7.93c13.31-19.459,34.619-27.234,56.792-33.369
				c41.148-11.385,74.053,23.079,114.185,37.37c11.153,3.975,10.808,119.517,7.114,119.36
				C2602.03,336.802,1871.979,362.506,1874.485,365.528z"/>
		</g>
		<g>
			<path fill-rule="evenodd" clip-rule="evenodd" fill="#53891F" d="M851.185,375.724c15.117,26.928-26.675-170.627-19.179-172.229
				c14.951-3.198,71.774-20.106,86.721-16.167c12.617,3.326,24.825,8.525,36.806,13.842c3.582,1.592,5.675,1.838,8.844-0.031
				c20.607-12.149,42.703-19.646,66.646-21.156c14.248-0.899,28.207,1.329,41.445,6.21c16.075,5.929,31.643,13.253,47.542,19.693
				c2.41,0.98,5.452,0.784,8.152,0.545c7.818-0.688,15.914-0.626,23.344-2.782c12.603-3.653,24.684-9.058,37.146-13.237
				c22.092-7.408,44.55-8.79,67.704-5.209c18.382,2.845,36.602,5.818,52.947,15c10.448,5.872,20.004,13.351,29.749,19.969
				c8.68-6.648,17.988-14.762,28.232-21.403c17.873-11.584,37.764-16.743,59.044-18.673c23.89-2.166,45.812,3.368,67.106,12.919
				c13.508,6.052,26.2,13.671,36.771,24.316c2.6,2.615,4.437,1.925,7.402,0.438c18.666-9.354,36.914-20.021,56.43-27.08
				c26.784-9.684,54.868-8.938,82.854-4.219c19.714,3.323,38.603,8.673,55.509,19.818c1.472,0.97,3.293,1.792,4.204,3.181
				c5.114,7.791,10.415,4.733,16.55,1.179c31.491-18.259,65.317-24.479,101.083-18.006c17.011,3.079,33.228,8.643,46.446,20.848
				c1.4,1.291,4.802,1.332,6.914,0.71c8.825-2.596,17.384-6.184,26.286-8.436c12.958-3.277,25.706-0.251,38.395,2.678
				c15.307,3.531,27.131,13.289,38.969,22.6c9.399,7.398,15.26,18.275,17.703,29.781c3.701,17.475,5.74,35.33,7.952,53.089
				c0.518,4.184-0.551,8.824-1.894,12.921c-1.475,4.511,0.076,7.377,2.619,10.829c11.027,14.955,11.431,38.509-2.595,51.036
				c-2.662,2.373-6.292,3.939-9.741,4.986c-1.509,0.459-4.641-0.855-5.31-2.224C2019.282,390.027,846.691,377.132,851.185,375.724z"
				/>
			<path fill-rule="evenodd" clip-rule="evenodd" fill="#437419" d="M275.168,373.012c15.117,26.927-26.675-170.627-19.179-172.229
				c14.951-3.198,71.774-20.106,86.721-16.167c12.617,3.326,24.825,8.525,36.805,13.842c3.583,1.592,5.675,1.838,8.845-0.031
				c20.606-12.149,42.703-19.646,66.646-21.156c14.249-0.899,28.208,1.329,41.446,6.21c16.075,5.929,31.643,13.253,47.542,19.693
				c2.41,0.98,5.452,0.784,8.151,0.545c7.819-0.688,15.914-0.626,23.345-2.782c12.602-3.653,24.683-9.058,37.146-13.237
				c22.092-7.408,44.549-8.79,67.704-5.209c18.381,2.845,36.602,5.818,52.947,15c10.448,5.872,20.004,13.351,29.75,19.969
				c8.679-6.648,17.988-14.762,28.232-21.403c17.874-11.584,37.764-16.743,59.044-18.673c23.89-2.166,45.812,3.368,67.106,12.919
				c13.508,6.052,26.201,13.671,36.772,24.316c2.6,2.615,4.437,1.925,7.402,0.438c18.666-9.354,36.914-20.021,56.43-27.08
				c26.784-9.684,54.868-8.938,82.854-4.219c19.714,3.323,38.603,8.673,55.509,19.818c1.472,0.97,3.293,1.792,4.204,3.181
				c5.114,7.791,10.415,4.733,16.55,1.179c31.491-18.259,65.317-24.479,101.083-18.006c17.011,3.079,33.228,8.643,46.446,20.848
				c1.4,1.291,4.802,1.332,6.914,0.71c8.825-2.596,17.384-6.184,26.286-8.436c12.958-3.277,25.706-0.251,38.395,2.678
				c15.307,3.531,27.131,13.289,38.969,22.6c9.399,7.398,15.26,18.275,17.703,29.781c3.701,17.475,5.74,35.33,7.952,53.089
				c0.518,4.184-0.551,8.824-1.894,12.921c-1.475,4.511,0.076,7.377,2.619,10.83c11.027,14.955,11.431,38.509-2.595,51.035
				c-2.662,2.373-6.292,3.939-9.741,4.986c-1.509,0.459-4.641-0.855-5.31-2.223C1443.265,387.315,270.675,374.42,275.168,373.012z"
				/>
			<path fill-rule="evenodd" clip-rule="evenodd" fill="#88A80D" d="M361.458,400.547c-0.669,1.368-3.801,2.683-5.31,2.224
				c-3.449-1.047-7.079-2.613-9.741-4.986c-14.025-12.527-13.622-36.081-2.595-51.036c2.543-3.452,4.094-6.318,2.619-10.829
				c-1.343-4.098-2.411-8.738-1.894-12.921c2.212-17.759,4.251-35.614,7.952-53.089c2.443-11.506,8.304-22.383,17.703-29.781
				c11.838-9.312,23.662-19.069,38.969-22.6c12.688-2.929,25.437-5.955,38.395-2.678c8.902,2.252,17.461,5.84,26.286,8.436
				c2.112,0.622,5.514,0.581,6.914-0.71c13.219-12.206,29.436-17.769,46.446-20.848c35.766-6.473,69.592-0.253,101.083,18.006
				c6.135,3.555,11.436,6.612,16.55-1.179c0.911-1.389,2.732-2.211,4.204-3.181c16.906-11.145,35.795-16.495,55.509-19.818
				c27.985-4.719,56.069-5.465,82.854,4.219c19.516,7.059,37.765,17.726,56.43,27.08c2.966,1.487,4.802,2.178,7.402-0.438
				c10.571-10.645,23.264-18.264,36.772-24.316c21.294-9.551,43.215-15.084,67.105-12.919c21.28,1.93,41.171,7.088,59.044,18.673
				c10.244,6.641,19.553,14.754,28.232,21.403c9.745-6.618,19.301-14.097,29.749-19.969c16.346-9.182,34.565-12.156,52.947-15
				c23.154-3.581,45.612-2.199,67.704,5.209c12.463,4.179,24.544,9.583,37.146,13.237c7.43,2.156,15.525,2.094,23.344,2.782
				c2.7,0.239,5.742,0.435,8.152-0.545c15.899-6.44,31.467-13.765,47.542-19.693c13.238-4.881,27.197-7.11,41.446-6.21
				c23.941,1.511,46.039,9.007,66.645,21.156c3.17,1.869,5.262,1.623,8.846,0.031c11.98-5.317,24.188-10.516,36.805-13.842
				c14.946-3.939,30.22-1.346,45.17,1.853c7.496,1.602,7.256,213.471,22.372,186.543
				C1534.75,386.218,362.161,399.113,361.458,400.547z"/>
			<path fill-rule="evenodd" clip-rule="evenodd" fill="#88A80D" d="M-261.525,367.311c-2.73,1.6-4.702,2.753-7.527,4.409
				c-28.362-2.84-46.346-30.393-44.318-62.025c2.051-31.959,21.404-48.999,58.358-53.44c0.579-4.243,0.591-8.775,1.884-12.972
				c3.854-12.525,12.512-22.358,22.744-30.862c17.562-14.604,38.143-24.504,62.018-24.135c25.675,0.395,50.016,6.355,67.932,25.453
				c2.524,2.689,4.767,5.598,7.141,8.405c21.896-20.325,46.956-31.71,75.444-33.382c30.171-1.771,60.157,1.402,84.228,21.531
				c3.719,3.106,6.203,1.963,8.237-0.815c18.147-24.822,46.87-31.382,75.904-37.037c19.519-3.802,39.329-6.093,59.36-3.901
				c33.055,3.614,60.785,16.926,83.423,39.312c2.591,2.564,5.075,5.215,7.711,7.93c13.31-19.459,34.619-27.234,56.792-33.369
				c41.148-11.385,74.053,23.079,114.185,37.37c11.153,3.975,10.808,119.517,7.114,119.36
				C466.02,338.584-264.032,364.289-261.525,367.311z"/>
			<path fill-rule="evenodd" clip-rule="evenodd" fill="#53891F" d="M140.003,384.312c-2.73,1.6-4.702,2.752-7.527,4.408
				c-28.362-2.84-46.346-30.393-44.318-62.025c2.051-31.959,21.404-48.999,58.358-53.44c0.579-4.243,0.591-8.775,1.884-12.972
				c3.854-12.525,12.512-22.358,22.744-30.862c17.562-14.604,38.143-24.504,62.018-24.135c25.675,0.395,50.016,6.355,67.932,25.453
				c2.524,2.689,4.767,5.598,7.141,8.405c21.896-20.325,46.956-31.71,75.444-33.382c30.171-1.771,60.157,1.402,84.228,21.531
				c3.719,3.106,6.203,1.963,8.237-0.815c18.147-24.822,46.87-31.382,75.904-37.037c19.519-3.802,39.329-6.093,59.36-3.901
				c33.055,3.614,60.785,16.926,83.423,39.312c2.591,2.564,5.075,5.215,7.711,7.93c13.31-19.459,34.619-27.234,56.792-33.369
				c41.148-11.385,91.656,15.37,114.185,37.37c37.472,37.92,10.808,119.517,7.114,119.361
				C867.548,355.585,137.497,381.289,140.003,384.312z"/>
			<path fill-rule="evenodd" clip-rule="evenodd" fill="#88A80D" d="M1486.148,236.922c16.424-7.851,22.482,148.267-41.013,133.898
				c-45.661-10.34-243.619-33.205-238.353-37.677c-3.149-2.58-6.041-5.083-9.107-7.418c-21.538-16.422-25.686-36.546-10.833-53.977
				c12.547-14.717,30.879-23.9,52.208-29.031c21.213-5.109,40.756,3.917,59.15,13.677c11.754,6.232,11.709,6.28,14.471-3.337
				c12.065-42.206,48.022-69.127,111.701-59.892C1452.844,197.288,1470.94,209.851,1486.148,236.922z"/>
			<path fill-rule="evenodd" clip-rule="evenodd" fill="#437419" d="M1384.566,372.312c-2.73,1.6-4.702,2.753-7.527,4.408
				c-28.362-2.84-46.346-30.393-44.318-62.025c2.051-31.958,21.404-48.998,58.358-53.44c0.579-4.243,0.591-8.775,1.884-12.971
				c3.854-12.525,12.512-22.359,22.744-30.862c17.562-14.604,38.143-24.504,62.018-24.135c25.675,0.395,50.016,6.355,67.932,25.453
				c2.524,2.689,4.767,5.599,7.141,8.406c21.896-20.326,46.956-31.71,75.444-33.381c30.171-1.771,60.157,1.402,84.228,21.53
				c3.719,3.107,6.203,1.964,8.237-0.815c18.147-24.822,46.87-31.382,75.904-37.037c19.519-3.802,39.329-6.093,59.36-3.902
				c33.055,3.615,60.785,16.927,83.423,39.313c2.591,2.563,5.075,5.214,7.711,7.929c13.31-19.459,37.141-29.433,75.896-5.782
				c73.104,106.594-62.858,146.572-66.551,146.416C1943.365,360.857,1382.059,369.29,1384.566,372.312z"/>
		</g>
	</g>
	<g>
		<path fill-rule="evenodd" clip-rule="evenodd" fill="#C6C6C6" d="M2053.321,401.683c-4.347,0.026-8.692,0.069-13.042,0.075
			c-7.236,0.01-14.473-0.01-21.713-0.006c-29.359,0.014-160.553,0.101-173.594,0.149c-11.25,0.041-22.527,0.028-33.789,0.061
			c-16.451,0.046-32.891,0.134-49.346,0.159c-15.642,0.023-37.295-0.018-52.944-0.014c-16.233,0.004-26.467,0.026-42.701,0.043
			c-14.599,0.016-145.899-0.137-162.37-0.149c-7.596-0.005-15.191-0.036-22.779-0.023c-8.66,0.015-17.307,0.081-25.968,0.097
			c-6.049,0.01-12.105-0.037-18.162-0.04c-6.751-0.005-106.524-0.022-121.559-0.017c-13.522,0.005-27.041,0-40.562-0.006
			c-19.113-0.009-121.499-0.027-133.902-0.043c-6.663-0.01-80.301-0.09-86.014-0.098c-4.819-0.007-9.646,0.043-14.473,0.047
			c-1.333,0.002-2.674-0.07-4.988-0.137c-3.929,0.301-30.17,0.268-37.4-0.125c-1.784,0.178-3.242,0.324-6.817,0.129
			c-2.226-0.121-7.106-0.083-9.47,0.054c-4.705,0.271-8.195,0.07-12.327-0.04c-1.592-0.041-62.223,0.169-69.133-0.016
			c-3.885-0.104-8.548,0.005-12.856,0.023c-10.673,0.047-21.343,0.121-32.022,0.138c-11.22,0.017-22.468,0.007-33.668-0.046
			c-6.534-0.031-158.066,0.286-165.246,0.314c-14.468,0.058-28.931,0.128-43.406,0.168c-9.604,0.028-19.229,0.001-28.837,0.022
			c-10.328,0.022-20.646,0.081-30.974,0.107c-2.557,0.007-415.335-0.83-415.916-0.856c-7.019-0.326-107.75,0.031-113.769,0.045
			c-5.801,0.012-11.594,0.049-17.648,0.076c-0.1-0.188,0.482-118.789,0.377-118.99c16.786-0.063,2039.367,0.279,2046.829,0.3
			c1.543,0.005-1.009,118.35,0.507,118.422C2053.531,401.566,2053.427,401.624,2053.321,401.683z"/>
		<path fill-rule="evenodd" clip-rule="evenodd" fill="#C6C6C6" d="M3.5,1242.127c19.863,0.688,92.368,0.621,110.41,1.309
			c9.954,0.383,1016.54-0.338,1032.645-1.042c8.678-0.388,229.17,0.464,266.973,0.568c32.775,0.093,65.568-2.172,98.357-2.65
			c16.068-0.227,456.328,3.265,487.115,1.741c14.477-0.722,35.568-0.067,49.863,0.645c7.105,0.356,18.04,368.734-0.699,357.146
			c-49.686,2.688-2017.474,2.736-2046.987,0C0.672,1554.43,1.186,1335.43,3.5,1242.127z"/>
	</g>
	<g>
		<path fill-rule="evenodd" clip-rule="evenodd" fill="#C6C6C6" d="M2048.863,1242.697c19.863,0.688,92.368,0.621,110.41,1.309
			c9.954,0.383,1016.54-0.338,1032.645-1.042c8.678-0.388,229.17,0.464,266.973,0.568c32.775,0.093,65.568-2.172,98.357-2.65
			c16.068-0.227,442.506,1.209,473.293-0.314c14.477-0.722,49.854,0.076,64.149,0.788c7.105,0.356,17.575,370.646-1.163,359.059
			c-49.686,2.688-2017.474,2.736-2046.987,0C2046.035,1555,2046.549,1336,2048.863,1242.697z"/>
	</g>
	<g>
		<path fill-rule="evenodd" clip-rule="evenodd" fill="#53891F" d="M1652.312,1618.005c15.117,26.927-26.675-170.628-19.179-172.229
			c14.95-3.198,71.774-20.106,86.721-16.167c12.616,3.325,24.825,8.524,36.806,13.842c3.582,1.592,5.675,1.838,8.844-0.031
			c20.607-12.149,42.703-19.646,66.646-21.156c14.248-0.899,28.207,1.329,41.445,6.21c16.074,5.93,31.643,13.254,47.543,19.693
			c2.41,0.98,5.451,0.785,8.15,0.545c7.82-0.688,15.914-0.626,23.346-2.781c12.602-3.654,24.682-9.059,37.146-13.237
			c22.092-7.408,44.549-8.79,67.703-5.209c18.381,2.845,36.602,5.818,52.947,15.001c10.448,5.871,20.004,13.351,29.75,19.969
			c8.678-6.648,17.987-14.763,28.231-21.403c17.874-11.585,37.764-16.743,59.044-18.673c23.891-2.166,45.812,3.368,67.105,12.919
			c13.509,6.052,26.201,13.671,36.772,24.316c2.6,2.615,4.437,1.925,7.402,0.438c18.666-9.354,36.914-20.021,56.43-27.08
			c26.784-9.685,54.868-8.938,82.854-4.22c19.714,3.323,38.603,8.674,55.509,19.818c1.472,0.971,3.293,1.793,4.204,3.182
			c5.114,7.791,10.415,4.732,16.55,1.178c31.491-18.258,65.317-24.479,101.083-18.006c17.011,3.08,33.228,8.643,46.446,20.849
			c1.4,1.291,4.802,1.331,6.914,0.71c8.825-2.596,17.384-6.184,26.286-8.436c12.958-3.277,25.706-0.252,38.395,2.678
			c15.307,3.53,27.131,13.288,38.969,22.6c9.399,7.398,15.26,18.275,17.703,29.781c3.701,17.475,5.74,35.33,7.952,53.089
			c0.518,4.184-0.551,8.823-1.894,12.921c-1.475,4.512,0.076,7.377,2.619,10.83c11.027,14.955,11.431,38.509-2.595,51.035
			c-2.662,2.373-6.292,3.939-9.741,4.986c-1.509,0.459-4.641-0.855-5.31-2.223
			C2820.409,1632.308,1647.818,1619.413,1652.312,1618.005z"/>
		<path fill-rule="evenodd" clip-rule="evenodd" fill="#437419" d="M2052.438,1598.424c-3.693,0.156-12.346-149.547-1.192-153.521
			c40.132-14.291,81.343-14.594,122.491-3.209c22.173,6.135,43.482,13.91,56.792,33.369c2.636-2.715,5.12-5.365,7.711-7.93
			c22.638-22.387,50.368-35.698,83.423-39.312c20.031-2.191,39.842,0.1,59.36,3.901c29.034,5.655,57.757,12.215,75.904,37.037
			c2.034,2.778,4.519,3.922,8.237,0.815c24.07-20.129,54.057-23.303,84.228-21.531c28.488,1.672,53.548,13.057,75.444,33.382
			c2.374-2.808,4.616-5.716,7.141-8.405c17.916-19.098,42.257-25.059,67.932-25.453c23.875-0.369,44.455,9.531,62.018,24.135
			c10.232,8.504,18.89,18.337,22.744,30.862c1.293,4.196,1.305,8.729,1.884,12.972c36.954,4.441,56.308,21.481,58.358,53.44
			c2.027,31.633-15.956,59.186-44.318,62.025c-2.825-1.656-4.797-2.81-7.527-4.409
			C2795.574,1623.569,2065.522,1597.865,2052.438,1598.424z"/>
	</g>
	<g>
		<path fill-rule="evenodd" clip-rule="evenodd" fill="#53891F" d="M999.066,1631.747c15.117,26.928-26.675-170.627-19.179-172.229
			c14.951-3.199,71.774-20.107,86.721-16.168c12.617,3.326,24.825,8.525,36.806,13.842c3.582,1.592,5.675,1.838,8.844-0.031
			c20.607-12.148,42.703-19.645,66.646-21.156c14.248-0.898,28.207,1.33,41.445,6.211c16.075,5.929,31.643,13.254,47.542,19.693
			c2.41,0.98,5.452,0.784,8.152,0.545c7.818-0.688,15.914-0.627,23.344-2.782c12.603-3.653,24.684-9.058,37.146-13.237
			c22.092-7.408,44.55-8.789,67.704-5.209c18.382,2.846,36.602,5.818,52.947,15.001c10.448,5.872,20.004,13.351,29.749,19.969
			c8.68-6.648,17.988-14.763,28.232-21.403c17.873-11.584,37.764-16.742,59.044-18.672c23.89-2.166,45.812,3.367,67.106,12.918
			c13.508,6.053,26.2,13.672,36.771,24.316c2.6,2.615,4.437,1.926,7.402,0.438c18.666-9.354,36.914-20.021,56.43-27.08
			c26.784-9.684,54.868-8.938,82.854-4.219c19.714,3.322,38.603,8.673,55.509,19.818c1.472,0.97,3.293,1.792,4.204,3.181
			c5.114,7.791,10.415,4.733,16.55,1.179c31.491-18.259,65.317-24.479,101.083-18.006c17.011,3.079,33.228,8.643,46.446,20.848
			c1.4,1.291,4.802,1.332,6.914,0.711c8.825-2.596,37.158,34.848,49.847,37.776c15.307,3.53,41.965-30.247,53.803-20.935
			c9.399,7.398,15.26,18.275,17.703,29.781c3.701,17.475,5.74,35.33,7.952,53.088c0.518,4.184-0.551,8.824-1.894,12.922
			c-1.475,4.511,0.076,7.377,2.619,10.829c11.027,14.955,11.431,38.509-2.595,51.036c-2.662,2.373-6.292,3.939-9.741,4.986
			c-1.509,0.459-4.641-0.855-5.31-2.224C2167.163,1646.05,994.573,1633.155,999.066,1631.747z"/>
		<path fill-rule="evenodd" clip-rule="evenodd" fill="#53891F" d="M423.05,1629.035c15.117,26.927-26.675-170.628-19.179-172.229
			c14.951-3.198,71.774-20.106,86.721-16.167c12.617,3.325,24.825,8.524,36.805,13.842c3.583,1.592,5.675,1.838,8.845-0.031
			c20.606-12.149,42.703-19.646,66.646-21.156c14.249-0.899,28.208,1.329,41.446,6.21c16.075,5.93,31.643,13.254,47.542,19.693
			c2.41,0.98,5.452,0.785,8.151,0.545c7.819-0.688,15.914-0.626,23.345-2.781c12.602-3.654,24.683-9.059,37.146-13.237
			c22.092-7.408,44.549-8.79,67.704-5.209c18.381,2.845,36.602,5.818,52.947,15.001c10.448,5.871,20.004,13.351,29.75,19.969
			c8.679-6.648,17.988-14.763,28.232-21.403c17.874-11.585,37.764-16.743,59.044-18.673c23.89-2.166,45.812,3.368,67.106,12.919
			c13.508,6.052,26.201,13.671,36.772,24.316c2.6,2.615,4.437,1.925,7.402,0.438c18.666-9.354,36.914-20.021,56.43-27.08
			c26.784-9.685,54.868-8.938,82.854-4.22c19.714,3.323,38.603,8.674,55.509,19.818c1.472,0.971,3.293,1.793,4.204,3.182
			c5.114,7.791,10.415,4.732,16.55,1.178c31.491-18.258,65.317-24.479,101.083-18.006c17.011,3.08,33.228,8.643,46.446,20.849
			c1.4,1.291,4.802,1.331,6.914,0.71c8.825-2.596,17.384-6.184,26.286-8.436c12.958-3.277,25.706-0.252,38.395,2.678
			c15.307,3.53,27.131,13.288,38.969,22.6c9.399,7.398,15.26,18.275,17.703,29.781c3.701,17.475,5.74,35.33,7.952,53.089
			c0.518,4.184-0.551,8.823-1.894,12.921c-1.475,4.512,0.076,7.377,2.619,10.83c11.027,14.955,11.431,38.509-2.595,51.035
			c-2.662,2.373-6.292,3.939-9.741,4.986c-1.509,0.459-4.641-0.855-5.31-2.223C1591.146,1643.338,418.556,1630.443,423.05,1629.035z
			"/>
		<path fill-rule="evenodd" clip-rule="evenodd" fill="#437419" d="M509.34,1656.57c-0.669,1.368-3.801,2.683-5.31,2.224
			c-3.449-1.047-7.079-2.613-9.741-4.986c-14.025-12.527-13.622-36.081-2.595-51.036c2.543-3.452,4.094-6.318,2.619-10.829
			c-1.343-4.098-2.411-8.738-1.894-12.922c2.212-17.758,4.251-35.613,7.952-53.088c2.443-11.506,8.304-22.383,17.703-29.781
			c11.838-9.312,23.662-19.07,38.969-22.601c12.688-2.929,25.437-5.955,38.395-2.678c8.902,2.252,17.461,5.841,26.286,8.437
			c2.112,0.621,5.514,0.58,6.914-0.711c13.219-12.205,29.436-17.769,46.446-20.848c35.766-6.473,69.592-0.253,101.083,18.006
			c6.135,3.555,11.436,6.612,16.55-1.179c0.911-1.389,2.732-2.211,4.204-3.181c16.906-11.146,35.795-16.496,55.509-19.818
			c27.985-4.719,56.069-5.465,82.854,4.219c19.516,7.06,37.765,17.727,56.43,27.08c2.966,1.488,4.802,2.178,7.402-0.438
			c10.571-10.645,23.264-18.264,36.772-24.316c21.294-9.551,43.215-15.084,67.105-12.918c21.28,1.93,41.171,7.088,59.044,18.672
			c10.244,6.641,19.553,14.755,28.232,21.403c9.745-6.618,19.301-14.097,29.749-19.969c16.346-9.183,34.565-12.155,52.947-15.001
			c23.154-3.58,45.612-2.199,67.704,5.209c12.463,4.18,24.544,9.584,37.146,13.237c7.43,2.155,15.525,2.094,23.344,2.782
			c2.7,0.239,5.742,0.436,8.152-0.545c15.899-6.439,31.467-13.765,47.542-19.693c13.238-4.881,27.197-7.109,41.446-6.211
			c23.941,1.512,46.039,9.008,66.645,21.156c3.17,1.869,5.262,1.623,8.846,0.031c11.98-5.316,24.188-10.516,36.805-13.842
			c14.946-3.939,30.22-1.346,45.17,1.854c7.496,1.602,7.256,213.471,22.372,186.543
			C1682.632,1642.241,510.042,1655.136,509.34,1656.57z"/>
		<path fill-rule="evenodd" clip-rule="evenodd" fill="#437419" d="M-113.644,1623.334c-2.73,1.6-4.702,2.753-7.527,4.409
			c-28.362-2.84-46.346-30.393-44.318-62.025c2.051-31.959,21.404-48.999,58.358-53.44c0.579-4.243,0.591-8.775,1.884-12.972
			c3.854-12.525,12.512-22.358,22.744-30.862c17.562-14.604,38.143-24.504,62.018-24.135c25.675,0.395,50.016,6.355,67.932,25.453
			c2.524,2.689,4.767,5.598,7.141,8.405c21.896-20.325,46.956-31.71,75.444-33.382c30.171-1.771,60.157,1.402,84.228,21.531
			c3.719,3.106,6.203,1.963,8.237-0.815c18.147-24.822,46.87-31.382,75.904-37.037c19.519-3.802,39.329-6.093,59.36-3.901
			c33.055,3.614,60.785,16.926,83.423,39.312c2.591,2.564,5.075,5.215,7.711,7.93c13.31-19.459,34.619-27.234,56.792-33.369
			c41.148-11.385,74.053,23.079,114.185,37.37c11.153,3.975,10.808,119.517,7.114,119.36
			C613.901,1594.607-116.15,1620.312-113.644,1623.334z"/>
		<path fill-rule="evenodd" clip-rule="evenodd" fill="#88A80D" d="M287.885,1640.335c-2.73,1.6-4.702,2.752-7.527,4.408
			c-28.362-2.84-46.346-30.393-44.318-62.025c2.051-31.959,21.404-48.998,58.358-53.439c0.579-4.244,0.591-8.775,1.884-12.973
			c3.854-12.525,12.512-22.357,22.744-30.861c17.562-14.604,38.143-24.504,62.018-24.135c25.675,0.395,50.016,6.355,67.932,25.453
			c2.524,2.689,4.767,5.598,7.141,8.404c21.896-20.324,46.956-31.709,75.444-33.381c30.171-1.771,60.157,1.402,84.228,21.531
			c3.719,3.105,6.203,1.963,8.237-0.816c18.147-24.822,46.87-31.381,75.904-37.037c19.519-3.801,39.329-6.092,59.36-3.9
			c33.055,3.613,60.785,16.926,83.423,39.312c2.591,2.564,5.075,5.215,7.711,7.93c13.31-19.459,34.619-27.234,56.792-33.369
			c41.148-11.385,91.656,15.369,114.185,37.369c37.472,37.921,10.808,119.518,7.114,119.361
			C1015.43,1611.608,285.378,1637.312,287.885,1640.335z"/>
		<path fill-rule="evenodd" clip-rule="evenodd" fill="#88A80D" d="M1634.029,1492.944c16.424-7.85,22.482,148.268-41.013,133.898
			c-45.661-10.34-243.619-33.205-238.353-37.677c-3.149-2.58-6.041-5.083-9.107-7.419c-21.538-16.422-25.686-36.546-10.833-53.977
			c12.547-14.717,30.879-23.9,52.208-29.031c21.213-5.109,40.756,3.918,59.15,13.677c11.754,6.232,11.709,6.28,14.471-3.337
			c12.065-42.206,48.022-69.127,111.701-59.892C1600.726,1453.312,1618.821,1465.874,1634.029,1492.944z"/>
		<path fill-rule="evenodd" clip-rule="evenodd" fill="#437419" d="M1532.447,1628.335c-2.73,1.6-4.702,2.753-7.527,4.408
			c-28.362-2.84-46.346-30.393-44.318-62.025c2.051-31.959,21.404-48.998,58.358-53.44c0.579-4.243,0.591-8.774,1.884-12.972
			c3.854-12.525,12.512-22.358,22.744-30.861c17.562-14.604,38.143-24.504,62.018-24.135c25.675,0.395,50.016,6.354,67.932,25.452
			c2.524,2.689,4.767,5.599,7.141,8.405c21.896-20.325,46.956-31.709,75.444-33.381c30.171-1.771,60.157,1.402,84.228,21.53
			c3.719,3.106,6.203,1.964,8.237-0.815c18.147-24.822,46.87-31.382,75.904-37.037c19.519-3.801,39.329-6.093,59.36-3.901
			c33.055,3.614,60.785,16.927,83.423,39.313c2.591,2.563,5.075,5.215,7.711,7.93c13.31-19.46,59.015-21.806,91.402-6.415
			c98.613,128.609-78.364,147.204-82.057,147.048C2091.246,1616.88,1529.94,1625.312,1532.447,1628.335z"/>
	</g>
</g>
<g id="Layer_3" display="none">
	<g display="inline">
		<g>
			<g>
				<path fill-rule="evenodd" clip-rule="evenodd" fill="#0164C0" d="M2242.827,1148.94c-0.938-1.94-1.941-3.845-2.986-5.703
					c-3.055-5.437-6.581-10.973-11.149-15.072c-5.254-8.555-31.492-9.391-40.632-5.336c-39.103,8.613-38.829,57.074-38.829,57.074
					s-258.189,8.422-258.649,6.348c-4.044-18.239-15.111-44.991-23.574-51.072c-6.305-4.53-13.186-8.491-21.118-8.641
					c-12.275-0.232-23.503,3.414-33.551,10.748c-10.147,7.406-16.665,16.764-20.717,27.453l-86.921-0.37
					c-13.259-17.751-10.756-38.029-8.035-57.957c0.444-3.247,0.735-5.972,2.912-14.563c3.835-15.136,16.967-34.221,29.697-43.415
					c21.997-14.489,46.683-19.837,72.294-22.532c3.777-0.397,7.713-0.883,11.177-2.3c6.024-2.466,11.259-5.819,13.725-12.729
					c7.256-20.337,14.13-40.878,22.753-60.642c9.361-21.453,18.94-42.312,32.214-61.62c8.25-12,12.25-15,26.877-19.254
					c11.172-2.29,22.6-4.06,33.975-4.495c27.279-1.046,54.591-1.309,81.894-1.582c7.096-0.071,14.252,0.626,21.293,1.599
					c10.285,1.42,15.295,5.898,18.765,14.141c3.03,7.091,2.448,27.799,3.696,45.342c0.451,18.398,1.505,33.549,1.25,47.25
					c-0.272,14.63-0.138,27.571-0.25,42.201c-0.075,9.779,1.618,11.439,11.397,11.068c13.799-0.524,23.603,0.047,41.728-0.687
					c26.26-0.916,52.529-1.759,78.801-2.133c35.973-0.513,72.181-0.326,108.157-0.367c7.32,0.128,12.065-0.027,19.333,0.667
					c4.153,0.397,8,3.583,8.594,7.795c0.739,11.122,0.544,22.242,1.015,33.354c0.682,16.09,2.297,32.182,2.094,48.254
					c-0.149,11.829,1.173,25.55-6.121,35.015L2242.827,1148.94z"/>
			</g>
			<polygon fill-rule="evenodd" clip-rule="evenodd" fill="#F4F4F2" points="2157.104,1184.945 1894.271,1190.111 
				1894.271,1185.444 2155.938,1179.779 			"/>
			<path fill-rule="evenodd" clip-rule="evenodd" d="M1905.634,1022.01c0.008,0.23,20.616-0.164,30.885-0.944
				c17.548-1.334,35.068-3.02,52.613-4.397c3.803-0.299,4.869-1.718,4.812-5.607c-0.339-22.96-0.434-45.924-0.437-68.887
				c-0.002-15.983,0.28-31.968,0.424-47.951c0.032-3.511-0.634-6.934-4.48-7.958c-3.151-0.839-6.533-1.076-9.816-1.103
				c-9.657-0.079-19.401-0.708-28.952,0.341c-12.486,1.371-25.616,2.166-37.034,6.77c-17.771,7.165-28.806,22.466-36.641,39.649
				c-4.196,9.202-8.012,18.644-11.122,28.261c-6.009,18.587-11.312,37.399-17.093,56.062c-1.586,5.12,1.206,5.752,5.006,5.757
				C1871.077,1022.021,1888.355,1022.01,1905.634,1022.01z"/>
			<path fill-rule="evenodd" clip-rule="evenodd" d="M2055.226,942.165c0.104-0.009,0.207-0.018,0.31-0.027
				c-0.853-14.599-1.726-29.195-2.548-43.796c-0.405-7.207-1.981-9.415-9.362-10.106c-8.546-0.801-17.163-0.948-25.754-1.127
				c-7.208-0.15-7.703,0.437-7.642,7.562c0.226,26.569,0.434,53.141,0.778,79.709c0.167,12.964,0.637,25.924,0.938,38.886
				c0.102,4.399,2.502,6.068,6.672,6.255c7.641,0.342,15.267,0.999,22.907,1.367c14.763,0.71,15.576,0.014,15.292-14.905
				C2056.411,984.708,2055.768,963.438,2055.226,942.165z"/>
			<path fill-rule="evenodd" clip-rule="evenodd" fill="#0A0042" d="M1992.467,1039.955c3.22-20.595,5.459,148.119,2.388,124.432
				C1994.06,1122.91,1993.264,1081.433,1992.467,1039.955z"/>
			<path fill-rule="evenodd" clip-rule="evenodd" fill="#0A0042" d="M1974.106,1077.024c-2.504,1.912-12.138,1.532-14.22,0.954
				c-3.574-0.993-2.626-2.868,0.717-3.598C1965.163,1074.142,1975.562,1073.235,1974.106,1077.024z"/>
			<g>
				<path fill-rule="evenodd" clip-rule="evenodd" d="M1782.683,1179.903c1.248-19.543,13.754-37.043,24.922-44.341
					c10.048-7.334,38.945-18.909,64.833-2.202c20.862,13.043,30.926,41.018,23.424,66.403
					c-7.922,24.351-26.635,36.725-45.844,40.795c-26.831,3.802-47.524-7.817-56.081-19.948
					C1783.171,1204.491,1782.683,1195.11,1782.683,1179.903z"/>
			</g>
			<g>
				<path fill-rule="evenodd" clip-rule="evenodd" fill="#F4F4F2" d="M1786.025,1164.053c-2.921,8.474-4.171,16.057-3.002,28.479
					c-5.796,0.327-13.438,0.161-20.168,0.328c-9.614,0.239-18.134,0.261-27.75,0.167c-6.136-0.061-21.976-0.038-28.094-0.533
					c-8.074-0.008-11.236-6.633-11.199-13.553c0.294-7.847,2.641-14.318,10.986-14.888c8.587-0.585,26.888,0.325,35.511,0.308
					C1757.081,1164.332,1772.263,1164.053,1786.025,1164.053z"/>
			</g>
			<g>
				<path fill-rule="evenodd" clip-rule="evenodd" fill="#FFD629" d="M1697.5,1130.685c-0.066-10.906-0.001-22.573,5.078-38.836
					c3.022-0.054,9.942,1.139,12.994,1.646c14.165,2.355,19.365,18.051,12.53,29.635c-5.677,7.029-14.4,7.341-22.798,8.046
					C1703.427,1131.333,1700.798,1131.231,1697.5,1130.685z"/>
			</g>
			<g>
				<path fill-rule="evenodd" clip-rule="evenodd" fill="#DCEBF4" d="M1853.799,1022.001c-3.8-0.005-6.592-0.637-5.006-5.757
					c5.781-18.662,11.084-37.475,17.093-56.062c3.109-9.617,6.926-19.059,11.122-28.261c7.835-17.184,18.883-38.611,36.655-45.776
					c11.417-4.604,24.547-5.398,37.034-6.77c9.55-1.049,19.295-0.42,28.952-0.341c3.284,0.026,6.666,0.264,9.816,1.103
					c3.846,1.024,4.512,4.447,4.48,7.958c-0.144,15.983-0.44,38.095-0.438,54.078c0.003,22.963,0.098,50.933,0.437,73.893
					c0.057,3.89-1.009,5.309-4.812,5.607c-22.694,1.483-38.569,0.889-57.194,0.889c-13.375,0.139-28.25-0.466-39.5-0.327
					C1892.429,1022.005,1871.077,1022.021,1853.799,1022.001z"/>
				<path fill-rule="evenodd" clip-rule="evenodd" fill="#DCEBF4" d="M2056.857,941.11c0.542,21.272-0.446,43.598-0.041,64.872
					c0.284,14.919,0.135,17.461-14.628,16.751c-9.75,0.106-13.75,0.157-23.828-0.032c-4.173-0.078-6.57-1.855-6.672-6.255
					c-0.301-12.962-0.513-29.103-0.681-42.066c-0.344-26.568-0.398-61.138-0.625-87.707c-0.061-7.126,0.434-7.713,7.642-7.562
					c8.591,0.179,23.117-0.819,31.663-0.019c7.381,0.691,5.457,3.657,5.862,10.864
					C2056.372,904.557,2056.857,941.11,2056.857,941.11z"/>
			</g>
		</g>
		<path fill-rule="evenodd" clip-rule="evenodd" fill="#F4F4F2" d="M1810.087,1183.296c0.657-10.281,7.236-19.488,13.111-23.327
			c5.287-3.858,20.489-9.948,34.108-1.159c10.976,6.862,16.271,21.58,12.323,34.936c-4.168,12.811-14.013,19.32-24.118,21.462
			c-14.115,2-25.002-4.112-29.504-10.495C1810.344,1196.232,1810.087,1191.297,1810.087,1183.296z"/>
	</g>
</g>
<g id="Layer_2" display="none">
	<g display="inline">
		<g>
			<path fill-rule="evenodd" clip-rule="evenodd" fill="#E9F8FF" d="M2045.01,12.843c-1.166-1.703,11.785-19.992,12.767-18.84
				C2061.255-5.997,2047.048,13.648,2045.01,12.843z"/>
		</g>
	</g>
</g>
</svg>
