<?xml version="1.0" encoding="utf-8"?>
<!-- Generator: Adobe Illustrator 16.0.4, SVG Export Plug-In . SVG Version: 6.00 Build 0)  -->
<!DOCTYPE svg PUBLIC "-//W3C//DTD SVG 1.0//EN" "http://www.w3.org/TR/2001/REC-SVG-20010904/DTD/svg10.dtd">
<svg version="1.0" xmlns="http://www.w3.org/2000/svg" xmlns:xlink="http://www.w3.org/1999/xlink" x="0px" y="0px" width="2048px"
	 height="1536px" viewBox="0 0 2048 1536" enable-background="new 0 0 2048 1536" xml:space="preserve">
<g id="Layer_1">
	<g>
		<g>
			<path fill-rule="evenodd" clip-rule="evenodd" fill="#515151" d="M7341-201.57c0,613.477,0,1225.838,0,1839.199
				c-2489.447,0-4977.862,0-7468.157,0c0-820.29,0.576-1423.483,0.576-1840.268C2361.72-202.639,4850.094-201.57,7341-201.57z"/>
			<g>
				<g>
					<path fill-rule="evenodd" clip-rule="evenodd" fill="#F2F2F2" d="M2161.165,810.772c-19.535,0.307-29.453-0.121-50.633-0.441
						c-21.778-0.031-30.155-0.982-47.166-1.076c-2.707-0.014-10.996,0.236-13.719-0.041c-3.288-0.338-1.373-1.371-2.07-4.297
						c-0.468-3.785,0.285-15.453,0.307-23.442c-0.162-1.224-0.592-15.641-0.021-22.777c0.282-3.521-0.256-3.915,3.962-3.842
						c15.75,0.268,35.715,0.967,51.465,1.061c19.162,0.116,38.323-0.094,57.482-0.361c3.239-0.047,3.56,1.568,3.518,3.715
						c-0.169,8.539-0.507,17.074-0.63,25.614c-0.096,6.668,0.031,22.533-0.105,24.264
						C2163.415,810.878,2161.165,810.724,2161.165,810.772z"/>
				</g>
			</g>
		</g>
	</g>
	<g id="Layer_4">
		<g>
			<g>
				<path fill-rule="evenodd" clip-rule="evenodd" fill="#C6C6C6" d="M-262.846,2276.441c0-55.322,2.812-348.396,3.186-439.605
					c0.2-49.059-1.504-374.143-0.494-434.723c0.515-31.035,1.224-62.166-0.291-93.152c0.095-76.471,17.491-82.418,84.835-82.301
					c31.966,0.273,187.1-0.713,233.408-1.697c54.919-1.17,2916.634-11.852,2971.545-11.831c63-0.451,63-3.329,92.519,46.909
					c37.161,56.803,48.997,63.669,93.823,121.928c28.464,29.722,50.914,57.954,81.991,84.799
					c19.06,16.48,103.259,69.23,137.693,82.188c18.793,7.066,31.745,25.023,31.976,45.872c0.953,87.231,0.149,175.652,0.176,262.875
					c0.014,63.906,0.682,126.631-0.947,190.527c-0.999,39.391,1.804,281.626,1.24,321.859
					c-1.229,31.023-20.986,49.276-49.744,50.017c-57.514,1.464-125.046,1.294-182.56,1.365
					c-52.869,0.073-3153.394,16.251-3190.117,16.065c-52.865-0.285-104.821-0.865-157.666-0.01
					c-17.161,0.27-27.82,0.018-49.218-0.994c-32.44,1.1-63.762,10.641-90.765-22.709c-10.054-12.414-11.149-29.83-10.592-60.66
					C-262.468,2332.42-261.968,2276.441-262.846,2276.441z"/>
				<path fill-rule="evenodd" clip-rule="evenodd" fill="#88A80D" d="M-187.595,2234.02c0-43.428,2.106-273.514,2.387-345.125
					c0.151-38.514-1.128-293.729-0.37-341.287c0.384-24.369,0.916-48.805-0.218-73.135c0.07-60.035,13.109-64.705,63.58-64.611
					c23.953,0.217,140.221-0.561,174.926-1.332c41.157-0.918,2823.834-11.673,2864.986-11.656
					c39.606-0.184,36.903-0.305,62.731,43.906c36.27,52.041,32.739,49.273,77.599,94.199c21.334,23.333,39.611,39.945,62.897,61.021
					c14.286,12.938,77.39,54.347,103.193,64.525c14.085,5.548,23.792,19.641,23.965,36.01c0.714,68.489,0.112,137.902,0.132,206.377
					c0.011,50.173,0.513,99.416-0.711,149.579c-0.747,30.925,1.354,221.097,0.931,252.685
					c-0.923,24.356-15.728,38.682-37.278,39.264c-43.104,1.154-93.715,1.018-136.82,1.075
					c-39.621,0.056-3003.399,15.124-3030.922,14.976c-39.618-0.227-78.555-0.678-118.162-0.01
					c-12.858,0.213-20.851,0.018-36.887-0.777c-24.308,0.867-47.785,8.357-68.02-17.828c-7.536-9.744-8.358-23.416-7.938-47.617
					C-187.314,2277.967-186.94,2234.02-187.595,2234.02z"/>
			</g>
			<g>
				<path fill-rule="evenodd" clip-rule="evenodd" fill="#C6C6C6" d="M-386.536-606.554c-0.312-14.619,1.438-345.267,2.03-382.023
					c0.754-46.762-2.42-75.75,3.507-123.604c-0.554-25.071,34.835-36.705,64.758-34.3c37.309-2.743,57.62-0.59,95.141-1.267
					c34.134-0.613,3109.657-10.444,3152.561-8.872c31.457,1.136,270.396,0.545,293.655,0.327
					c47.57-0.414,104.027-0.492,151.579,0.022c15.617,0.174,48.489-1.552,64.616,9.811c21.381,15.078,20.6,37.555,20.763,57.996
					c0.308,39.072,1.777,79.658,1.028,118.753c-0.904,47.202,0.513,335.126-0.039,370.799
					c-0.806,52.206-2.405,425.326-0.728,488.882c0.699,26.486,1.306,47.349-0.237,78.974c0.127,35.351-4.126,35.078-49.661,53.559
					c-80.815,32.8-140.164,91.933-174.261,116.8c-59.818,43.627-142.982,148-163.364,192.03
					c-20.785,31.035-17.62,33.99-67.297,33.552c-10.594,1.268-2939.305,7.431-3007.153,8.055
					c-47.504,0.435-99.661-1.871-150.178-1.925c-18.971,0.217-121.79,1.858-148.471,0c-47.317-3.302-85.104,6.329-86.44-56.343
					c-0.424-21.438-6.955-287.713-4.861-349.307C-386.883-114.558-385.549-560.228-386.536-606.554z"/>
				<path fill-rule="evenodd" clip-rule="evenodd" fill="#88A80D" d="M-302.715-619.475c-0.242-12.164,1.106-287.279,1.563-317.859
					c0.581-38.908-1.866-63.024,2.702-102.845c-0.423-20.858,26.865-30.538,49.933-28.538c28.775-2.28,44.438-0.491,73.365-1.055
					c26.32-0.51,2999.294-10.126,3032.372-8.82c24.258,0.946,208.497,0.455,226.435,0.272c36.679-0.345,80.216-0.409,116.876,0.019
					c12.047,0.146,37.391-1.289,49.826,8.162c16.485,12.547,15.888,31.248,16.012,48.257c0.238,32.508,1.369,66.278,0.794,98.807
					c-0.699,39.273,0.392,278.836-0.031,308.52c-0.62,43.436-1.853,353.887-0.56,406.77c0.535,22.036,1.007,39.395-0.186,65.709
					c0.098,29.411-3.071,29.411-38.289,44.563C3126.3-46.333,3096.55-13.434,3074.896,3.293
					c-59.861,46.239-114.53,118.205-137.558,156.223c-19.782,23.795-24.052,28.029-47.31,27.915
					c-8.17,1.055-2842.098,7.552-2894.415,8.069c-36.631,0.364-76.847-1.555-115.803-1.603c-14.628,0.18-93.908,1.545-114.479,0
					c-36.488-2.745-65.62,5.268-66.651-46.879c-0.33-17.837-5.363-239.389-3.753-290.634
					C-302.984-210.118-301.954-580.931-302.715-619.475z"/>
			</g>
		</g>
		<g>
			<path fill-rule="evenodd" clip-rule="evenodd" fill="#F2F2F2" d="M453.695,808.493c-19.535,0.306-29.453-0.121-50.633-0.441
				c-21.778-0.031-30.155-0.983-47.166-1.076c-2.707-0.014-10.996,0.235-13.719-0.042c-3.288-0.338-1.373-1.371-2.07-4.297
				c-0.468-3.784,0.285-15.453,0.307-23.442c-0.162-1.224-0.592-15.641-0.021-22.777c0.282-3.521-0.256-3.915,3.962-3.842
				c16.75,0.284,36.715,0.973,51.465,1.061c19.162,0.116,38.323-0.094,57.482-0.361c3.239-0.047,3.56,1.568,3.518,3.715
				c-0.169,8.539-0.507,17.074-0.63,25.614c-0.096,6.668,0.031,22.534-0.105,24.265
				C455.945,808.599,453.695,808.444,453.695,808.493z"/>
			<path fill-rule="evenodd" clip-rule="evenodd" fill="#FFFFFF" d="M630.289,751.735c19.098-0.113,38.126-0.532,56.167-0.607
				c13.974-0.057,25.65-0.195,40.333-0.002c6.794-0.254,13.334-0.057,20.833,0.776c0,19.011,0,37.212,0,56.896
				c-16.182,0-31.657-0.188-47.132,0.048c-17.112,0.258-30.923-0.463-48.034,0.055c-4.864,0.145-13.031-0.844-17.876-0.38
				c-3.26,0.311-4.316-0.95-4.291-4.43C630.406,787.536,630.289,770.312,630.289,751.735z"/>
			<path fill-rule="evenodd" clip-rule="evenodd" fill="#FFFFFF" d="M914.58,751.996c20.098-0.119,33.501,0.202,50.542,0.132
				c13.974-0.057,26.65-0.195,41.333-0.002c6.794-0.254,13.334-0.057,20.833,0.775c0,19.012,0,37.213,0,56.897
				c-16.182,0-31.657-0.188-47.132,0.048c-17.112,0.258-30.923-0.463-48.034,0.055c-4.864,0.145-13.031-0.844-17.876-0.38
				c-3.26,0.311-4.316-0.95-4.291-4.43c0.104-14.714-0.131-34.325,0.268-50.7C910.272,752.342,912.049,751.97,914.58,751.996z"/>
		</g>
		<path fill-rule="evenodd" clip-rule="evenodd" fill="#FFFFFF" d="M172.588,750.765c0,16.045,0.066,30.852,0.011,46.5
			c-0.031,9.121,0.855,7.685-6.024,7.935c-33.47,1.204-65.165,0.535-107.799,0.535c-6.627,1.28-5.302-2.22-5.302-5.47
			c-0.45-13.51,0-23.016,0.037-37.419c0.389-12.59-1.982-15.223,4.822-15.578c14.359-0.749,30.307,0,43.297,0
			c21.648,0,46.252,0,65.828,0C172.621,747.268,172.621,747.268,172.588,750.765z"/>
	</g>
	<g>
		<path fill-rule="evenodd" clip-rule="evenodd" fill="#FFFFFF" d="M1316.945,809.81c-19.098,0.113-37.126,0.531-55.167,0.606
			c-13.974,0.058-26.65,0.196-41.333,0.002c-6.794,0.254-13.334,0.057-20.833-0.776c0-19.01,0-37.211,0-56.896
			c16.182,0,31.657,0.189,47.132-0.047c17.112-0.258,30.923,0.463,48.034-0.055c4.864-0.145,13.031,0.844,17.876,0.379
			c3.26-0.311,4.316,0.951,4.291,4.43C1316.828,774.009,1316.945,791.231,1316.945,809.81z"/>
		<path fill-rule="evenodd" clip-rule="evenodd" fill="#FFFFFF" d="M1483.904,753.603c19.098-0.113,32.501,0.206,50.542,0.132
			c13.974-0.057,26.65-0.195,41.333-0.002c6.794-0.254,13.334-0.057,20.833,0.775c0,19.012,0,37.212,0,56.897
			c-16.182,0-31.657-0.189-47.132,0.047c-17.112,0.258-30.923-0.463-48.034,0.055c-19.959,0.02-22.173-0.48-22.173-3.182
			c0.104-14.715-0.125-35.952,0.273-52.327C1479.597,753.948,1481.373,753.576,1483.904,753.603z"/>
		<path fill-rule="evenodd" clip-rule="evenodd" fill="#FFFFFF" d="M1768.634,813.415c-9.324,0.341-7.072-1.869-7.369-8.867
			c-0.339-11.496-0.562-31.481-0.33-41.875c0.039-4.452-0.256-6.371,5.201-6.932c15.699-1.611,33.498-0.39,53.373-0.62
			c8.998-0.104,13.122-0.152,22.748-0.209c5.128-0.03,22.129-0.249,27.372-0.373c10.925,0.62,8.374-0.098,8.968,19.812
			c0.205,6.883,0.479,23.586-0.008,30.46c-0.693,9.87,0.746,7.551-15.079,7.735c-20.833,0.079-45.329,0.525-51.458,0.52
			C1808.16,812.639,1785.808,813.448,1768.634,813.415z"/>
	</g>
	<g>
		<g>
			<path fill-rule="evenodd" clip-rule="evenodd" fill="#53891F" d="M1642.536,1607.131c15.117,26.927-26.676-170.628-19.18-172.229
				c14.951-3.198,71.775-20.106,86.721-16.167c12.617,3.325,24.826,8.524,36.807,13.842c3.582,1.592,5.674,1.838,8.844-0.031
				c20.607-12.149,42.703-19.646,66.646-21.156c14.248-0.899,28.207,1.329,41.445,6.21c16.074,5.93,31.643,13.254,47.543,19.693
				c2.41,0.98,5.451,0.785,8.15,0.545c7.82-0.688,15.914-0.626,23.346-2.781c12.602-3.654,24.682-9.059,37.146-13.237
				c22.092-7.408,44.549-8.79,67.703-5.209c18.381,2.845,36.602,5.818,52.947,15.001c10.447,5.871,20.004,13.351,29.75,19.969
				c8.678-6.648,17.986-14.763,28.23-21.403c17.875-11.585,37.764-16.743,59.045-18.673c23.891-2.166,45.811,3.368,67.105,12.919
				c13.508,6.052,26.201,13.671,36.771,24.316c2.6,2.615,4.438,1.925,7.402,0.438c18.666-9.354,36.914-20.021,56.43-27.08
				c26.785-9.685,54.869-8.938,82.854-4.22c19.715,3.323,38.604,8.674,55.51,19.818c1.471,0.971,3.293,1.793,4.203,3.182
				c5.115,7.791,10.416,4.732,16.551,1.178c31.49-18.258,65.316-24.479,101.082-18.006c17.012,3.08,33.229,8.643,46.447,20.849
				c1.4,1.291,4.801,1.331,6.914,0.71c8.824-2.596,17.383-6.184,26.285-8.436c12.959-3.277,25.707-0.252,38.395,2.678
				c15.307,3.53,27.131,13.288,38.969,22.6c9.4,7.398,15.26,18.275,17.703,29.781c3.701,17.475,5.74,35.33,7.953,53.089
				c0.518,4.184-0.551,8.823-1.895,12.921c-1.475,4.512,0.076,7.377,2.619,10.83c11.027,14.955,11.432,38.509-2.594,51.035
				c-2.662,2.373-6.293,3.939-9.742,4.986c-1.508,0.459-4.641-0.855-5.309-2.223
				C2810.631,1621.434,1638.042,1608.539,1642.536,1607.131z"/>
			<path fill-rule="evenodd" clip-rule="evenodd" fill="#437419" d="M2049.661,1587.55c-3.693,0.156-12.346-149.547-1.191-153.521
				c40.131-14.291,81.342-14.594,122.49-3.209c22.174,6.135,43.482,13.91,56.793,33.369c2.635-2.715,5.119-5.365,7.711-7.93
				c22.637-22.387,50.367-35.698,83.422-39.312c20.031-2.191,39.842,0.1,59.361,3.901c29.033,5.655,57.756,12.215,75.904,37.037
				c2.033,2.778,4.518,3.922,8.236,0.815c24.07-20.129,54.057-23.303,84.229-21.531c28.488,1.672,53.547,13.057,75.443,33.382
				c2.375-2.808,4.617-5.716,7.141-8.405c17.916-19.098,42.258-25.059,67.932-25.453c23.875-0.369,44.455,9.531,62.018,24.135
				c10.232,8.504,18.891,18.337,22.744,30.862c1.293,4.196,1.305,8.729,1.885,12.972c36.953,4.441,56.307,21.481,58.357,53.44
				c2.027,31.633-15.955,59.186-44.318,62.025c-2.824-1.656-4.797-2.81-7.527-4.409
				C2792.797,1612.695,2062.745,1586.991,2049.661,1587.55z"/>
		</g>
	</g>
	<path fill-rule="evenodd" clip-rule="evenodd" fill="#53891F" d="M408.292,1624.832c-0.67,1.367-3.801,2.682-5.311,2.223
		c-3.449-1.047-7.078-2.613-9.74-4.986c-14.025-12.526-13.623-36.08-2.596-51.035c2.543-3.453,4.094-6.318,2.619-10.83
		c-1.342-4.098-2.41-8.737-1.893-12.921c2.211-17.759,4.25-35.614,7.951-53.089c2.443-11.506,8.305-22.383,17.703-29.781
		c11.838-9.312,23.662-19.069,38.969-22.6c12.689-2.93,25.438-5.955,38.395-2.678c8.902,2.252,17.461,5.84,26.287,8.436
		c2.111,0.621,5.514,0.581,6.914-0.71c13.219-12.206,29.436-17.769,46.445-20.849c35.766-6.473,69.592-0.252,101.084,18.006
		c6.135,3.555,11.436,6.613,16.549-1.178c0.912-1.389,2.732-2.211,4.205-3.182c16.906-11.145,35.795-16.495,55.508-19.818
		c27.986-4.719,56.07-5.465,82.854,4.22c19.516,7.06,37.764,17.726,56.429,27.08c2.967,1.487,4.803,2.178,7.402-0.438
		c10.572-10.646,23.264-18.265,36.773-24.316c21.293-9.551,43.215-15.085,67.105-12.919c21.279,1.93,41.17,7.088,59.043,18.673
		c10.244,6.641,19.555,14.755,28.232,21.403c9.746-6.618,19.301-14.098,29.75-19.969c16.346-9.183,34.566-12.156,52.947-15.001
		c23.154-3.581,45.611-2.199,67.703,5.209c12.465,4.179,24.545,9.583,37.146,13.237c7.432,2.155,15.525,2.094,23.346,2.781
		c2.699,0.24,5.74,0.436,8.15-0.545c15.9-6.439,31.469-13.764,47.543-19.693c13.238-4.881,27.197-7.109,41.445-6.21
		c23.943,1.511,46.039,9.007,66.646,21.156c3.168,1.869,5.262,1.623,8.844,0.031c11.98-5.317,24.189-10.517,36.805-13.842
		c14.947-3.939,71.771,12.969,86.721,16.167c7.496,1.602-34.295,199.156-19.178,172.229
		C1581.584,1610.503,408.993,1623.397,408.292,1624.832z"/>
	<path fill-rule="evenodd" clip-rule="evenodd" fill="#437419" d="M429.335,1608.694c-2.73,1.6-4.701,2.753-7.527,4.409
		c-28.361-2.84-46.346-30.393-44.318-62.025c2.051-31.959,21.404-48.999,58.359-53.44c0.578-4.243,0.59-8.775,1.883-12.972
		c3.855-12.525,12.512-22.358,22.744-30.862c17.562-14.604,38.143-24.504,62.018-24.135c25.676,0.395,50.016,6.355,67.932,25.453
		c2.525,2.689,4.768,5.598,7.141,8.405c21.896-20.325,46.957-31.71,75.445-33.382c30.17-1.771,60.156,1.402,84.227,21.531
		c3.719,3.106,6.203,1.963,8.238-0.815c18.146-24.822,46.869-31.382,75.904-37.037c19.518-3.802,39.328-6.093,59.359-3.901
		c33.055,3.614,60.785,16.926,83.424,39.312c2.59,2.564,5.074,5.215,7.711,7.93c13.309-19.459,34.619-27.234,56.791-33.369
		c41.148-11.385,102.143-10.798,127.723,33.65c11.152,3.975-2.73,123.236-6.424,123.08
		C1156.879,1579.968,426.829,1605.672,429.335,1608.694z"/>
	<path fill-rule="evenodd" clip-rule="evenodd" fill="#437419" d="M1060.819,1631.262c15.348,26.796,13.289-185.062,20.771-186.729
		c14.922-3.326,30.174-6.05,45.152-2.24c12.645,3.219,24.896,8.312,36.922,13.526c3.598,1.561,5.691,1.789,8.846-0.107
		c20.5-12.324,42.533-20.01,66.461-21.727c14.24-1.021,28.217,1.087,41.498,5.855c16.125,5.79,31.754,12.98,47.709,19.285
		c2.418,0.959,5.459,0.736,8.156,0.475c7.812-0.756,15.908-0.764,23.32-2.983c12.57-3.76,24.604-9.269,37.029-13.554
		c22.029-7.599,44.475-9.172,67.658-5.789c18.406,2.687,36.65,5.503,53.074,14.545c10.498,5.782,20.117,13.18,29.92,19.713
		c8.621-6.723,17.861-14.916,28.047-21.645c17.773-11.735,37.619-17.066,58.881-19.178c23.871-2.37,45.84,2.976,67.215,12.343
		c13.561,5.937,26.316,13.446,36.979,24.001c2.623,2.592,4.453,1.886,7.406,0.374c18.584-9.514,36.742-20.338,56.195-27.563
		c26.701-9.913,54.789-9.408,82.814-4.929c19.742,3.152,38.676,8.34,55.678,19.341c1.48,0.956,3.309,1.763,4.23,3.144
		c5.182,7.748,10.455,4.646,16.559,1.038c31.334-18.529,65.105-25.038,100.926-18.871c17.037,2.932,33.299,8.356,46.623,20.447
		c1.412,1.28,4.814,1.291,6.92,0.65c8.803-2.671,17.33-6.333,26.213-8.66c12.93-3.39,25.703-0.471,38.416,2.348
		c15.336,3.4,27.244,13.056,39.162,22.266c9.463,7.317,15.416,18.145,17.957,29.628c3.852,17.443,6.043,35.28,8.408,53.019
		c0.553,4.18-0.477,8.829-1.783,12.938c-1.438,4.522,0.139,7.376,2.713,10.805c11.152,14.86,11.758,38.411-2.158,51.057
		c-2.643,2.397-6.258,3.993-9.697,5.07c-1.506,0.473-4.648-0.816-5.328-2.179
		C2228.997,1635.548,1056.338,1632.708,1060.819,1631.262z"/>
	<g>
		<path fill-rule="evenodd" clip-rule="evenodd" fill="#FFFFFF" d="M107.338,1485.481c5.482-5.678,1.641-15.094-7.375-16.875
			c0.625-3.125,0.301-5.963-1.125-6.875c-6.25-4-8.867-4.186-14.48,0.701c-0.941,0.818-2.787,3.164-2.537,6.414
			c-3.25-1.875-5.607-5.115-12.713-2.617c-3.547,2.407-4.969,5.892-3.895,10.377c0.479,2.002,2.375,3.5,3.875,6
			c-3.75,5.375-3.199,11.608,1.273,15.187c3.883,3.108,9.199,3.306,14.084,0.315c3.33,3.912,8.518,5.927,14.268,4.535
			c4-1.787,5.359-6.212,4.875-11.454C102.463,1486.481,102.945,1489.429,107.338,1485.481z"/>
		<path fill-rule="evenodd" clip-rule="evenodd" fill="#F4E00A" d="M112.295,1531.022c-0.514-0.854-2.797-1.568-4.357-3.277
			c-4.326-4.736-1.713-13.918,5.523-15.79c5.826-1.507,9.252-0.015,9.252-0.015c5.334-13.833,23.381-8.5,23.008,0.915
			c0.285,1.284-0.842,6.752-2.674,8.419c2.166,4.622,2.291,5.902,2.844,11.041c0.76,7.041-5.627,14.275-13.047,11.845
			c-1.881-0.616-2.34-1.703-2.818-1.179c-4.152,4.542-10.23,4.568-13.248,2.917C112.412,1543.3,109.879,1538.106,112.295,1531.022z"
			/>
		<path fill-rule="evenodd" clip-rule="evenodd" fill="#F32842" d="M267.389,1495.583c5.199,0.737,11.191,4.632,9.615,9.959
			c-0.672,2.274-1.625,7.065-1.625,7.065s5,4.969,5,9.167c-0.061,7.279-9.895,10.195-16.834,8c-1.131-0.359-1.5,3.5-4.611,5.033
			c-10.068,3.998-19.723-2.2-15.555-14.2c0.391-1.124-3.531-2.454-4.326-3.558c-2.35-3.261-2.027-8.771,0.795-12.066
			c3.889-4.535,11.697-5.876,17.816-2.166C259.379,1498.107,261.24,1494.712,267.389,1495.583z"/>
		<path fill-rule="evenodd" clip-rule="evenodd" fill="#FFFFFF" d="M199.838,1471.856c0.318-4.273,1.377-4.555,1.965-9.421
			c-1.121-6.93-7.928-10.729-14.242-7.563c-3.156,1.581-4.277,4.109-5.973,7.234c-5.186-3.32-11.533-3.971-15.742-0.046
			c-4.006,3.737-3.189,10.776-1.133,12.046c0.422,0.843,4.607,2.649,4.25,3.5c-5.25,12.5,4.75,16.25,12.615,13.445
			c2.65-2.21,3.721-6.846,4.635-5.945C196.713,1495.446,208.463,1482.481,199.838,1471.856z"/>
		<path fill-rule="evenodd" clip-rule="evenodd" fill="#FFFFFF" d="M188.719,1534.867c0.443-0.609,0.688-0.852,0.82-1.144
			c3.045-6.698,5.859-8.72,10.449-7.485c4.436,1.193,8.625,5.843,8.475,11.618c-0.053,2.102-0.916,3.084-2.416,5.25
			c3.982,0.145,6.332,6.417,4.699,9.633c-2.393,4.709-10.533,3.201-10.533,3.201s-2.346,4.477-3.592,5.57
			c-4.434,3.894-11.482,2.749-13.586-2.896c-0.822-2.592,0.205-5.322-0.656-5.675c-4.262-1.747-6.531-4.418-6.322-8.54
			c1.156-6.294,5.201-9.207,9.559-9.522C186.596,1534.807,187.588,1534.867,188.719,1534.867z"/>
		<path fill-rule="evenodd" clip-rule="evenodd" fill="#F4E00A" d="M259.713,1511.606c-4.514,0-4.514,7,0,7
			S264.227,1511.606,259.713,1511.606z"/>
		<path fill-rule="evenodd" clip-rule="evenodd" fill="#F47527" d="M127.713,1521.606c-4.514,0-4.514,7,0,7
			S132.227,1521.606,127.713,1521.606z"/>
		<path fill-rule="evenodd" clip-rule="evenodd" fill="#F32842" d="M87.379,1478.608c-4.516,0-4.516,7,0,7
			C91.893,1485.608,91.893,1478.608,87.379,1478.608z"/>
		<path fill-rule="evenodd" clip-rule="evenodd" fill="#F47527" d="M184.045,1469.275c-4.514,0-4.514,7,0,7
			S188.559,1469.275,184.045,1469.275z"/>
	</g>
</g>
<g id="Layer_3" display="none">
	<g display="inline">
		<g>
			<g>
				<path fill-rule="evenodd" clip-rule="evenodd" fill="#0164C0" d="M2242.827,1118.94c-0.938-1.94-1.941-3.845-2.986-5.703
					c-3.055-5.437-6.581-10.973-11.149-15.072c-5.254-8.555-31.492-9.391-40.632-5.336c-39.103,8.613-38.829,57.074-38.829,57.074
					s-258.189,8.422-258.649,6.348c-4.044-18.239-15.111-44.991-23.574-51.072c-6.305-4.53-13.186-8.491-21.118-8.641
					c-12.275-0.232-23.503,3.414-33.551,10.748c-10.147,7.406-16.665,16.764-20.717,27.453l-86.921-0.37
					c-13.259-17.751-10.756-38.029-8.035-57.957c0.444-3.247,0.735-5.972,2.912-14.563c3.835-15.136,16.967-34.221,29.697-43.415
					c21.997-14.489,46.683-19.837,72.294-22.532c3.777-0.397,7.713-0.883,11.177-2.3c6.024-2.466,11.259-5.819,13.725-12.729
					c7.256-20.337,14.13-40.878,22.753-60.642c9.361-21.453,18.94-42.312,32.214-61.62c8.25-12,12.25-15,26.877-19.254
					c11.172-2.29,22.6-4.06,33.975-4.495c27.279-1.046,54.591-1.309,81.894-1.582c7.096-0.071,14.252,0.626,21.293,1.599
					c10.285,1.42,15.295,5.898,18.765,14.141c3.03,7.091,2.448,27.799,3.696,45.342c0.451,18.398,1.505,33.549,1.25,47.25
					c-0.272,14.63-0.138,27.571-0.25,42.201c-0.075,9.779,1.618,11.439,11.397,11.068c13.799-0.524,23.603,0.047,41.728-0.687
					c26.26-0.916,52.529-1.759,78.801-2.133c35.973-0.513,72.181-0.326,108.157-0.367c7.32,0.128,12.065-0.027,19.333,0.667
					c4.153,0.397,8,3.583,8.594,7.795c0.739,11.122,0.544,22.242,1.015,33.354c0.682,16.09,2.297,32.182,2.094,48.254
					c-0.149,11.829,1.173,25.55-6.121,35.015L2242.827,1118.94z"/>
			</g>
			<polygon fill-rule="evenodd" clip-rule="evenodd" fill="#F4F4F2" points="2157.104,1154.945 1894.271,1160.111 
				1894.271,1155.444 2155.938,1149.779 			"/>
			<path fill-rule="evenodd" clip-rule="evenodd" d="M1905.634,992.01c0.008,0.23,20.616-0.164,30.885-0.944
				c17.548-1.334,35.068-3.02,52.613-4.397c3.803-0.299,4.869-1.718,4.812-5.607c-0.339-22.96-0.434-45.924-0.437-68.887
				c-0.002-15.983,0.28-31.968,0.424-47.951c0.032-3.511-0.634-6.934-4.48-7.958c-3.151-0.839-6.533-1.076-9.816-1.103
				c-9.657-0.079-19.401-0.708-28.952,0.341c-12.486,1.371-25.616,2.166-37.034,6.77c-17.771,7.165-28.806,22.466-36.641,39.649
				c-4.196,9.202-8.012,18.644-11.122,28.261c-6.009,18.587-11.312,37.399-17.093,56.062c-1.586,5.12,1.206,5.752,5.006,5.757
				C1871.077,992.021,1888.355,992.01,1905.634,992.01z"/>
			<path fill-rule="evenodd" clip-rule="evenodd" d="M2055.226,912.165c0.104-0.009,0.207-0.018,0.31-0.027
				c-0.853-14.599-1.726-29.195-2.548-43.796c-0.405-7.207-1.981-9.415-9.362-10.106c-8.546-0.801-17.163-0.948-25.754-1.127
				c-7.208-0.15-7.703,0.437-7.642,7.562c0.226,26.569,0.434,53.141,0.778,79.709c0.167,12.964,0.637,25.924,0.938,38.886
				c0.102,4.399,2.502,6.068,6.672,6.255c7.641,0.342,15.267,0.999,22.907,1.367c14.763,0.71,15.576,0.014,15.292-14.905
				C2056.411,954.708,2055.768,933.438,2055.226,912.165z"/>
			<path fill-rule="evenodd" clip-rule="evenodd" fill="#0A0042" d="M1992.467,1009.955c3.22-20.595,5.459,148.119,2.388,124.432
				C1994.06,1092.91,1993.264,1051.433,1992.467,1009.955z"/>
			<path fill-rule="evenodd" clip-rule="evenodd" fill="#0A0042" d="M1974.106,1047.024c-2.504,1.912-12.138,1.532-14.22,0.954
				c-3.574-0.993-2.626-2.868,0.717-3.598C1965.163,1044.142,1975.562,1043.235,1974.106,1047.024z"/>
			<g>
				<path fill-rule="evenodd" clip-rule="evenodd" d="M1782.683,1149.903c1.248-19.543,13.754-37.043,24.922-44.341
					c10.048-7.334,38.945-18.909,64.833-2.202c20.862,13.043,30.926,41.018,23.424,66.403
					c-7.922,24.351-26.635,36.725-45.844,40.795c-26.831,3.802-47.524-7.817-56.081-19.948
					C1783.171,1174.491,1782.683,1165.11,1782.683,1149.903z"/>
			</g>
			<g>
				<path fill-rule="evenodd" clip-rule="evenodd" fill="#F4F4F2" d="M1786.025,1134.053c-2.921,8.474-4.171,16.057-3.002,28.479
					c-5.796,0.327-13.438,0.161-20.168,0.328c-9.614,0.239-18.134,0.261-27.75,0.167c-6.136-0.061-21.976-0.038-28.094-0.533
					c-8.074-0.008-11.236-6.633-11.199-13.553c0.294-7.847,2.641-14.318,10.986-14.888c8.587-0.585,26.888,0.325,35.511,0.308
					C1757.081,1134.332,1772.263,1134.053,1786.025,1134.053z"/>
			</g>
			<g>
				<path fill-rule="evenodd" clip-rule="evenodd" fill="#FFD629" d="M1697.5,1100.685c-0.066-10.906-0.001-22.573,5.078-38.836
					c3.022-0.054,9.942,1.139,12.994,1.646c14.165,2.355,19.365,18.051,12.53,29.635c-5.677,7.029-14.4,7.341-22.798,8.046
					C1703.427,1101.333,1700.798,1101.231,1697.5,1100.685z"/>
			</g>
			<g>
				<path fill-rule="evenodd" clip-rule="evenodd" fill="#DCEBF4" d="M1853.799,992.001c-3.8-0.005-6.592-0.637-5.006-5.757
					c5.781-18.662,11.084-37.475,17.093-56.062c3.109-9.617,6.926-19.059,11.122-28.261c7.835-17.184,18.883-38.611,36.655-45.776
					c11.417-4.604,24.547-5.398,37.034-6.77c9.55-1.049,19.295-0.42,28.952-0.341c3.284,0.026,6.666,0.264,9.816,1.103
					c3.846,1.024,4.512,4.447,4.48,7.958c-0.144,15.983-0.44,38.095-0.438,54.078c0.003,22.963,0.098,50.933,0.437,73.893
					c0.057,3.89-1.009,5.309-4.812,5.607c-22.694,1.483-38.569,0.889-57.194,0.889c-13.375,0.139-28.25-0.466-39.5-0.327
					C1892.429,992.005,1871.077,992.021,1853.799,992.001z"/>
				<path fill-rule="evenodd" clip-rule="evenodd" fill="#DCEBF4" d="M2056.857,911.11c0.542,21.272-0.446,43.598-0.041,64.872
					c0.284,14.919,0.135,17.461-14.628,16.751c-9.75,0.106-13.75,0.157-23.828-0.032c-4.173-0.078-6.57-1.855-6.672-6.255
					c-0.301-12.962-0.513-29.103-0.681-42.066c-0.344-26.568-0.398-61.138-0.625-87.707c-0.061-7.126,0.434-7.713,7.642-7.562
					c8.591,0.179,23.117-0.819,31.663-0.019c7.381,0.691,5.457,3.657,5.862,10.864
					C2056.372,874.557,2056.857,911.11,2056.857,911.11z"/>
			</g>
		</g>
		<path fill-rule="evenodd" clip-rule="evenodd" fill="#F4F4F2" d="M1810.087,1153.296c0.657-10.281,7.236-19.488,13.111-23.327
			c5.287-3.858,20.489-9.948,34.108-1.159c10.976,6.862,16.271,21.58,12.323,34.936c-4.168,12.811-14.013,19.32-24.118,21.462
			c-14.115,2-25.002-4.112-29.504-10.495C1810.344,1166.232,1810.087,1161.297,1810.087,1153.296z"/>
	</g>
</g>
<g id="Layer_2" display="none">
	<g display="inline">
		<g>
			<path fill-rule="evenodd" clip-rule="evenodd" fill="#E9F8FF" d="M2045.01,12.843c-1.166-1.703,11.785-19.992,12.767-18.84
				C2061.255-5.997,2047.048,13.648,2045.01,12.843z"/>
		</g>
	</g>
</g>
</svg>
