<?xml version="1.0" encoding="utf-8"?>
<!-- Generator: Adobe Illustrator 16.0.4, SVG Export Plug-In . SVG Version: 6.00 Build 0)  -->
<!DOCTYPE svg PUBLIC "-//W3C//DTD SVG 1.0//EN" "http://www.w3.org/TR/2001/REC-SVG-20010904/DTD/svg10.dtd">
<svg version="1.0" xmlns="http://www.w3.org/2000/svg" xmlns:xlink="http://www.w3.org/1999/xlink" x="0px" y="0px" width="2048px"
	 height="1536px" viewBox="0 0 2048 1536" enable-background="new 0 0 2048 1536" xml:space="preserve">
<g id="Layer_1">
	<g>
		<g>
			<path fill-rule="evenodd" clip-rule="evenodd" fill="#515151" d="M3245-201.57c0,613.477,0,1225.838,0,1839.199
				c-2489.447,0-4977.862,0-7468.157,0c0-820.29,0.576-1423.483,0.576-1840.268C-1734.28-202.639,754.094-201.57,3245-201.57z"/>
		</g>
		<g>
			<g>
				<g>
					<path fill-rule="evenodd" clip-rule="evenodd" fill="#515151" d="M-784.228,1195.908
						c451.221-3.597,901.623-7.188,1352.761-10.783c5.438,682.324,10.875,1364.365,16.315,2046.923
						c-603.335,4.809-1046.995,8.187-1353.546,10.63C-774.135,2560.668-778.785,1878.632-784.228,1195.908z"/>
				</g>
			</g>
			<g>
				<g>
					<path fill-rule="evenodd" clip-rule="evenodd" fill="#515151" d="M-794.453-1673.95
						c451.221-3.597,901.623-7.187,1352.761-10.783c5.438,682.324,5.886,1392.319,11.326,2074.876
						c-603.681,4.811-1042.178-19.766-1348.557-17.323C-784.359-309.19-789.011-991.227-794.453-1673.95z"/>
				</g>
			</g>
		</g>
	</g>
	<g id="Layer_4">
		<g>
			<g>
				<path fill-rule="evenodd" clip-rule="evenodd" fill="#C6C6C6" d="M-203.84,377.865c92.573-8.312,210.873,41.523,272.581,92.327
					c63.5,57.261,115.537,136.305,135.378,219.357c15.367,64.429,11.669,138.253,0,203.892
					c-8.183,46.001-71.923,163.113-153.71,224.99c-55.716,36.563-187.545,111.084-356.768,66.088
					c-211.517-71.711-261.776-221.98-277.793-268.572c-23.191-67.435-27.397-194.673,0-262.962
					c36.663-91.393,62.855-126.783,139.602-192.641C-376.373,410.202-283.303,380.039-203.84,377.865z"/>
				<path fill-rule="evenodd" clip-rule="evenodd" fill="#88A80D" d="M97.704,805.594c-8.348,83.487-42.933,151.466-91.83,197.985
					c-66.794,66.773-248.072,137.136-394.917,2.729c-81.973-75.032-104.798-194.757-93.363-256.738
					c15.771-85.522,57.383-146.382,124.522-197.323c59.602-45.188,132.047-55.951,199.631-50.761
					c89.992,6.929,165.154,68.952,215.407,133.551C90.546,677.979,103.669,775.773,97.704,805.594z"/>
			</g>
			<g>
				<path fill-rule="evenodd" clip-rule="evenodd" fill="#E2E2E2" d="M-436.873,660.54c12.751,1.645,27.674,3.348,42.519,5.543
					c30.65,4.525,61.473,4.932,92.344,4.322c29.65-0.586,59.301-1.546,88.954-1.984c36.843-0.535,73.747,0.395,110.526-1.339
					c34.837-1.646,69.599-5.495,104.299-9.21c17.231-1.844,34.268-5.565,51.584-8.472c-2.46,3.991-6.149,8-7.619,12.702
					c-5.908,18.877-12.104,37.75-16.377,57.028c-6.845,30.879-17.166,59.984-40.486,82.242
					c-22.779,21.739-50.068,35.729-81.368,41.08c-22.881,3.91-45.708,8.328-68.728,11.16c-32.095,3.955-64.234,0.389-95.611-5.628
					c-25.312-4.85-50.898-11.075-73.223-25.571c-30.747-19.956-55.179-45.626-70.461-79.169
					c-6.905-15.147-11.977-31.121-18.627-46.398C-424.698,684.086-431.334,671.796-436.873,660.54z"/>
				
					<path fill-rule="evenodd" clip-rule="evenodd" fill="#E2E2E2" stroke="#7E7E7E" stroke-width="16.3062" stroke-miterlimit="10" d="
					M43.07,644.178c-47.904,13.536-89.262,25.347-136.578,25.235c-39.916-0.088-78.332,1.84-118.254,1.011
					c-25.582-0.531-52.673-4.189-78.255-4.835c-37.787-0.955-79.983-7.152-117.733-8.996c-14.205-0.693-45.832-18.014-43.549-19.732
					c14.219-10.696,30.775-17.471,47.509-20.555c32.392-5.961,65.007-11.217,97.756-14.551c34.913-3.555,70.099-6.402,105.146-6.188
					c40.497,0.243,81.024,3.496,121.438,6.728c25.401,2.031,50.725,5.738,75.867,9.973c21.396,3.607,41.084,8.83,59.411,13.26
					C69.43,627.876,56.285,639.737,43.07,644.178z"/>
				<path fill-rule="evenodd" clip-rule="evenodd" fill="#DCEBF4" d="M-403.896,648.626c32.387-5.961,65.003-11.212,97.752-14.547
					c34.913-3.559,70.099-6.406,105.146-6.192c40.497,0.239,81.027,3.496,121.441,6.731c25.396,2.027,50.724,5.739,75.866,9.973
					c21.396,3.6,26.903,5.355,45.227,9.781C28.722,670.634-393.366,670.634-403.896,648.626z"/>
				<path fill-rule="evenodd" clip-rule="evenodd" fill="#7F7F7F" d="M-458.406,633.331c21.533,8.154,53.725,14.794,79.608,16.069
					c29.854,1.472,158.502,9.25,180.001,9.87c47.162,1.368,106.904,0.663,153.88-4.478c31.353-3.43,64.023-8.535,114.347-26.917
					c0,13.775-1.977,17.781-18.416,27.661c-34.574,9.317-69.552,18.365-104.982,22.05c-58.461,6.086-204.215,2.755-266.053-2.298
					c-47.135-3.854-81.257-6.426-120.5-16.307c-2.529-0.634-5.001-1.674-7.357-2.825
					C-458.49,650.964-461.349,643.175-458.406,633.331z"/>
			</g>
		</g>
		<g>
			<g>
				<path fill-rule="evenodd" clip-rule="evenodd" fill="#C6C6C6" d="M2647.355-11.828c0.081,40.134-0.336,80.902-0.454,121.189
					c-0.107,38.159,1.283,175.133-0.342,203.801c0.241,43.959-38.579,44.848-62.351,46.374
					c-49.959,3.233-298.072-0.422-370.067-1.534c-55.93-0.868-1311.293-1.538-1360.048-0.248
					c-51.538,1.375-103.167,1.757-154.674,0.228c-89,0.984-64.542,4.779-89.815-51.47
					c-39.293-73.922-58.782-108.984-102.714-158.418c-34.647-38.989-47.671-51.213-93.743-91.028
					c-28.517-24.642-116.383-73.915-141.959-84.624c-19.633-4.23-32.754-17.231-32.132-37.39
					c1.651-52.954,4.365-105.892,5.801-158.853c0.987-36.234,0.627-72.533,0.734-108.807c0.09-31.119,11.127-52.582,41.574-58.238
					c20.718-3.84,150.116-0.473,194.2,0.12c66.096,0.875,1374.114,1.889,1399.36,2.008c48.41,0.238,656.513-4.812,698.556-3.807
					c23.843,0.571,39.923,5.757,54.136,19.291c8.885,8.471,14.222,23.883,14.486,35.868c0.854,39.271,0.76,90.576-0.538,129.89
					C2647.093-199.277,2647.259-59.373,2647.355-11.828z"/>
				<path fill-rule="evenodd" clip-rule="evenodd" fill="#88A80D" d="M2528.495-71.78c0.066,27.474-0.272,55.381-0.368,82.962
					c-0.086,26.12,1.037,119.887-0.277,139.511c0.191,30.091-31.143,30.702-50.334,31.745
					c-40.335,2.214-240.641-0.285-298.768-1.048c-45.146-0.593-1206.952-1.865-1246.313-0.983
					c-41.605,0.94-83.289,1.202-124.871,0.156c-71.848,0.677-52.106,3.276-72.51-35.23C703.333,94.722,697.596,80.1,663.075,37.112
					c-24.211-30.14-36.665-43.317-74.602-75.956c-21.637-18.61-102.39-65.892-123.036-73.222
					c-23.241-9.325-26.441-11.798-25.938-25.598c1.331-36.25-0.073-43.781,1.089-80.032c0.793-24.809,0.507-49.655,0.587-74.488
					c0.078-21.3,8.993-35.991,33.57-39.869c16.724-2.623,121.19-0.321,156.78,0.084c53.361,0.6,1257.671,2.106,1278.053,2.188
					c39.084,0.16,530.014-3.295,563.959-2.607c19.252,0.391,32.228,3.942,43.703,13.209c7.173,5.792,11.479,16.347,11.695,24.552
					c0.688,26.879,0.609,62.005-0.43,88.914C2528.285-200.101,2528.418-104.33,2528.495-71.78z"/>
			</g>
		</g>
		<g>
			<g>
				<path fill-rule="evenodd" clip-rule="evenodd" fill="#C6C6C6" d="M2940.127,1619.448c-1.391,76.39,0.879,325.531,0,399.258
					c-0.93,78.057,14.011,357.502,5.819,438.766c0.832,30.535-4.191,73.326-61.265,71.583
					c-47.272,2.108-467.884,2.325-518.452,0.312c-24.132-0.967-1698.18,1.948-1744.308,1.403
					c-37.184-0.438-328.163-1.521-350.213-14.999c-23.107-14.105-26.132-48.366-26.825-71.409
					c-0.8-26.825-0.383-271.625-0.1-310.592c0.094-14.08,0.387-481.996-0.327-504.779c-0.729-23.531-4.052-44.66,23.517-50.366
					c49.881-22.823,94.582-47.495,141.996-83.148c24.443-23.935,52.939-43.822,76.627-68.478
					c17.367-18.081,77.156-101.344,92.116-121.46c24.458-42.395,30.163-58.292,36.688-71.742
					c11.409-24.453,22.489-19.388,51.606-19.775c33.32-0.283,1361.978,0.078,1414.65,0.341c36.475,0.186,493.75-1.432,517.713-0.832
					c27.548,0.692,222.034-1.804,257.063,2.115c68.542,2.774,81.579,6.815,84.912,67.945
					C2942.337,1324.746,2941.224,1559.048,2940.127,1619.448z"/>
				<path fill-rule="evenodd" clip-rule="evenodd" fill="#88A80D" d="M2851.178,1712.666c-1.15,60.498,0.726,257.803,0,316.195
					c-0.767,61.813,11.556,283.121,4.802,347.474c0.684,24.185-3.455,58.071-50.524,56.691
					c-38.988,1.67-385.869,1.843-427.581,0.248c-19.897-0.77-1587.085,1.529-1625.129,1.1
					c-30.668-0.349-270.639-1.204-288.828-11.882c-19.055-11.17-21.548-38.305-22.122-56.553
					c-0.661-21.247-0.312-215.111-0.083-245.969c0.078-11.153-1.974-355.642-2.564-373.681c-0.603-18.64-3.34-35.367,19.395-39.889
					c41.138-18.077,72.265-38.718,111.368-66.947c20.158-18.962,43.659-34.712,63.197-54.234
					c14.322-14.319,63.632-80.263,75.971-96.192c20.167-33.576,24.875-46.159,30.251-56.811
					c16.482-41.206,26.583-40.338,50.598-40.642c27.48-0.228,1309.82,0.074,1353.261,0.281
					c30.087,0.148,407.205-1.132,426.969-0.652c22.715,0.543,183.109-1.434,212.003,1.672c56.522,2.193,67.272,5.4,70.024,53.812
					C2853.002,1479.276,2852.083,1664.834,2851.178,1712.666z"/>
			</g>
		</g>
	</g>
	<g>
		<g>
			<path fill-rule="evenodd" clip-rule="evenodd" fill="#FFFFFF" d="M1396.248,808.281c-121.496,0.307-183.178-0.121-314.899-0.441
				c-135.445-0.031-187.545-0.982-293.339-1.076c-16.837-0.014-68.388,0.236-85.32-0.041c-20.45-0.338-8.541-1.371-12.877-4.297
				c-2.908-3.785,1.773-15.453,1.907-23.441c-1.008-1.225-3.681-15.641-0.134-22.778c1.756-3.521-1.591-3.915,24.641-3.842
				c97.954,0.268,222.12,0.967,320.074,1.061c119.175,0.116,224.876-0.064,344.031-0.332c20.146-0.047,28.769-0.908,30.67,3.24
				c0.901,3.667,1.099,15.999,0.757,26.059c0.346,7.607,0.194,22.533-0.655,24.264
				C1410.24,808.387,1396.248,808.232,1396.248,808.281z"/>
		</g>
		<path fill-rule="evenodd" clip-rule="evenodd" fill="#FFFFFF" d="M1544.217,811.598c-9.324,0.342-7.072-1.869-7.369-8.867
			c-0.339-11.496-0.562-31.48-0.33-41.875c0.039-4.452-0.256-6.371,5.201-6.932c15.699-1.611,33.498-0.39,53.373-0.62
			c8.998-0.104,13.122-0.152,22.748-0.209c5.128-0.03,22.129-0.249,27.372-0.373c10.925,0.62,8.374-0.098,8.968,19.811
			c0.205,6.883,0.479,23.586-0.008,30.461c-0.693,9.869,0.746,7.551-15.079,7.734c-20.833,0.08-45.329,0.525-51.458,0.52
			C1583.743,810.822,1561.391,811.631,1544.217,811.598z"/>
		<path fill-rule="evenodd" clip-rule="evenodd" fill="#FFFFFF" d="M1934.737,756.472c0,16.045,0.066,30.852,0.011,46.5
			c-0.031,9.121,0.855,7.684-6.024,7.934c-33.47,1.205-65.165,0.535-107.799,0.535c-6.627,1.281-5.302-2.219-5.302-5.469
			c-0.45-13.51,0-23.016,0.037-37.42c0.389-12.589-1.982-15.222,4.822-15.578c14.359-0.749,30.307,0,43.297,0
			c21.648,0,46.252,0,65.828,0C1934.771,752.975,1934.771,752.975,1934.737,756.472z"/>
	</g>
	<g>
		<path fill-rule="evenodd" clip-rule="evenodd" fill="#FFFFFF" d="M1505.418-5.802c5.482-5.678,1.641-15.094-7.375-16.875
			c0.625-3.125,0.301-5.963-1.125-6.875c-6.25-4-8.867-4.186-14.48,0.701c-0.941,0.818-2.787,3.164-2.537,6.414
			c-3.25-1.875-5.607-5.115-12.713-2.617c-3.547,2.407-4.969,5.892-3.895,10.377c0.479,2.002,2.375,3.5,3.875,6
			c-3.75,5.375-3.199,11.608,1.273,15.187c3.883,3.108,9.199,3.306,14.084,0.315c3.33,3.912,8.518,5.927,14.268,4.535
			c4-1.787,5.359-6.212,4.875-11.454C1500.543-4.802,1501.025-1.855,1505.418-5.802z"/>
		<path fill-rule="evenodd" clip-rule="evenodd" fill="#FFFFFF" d="M1623.033,121.8c-4.99-0.728-13.24-4.978-9.775-15.184
			c0.865-2.546,0.453-3.298-0.002-4.758c-4.088-4.536-2.635-9.984,0.537-13.161c3.279-3.284,9.271-3.271,13.82-0.521
			c1.426-1.664,2.527-3.312,3.971-4.564c4.639-4.025,8.709-3.539,11.727,1.155c2.107,3.681,0.027,5.368,0.982,5.931
			c7.961,0.25,10.625,11.5,6.174,15.14c-0.715,1.427-1.68,3.076-1.535,4.524c2.736,6.461-1.514,10.211-6.32,11.312
			c-6.693,1.523-11.434-4.601-11.943-4.977C1630.727,117.151,1628.793,122.244,1623.033,121.8z"/>
		<path fill-rule="evenodd" clip-rule="evenodd" fill="#F4E00A" d="M1510.375,39.739c-0.514-0.854-2.797-1.568-4.357-3.277
			c-4.326-4.736-1.713-13.918,5.523-15.79c5.826-1.507,9.252-0.015,9.252-0.015c5.334-13.833,23.381-8.5,23.008,0.915
			c0.285,1.284-0.842,6.752-2.674,8.419c2.166,4.622,2.291,5.902,2.844,11.041c0.76,7.041-5.627,14.275-13.047,11.845
			c-1.881-0.616-2.34-1.703-2.818-1.179c-4.152,4.542-10.23,4.568-13.248,2.917C1510.492,52.016,1507.959,46.823,1510.375,39.739z"
			/>
		<path fill-rule="evenodd" clip-rule="evenodd" fill="#F32842" d="M1665.469,4.299c5.199,0.737,11.191,4.632,9.615,9.959
			c-0.672,2.274-1.625,7.065-1.625,7.065s5,4.969,5,9.167c-0.061,7.279-9.895,10.195-16.834,8c-1.131-0.359-1.5,3.5-4.611,5.033
			c-10.068,3.998-19.723-2.2-15.555-14.2c0.391-1.124-3.531-2.454-4.326-3.558c-2.35-3.261-2.027-8.771,0.795-12.066
			c3.889-4.535,11.697-5.876,17.816-2.166C1657.459,6.824,1659.32,3.428,1665.469,4.299z"/>
		<path fill-rule="evenodd" clip-rule="evenodd" fill="#FFFFFF" d="M1597.918-19.427c0.318-4.273,1.377-4.555,1.965-9.421
			c-1.121-6.93-7.928-10.729-14.242-7.563c-3.156,1.581-4.277,4.109-5.973,7.234c-5.186-3.32-11.533-3.971-15.742-0.046
			c-4.006,3.737-3.189,10.776-1.133,12.046c0.422,0.843,4.607,2.649,4.25,3.5c-5.25,12.5,4.75,16.25,12.615,13.445
			c2.65-2.21,3.721-6.846,4.635-5.945C1594.793,4.163,1606.543-8.802,1597.918-19.427z"/>
		<path fill-rule="evenodd" clip-rule="evenodd" fill="#F47527" d="M1564.668,112.221c3.125,2.102,5.555,4.227,5.5,9.352
			c-1.875,6.5-6.5,8.875-14,6c-0.832-0.072-1.525,2.109-2.32,2.549c-4.43,5.326-16.68,1.523-14.055-9.049
			c0.279-1.125-3,0.75-6.625-2.375c-5.348-4.374-4.875-11.875,0.75-14.5c3.174-1.48,3.875-1.625,6.875-0.875
			c-3.25-6.875,7.125-15.125,12.625-5.75c1-1.75,3.879-2.197,4.5-2.25C1565.033,94.727,1571.168,102.203,1564.668,112.221z"/>
		<path fill-rule="evenodd" clip-rule="evenodd" fill="#FFFFFF" d="M1480.537,74.323c2.699-4.091,6.137-7.245,11.512-5.301
			c4.209,1.522,5.029,3.015,6.061,7.301c1.24,5.156-1.625,7.453-5.25,9.125c2.877,0.625,5.25,10.25,2.375,13.125
			c-2.76,2.759-8.5,5.25-12.951,1.396c-2.107-1.626-1.799-3.271-5.006-0.438c-7.918,3.543-15.918-2.832-10.168-13.332
			c-3.125-2.994-2.883-2.793-3.316-5.875C1463.793,70.948,1472.543,69.198,1480.537,74.323z"/>
		<path fill-rule="evenodd" clip-rule="evenodd" fill="#FFFFFF" d="M1586.799,43.583c0.443-0.609,0.688-0.852,0.82-1.144
			c3.045-6.698,5.859-8.72,10.449-7.485c4.436,1.193,8.625,5.843,8.475,11.618c-0.053,2.102-0.916,3.084-2.416,5.25
			c3.982,0.145,6.332,6.417,4.699,9.633c-2.393,4.709-10.533,3.201-10.533,3.201s-2.346,4.477-3.592,5.57
			c-4.434,3.894-11.482,2.749-13.586-2.896c-0.822-2.592,0.205-5.322-0.656-5.675c-4.262-1.747-6.531-4.418-6.322-8.54
			c1.156-6.294,5.201-9.207,9.559-9.522C1584.676,43.523,1585.668,43.583,1586.799,43.583z"/>
		<path fill-rule="evenodd" clip-rule="evenodd" fill="#F4E00A" d="M1657.793,20.323c-4.514,0-4.514,7,0,7
			S1662.307,20.323,1657.793,20.323z"/>
		<path fill-rule="evenodd" clip-rule="evenodd" fill="#F32842" d="M1551.127,108.989c-4.514,0-4.514,7,0,7
			S1555.641,108.989,1551.127,108.989z"/>
		<path fill-rule="evenodd" clip-rule="evenodd" fill="#F47527" d="M1525.793,30.323c-4.514,0-4.514,7,0,7
			S1530.307,30.323,1525.793,30.323z"/>
		<path fill-rule="evenodd" clip-rule="evenodd" fill="#F4CE18" d="M1631.459,97.992c-4.516,0-4.516,7,0,7
			C1635.973,104.992,1635.973,97.992,1631.459,97.992z"/>
		<path fill-rule="evenodd" clip-rule="evenodd" fill="#F32842" d="M1592.793,50.823c-4.514,0-4.514,7,0,7
			S1597.307,50.823,1592.793,50.823z"/>
		<path fill-rule="evenodd" clip-rule="evenodd" fill="#F32842" d="M1480.793,82.323c-4.514,0-4.514,7,0,7
			S1485.307,82.323,1480.793,82.323z"/>
	</g>
	<g>
		<g>
			<path fill-rule="evenodd" clip-rule="evenodd" fill="#53891F" d="M1946.451,1587.643
				c15.117,26.927-26.674-170.628-19.178-172.229c14.949-3.198,71.773-20.106,86.721-16.167
				c12.615,3.325,24.824,8.524,36.805,13.842c3.582,1.592,5.676,1.838,8.844-0.031c20.607-12.149,42.703-19.646,66.646-21.156
				c14.248-0.899,28.207,1.329,41.445,6.21c16.074,5.93,31.643,13.254,47.543,19.693c2.41,0.98,5.451,0.785,8.15,0.545
				c7.82-0.688,15.914-0.626,23.346-2.781c12.602-3.654,24.682-9.059,37.146-13.237c22.092-7.408,44.549-8.79,67.703-5.209
				c18.381,2.845,36.602,5.818,52.947,15.001c10.449,5.871,20.004,13.351,29.75,19.969c8.678-6.648,17.988-14.763,28.232-21.403
				c17.873-11.585,37.764-16.743,59.043-18.673c23.891-2.166,45.812,3.368,67.105,12.919c13.51,6.052,26.201,13.671,36.773,24.316
				c2.6,2.615,4.436,1.925,7.402,0.438c18.666-9.354,36.914-20.021,56.43-27.08c26.783-9.685,54.867-8.938,82.854-4.22
				c19.713,3.323,38.602,8.674,55.508,19.818c1.473,0.971,3.293,1.793,4.205,3.182c5.113,7.791,10.414,4.732,16.549,1.178
				c31.492-18.258,65.318-24.479,101.084-18.006c17.01,3.08,33.227,8.643,46.445,20.849c1.4,1.291,4.803,1.331,6.914,0.71
				c8.826-2.596,17.385-6.184,26.287-8.436c12.957-3.277,25.705-0.252,38.395,2.678c15.307,3.53,27.131,13.288,38.969,22.6
				c9.398,7.398,15.26,18.275,17.703,29.781c3.701,17.475,5.74,35.33,7.951,53.089c0.518,4.184-0.551,8.823-1.893,12.921
				c-1.475,4.512,0.076,7.377,2.619,10.83c11.027,14.955,11.43,38.509-2.596,51.035c-2.662,2.373-6.291,3.939-9.74,4.986
				c-1.51,0.459-4.641-0.855-5.311-2.223C3114.549,1601.945,1941.957,1589.051,1946.451,1587.643z"/>
		</g>
	</g>
	<path fill-rule="evenodd" clip-rule="evenodd" fill="#53891F" d="M712.209,1605.344c-0.67,1.367-3.801,2.682-5.311,2.223
		c-3.449-1.047-7.078-2.613-9.74-4.986c-14.025-12.526-13.623-36.08-2.596-51.035c2.543-3.453,4.094-6.318,2.619-10.83
		c-1.342-4.098-2.41-8.737-1.893-12.921c2.211-17.759,4.25-35.614,7.951-53.089c2.443-11.506,8.305-22.383,17.703-29.781
		c11.838-9.312,23.662-19.069,38.969-22.6c12.689-2.93,25.438-5.955,38.395-2.678c8.902,2.252,17.461,5.84,26.287,8.436
		c2.111,0.621,5.514,0.581,6.914-0.71c13.219-12.206,29.436-17.769,46.445-20.849c35.766-6.473,69.592-0.252,101.084,18.006
		c6.135,3.555,11.436,6.613,16.549-1.178c0.912-1.389,2.732-2.211,4.205-3.182c16.906-11.145,35.795-16.495,55.508-19.818
		c27.986-4.719,56.07-5.465,82.854,4.22c19.516,7.06,37.764,17.726,56.43,27.08c2.967,1.487,4.803,2.178,7.402-0.438
		c10.572-10.646,23.264-18.265,36.773-24.316c21.293-9.551,43.215-15.085,67.105-12.919c21.279,1.93,41.17,7.088,59.043,18.673
		c10.244,6.641,19.555,14.755,28.232,21.403c9.746-6.618,19.301-14.098,29.75-19.969c16.346-9.183,34.566-12.156,52.947-15.001
		c23.154-3.581,45.611-2.199,67.703,5.209c12.465,4.179,24.545,9.583,37.146,13.237c7.432,2.155,15.525,2.094,23.346,2.781
		c2.699,0.24,5.74,0.436,8.15-0.545c15.9-6.439,31.469-13.764,47.543-19.693c13.238-4.881,27.197-7.109,41.445-6.21
		c23.943,1.511,46.039,9.007,66.646,21.156c3.168,1.869,5.262,1.623,8.844,0.031c11.98-5.317,24.189-10.517,36.805-13.842
		c14.947-3.939,71.771,12.969,86.721,16.167c7.496,1.602-34.295,199.156-19.178,172.229
		C1885.502,1591.015,712.91,1603.909,712.209,1605.344z"/>
	<path fill-rule="evenodd" clip-rule="evenodd" fill="#437419" d="M733.252,1589.206c-2.73,1.6-4.701,2.753-7.527,4.409
		c-28.361-2.84-46.346-30.393-44.318-62.025c2.051-31.959,21.404-48.999,58.359-53.44c0.578-4.243,0.59-8.775,1.883-12.972
		c3.855-12.525,12.512-22.358,22.744-30.862c17.562-14.604,38.143-24.504,62.018-24.135c25.676,0.395,50.016,6.355,67.932,25.453
		c2.525,2.689,4.768,5.598,7.141,8.405c21.896-20.325,46.957-31.71,75.445-33.382c30.17-1.771,60.156,1.402,84.227,21.531
		c3.719,3.106,6.203,1.963,8.238-0.815c18.146-24.822,46.869-31.382,75.904-37.037c19.518-3.802,39.328-6.093,59.359-3.901
		c33.055,3.614,60.785,16.926,83.424,39.312c2.59,2.564,5.074,5.215,7.711,7.93c13.309-19.459,34.619-27.234,56.791-33.369
		c41.148-11.385,102.143-10.798,127.723,33.65c11.152,3.975-2.73,123.236-6.424,123.08
		C1460.797,1560.479,730.746,1586.184,733.252,1589.206z"/>
	<path fill-rule="evenodd" clip-rule="evenodd" fill="#437419" d="M1364.734,1611.773c15.348,26.796,13.291-185.062,20.773-186.729
		c14.922-3.326,30.172-6.05,45.152-2.24c12.645,3.219,24.896,8.312,36.92,13.526c3.598,1.561,5.691,1.789,8.846-0.107
		c20.502-12.324,42.533-20.01,66.461-21.727c14.24-1.021,28.219,1.087,41.498,5.855c16.125,5.79,31.756,12.98,47.709,19.285
		c2.42,0.959,5.459,0.736,8.156,0.475c7.812-0.756,15.908-0.764,23.32-2.983c12.57-3.76,24.605-9.269,37.031-13.554
		c22.027-7.599,44.473-9.172,67.658-5.789c18.404,2.687,36.648,5.503,53.072,14.545c10.498,5.782,20.117,13.18,29.92,19.713
		c8.623-6.723,17.861-14.916,28.049-21.645c17.771-11.735,37.617-17.066,58.881-19.178c23.871-2.37,45.838,2.976,67.213,12.343
		c13.561,5.937,26.318,13.446,36.98,24.001c2.623,2.592,4.451,1.886,7.404,0.374c18.586-9.514,36.742-20.338,56.197-27.563
		c26.699-9.913,54.789-9.408,82.812-4.929c19.742,3.152,38.676,8.34,55.678,19.341c1.48,0.956,3.309,1.763,4.23,3.144
		c5.182,7.748,10.457,4.646,16.561,1.038c31.332-18.529,65.104-25.038,100.924-18.871c17.037,2.932,33.301,8.356,46.623,20.447
		c1.412,1.28,4.814,1.291,6.92,0.65c8.803-2.671,17.33-6.333,26.213-8.66c12.93-3.39,25.703-0.471,38.416,2.348
		c15.338,3.4,27.244,13.056,39.162,22.266c9.463,7.317,15.416,18.145,17.957,29.628c3.852,17.443,6.043,35.28,8.408,53.019
		c0.553,4.18-0.475,8.829-1.783,12.938c-1.436,4.522,0.139,7.376,2.713,10.805c11.154,14.86,11.76,38.411-2.158,51.057
		c-2.643,2.397-6.258,3.993-9.697,5.07c-1.506,0.473-4.648-0.816-5.328-2.179C2532.912,1616.06,1360.254,1613.22,1364.734,1611.773z
		"/>
	<path fill-rule="evenodd" clip-rule="evenodd" fill="#FFFFFF" d="M741.165,760c0.113,62.776,0.515,114.034,0.591,173.334
		c0.057,45.934,0.195,87.604,0.002,135.865c0.254,22.332,0.057,43.83-0.777,68.48c-19.01,0-37.211,0-56.896,0
		c0-53.191,0.189-104.061-0.047-154.926c-0.258-56.25,0.463-101.646-0.055-157.893c-0.145-15.99,0.844-42.836,0.379-58.76
		c-0.311-10.715,0.951-14.189,4.43-14.105C705.348,752.381,722.587,760,741.165,760z"/>
	<g>
		<g>
			<g>
				<g>
					<g>
						<g>
							<path fill-rule="evenodd" clip-rule="evenodd" fill="#F2EBCF" d="M2572.823-543.48
								c2.601,223.402,5.192,446.846,7.792,670.276c-0.547,0.142,0.619,14.076,0.07,14.204c-6.951,0-759.703-4.931-766.643-4.664
								c-0.627-2.337-1.757-4.625-1.802-7.022c-0.446-24.94-1.028-49.899-0.982-74.85c0.181-102.674,0.69-205.343,0.831-308.02
								c0.072-47.391-0.469-94.787-0.646-142.186c-0.161-44.535-0.185-89.072-0.306-133.614c-0.014-4.65-0.255-9.295-0.416-14.898
								L2572.823-543.48z"/>
						</g>
					</g>
					<g>
						<path fill-rule="evenodd" clip-rule="evenodd" fill="#402F3C" d="M1920.149,8.609c1.743-18.058,4.715-20.995,22.753-20.627
							c8.643,0.172,17.431,1.075,25.781,3.131c6.797,1.465,7.57,2.428,9.303,8.969c1.002,5.77,0.796,9.229,0.621,13.913
							c0.986,8.35-2.112,12.73-11.206,12.35c-20.009,0.472-20.727-2.267-20.319,13.375c0.039,1.724-2.454,4.692-4.235,5.114
							c-14.424,3.391-38.551,3.723-42.393-0.121c-5.479-3.649-4.816-12.891-4.621-24.055c-0.131-8.077,6.004-11.728,14.078-12.029
							C1913.36,8.497,1916.805,8.609,1920.149,8.609z M1937.24,17.717c-1.295-4.464-31.602-2.828-33.326,0
							c-1.929,3.151-2.113,20.246,1.725,21.799c5.453,2.198,22.15,1.788,30.23,0.443
							C1942.987,39.578,1939.988,31.582,1937.24,17.717z M1972.597,16.624c2.264-24.207-1.729-19.622-33.497-19.401
							c-6.785,0.209-13.788,1.203-10.918,11.377c5.018,0.652,14.401-0.633,14.866,5.518c0.807,6.377,4.153,6.73,15.118,6.551
							C1969.517,20.477,1972.692,20.277,1972.597,16.624z"/>
					</g>
				</g>
				<g>
					<g>
						<path fill-rule="evenodd" clip-rule="evenodd" fill="#C6C6C6" d="M2343.575,92.89c5.985,20.007,6.911,35.971-2.583,47.327
							c-48.517-1.115-302.643-2.055-304.301-2.075c-0.51-15.575-0.902-27.792-1.461-45.003c-0.932-2.75,18.871-2.938,29.587-3.664
							C2072.789,89.528,2334.643,92.785,2343.575,92.89z"/>
					</g>
				</g>
			</g>
		</g>
	</g>
	<path fill-rule="evenodd" clip-rule="evenodd" fill="#437419" d="M1872.203,69.146c3.509-3.676,6.885-7.329,11.688-8.396
		c4.662-1.031,9.455-1.767,14.225-1.968c4.779-0.2,9.688,0.282,13.889,2.958c4.003,2.549,7.785,5.444,12.084,8.483
		c0.542-0.549,1.475-1.423,2.337-2.363c4.126-4.494,9.315-6.691,15.321-6.617c3.715,0.045,7.49,0.374,11.105,1.164
		c5.675,1.239,8.147,4.412,8.871,10.312c0.045,0.373,0.26,0.73,0.491,1.363c2.536-0.68,5.107-1.188,7.545-2.054
		c6.852-2.437,18.61,3.916,20.712,10.17c0.865,2.576,0.869,5.439,1.245,8.176c0.125,0.917,0.187,1.845,0.347,3.479
		c1.352-1.152,2.079-1.678,2.693-2.317c2.853-2.961,6.361-3.942,10.249-3.005c6.013,1.453,10.788,4.754,13.172,10.632
		c0.807,2.001,0.915,4.405,0.84,6.608c-0.08,2.364-0.752,4.706-1.246,7.541c1.106,0.342,2.158,0.744,3.247,0.987
		c11.182,2.508,19.176,14.232,14.712,27.844c-0.542,1.665-1.94,3.237-3.318,4.407c-4.864,4.126-10.286,6.975-16.933,7.046
		c-16.264,0.181-32.525,0.528-48.788,0.749c-17.866,0.244-35.737,0.338-53.605,0.645c-16.12,0.277-32.238,0.86-48.36,1.099
		c-11.597,0.174-23.196-0.035-34.796,0.012c-3.057,0.01-6.14,0.669-9.162,0.425c-5.782-0.469-11.735-0.106-17.196-2.631
		c-2.991-1.38-5.416-3.559-6.747-6.562c-1.286-2.899-2.363-5.948-3.07-9.039c-1.413-6.139,1.264-10.935,5.743-14.845
		c1.986-1.735,4.562-2.038,7.137-2.205c1.217-0.078,2.711,0.582,3.724-1.208c-0.906-0.569-1.745-1.137-2.615-1.638
		c-6.13-3.527-8.28-9.506-5.693-16.063c2.186-5.533,6.077-9.767,10.926-12.961c4.823-3.177,10.048-1.812,15.038-0.133
		c3.188,1.07,3.183,1.09,3.295-2.122c0.502-14.088,7.634-25.18,23.507-27.041C1861.91,59.245,1866.992,61.821,1872.203,69.146z"/>
</g>
<g id="Layer_3" display="none">
	<g display="inline">
		<g>
			<g>
				<path fill-rule="evenodd" clip-rule="evenodd" fill="#FFE20D" d="M1364.058,1050.417c8.467,4.302,12.888,16.454,8.236,25.666
					c-1.071,2.122-4.17,4.157-6.576,4.488c-6.554,0.902-13.233,1.06-19.868,1.166c-10.307,0.165-20.618,0.044-31.484,0.044
					c-4.867-41.942-12.045-46.192-32.045-56.817c-24.753-13.15-41.5-3-62.841,6.125c-14.134,13.389-22.909,22.959-26.512,52.442
					c-22.343,0-44.599,0.407-66.831-0.122c-19.622-0.468-343.269,6.782-359.072,7.358c-8.974,0.326-22.977,0.361-31.944,0.907
					c4.118-1.962,0.256-29.836-0.573-27.188c-5.976-16.107-22.976-36.774-45.84-37.945c-15.504-0.649-40.335,3.277-51.11,16.945
					c-8.177,10.371-12.219,37.477-12.219,37.477c-0.837-3.031-56.879-12.442-56.726-12.481c-0.61-10.46-1.861-20.677-1.658-30.864
					c0.379-18.998,1.9-37.971,11.351-55.107c8.812-15.979,22.09-26.556,39.562-32.166c15.07-4.84,30.229-8.916,46.069-10.307
					c6.632-0.583,10.068-4.548,10.685-12.316c1.197-15.092,2.099-30.21,2.881-45.33c1.377-26.643,4.56-53.082,11.558-78.81
					c4.398-16.168,12.254-30.866,29.21-37.459c6.367-2.476,13.36-3.875,20.187-4.528c19.981-1.911,40.596-0.326,60.624-1.698
					c9.794-0.671,23.252-0.403,33.068-0.517c32.457-0.371,64.919-0.977,97.372-0.674c24.628,0.229,45.024-1.496,69.654-1.139
					c31.31,0.455,62.631,0.206,93.946,0.043c33.635-0.176,67.271-0.437,100.9-0.983c20.641-0.336,41.268-1.415,61.907-1.904
					c16.698-0.396,33.26,1.005,49.54,5.009c9.974,2.452,18.454,7.835,27.283,12.838c10.473,5.936,17.014,14.688,21.449,25.178
					c5.353,12.66,7.601,26.206,8.169,39.861c1.1,26.42,1.887,52.857,2.388,79.295c0.527,27.803,0.516,55.615,0.85,83.422
					c0.139,11.476,0.834,22.95,0.737,34.421C1366.342,1039.751,1364.944,1044.745,1364.058,1050.417z"/>
				<path fill-rule="evenodd" clip-rule="evenodd" d="M1193.223,1079.014c1.263-23.444,14.293-43.902,36.146-54.045
					c16.191-7.515,32.204-9.15,50.87-1.591c21,9,30.999,22.666,35.574,47.666c2.425,17,0.953,26.51-8.241,41.334
					c-11.243,15.336-18.611,18.726-36.366,24.639c-15.277,5.088-36.791,0.514-50.489-6.543
					C1202.271,1120.972,1194.655,1099.423,1193.223,1079.014z"/>
				<path fill-rule="evenodd" clip-rule="evenodd" d="M622.159,1089.806c0-36.43,18.411-59.097,51.044-63.913
					c5.247-1.402,29.701,1.149,38.629,9.312c12.346,8.67,21.829,20.695,24.241,35.781c8.164,51.057-32.169,73.057-62.474,70.443
					C651.57,1140.042,623.004,1124.976,622.159,1089.806z"/>
				<path fill-rule="evenodd" clip-rule="evenodd" fill="#F4F4F2" d="M1316.835,1082.292c0.015-8.391-2.597-22.578-7.337-32.126
					c3.4,0,14.355,0.048,17.959,0.048c10.802,0.001,23.522-0.141,34.321,0.027c11.289,0.176,18.301,15.785,13.793,26.225
					c-0.73,1.691-3.68,4.242-5.7,4.684c-3.695,0.805-7.568,1.023-11.372,1.062
					C1346.562,1082.333,1328.487,1082.292,1316.835,1082.292z"/>
				<path fill-rule="evenodd" clip-rule="evenodd" fill="#FFA233" d="M1361.988,971.257c0,9.619,0,18.194,0,27.346
					c-7.706,0.359-15.436-0.103-23.161-0.14c-5.134-0.025-8.121-2.979-8.163-8.107c-0.035-4.396,0.376-9.099,2.005-13.088
					c0.936-2.29,4.515-4.42,7.207-4.895C1346.83,971.147,1352.32,971.257,1361.988,971.257z"/>
				<path fill-rule="evenodd" clip-rule="evenodd" fill="#AA0000" d="M1362.648,1002.794c0,8.851,0,17.103,0,25.955
					c-7.83,0-17.218-0.628-24.912-0.999c-4.405-0.213-6.77-3.271-6.908-7.735c-0.092-2.979-0.375-6.026,0.108-8.93
					c0.647-3.896,3.096-6.742,7.209-7.198C1345.406,1003.08,1353.065,1003.237,1362.648,1002.794z"/>
				<path fill-rule="evenodd" clip-rule="evenodd" fill="#F4CE18" d="M569.07,1030.089c0-12.286,2.375-27.5,3.875-29.5
					c0.145-0.776,2.375-2.375,4.246-2.785c3.641-0.798,7.034-1.208,10.412-0.193c2.684,0.806,6.231,3.895,6.562,6.352
					c0.785,5.826,0.058,11.893-0.384,17.838c-0.383,5.172-3.434,8.3-8.627,8.635C580.42,1030.741,571.82,1030.577,569.07,1030.089z"
					/>
				<g>
					<path fill-rule="evenodd" clip-rule="evenodd" fill="#DCEBF4" d="M1249.237,919.562c0,6.667-3.597,8.689-9.299,9.028
						c-21.034,1.251-24.084,0.071-40.701,0.371c-35.662,0.643-51.332-0.019-85.666-1.012c-6.664-0.887-9.894-5.235-9.111-10.565
						c-1.184-33.762,0.569-61.352-0.561-95.115c-0.226-6.748,0.486-19.028-0.027-26c-0.56-7.588-0.56-11.594,9.36-11.594
						c52.095,0.634,68.5,1.396,120.672,0.642c12.666-0.183,12.666,1.05,13.333,9.579
						C1249.051,840.249,1247.401,873.649,1249.237,919.562z"/>
					<path fill-rule="evenodd" clip-rule="evenodd" fill="#DCEBF4" d="M938.729,930.114c-3.037,0-4.681-3.359-4.668-6.104
						c0.063-13.436,0.417-27.873,0.089-40.963c-0.425-16.956,0.854-34.717,0.143-51.666c-0.564-13.463,0.782-27.256,0.021-40.706
						c-0.262-4.638,1.863-5.843,5.688-5.93c18.138-0.416,36.274-1.064,54.414-1.156c33.149-0.168,52.669-0.045,85.819-0.041
						c4.592-0.35,7.072,2.386,7.244,7.517c1.585,47.311,0.952,81.973,1.09,129.648c-0.667,6.349-4.919,6.805-6.665,6.852
						C1029.33,928.942,992.742,928.706,938.729,930.114z"/>
					<path fill-rule="evenodd" clip-rule="evenodd" fill="#DCEBF4" d="M1342.07,927.062c-25.465,0-50.123,0-77,0
						c-1.851-44.237-1.415-94.042-3.332-139.845c9.731,0,49.39,0.508,60.981,5.505c7.539,3.25,16.302,12.53,21.351,44.991
						c4.776,32.677,2.562,50.09,2.147,83.053C1346.214,921.073,1346.325,927.062,1342.07,927.062z"/>
					<path fill-rule="evenodd" clip-rule="evenodd" fill="#DCEBF4" d="M742.07,933.109c0.3-1.199,2.323-95.128,3.248-140.391
						c0.021-1.043,0-5.005-4.619-6.221c-19.857-2.54-33.666,5.626-39.212,27.698c-3.375,13.435-3.675,21.783-4.745,35.636
						c-1.588,20.562-2.046,41.212-2.871,61.828c-0.223,5.567-0.108,16.021-0.108,22.214
						C710.82,933.874,726.59,933.602,742.07,933.109z"/>
				</g>
				<g>
					<path fill-rule="evenodd" clip-rule="evenodd" fill="#F4F4F2" d="M754.642,1091.505c-0.039-24.801-0.064-51.978,0.187-76.776
						c0.332-32.813,1.211-65.623,1.338-98.436c0.153-39.491,0.578-85.53,0.378-125.022c-0.017-3.319,1.038-4.955,4.655-4.627
						c3.144,0.285,44.768,0.201,62.371-0.43c12.815-0.46,27.171-0.54,40-0.696c18.14-0.222,34.631,0.739,52.754,0.019
						c4.203-0.167,5.247,0.754,5.246,4.678c-0.013,34.297,0.999,72.203,1.18,106.5c0.136,25.643,0.277,51.29,0.844,76.926
						c0.59,26.635,1.277,86.85,2.334,113.471c0,0-81.171,2.393-109.023,3.27C798.297,1090.966,754.642,1091.505,754.642,1091.505z"
						/>
					<path fill-rule="evenodd" clip-rule="evenodd" fill="#DCEBF4" d="M853.323,939.044c22.763,0,32.297,0.195,54.523,0.114
						c4.067-0.016,4.585,2.775,4.694,5.575c0.545,13.969,0.555,28.505,0.779,42.48c0.282,17.476,0.92,34.524,1.205,52
						c0.169,10.444-0.226,23.738-0.268,34.287c-0.014,3.352-0.817,5.156-4.771,5.201c-22.448,0.266-34.03,0.721-56.477,1.162
						c-4.242-0.377-4.875,0-5.5-3.775c0.125-2.062,0.164-35.039,0.061-48.189c-0.223-28.281-0.271-53.514-0.388-81.797
						C847.037,942.122,851.382,939.069,853.323,939.044z"/>
					<path fill-rule="evenodd" clip-rule="evenodd" fill="#DCEBF4" d="M835.87,1079.269c-5.468,0.644-10.922-0.146-16.404,0.318
						c-17.606,0.277-29.896,0.213-47.155,0.057c-4.938,0.492-6.013-1.23-5.946-5.732c0.437-29.467,0.015-55.598,0.049-85.067
						c0.016-12.616,0.117-30.646-0.312-43.267c-0.077-2.295,2-5.166,4.694-5.287c22.257-1.182,41.268,0.405,63.244-0.761
						c6.415-0.021,6.212,8.558,6.232,9.685c0.82,44.1-1.388,86.247-1.388,126.888C838.885,1078.542,835.87,1079.269,835.87,1079.269
						z"/>
					<path fill-rule="evenodd" clip-rule="evenodd" fill="#DCEBF4" d="M910.774,802.304c0.159,22.162,0.367,34.153,0.546,56.22
						c0.074,18.78,0.256,37.56,0.518,56.337c0.055,3.973,0.227,10.544,0.089,15.148c-0.127,4.245-5.412,3.289-8.151,3.291
						c-11.814,0.006-20.393-0.258-32.205-0.13c-6.816,0.073-8.491,0.448-19,0.017c-5.392-0.077-5.744-2.638-5.887-5.816
						c-0.628-13.901-1.19-27.81-1.468-41.722c-0.252-12.641,0.07-25.294-0.179-37.935c-0.309-15.612-0.994-31.949-1.248-47.561
						c0-2.515,2.196-4.581,3.567-4.765c6.093-0.817,12.924-0.154,19.069-0.425c12.794-0.562,25.598,0.781,38.399,0.43
						C906.429,795.351,910.251,795.389,910.774,802.304z"/>
					<path fill-rule="evenodd" clip-rule="evenodd" fill="#DCEBF4" d="M839.32,882.144c0,10.664-0.308,28.563,0.069,44.679
						c0.105,4.538-0.583,5.681-4.374,5.642c-7.632-0.082-18.327,0.206-25.945,0.528c-12.12,0.514-24.5-0.872-37.004-0.083
						c-5.67,0.357-6.468-4.671-6.419-10.195c0.229-25.784,0.536-42.795,0.452-68.577c-0.046-14.461,0.535-34.416,0.012-48.876
						c-0.054-1.481,0.081-2.976,0.21-4.456c0.344-3.956,2.228-5.415,6.469-5.416c15.798-0.007,37.851,0.422,53.647,0.116
						c0.832-0.017,1.664-0.082,2.494-0.1c10.389-0.219,9.456,1.621,9.938,12.106C839.233,831.469,838.268,852.904,839.32,882.144z"
						/>
				</g>
			</g>
			<path fill-rule="evenodd" clip-rule="evenodd" fill="#F4F4F2" d="M624.828,1067.651c-3.008,10.875-3.195,24-1.859,30.777
				c-15.781,0.535-32.421,0.679-48.197,1.031c-3.599,0.08-7.297-0.522-10.796-1.415c-1.773-0.452-3.595-1.962-4.722-3.49
				c-4.927-6.682-0.308-24.032,9.15-26.134C569.008,1068.204,624.828,1067.651,624.828,1067.651z"/>
			<path fill-rule="evenodd" clip-rule="evenodd" fill="#F4F4F2" d="M647.14,1089.603c0-20.776,10.501-33.703,29.11-36.449
				c2.992-0.801,16.938,0.656,22.029,5.311c7.041,4.943,12.449,11.802,13.825,20.405c4.655,29.117-18.347,41.663-35.628,40.173
				C663.912,1118.251,647.621,1109.659,647.14,1089.603z"/>
			<path fill-rule="evenodd" clip-rule="evenodd" fill="#F4F4F2" d="M1220.824,1079.358c0.686-12.764,7.78-23.901,19.678-29.424
				c8.815-4.09,17.532-4.98,27.694-0.865c11.433,4.9,16.877,12.34,19.367,25.951c1.321,9.254,0.519,14.432-4.487,22.502
				c-6.12,8.35-10.132,10.195-19.799,13.414c-8.314,2.77-20.029,0.28-27.486-3.562
				C1225.75,1102.202,1221.603,1090.47,1220.824,1079.358z"/>
		</g>
		<path fill-rule="evenodd" clip-rule="evenodd" d="M1365.567,957.261c-4.162,0.02-20.643,0.73-24.422,0.746
			c-2.085,0.009-213.08,2.271-216.458,2.331c-1.819,0.033-48.036,0.492-55.96,0.573c-6.869,0.07-13.748,0.221-20.622,0.311
			c-3.368,0.043-95.382,1.104-101.84,1.226c-3.035,0.057-7.573,0.206-10.568,0.213c-1.488,0.004-3.105-13.044,0.796-12.684
			c10.421-0.205,422.894-4.58,429.074-4.55C1365.572,946.997,1366.261,954.026,1365.567,957.261z"/>
		<path fill-rule="evenodd" clip-rule="evenodd" d="M1326.109,986.541c-4.162,0.02-20.643,0.73-24.422,0.746
			c-2.085,0.009-171.132-0.056-174.51,0.005c-1.819,0.033-48.036,0.492-55.96,0.573c-6.869,0.07-13.748,0.221-20.622,0.311
			c-3.368,0.043-95.382,1.104-101.84,1.226c-3.035,0.057-7.573,0.206-10.568,0.213c-1.488,0.004-7.833-8.617,0.796-12.684
			c10.421-0.205,380.945-2.254,387.126-2.224C1326.114,976.277,1326.803,983.307,1326.109,986.541z"/>
	</g>
</g>
<g id="Layer_2" display="none">
	<path display="inline" opacity="0.2" fill-rule="evenodd" clip-rule="evenodd" fill="#777777" d="M0,0h-2047.725v857.696
		c1.377,6.206,1.628,12.534,1.631,18.869c0.001,3.271-0.572,6.492-1.631,9.511v137.049c7.405,153.295,11.559,306.77,0,459.807
		v52.877h441.932c21.104-1.239,42.218-2.223,63.324-2.975c86.205-3.068,172.464-1.69,258.673-4.701
		c78.229-2.732,156.325-5.139,234.601-5.801c58.399-0.494,116.979-0.934,175.199,4.388c22.709,2.076,45.553,4.712,68.002,9.089H0
		V806.477c-1.644-22.224-1.641-44.396,0-66.678V0z"/>
</g>
</svg>
