<?xml version="1.0" encoding="utf-8"?>
<!-- Generator: Adobe Illustrator 16.0.4, SVG Export Plug-In . SVG Version: 6.00 Build 0)  -->
<!DOCTYPE svg PUBLIC "-//W3C//DTD SVG 1.0//EN" "http://www.w3.org/TR/2001/REC-SVG-20010904/DTD/svg10.dtd">
<svg version="1.0" xmlns="http://www.w3.org/2000/svg" xmlns:xlink="http://www.w3.org/1999/xlink" x="0px" y="0px" width="2048px"
	 height="1536px" viewBox="0 0 2048 1536" enable-background="new 0 0 2048 1536" xml:space="preserve">
<g id="Layer_1">
	<g>
		<path fill-rule="evenodd" clip-rule="evenodd" fill="#515151" d="M2062.829,399.015c0,280.941,0,561.373,0,842.263
			c-743.234,0-1486.16,0-2229.649,0c0-375.652,0.172-651.885,0.172-842.751C576.244,398.526,1319.158,399.015,2062.829,399.015z"/>
		<g>
			<g display="none">
				<path display="inline" fill-rule="evenodd" clip-rule="evenodd" fill="#FFFFFF" d="M1007.214,536.405
					c-9.045,0-14.502-0.048-23.699,0c-13.666,0.073-26.848-0.459-40.5,0c-23.881,0.804-48.874-0.759-72.751,0
					c-16.77,0.531-33.134-0.134-49.916,0c-22.701,0.183-54.798-0.016-77.499,0.153c-2.188,0.084-2.188,0.084-2.163-2
					c-0.287-3.949-0.056-14.096-0.255-17.793c-0.035-14.501-0.001-33,0.496-45.063c87.938-0.767,177.227,0.776,266.287,0
					C1007.903,492.724,1007.6,514.223,1007.214,536.405z"/>
				<path display="inline" fill-rule="evenodd" clip-rule="evenodd" fill="#FFFFFF" d="M1008.762,597.51
					c0,10.204,0.037,21.001-0.008,31.803c-0.037,8.859-0.264,17.718-0.221,26.577c0.022,5.363-1.411,6.633-6.296,6.537
					c-11.919-0.234-23.849-0.059-35.771-0.092c-22.068-0.062-44.136-0.125-66.203-0.238c-14.689-0.075-27.897,0.583-42.583,0.356
					c-19.004-0.289-38,0.17-57-0.021c-18.733-0.188-38.952-0.18-58.499-0.18c0-20.823,0-42.868,0-64.742
					C829.919,597.51,918.595,597.51,1008.762,597.51z"/>
				<path display="inline" fill-rule="evenodd" clip-rule="evenodd" fill="#FFFFFF" d="M1007.122,794.471
					c-9.085,0-18.036,0.216-27.274,0.265c-13.721,0.073-27.458-0.08-41.168,0.383c-23.982,0.809-48.222-1.354-72.199-0.593
					c-16.841,0.535-33.701,0.438-50.555,0.571c-22.798,0.186-44.017-0.876-66.813-0.707c-7.391,0.053-7.779-0.314-8.105-8.59
					c-0.148-3.725-0.117-7.457-0.317-11.175c-0.634-11.644,0.326-24.208,0.248-36.493c-0.018-2.809-1.167-9.742,4.242-8.565
					c88.306-0.772,172.504,0.978,261.942,0.196C1008.482,750.039,1005.713,773.509,1007.122,794.471z"/>
				<path display="inline" fill-rule="evenodd" clip-rule="evenodd" fill="#FFFFFF" d="M1000.347,859.323
					c4.175,0.154,6.994,0.899,6.87,5.9c-0.224,9.02,0.034,19.123-0.003,28.041c-0.038,8.959-0.12,15.438-0.077,24.398
					c0.024,5.423-1.412,6.708-6.306,6.61c-11.939-0.236-23.208,0.775-35.151,0.741c-22.105-0.063-44.514,0.592-66.619,0.478
					c-14.716-0.076-29.431-0.151-44.141-0.38c-19.035-0.292-38.066-0.883-57.1-1.077c-18.766-0.189-37.534-0.042-57.119-0.042
					c0-20.459,0-39.688,0-61.103c0-3.568,1.113-2.892,3.646-2.834C832.238,860.057,910.021,859.323,1000.347,859.323z"/>
				<path display="inline" fill-rule="evenodd" clip-rule="evenodd" fill="#FFFFFF" d="M740.874,1113.376
					c9.084,0.002,18.036-0.213,27.274-0.26c13.72-0.07,27.458,0.086,41.168-0.375c23.982-0.805,48.221,1.362,72.199,0.605
					c16.841-0.532,33.701-0.432,50.554-0.562c22.798-0.183,44.017,0.883,66.813,0.718c7.393-0.053,7.78,0.316,8.104,8.591
					c0.146,3.726,0.116,7.458,0.317,11.176c0.631,11.645-0.332,24.208-0.256,36.492c0.018,2.809,1.165,9.743-4.245,8.564
					c-88.306,0.757-172.503-1.007-261.941-0.241C739.505,1157.808,742.278,1134.339,740.874,1113.376z"/>
				<path display="inline" fill-rule="evenodd" clip-rule="evenodd" fill="#FFFFFF" d="M748.66,1051.525
					c-4.175-0.155-6.993-0.901-6.868-5.902c0.225-9.019-0.031-19.123,0.008-28.041c0.039-8.959,0.033-22.9-0.008-31.859
					c8.887-0.363,29.604,0.08,41.547,0.117c22.106,0.067,44.513-0.585,66.62-0.466c14.715,0.079,29.431,0.155,44.14,0.388
					c19.035,0.295,38.067,0.89,57.099,1.087c18.768,0.193,37.534,0.048,57.121,0.053c-0.005,20.458-0.007,39.688-0.012,61.103
					c0,3.567-1.113,2.892-3.646,2.833C916.769,1050.82,838.986,1051.542,748.66,1051.525z"/>
			</g>
			<g>
				<path fill-rule="evenodd" clip-rule="evenodd" fill="#F2F2F2" d="M1366.087,847.952c-19.535,0.306-29.453-0.121-50.633-0.441
					c-21.778-0.031-30.155-0.983-47.166-1.076c-2.707-0.014-10.996,0.235-13.719-0.042c-3.288-0.338-1.373-1.371-2.07-4.297
					c-0.468-3.784,0.285-15.453,0.307-23.442c-0.162-1.224-0.592-15.641-0.021-22.777c0.282-3.521-0.256-3.915,3.962-3.842
					c16.75,0.284,36.715,0.973,51.465,1.061c19.162,0.116,38.323-0.094,57.482-0.361c3.239-0.047,3.56,1.568,3.518,3.715
					c-0.169,8.539-0.507,17.074-0.63,25.614c-0.096,6.668,0.031,22.534-0.105,24.265
					C1368.337,848.058,1366.087,847.903,1366.087,847.952z"/>
				<path fill-rule="evenodd" clip-rule="evenodd" fill="#FFFFFF" d="M1542.681,791.194c19.098-0.113,38.126-0.532,56.167-0.607
					c13.974-0.057,25.65-0.195,40.333-0.002c6.794-0.254,13.334-0.057,20.833,0.776c0,19.011,0,37.212,0,56.896
					c-16.182,0-31.657-0.188-47.132,0.048c-17.112,0.258-30.923-0.463-48.034,0.055c-4.864,0.145-13.031-0.844-17.876-0.38
					c-3.26,0.311-4.316-0.95-4.291-4.43C1542.798,826.995,1542.681,809.771,1542.681,791.194z"/>
				<path fill-rule="evenodd" clip-rule="evenodd" fill="#FFFFFF" d="M1826.972,791.455c20.098-0.119,33.501,0.202,50.542,0.132
					c13.974-0.057,26.65-0.195,41.333-0.002c6.794-0.254,13.334-0.057,20.833,0.775c0,19.012,0,37.213,0,56.897
					c-16.182,0-31.657-0.188-47.132,0.048c-17.112,0.258-30.923-0.463-48.034,0.055c-4.864,0.145-13.031-0.844-17.876-0.38
					c-3.26,0.311-4.316-0.95-4.291-4.43c0.104-14.714-0.131-34.325,0.268-50.7C1822.664,791.801,1824.44,791.429,1826.972,791.455z"
					/>
				<path fill-rule="evenodd" clip-rule="evenodd" fill="#FFFFFF" d="M242.771,841.744c-19.098,0.113-37.126,0.531-55.167,0.606
					c-13.974,0.058-26.65,0.196-41.333,0.002c-6.794,0.254-13.334,0.057-20.833-0.776c0-19.01,0-37.211,0-56.896
					c16.182,0,31.657,0.189,47.132-0.047c17.112-0.258,30.923,0.463,48.034-0.055c4.864-0.145,13.031,0.844,17.876,0.379
					c3.26-0.311,4.316,0.951,4.291,4.43C242.653,805.943,242.771,823.166,242.771,841.744z"/>
				<path fill-rule="evenodd" clip-rule="evenodd" fill="#FFFFFF" d="M409.729,785.537c19.098-0.113,32.501,0.206,50.542,0.132
					c13.974-0.057,26.65-0.195,41.333-0.002c6.794-0.254,13.334-0.057,20.833,0.775c0,19.012,0,37.212,0,56.897
					c-16.182,0-31.657-0.189-47.132,0.047c-17.112,0.258-30.923-0.463-48.034,0.055c-19.959,0.02-22.173-0.48-22.173-3.182
					c0.104-14.715-0.125-35.952,0.273-52.327C405.422,785.883,407.198,785.511,409.729,785.537z"/>
			</g>
			<path fill-rule="evenodd" clip-rule="evenodd" fill="#FFFFFF" d="M694.46,845.35c-9.326,0.341-7.074-1.869-7.37-8.867
				c-0.339-11.496-0.563-31.481-0.331-41.875c0.04-4.452-0.256-6.371,5.202-6.932c15.699-1.611,33.497-0.39,53.374-0.62
				c8.996-0.104,13.121-0.152,22.746-0.209c5.129-0.03,22.13-0.249,27.373-0.373c10.925,0.62,8.374-0.098,8.968,19.812
				c0.205,6.883,0.479,23.586-0.008,30.46c-0.693,9.87,0.746,7.551-15.079,7.735c-20.832,0.079-45.33,0.525-51.457,0.52
				C733.985,844.573,711.633,845.383,694.46,845.35z"/>
			<path fill-rule="evenodd" clip-rule="evenodd" fill="#FFFFFF" d="M1084.979,790.224c0,16.045,0.066,30.852,0.011,46.5
				c-0.031,9.121,0.855,7.685-6.024,7.935c-33.47,1.204-65.165,0.535-107.799,0.535c-6.627,1.28-5.302-2.22-5.302-5.47
				c-0.45-13.51,0-23.016,0.037-37.419c0.389-12.59-1.982-15.223,4.822-15.578c14.359-0.749,30.307,0,43.297,0
				c21.648,0,46.252,0,65.828,0C1085.013,786.727,1085.013,786.727,1084.979,790.224z"/>
		</g>
	</g>
	<g>
		<path fill-rule="evenodd" clip-rule="evenodd" fill="#515151" d="M1.513,299.949c0,429.121,0,857.462,0,1286.504
			c-682.346,0-1364.409,0-2046.987,0c0-573.785,0.158-995.714,0.158-1287.251C-1363.285,299.202-681.233,299.949,1.513,299.949z"/>
	</g>
	<g>
		<g>
			<rect x="-2111.242" y="-58.84" fill-rule="evenodd" clip-rule="evenodd" fill="#E9F8FF" width="2177.755" height="453.917"/>
			<rect x="39.482" y="-59.057" fill-rule="evenodd" clip-rule="evenodd" fill="#E9F8FF" width="2177.755" height="453.917"/>
		</g>
		<g>
			<g>
				<g>
					<path fill-rule="evenodd" clip-rule="evenodd" fill="#FFFFFF" d="M1017.669,88.645c-1.565,0.917-21.083-0.949-22.702,0
						c-16.256-1.627-26.562-17.418-25.4-35.548c1.176-18.316,12.268-28.083,33.447-30.628c0.332-2.432,0.338-5.03,1.08-7.435
						c2.209-7.179,7.17-12.814,13.035-17.688c10.064-8.37,21.859-14.043,35.543-13.832c14.715,0.226,28.665,3.643,38.934,14.588
						c1.446,1.541,2.731,3.208,4.092,4.817c12.549-11.648,26.912-18.173,43.238-19.132c17.293-1.015,24.718,3.143,38.514,14.679
						c2.131,1.78,52.561,66.216,12.158,75.98C1182.312,76.209,1016.232,86.913,1017.669,88.645z"/>
					<path fill-rule="evenodd" clip-rule="evenodd" fill="#FFFFFF" d="M1171.331,10.501c1.565-0.917,23.804,6.877,25.423,5.928
						c16.255,1.627,26.562,17.419,25.4,35.548c-1.176,18.316-12.268,28.082-33.447,30.627c-0.332,2.433-0.338,5.029-1.08,7.435
						c-2.209,7.178-7.17,12.813-13.035,17.687c-10.064,8.37-21.859,14.044-35.543,13.833c-14.715-0.226-28.665-3.643-38.934-14.588
						c-1.446-1.542-2.731-3.208-4.092-4.817c-12.55,11.648-26.912,18.173-43.239,19.131c-17.292,1.016-47.903-11.926-49.433-37.955
						c-2.131-1.78,30.324-39.774,22.937-59.849C1023.696,16.438,1164.453-3.164,1171.331,10.501z"/>
				</g>
				<g>
					<path fill-rule="evenodd" clip-rule="evenodd" fill="#FFFFFF" d="M340.766,88.546c-1.033,0.605-13.926-0.627-14.995,0
						c-10.737-1.075-17.546-11.506-16.778-23.481c0.777-12.099,8.104-18.55,22.094-20.231c0.219-1.606,0.224-3.322,0.713-4.911
						c1.459-4.742,4.736-8.464,8.61-11.684c6.649-5.528,14.44-9.276,23.478-9.137c9.721,0.149,18.936,2.406,25.718,9.636
						c0.956,1.018,1.804,2.119,2.703,3.182c8.29-7.694,17.776-12.004,28.562-12.638c11.422-0.67,22.773,0.531,31.886,8.151
						c1.408,1.176,2.349,0.743,3.118-0.309c6.871-9.397,17.744-11.88,28.736-14.021c7.389-1.439,14.889-2.307,22.472-1.477
						c12.514,1.368,23.012,6.407,31.581,14.882c0.981,0.971,22.43,43.15-4.259,49.599C529.584,77.274,339.817,87.402,340.766,88.546
						z"/>
					<path fill-rule="evenodd" clip-rule="evenodd" fill="#FFFFFF" d="M534.823,32.386c1.034-0.605,15.724,4.543,16.793,3.916
						c10.737,1.075,17.545,11.506,16.778,23.481c-0.777,12.099-8.104,18.549-22.094,20.231c-0.219,1.606-0.224,3.322-0.713,4.911
						c-1.459,4.742-4.736,8.464-8.61,11.683c-6.649,5.528-14.44,9.276-23.478,9.137c-9.721-0.149-18.936-2.406-25.718-9.636
						c-0.956-1.019-1.805-2.119-2.703-3.182c-8.29,7.694-17.776,12.004-28.562,12.637c-11.422,0.671-22.773-0.531-31.886-8.151
						c-1.408-1.176-2.349-0.743-3.118,0.309c-6.871,9.397-17.744,11.88-28.736,14.021c-7.389,1.439-27.402,0.938-34.985,0.109
						c-17.026-9.056-15.442-18.342-24.013-26.816c-0.98-0.971-1.922-1.974-2.919-3.002c-21.843-13.253-9.953-4.021-14.833-17.281
						C314.315,60.1,530.28,23.36,534.823,32.386z"/>
				</g>
				<g>
					<path fill-rule="evenodd" clip-rule="evenodd" fill="#FFFFFF" d="M1753.242,105.218c-1.211,0.71-16.327-0.735-17.581,0
						c-12.589-1.261-20.571-13.49-19.672-27.53c0.912-14.186,9.501-21.749,25.904-23.721c0.257-1.883,0.262-3.895,0.836-5.757
						c1.711-5.56,5.553-9.924,10.096-13.699c7.796-6.482,16.931-10.876,27.525-10.712c11.397,0.175,22.201,2.821,30.153,11.297
						c1.121,1.194,2.115,2.485,3.169,3.731c9.721-9.021,20.843-14.075,33.487-14.817c13.392-0.786,26.701,0.623,37.385,9.557
						c1.651,1.378,2.754,0.871,3.657-0.362c8.054-11.018,20.803-13.929,33.689-16.44c8.664-1.687,17.457-2.704,26.349-1.731
						c14.672,1.604,26.98,7.512,37.028,17.449c1.149,1.139,26.296,50.591-4.994,58.153
						C1974.625,92.002,1752.131,103.877,1753.242,105.218z"/>
					<path fill-rule="evenodd" clip-rule="evenodd" fill="#FFFFFF" d="M1980.767,39.374c1.212-0.71,18.435,5.326,19.689,4.591
						c12.589,1.26,20.57,13.491,19.671,27.531c-0.909,14.185-9.501,21.749-25.903,23.72c-0.258,1.883-0.262,3.895-0.836,5.758
						c-1.712,5.56-5.554,9.923-10.095,13.698c-7.795,6.482-16.93,10.876-27.528,10.712c-11.395-0.175-22.198-2.821-30.151-11.297
						c-1.12-1.194-2.116-2.484-3.169-3.73c-9.719,9.021-20.843,14.074-33.486,14.816c-13.393,0.787-26.702-0.623-37.386-9.557
						c-1.651-1.378-2.754-0.872-3.656,0.362c-8.056,11.018-20.804,13.929-33.692,16.439c-8.662,1.687-32.128,1.101-41.019,0.128
						c-19.963-10.618-18.105-21.505-28.153-31.441c-1.15-1.139-2.254-2.314-3.423-3.52c-25.609-15.539-11.669-4.714-17.391-20.262
						C1722.23,71.866,1975.44,28.791,1980.767,39.374z"/>
				</g>
			</g>
		</g>
	</g>
	<g>
		<g>
			<path fill-rule="evenodd" clip-rule="evenodd" fill="#53891F" d="M-1108.292,373.942
				c15.117,26.927-26.675-170.627-19.179-172.229c14.951-3.198,71.774-20.106,86.721-16.167
				c12.617,3.326,24.825,8.525,36.806,13.842c3.582,1.592,5.675,1.838,8.844-0.031c20.607-12.149,42.703-19.646,66.646-21.156
				c14.248-0.899,28.207,1.329,41.445,6.21c16.075,5.929,31.643,13.253,47.542,19.693c2.41,0.98,5.452,0.784,8.152,0.545
				c7.818-0.688,15.914-0.626,23.344-2.782c12.603-3.653,24.684-9.058,37.146-13.237c22.092-7.408,44.55-8.79,67.704-5.209
				c18.382,2.845,36.602,5.818,52.947,15c10.448,5.872,20.004,13.351,29.749,19.969c8.68-6.648,17.988-14.762,28.232-21.403
				c17.873-11.584,37.764-16.743,59.044-18.673c23.89-2.166,45.812,3.368,67.106,12.919c13.508,6.052,26.2,13.671,36.771,24.316
				c2.6,2.615,4.437,1.925,7.402,0.438c18.666-9.354,36.914-20.021,56.43-27.08c26.784-9.684,54.868-8.938,82.854-4.219
				c19.714,3.323,38.603,8.673,55.509,19.818c1.472,0.97,3.293,1.792,4.204,3.181c5.114,7.791,10.415,4.733,16.55,1.179
				c31.491-18.259,65.317-24.479,101.083-18.006c17.011,3.079,33.228,8.643,46.446,20.848c1.4,1.291,4.802,1.332,6.914,0.71
				c8.825-2.596,17.384-6.184,26.286-8.436c12.958-3.277,25.706-0.251,38.395,2.678c15.307,3.531,27.131,13.289,38.969,22.6
				c9.399,7.398,15.26,18.275,17.703,29.781c3.701,17.475,5.74,35.33,7.952,53.089c0.518,4.184-0.551,8.824-1.894,12.921
				c-1.475,4.511,0.076,7.377,2.619,10.829c11.027,14.955,11.431,38.509-2.595,51.036c-2.662,2.374-6.292,3.939-9.741,4.986
				c-1.509,0.459-4.641-0.855-5.31-2.223C59.805,388.245-1112.786,375.35-1108.292,373.942z"/>
			<path fill-rule="evenodd" clip-rule="evenodd" fill="#437419" d="M-574.911,370.529c-2.73,1.6-4.702,2.753-7.527,4.409
				c-28.362-2.84-46.346-30.393-44.318-62.026c2.051-31.958,21.404-48.998,58.358-53.44c0.579-4.243,0.591-8.775,1.884-12.971
				c3.854-12.525,12.512-22.359,22.744-30.862c17.562-14.604,38.143-24.504,62.018-24.135c25.675,0.395,50.016,6.355,67.932,25.453
				c2.524,2.689,4.767,5.599,7.141,8.406c21.896-20.326,46.956-31.71,75.444-33.381c30.171-1.771,60.157,1.402,84.228,21.53
				c3.719,3.107,6.203,1.964,8.237-0.815c18.147-24.822,46.87-31.382,75.904-37.037c19.519-3.802,39.329-6.093,59.36-3.902
				c33.055,3.615,60.785,16.927,83.423,39.313c2.591,2.563,5.075,5.214,7.711,7.929c13.31-19.459,34.619-27.234,56.792-33.369
				C85.567,174.246,0.665,359.79-3.028,359.633C-16.112,359.074-577.418,367.507-574.911,370.529z"/>
		</g>
		<g>
			<path fill-rule="evenodd" clip-rule="evenodd" fill="#53891F" d="M1042.433,373.725c15.116,26.927-26.675-170.627-19.179-172.229
				c14.951-3.198,71.774-20.106,86.721-16.167c12.617,3.326,24.825,8.525,36.806,13.842c3.582,1.592,5.675,1.838,8.844-0.031
				c20.607-12.149,42.703-19.646,66.646-21.156c14.248-0.899,28.207,1.329,41.445,6.21c16.075,5.929,31.643,13.253,47.542,19.693
				c2.41,0.98,5.452,0.784,8.152,0.545c7.818-0.688,15.914-0.626,23.344-2.782c12.603-3.653,24.684-9.058,37.146-13.237
				c22.092-7.408,44.55-8.79,67.704-5.209c18.382,2.845,36.602,5.818,52.947,15c10.448,5.872,20.004,13.351,29.749,19.969
				c8.68-6.648,17.988-14.762,28.232-21.403c17.873-11.584,37.764-16.743,59.044-18.673c23.89-2.166,45.812,3.368,67.106,12.919
				c13.508,6.052,26.2,13.671,36.771,24.316c2.6,2.615,4.437,1.925,7.402,0.438c18.666-9.354,36.914-20.021,56.43-27.08
				c26.784-9.684,54.868-8.938,82.854-4.219c19.714,3.323,38.603,8.673,55.509,19.818c1.472,0.97,3.293,1.792,4.204,3.181
				c5.114,7.791,10.415,4.733,16.55,1.179c31.491-18.259,65.317-24.479,101.083-18.006c17.011,3.079,33.228,8.643,46.446,20.848
				c1.4,1.291,4.802,1.332,6.914,0.71c8.825-2.596,17.384-6.184,26.286-8.436c12.958-3.277,25.706-0.251,38.395,2.678
				c15.307,3.531,27.131,13.289,38.969,22.6c9.399,7.398,15.26,18.275,17.703,29.781c3.701,17.475,5.74,35.33,7.952,53.089
				c0.518,4.184-0.551,8.824-1.894,12.921c-1.475,4.511,0.076,7.377,2.619,10.829c11.027,14.955,11.431,38.509-2.595,51.036
				c-2.662,2.374-6.292,3.939-9.741,4.986c-1.509,0.459-4.641-0.855-5.31-2.223C2210.529,388.027,1037.939,375.133,1042.433,373.725
				z"/>
			<path fill-rule="evenodd" clip-rule="evenodd" fill="#88A80D" d="M466.416,371.012c15.117,26.927-26.675-170.627-19.179-172.229
				c14.95-3.198,71.774-20.106,86.721-16.167c12.616,3.326,24.825,8.525,36.806,13.842c3.582,1.592,5.675,1.838,8.844-0.031
				c20.607-12.149,42.703-19.646,66.646-21.156c14.248-0.899,28.207,1.329,41.445,6.21c16.074,5.929,31.643,13.253,47.543,19.693
				c2.41,0.98,5.451,0.784,8.15,0.545c7.82-0.688,15.914-0.626,23.346-2.782c12.602-3.653,24.682-9.058,37.146-13.237
				c22.092-7.408,44.549-8.79,67.703-5.209c18.381,2.845,36.602,5.818,52.947,15c10.448,5.872,20.004,13.351,29.75,19.969
				c8.678-6.648,17.987-14.762,28.231-21.403c17.874-11.584,37.764-16.743,59.044-18.673c23.891-2.166,45.812,3.368,67.105,12.919
				c13.509,6.052,26.201,13.671,36.772,24.316c2.6,2.615,4.437,1.925,7.402,0.438c18.666-9.354,36.914-20.021,56.43-27.08
				c26.784-9.684,54.868-8.938,82.854-4.219c19.714,3.323,38.603,8.673,55.509,19.818c1.472,0.97,3.293,1.792,4.204,3.181
				c5.114,7.791,10.415,4.733,16.55,1.179c31.491-18.259,65.317-24.479,101.083-18.006c17.011,3.079,33.228,8.643,46.446,20.848
				c1.4,1.291,4.802,1.332,6.914,0.71c8.825-2.596,17.384-6.184,26.286-8.436c12.958-3.277,25.706-0.251,38.395,2.678
				c15.307,3.531,27.131,13.289,38.969,22.6c9.399,7.398,15.26,18.275,17.703,29.781c3.701,17.475,5.74,35.33,7.952,53.089
				c0.518,4.184-0.551,8.824-1.894,12.921c-1.475,4.511,0.076,7.377,2.619,10.829c11.027,14.955,11.431,38.509-2.595,51.036
				c-2.662,2.374-6.292,3.939-9.741,4.986c-1.509,0.459-4.641-0.855-5.31-2.223C1634.513,385.315,461.922,372.42,466.416,371.012z"
				/>
			<path fill-rule="evenodd" clip-rule="evenodd" fill="#437419" d="M552.706,398.547c-0.669,1.368-3.801,2.683-5.31,2.224
				c-3.449-1.047-7.079-2.613-9.741-4.986c-14.025-12.527-13.622-36.081-2.595-51.036c2.543-3.452,4.094-6.318,2.619-10.829
				c-1.343-4.098-2.411-8.738-1.894-12.921c2.212-17.759,4.251-35.614,7.952-53.089c2.443-11.506,8.304-22.383,17.703-29.781
				c11.838-9.312,23.662-19.069,38.969-22.6c12.688-2.929,25.437-5.955,38.395-2.678c8.902,2.252,17.461,5.84,26.286,8.436
				c2.112,0.622,5.514,0.581,6.914-0.71c13.219-12.206,29.436-17.769,46.446-20.848c35.766-6.473,69.592-0.253,101.083,18.006
				c6.135,3.555,11.436,6.612,16.55-1.179c0.911-1.389,2.732-2.211,4.204-3.181c16.906-11.145,35.795-16.495,55.509-19.818
				c27.985-4.719,56.069-5.465,82.854,4.219c19.516,7.059,37.765,17.726,56.43,27.08c2.966,1.487,4.802,2.178,7.402-0.438
				c10.571-10.645,23.264-18.264,36.772-24.316c21.294-9.551,43.215-15.084,67.105-12.919c21.28,1.93,41.171,7.088,59.044,18.673
				c10.244,6.641,19.553,14.754,28.232,21.403c9.745-6.618,19.301-14.097,29.749-19.969c16.346-9.182,34.565-12.156,52.947-15
				c23.154-3.581,45.612-2.199,67.704,5.209c12.463,4.179,24.544,9.583,37.146,13.237c7.43,2.156,15.525,2.094,23.344,2.782
				c2.7,0.239,5.742,0.435,8.152-0.545c15.899-6.44,31.467-13.765,47.542-19.693c13.238-4.881,27.197-7.11,41.446-6.21
				c23.941,1.511,46.039,9.007,66.645,21.156c3.17,1.869,5.262,1.623,8.846,0.031c11.98-5.317,24.188-10.516,36.805-13.842
				c14.946-3.939,30.22-1.346,45.17,1.853c7.496,1.602,7.256,213.471,22.372,186.544
				C1725.998,384.219,553.408,397.113,552.706,398.547z"/>
			<path fill-rule="evenodd" clip-rule="evenodd" fill="#437419" d="M-70.277,365.311c-2.73,1.6-4.702,2.753-7.527,4.409
				c-28.362-2.84-46.346-30.393-44.318-62.025c2.051-31.959,21.404-48.999,58.358-53.44c0.579-4.243,0.591-8.775,1.884-12.972
				c3.854-12.525,12.512-22.358,22.744-30.862c17.562-14.604,38.143-24.504,62.018-24.135c25.675,0.395,50.016,6.355,67.932,25.453
				c2.524,2.689,4.767,5.598,7.141,8.405c21.896-20.325,46.956-31.71,75.444-33.382c30.171-1.771,60.157,1.402,84.228,21.531
				c3.719,3.106,6.203,1.963,8.237-0.815c18.147-24.822,46.87-31.382,75.904-37.037c19.519-3.802,39.329-6.093,59.36-3.901
				c33.055,3.614,60.785,16.926,83.423,39.312c2.591,2.564,5.075,5.215,7.711,7.93c13.31-19.459,34.619-27.234,56.792-33.369
				c41.148-11.385,74.053,23.079,114.185,37.37c11.153,3.975,10.808,119.517,7.114,119.36
				C657.268,336.584-72.784,362.289-70.277,365.311z"/>
			<path fill-rule="evenodd" clip-rule="evenodd" fill="#53891F" d="M331.251,382.312c-2.73,1.6-4.702,2.753-7.527,4.409
				c-28.362-2.84-46.346-30.393-44.318-62.025c2.051-31.959,21.404-48.999,58.358-53.44c0.579-4.243,0.591-8.775,1.884-12.972
				c3.854-12.525,12.512-22.358,22.744-30.862c17.562-14.604,38.143-24.504,62.018-24.135c25.675,0.395,50.016,6.355,67.932,25.453
				c2.524,2.689,4.767,5.598,7.141,8.405c21.896-20.325,46.956-31.71,75.444-33.382c30.171-1.771,60.157,1.402,84.228,21.531
				c3.719,3.106,6.203,1.963,8.237-0.815c18.147-24.822,46.87-31.382,75.904-37.037c19.519-3.802,39.329-6.093,59.36-3.901
				c33.055,3.614,60.785,16.926,83.423,39.312c2.591,2.564,5.075,5.215,7.711,7.93c13.31-19.459,34.619-27.234,56.792-33.369
				c41.148-11.385,91.656,15.37,114.185,37.37c37.472,37.92,10.808,119.517,7.114,119.36
				C1058.796,353.585,328.744,379.289,331.251,382.312z"/>
			<path fill-rule="evenodd" clip-rule="evenodd" fill="#88A80D" d="M1677.396,234.922c16.424-7.851,22.482,148.268-41.013,133.898
				c-45.661-10.34-243.619-33.205-238.353-37.677c-3.149-2.58-6.041-5.083-9.107-7.418c-21.538-16.422-25.686-36.546-10.833-53.977
				c12.547-14.717,30.879-23.9,52.208-29.031c21.213-5.109,40.756,3.917,59.15,13.677c11.754,6.232,11.709,6.28,14.471-3.337
				c12.065-42.206,48.022-69.127,111.701-59.892C1644.092,195.288,1662.188,207.851,1677.396,234.922z"/>
			<path fill-rule="evenodd" clip-rule="evenodd" fill="#437419" d="M1575.813,370.312c-2.73,1.6-4.702,2.753-7.527,4.409
				c-28.362-2.84-46.346-30.393-44.318-62.026c2.051-31.958,21.404-48.998,58.358-53.44c0.579-4.243,0.591-8.775,1.884-12.971
				c3.854-12.525,12.512-22.359,22.744-30.862c17.562-14.604,38.143-24.504,62.018-24.135c25.675,0.395,50.016,6.355,67.932,25.453
				c2.524,2.689,4.767,5.599,7.141,8.406c21.896-20.326,46.956-31.71,75.444-33.381c30.171-1.771,60.157,1.402,84.228,21.53
				c3.719,3.107,6.203,1.964,8.237-0.815c18.147-24.822,46.87-31.382,75.904-37.037c19.519-3.802,39.329-6.093,59.36-3.902
				c33.055,3.615,60.785,16.927,83.423,39.313c2.591,2.563,5.075,5.214,7.711,7.929c13.31-19.459,34.619-27.234,56.792-33.369
				c41.148-11.384-43.754,174.159-47.447,174.003C2134.612,358.857,1573.307,367.29,1575.813,370.312z"/>
		</g>
	</g>
	<g>
		<path fill-rule="evenodd" clip-rule="evenodd" fill="#C6C6C6" d="M2049.023,401.912c-4.347,0.026-8.692,0.069-13.042,0.075
			c-7.236,0.01-14.473-0.01-21.713-0.006c-29.359,0.014-160.553,0.101-173.594,0.15c-11.25,0.041-22.527,0.029-33.789,0.061
			c-16.451,0.045-32.891,0.134-49.346,0.159c-15.642,0.024-37.295-0.017-52.944-0.013c-16.233,0.004-26.467,0.026-42.701,0.043
			c-14.599,0.016-145.899-0.137-162.37-0.149c-7.596-0.005-15.191-0.037-22.779-0.023c-8.66,0.015-17.307,0.081-25.968,0.096
			c-6.049,0.01-12.105-0.037-18.162-0.04c-6.751-0.005-106.524-0.023-121.559-0.017c-13.522,0.005-27.041,0.001-40.562-0.006
			c-19.113-0.008-121.499-0.027-133.902-0.043c-6.663-0.009-80.301-0.089-86.014-0.097c-4.819-0.007-9.646,0.042-14.473,0.047
			c-1.333,0.001-2.674-0.07-4.988-0.136c-3.929,0.3-30.17,0.267-37.4-0.125c-1.783,0.178-3.242,0.325-6.816,0.129
			c-2.227-0.122-7.107-0.083-9.471,0.054c-4.705,0.271-8.195,0.07-12.327-0.04c-1.593-0.042-62.224,0.168-69.134-0.016
			c-3.885-0.104-8.548,0.004-12.855,0.023c-10.674,0.046-21.343,0.122-32.021,0.138c-11.221,0.017-22.469,0.007-33.669-0.046
			c-6.534-0.031-158.066,0.287-165.245,0.315c-14.469,0.058-28.932,0.128-43.406,0.168c-9.604,0.028-19.23,0-28.838,0.022
			c-10.328,0.022-20.646,0.081-30.975,0.107c-2.557,0.006-415.335-0.83-415.916-0.856c-7.018-0.326-107.75,0.032-113.768,0.044
			c-5.801,0.013-11.594,0.049-17.648,0.077c-0.1-0.189,0.482-118.789,0.377-118.99c16.785-0.063,2039.367,0.279,2046.829,0.3
			c1.543,0.005-1.009,118.35,0.507,118.422C2049.233,401.795,2049.13,401.853,2049.023,401.912z"/>
		<path fill-rule="evenodd" clip-rule="evenodd" fill="#C6C6C6" d="M-0.797,1241.355c19.863,0.688,92.367,0.621,110.41,1.309
			c9.953,0.383,1016.539-0.338,1032.645-1.041c8.678-0.389,229.17,0.463,266.973,0.568c32.775,0.092,65.568-2.172,98.357-2.65
			c16.068-0.227,455.014-2.674,485.801-4.197c14.477-0.721,36.092-3.654,50.387-2.941c7.105,0.355,18.83,378.258,0.092,366.67
			c-49.686,2.688-2017.475,2.736-2046.986,0C-3.625,1553.658-3.111,1334.658-0.797,1241.355z"/>
	</g>
	<g>
		<path fill-rule="evenodd" clip-rule="evenodd" fill="#C6C6C6" d="M3.196,401.253c-4.347,0.026-8.692,0.069-13.042,0.075
			c-7.236,0.01-14.473-0.01-21.713-0.006c-29.359,0.014-160.553,0.101-173.594,0.15c-11.25,0.041-22.527,0.029-33.789,0.061
			c-16.451,0.045-32.891,0.134-49.346,0.159c-15.642,0.024-37.295-0.017-52.944-0.013c-16.233,0.004-26.467,0.026-42.701,0.043
			c-14.599,0.016-145.899-0.137-162.37-0.149c-7.596-0.005-15.191-0.037-22.779-0.023c-8.66,0.015-17.307,0.081-25.968,0.096
			c-6.049,0.01-12.105-0.037-18.162-0.04c-6.751-0.005-106.524-0.023-121.559-0.017c-13.522,0.005-27.041,0.001-40.562-0.006
			c-19.113-0.008-121.499-0.027-133.902-0.043c-6.663-0.009-80.301-0.089-86.014-0.097c-4.819-0.007-9.646,0.042-14.473,0.047
			c-1.333,0.001-2.674-0.07-4.988-0.136c-3.929,0.3-30.17,0.267-37.4-0.125c-1.784,0.178-3.242,0.325-6.817,0.129
			c-2.226-0.122-7.106-0.083-9.47,0.054c-4.705,0.271-8.195,0.07-12.327-0.04c-1.592-0.042-62.223,0.168-69.133-0.016
			c-3.885-0.104-8.548,0.004-12.856,0.023c-10.673,0.046-21.343,0.122-32.022,0.138c-11.22,0.017-22.468,0.007-33.668-0.046
			c-6.534-0.031-158.066,0.287-165.246,0.315c-14.468,0.058-28.931,0.128-43.406,0.168c-9.604,0.028-19.229,0-28.837,0.022
			c-10.328,0.022-20.646,0.081-30.974,0.107c-2.557,0.006-415.335-0.83-415.916-0.856c-7.019-0.326-107.75,0.032-113.769,0.044
			c-5.801,0.013-11.594,0.049-17.648,0.077c-0.1-0.189,0.482-118.789,0.377-118.99c16.786-0.063,2039.367,0.279,2046.829,0.3
			c1.543,0.005-1.009,118.35,0.507,118.422C3.406,401.137,3.303,401.194,3.196,401.253z"/>
		<path fill-rule="evenodd" clip-rule="evenodd" fill="#C6C6C6" d="M-2046.624,1242.697c19.863,0.688,92.368,0.621,110.41,1.309
			c9.954,0.383,1016.54-0.338,1032.645-1.042c8.678-0.388,229.17,0.464,266.973,0.568c32.775,0.093,65.568-2.172,98.357-2.65
			c16.068-0.227,442.506,1.209,473.293-0.314c14.477-0.722,49.854,0.076,64.149,0.788c7.105,0.356,17.575,370.646-1.163,359.059
			c-49.686,2.688-2017.474,2.736-2046.987,0C-2049.453,1555-2048.938,1336-2046.624,1242.697z"/>
	</g>
	<g>
		<path fill-rule="evenodd" clip-rule="evenodd" fill="#53891F" d="M-756.16,1640.759c-0.669,1.367-3.801,2.682-5.31,2.223
			c-3.449-1.047-7.079-2.613-9.741-4.986c-14.025-12.526-13.622-36.08-2.595-51.035c2.543-3.453,4.094-6.318,2.619-10.83
			c-1.343-4.098-2.411-8.737-1.894-12.921c2.212-17.759,4.251-35.614,7.952-53.089c2.443-11.506,8.304-22.383,17.703-29.781
			c11.838-9.312,23.662-19.069,38.969-22.6c12.688-2.93,25.437-5.955,38.395-2.678c8.902,2.252,17.461,5.84,26.286,8.436
			c2.112,0.621,5.514,0.581,6.914-0.71c13.219-12.206,29.436-17.769,46.446-20.849c35.766-6.473,69.592-0.252,101.083,18.006
			c6.135,3.555,11.436,6.613,16.55-1.178c0.911-1.389,2.732-2.211,4.204-3.182c16.906-11.145,35.795-16.495,55.509-19.818
			c27.985-4.719,56.069-5.465,82.854,4.22c19.516,7.06,37.764,17.726,56.43,27.08c2.966,1.487,4.803,2.178,7.402-0.438
			c10.571-10.646,23.264-18.265,36.772-24.316c21.294-9.551,43.215-15.085,67.105-12.919c21.28,1.93,41.17,7.088,59.044,18.673
			c10.244,6.641,19.554,14.755,28.231,21.403c9.746-6.618,19.302-14.098,29.75-19.969c16.346-9.183,34.566-12.156,52.947-15.001
			c23.154-3.581,45.611-2.199,67.703,5.209c12.465,4.179,24.545,9.583,37.146,13.237c7.432,2.155,15.525,2.094,23.346,2.781
			c2.699,0.24,5.74,0.436,8.15-0.545c15.9-6.439,31.469-13.764,47.543-19.693c13.238-4.881,27.197-7.109,41.445-6.21
			c23.943,1.511,46.039,9.007,66.646,21.156c3.169,1.869,5.262,1.623,8.844,0.031c11.98-5.317,24.189-10.517,36.806-13.842
			c14.946-3.939,71.771,12.969,86.721,16.167c7.496,1.602-34.296,199.156-19.179,172.229
			C417.133,1626.43-755.458,1639.324-756.16,1640.759z"/>
		<path fill-rule="evenodd" clip-rule="evenodd" fill="#437419" d="M-735.116,1624.621c-2.73,1.6-4.702,2.753-7.527,4.409
			c-28.362-2.84-46.346-30.393-44.318-62.025c2.051-31.959,21.404-48.999,58.358-53.44c0.579-4.243,0.591-8.775,1.884-12.972
			c3.854-12.525,12.512-22.358,22.744-30.862c17.562-14.604,38.143-24.504,62.018-24.135c25.675,0.395,50.016,6.355,67.932,25.453
			c2.524,2.689,4.767,5.598,7.141,8.405c21.896-20.325,46.956-31.71,75.444-33.382c30.171-1.771,60.157,1.402,84.228,21.531
			c3.719,3.106,6.203,1.963,8.237-0.815c18.147-24.822,46.87-31.382,75.904-37.037c19.519-3.802,39.329-6.093,59.36-3.901
			c33.055,3.614,60.785,16.926,83.423,39.312c2.591,2.564,5.075,5.215,7.711,7.93c13.31-19.459,34.619-27.234,56.792-33.369
			c41.148-11.385,82.359-11.082,122.491,3.209c11.153,3.975,2.501,153.678-1.192,153.521
			C-7.571,1595.895-737.623,1621.599-735.116,1624.621z"/>
	</g>
	<g>
		<path fill-rule="evenodd" clip-rule="evenodd" fill="#53891F" d="M1010.559,1619.519c15.116,26.928-26.675-170.627-19.179-172.229
			c14.951-3.199,71.774-20.107,86.721-16.168c12.617,3.326,24.825,8.525,36.806,13.842c3.582,1.592,5.675,1.838,8.844-0.031
			c20.607-12.148,42.703-19.645,66.646-21.156c14.248-0.898,28.207,1.33,41.445,6.211c16.075,5.929,31.643,13.254,47.542,19.693
			c2.41,0.98,5.452,0.784,8.152,0.545c7.818-0.688,15.914-0.627,23.344-2.782c12.603-3.653,24.684-9.058,37.146-13.237
			c22.092-7.408,44.55-8.789,67.704-5.209c18.382,2.846,36.602,5.818,52.947,15.001c10.448,5.872,20.004,13.351,29.749,19.969
			c8.68-6.648,17.988-14.763,28.232-21.403c17.873-11.584,37.764-16.742,59.044-18.672c23.89-2.166,45.812,3.367,67.106,12.918
			c13.508,6.053,26.2,13.672,36.771,24.316c2.6,2.615,4.437,1.926,7.402,0.438c18.666-9.354,36.914-20.021,56.43-27.08
			c26.784-9.684,54.868-8.938,82.854-4.219c19.714,3.322,38.603,8.673,55.509,19.818c1.472,0.97,3.293,1.792,4.204,3.181
			c5.114,7.791,10.415,4.733,16.55,1.179c31.491-18.259,65.317-24.479,101.083-18.006c17.011,3.079,33.228,8.643,46.446,20.848
			c1.4,1.291,4.802,1.332,6.914,0.711c8.825-2.596,17.384-6.185,26.286-8.437c12.958-3.277,25.706-0.251,38.395,2.678
			c15.307,3.53,27.131,13.288,38.969,22.601c9.399,7.398,15.26,18.275,17.703,29.781c3.701,17.475,5.74,35.33,7.952,53.088
			c0.518,4.184-0.551,8.824-1.894,12.922c-1.475,4.511,0.076,7.377,2.619,10.829c11.027,14.955,11.431,38.509-2.595,51.036
			c-2.662,2.373-6.292,3.939-9.741,4.986c-1.509,0.459-4.641-0.855-5.31-2.224
			C2178.655,1633.821,1006.065,1620.927,1010.559,1619.519z"/>
		<path fill-rule="evenodd" clip-rule="evenodd" fill="#53891F" d="M434.542,1616.807c15.117,26.927-26.675-170.628-19.179-172.229
			c14.95-3.198,71.774-20.106,86.721-16.167c12.616,3.325,24.825,8.524,36.806,13.842c3.582,1.592,5.675,1.838,8.844-0.031
			c20.607-12.149,42.703-19.646,66.646-21.156c14.248-0.899,28.207,1.329,41.445,6.21c16.074,5.93,31.643,13.254,47.543,19.693
			c2.41,0.98,5.451,0.785,8.15,0.545c7.82-0.688,15.914-0.626,23.346-2.781c12.602-3.654,24.682-9.059,37.146-13.237
			c22.092-7.408,44.549-8.79,67.703-5.209c18.381,2.845,36.602,5.818,52.947,15.001c10.448,5.871,20.004,13.351,29.75,19.969
			c8.678-6.648,17.987-14.763,28.231-21.403c17.874-11.585,37.764-16.743,59.044-18.673c23.891-2.166,45.812,3.368,67.105,12.919
			c13.509,6.052,26.201,13.671,36.772,24.316c2.6,2.615,4.437,1.925,7.402,0.438c18.666-9.354,36.914-20.021,56.43-27.08
			c26.784-9.685,54.868-8.938,82.854-4.22c19.714,3.323,38.603,8.674,55.509,19.818c1.472,0.971,3.293,1.793,4.204,3.182
			c5.114,7.791,10.415,4.732,16.55,1.178c31.491-18.258,65.317-24.479,101.083-18.006c17.011,3.08,33.228,8.643,46.446,20.849
			c1.4,1.291,4.802,1.331,6.914,0.71c8.825-2.596,17.384-6.184,26.286-8.436c12.958-3.277,25.706-0.252,38.395,2.678
			c15.307,3.53,27.131,13.288,38.969,22.6c9.399,7.398,15.26,18.275,17.703,29.781c3.701,17.475,5.74,35.33,7.952,53.089
			c0.518,4.184-0.551,8.823-1.894,12.921c-1.475,4.512,0.076,7.377,2.619,10.83c11.027,14.955,11.431,38.509-2.595,51.035
			c-2.662,2.373-6.292,3.939-9.741,4.986c-1.509,0.459-4.641-0.855-5.31-2.223C1602.639,1631.109,430.048,1618.215,434.542,1616.807
			z"/>
		<path fill-rule="evenodd" clip-rule="evenodd" fill="#437419" d="M520.832,1644.342c-0.669,1.368-3.801,2.683-5.31,2.224
			c-3.449-1.047-7.079-2.613-9.741-4.986c-14.025-12.527-13.622-36.081-2.595-51.036c2.543-3.452,4.094-6.318,2.619-10.829
			c-1.343-4.098-2.411-8.738-1.894-12.922c2.212-17.758,4.251-35.613,7.952-53.088c2.443-11.506,8.304-22.383,17.703-29.781
			c11.838-9.312,23.662-19.07,38.969-22.601c12.688-2.929,25.437-5.955,38.395-2.678c8.902,2.252,17.461,5.841,26.286,8.437
			c2.112,0.621,5.514,0.58,6.914-0.711c13.219-12.205,29.436-17.769,46.446-20.848c35.766-6.473,69.592-0.253,101.083,18.006
			c6.135,3.555,11.436,6.612,16.55-1.179c0.911-1.389,2.732-2.211,4.204-3.181c16.906-11.146,35.795-16.496,55.509-19.818
			c27.985-4.719,56.069-5.465,82.854,4.219c19.516,7.06,37.765,17.727,56.43,27.08c2.966,1.488,4.802,2.178,7.402-0.438
			c10.571-10.645,23.264-18.264,36.772-24.316c21.294-9.551,43.215-15.084,67.105-12.918c21.28,1.93,41.171,7.088,59.044,18.672
			c10.244,6.641,19.553,14.755,28.232,21.403c9.745-6.618,19.301-14.097,29.749-19.969c16.346-9.183,34.565-12.155,52.947-15.001
			c23.154-3.58,45.612-2.199,67.704,5.209c12.463,4.18,24.544,9.584,37.146,13.237c7.43,2.155,15.525,2.094,23.344,2.782
			c2.7,0.239,5.742,0.436,8.152-0.545c15.899-6.439,31.467-13.765,47.542-19.693c13.238-4.881,27.197-7.109,41.446-6.211
			c23.941,1.512,46.039,9.008,66.645,21.156c3.17,1.869,5.262,1.623,8.846,0.031c11.98-5.316,24.188-10.516,36.805-13.842
			c14.946-3.939,30.22-1.346,45.17,1.854c7.496,1.602,7.256,213.471,22.372,186.543
			C1694.124,1630.013,521.534,1642.907,520.832,1644.342z"/>
		<path fill-rule="evenodd" clip-rule="evenodd" fill="#437419" d="M-102.151,1611.105c-2.73,1.6-4.702,2.753-7.527,4.409
			c-28.362-2.84-46.346-30.393-44.318-62.025c2.051-31.959,21.404-48.999,58.358-53.44c0.579-4.243,0.591-8.775,1.884-12.972
			c3.854-12.525,12.512-22.358,22.744-30.862c17.562-14.604,38.143-24.504,62.018-24.135c25.675,0.395,50.016,6.355,67.932,25.453
			c2.524,2.689,4.767,5.598,7.141,8.405c21.896-20.325,46.956-31.71,75.444-33.382c30.171-1.771,60.157,1.402,84.228,21.531
			c3.719,3.106,6.203,1.963,8.237-0.815c18.147-24.822,46.87-31.382,75.904-37.037c19.519-3.802,39.329-6.093,59.36-3.901
			c33.055,3.614,60.785,16.926,83.423,39.312c2.591,2.564,5.075,5.215,7.711,7.93c13.31-19.459,34.619-27.234,56.792-33.369
			c41.148-11.385,74.053,23.079,114.185,37.37c11.153,3.975,10.808,119.517,7.114,119.36
			C625.394,1582.379-104.658,1608.083-102.151,1611.105z"/>
		<path fill-rule="evenodd" clip-rule="evenodd" fill="#88A80D" d="M299.377,1628.106c-2.73,1.6-4.702,2.752-7.527,4.408
			c-28.362-2.84-46.346-30.393-44.318-62.025c2.051-31.959,21.404-48.998,58.358-53.439c0.579-4.244,0.591-8.775,1.884-12.973
			c3.854-12.525,12.512-22.357,22.744-30.861c17.562-14.604,38.143-24.504,62.018-24.135c25.675,0.395,50.016,6.355,67.932,25.453
			c2.524,2.689,4.767,5.598,7.141,8.404c21.896-20.324,46.956-31.709,75.444-33.381c30.171-1.771,60.157,1.402,84.228,21.531
			c3.719,3.105,6.203,1.963,8.237-0.816c18.147-24.822,46.87-31.381,75.904-37.037c19.519-3.801,39.329-6.092,59.36-3.9
			c33.055,3.613,60.785,16.926,83.423,39.312c2.591,2.564,5.075,5.215,7.711,7.93c13.31-19.459,34.619-27.234,56.792-33.369
			c41.148-11.385,91.656,15.369,114.185,37.369c37.472,37.921,10.808,119.518,7.114,119.361
			C1026.922,1599.38,296.87,1625.083,299.377,1628.106z"/>
		<path fill-rule="evenodd" clip-rule="evenodd" fill="#88A80D" d="M1645.521,1480.716c16.424-7.85,22.482,148.268-41.013,133.898
			c-45.661-10.34-243.619-33.205-238.353-37.677c-3.149-2.58-6.041-5.083-9.107-7.419c-21.538-16.422-25.686-36.546-10.833-53.977
			c12.547-14.717,30.879-23.9,52.208-29.031c21.213-5.109,40.756,3.918,59.15,13.677c11.754,6.232,11.709,6.28,14.471-3.337
			c12.065-42.206,48.022-69.127,111.701-59.892C1612.218,1441.083,1630.313,1453.646,1645.521,1480.716z"/>
		<path fill-rule="evenodd" clip-rule="evenodd" fill="#437419" d="M1543.939,1616.106c-2.73,1.6-4.702,2.753-7.527,4.408
			c-28.362-2.84-46.346-30.393-44.318-62.025c2.051-31.959,21.404-48.998,58.358-53.44c0.579-4.243,0.591-8.774,1.884-12.972
			c3.854-12.525,12.512-22.358,22.744-30.861c17.562-14.604,38.143-24.504,62.018-24.135c25.675,0.395,50.016,6.354,67.932,25.452
			c2.524,2.689,4.767,5.599,7.141,8.405c21.896-20.325,46.956-31.709,75.444-33.381c30.171-1.771,60.157,1.402,84.228,21.53
			c3.719,3.106,6.203,1.964,8.237-0.815c18.147-24.822,46.87-31.382,75.904-37.037c19.519-3.801,39.329-6.093,59.36-3.901
			c33.055,3.614,60.785,16.927,83.423,39.313c2.591,2.563,5.075,5.215,7.711,7.93c13.31-19.46,34.619-27.234,56.792-33.369
			c41.148-11.385-43.754,174.158-47.447,174.002C2102.738,1604.651,1541.433,1613.084,1543.939,1616.106z"/>
	</g>
</g>
<g id="Layer_3" display="none">
	<g display="inline">
		<g>
			<g>
				<path fill-rule="evenodd" clip-rule="evenodd" fill="#FFE20D" d="M225.883,1135.823c8.467,4.302,12.888,16.454,8.236,25.666
					c-1.071,2.122-4.17,4.157-6.576,4.488c-6.554,0.902-13.233,1.06-19.868,1.166c-10.307,0.165-20.618,0.044-31.484,0.044
					c-4.867-41.942-12.045-46.192-32.045-56.817c-24.753-13.15-41.5-3-62.841,6.125c-14.134,13.389-22.909,22.959-26.512,52.442
					c-22.343,0-44.599,0.407-66.831-0.122c-19.622-0.468-343.269,6.782-359.072,7.358c-8.974,0.326-22.977,0.361-31.944,0.907
					c4.118-1.962,0.256-29.836-0.573-27.188c-5.976-16.107-22.976-36.774-45.84-37.945c-15.504-0.649-40.335,3.277-51.11,16.945
					c-8.177,10.371-12.219,37.477-12.219,37.477c-0.837-3.031-56.879-12.442-56.726-12.481c-0.61-10.46-1.861-20.677-1.658-30.864
					c0.379-18.998,1.9-37.971,11.351-55.107c8.812-15.979,22.09-26.556,39.562-32.166c15.07-4.84,30.229-8.916,46.069-10.307
					c6.632-0.583,10.068-4.548,10.685-12.316c1.197-15.092,2.099-30.21,2.881-45.33c1.377-26.643,4.56-53.082,11.558-78.81
					c4.398-16.168,12.254-30.866,29.21-37.459c6.367-2.476,13.36-3.875,20.187-4.528c19.981-1.911,40.596-0.326,60.624-1.698
					c9.794-0.671,23.252-0.403,33.068-0.517c32.457-0.371,64.919-0.977,97.372-0.674c24.628,0.229,45.024-1.496,69.654-1.139
					c31.31,0.455,62.631,0.206,93.946,0.043c33.635-0.176,67.271-0.437,100.9-0.983c20.641-0.336,41.268-1.415,61.907-1.904
					c16.698-0.396,33.26,1.005,49.54,5.009c9.974,2.452,18.454,7.835,27.283,12.838c10.473,5.936,17.014,14.688,21.449,25.178
					c5.353,12.66,7.601,26.206,8.169,39.861c1.1,26.42,1.887,52.857,2.388,79.295c0.527,27.803,0.516,55.615,0.85,83.422
					c0.139,11.476,0.834,22.95,0.737,34.421C228.167,1125.157,226.77,1130.151,225.883,1135.823z"/>
				<path fill-rule="evenodd" clip-rule="evenodd" d="M55.048,1164.42c1.263-23.444,14.293-43.902,36.146-54.045
					c16.191-7.515,32.204-9.15,50.87-1.591c21,9,30.999,22.666,35.574,47.666c2.425,17,0.953,26.51-8.241,41.334
					c-11.243,15.336-18.611,18.726-36.366,24.639c-15.277,5.088-36.791,0.514-50.489-6.543
					C64.097,1206.378,56.48,1184.829,55.048,1164.42z"/>
				<path fill-rule="evenodd" clip-rule="evenodd" fill="#F4F4F2" d="M178.66,1167.698c0.015-8.391-2.597-22.578-7.337-32.126
					c3.4,0,14.355,0.048,17.959,0.048c10.802,0.001,23.522-0.141,34.321,0.027c11.289,0.176,18.301,15.785,13.793,26.225
					c-0.73,1.691-3.68,4.242-5.7,4.684c-3.695,0.805-7.568,1.023-11.372,1.062C208.387,1167.739,190.312,1167.698,178.66,1167.698z"
					/>
				<path fill-rule="evenodd" clip-rule="evenodd" fill="#FFA233" d="M223.813,1056.663c0,9.619,0,18.194,0,27.346
					c-7.706,0.359-15.436-0.103-23.161-0.14c-5.134-0.025-8.121-2.979-8.163-8.107c-0.035-4.396,0.376-9.099,2.005-13.088
					c0.936-2.29,4.515-4.42,7.207-4.895C208.655,1056.554,214.146,1056.663,223.813,1056.663z"/>
				<path fill-rule="evenodd" clip-rule="evenodd" fill="#AA0000" d="M224.474,1088.2c0,8.851,0,17.103,0,25.955
					c-7.83,0-17.218-0.628-24.912-0.999c-4.405-0.213-6.77-3.271-6.908-7.735c-0.092-2.979-0.375-6.026,0.108-8.93
					c0.647-3.896,3.096-6.742,7.209-7.198C207.231,1088.486,214.891,1088.644,224.474,1088.2z"/>
				<g>
					<path fill-rule="evenodd" clip-rule="evenodd" fill="#DCEBF4" d="M111.062,1004.968c0,6.667-3.597,8.689-9.299,9.028
						c-21.034,1.251-24.084,0.071-40.701,0.371c-35.662,0.643-51.332-0.019-85.666-1.012c-6.664-0.887-9.894-5.235-9.111-10.565
						c-1.184-33.762,0.569-61.352-0.561-95.115c-0.226-6.748,0.486-19.028-0.027-26c-0.56-7.588-0.56-11.594,9.36-11.594
						c52.095,0.634,68.5,1.396,120.672,0.642c12.666-0.183,12.666,1.05,13.333,9.579
						C110.876,925.655,109.227,959.056,111.062,1004.968z"/>
					<path fill-rule="evenodd" clip-rule="evenodd" fill="#DCEBF4" d="M203.896,1012.469c-25.465,0-50.123,0-77,0
						c-1.851-44.237-1.415-94.042-3.332-139.845c9.731,0,49.39,0.508,60.981,5.505c7.539,3.25,16.302,12.53,21.351,44.991
						c4.776,32.677,2.562,50.09,2.147,83.053C208.039,1006.479,208.15,1012.469,203.896,1012.469z"/>
				</g>
			</g>
			<path fill-rule="evenodd" clip-rule="evenodd" fill="#F4F4F2" d="M82.649,1164.765c0.686-12.764,7.78-23.901,19.678-29.424
				c8.815-4.09,17.532-4.98,27.694-0.865c11.433,4.9,16.877,12.34,19.367,25.951c1.321,9.254,0.519,14.432-4.487,22.502
				c-6.12,8.35-10.132,10.195-19.799,13.414c-8.314,2.77-20.029,0.28-27.486-3.562C87.575,1187.608,83.428,1175.876,82.649,1164.765
				z"/>
		</g>
		<path fill-rule="evenodd" clip-rule="evenodd" d="M227.393,1042.667c-4.162,0.02-20.643,0.73-24.422,0.746
			c-2.085,0.009-213.08,2.271-216.458,2.331c-1.819,0.033-48.036,0.492-55.96,0.573c-6.869,0.07-13.748,0.221-20.622,0.311
			c-3.368,0.043-95.382,1.104-101.84,1.226c-3.035,0.057-7.573,0.206-10.568,0.213c-1.488,0.004-3.105-13.044,0.796-12.684
			c10.421-0.205,422.894-4.58,429.074-4.55C227.397,1032.403,228.086,1039.433,227.393,1042.667z"/>
		<path fill-rule="evenodd" clip-rule="evenodd" d="M187.935,1071.947c-4.162,0.02-20.643,0.73-24.422,0.746
			c-2.085,0.009-171.132-0.056-174.51,0.005c-1.819,0.033-48.036,0.492-55.96,0.573c-6.869,0.07-13.748,0.221-20.622,0.311
			c-3.368,0.043-95.382,1.104-101.84,1.226c-3.035,0.057-7.573,0.206-10.568,0.213c-1.488,0.004-7.833-8.617,0.796-12.684
			c10.421-0.205,380.945-2.254,387.126-2.224C187.939,1061.684,188.628,1068.713,187.935,1071.947z"/>
	</g>
</g>
<g id="Layer_2" display="none">
	<path display="inline" opacity="0.2" fill-rule="evenodd" clip-rule="evenodd" fill="#777777" d="M0.513,0h-2047.725v857.696
		c1.377,6.206,1.628,12.534,1.631,18.869c0.001,3.271-0.572,6.492-1.631,9.511v137.049c7.405,153.295,11.559,306.77,0,459.807
		v52.877h441.932c21.104-1.239,42.218-2.223,63.324-2.975c86.205-3.068,172.464-1.69,258.673-4.701
		c78.229-2.732,156.325-5.139,234.601-5.801c58.399-0.494,116.979-0.934,175.199,4.388c22.709,2.076,45.553,4.712,68.002,9.089
		H0.513V806.477c-1.644-22.224-1.641-44.396,0-66.678V0z"/>
</g>
</svg>
