<?xml version="1.0" encoding="utf-8"?>
<!-- Generator: Adobe Illustrator 16.0.4, SVG Export Plug-In . SVG Version: 6.00 Build 0)  -->
<!DOCTYPE svg PUBLIC "-//W3C//DTD SVG 1.0//EN" "http://www.w3.org/TR/2001/REC-SVG-20010904/DTD/svg10.dtd">
<svg version="1.0" xmlns="http://www.w3.org/2000/svg" xmlns:xlink="http://www.w3.org/1999/xlink" x="0px" y="0px" width="2048px"
	 height="1536px" viewBox="0 0 2048 1536" enable-background="new 0 0 2048 1536" xml:space="preserve">
<g id="Layer_1">
	<g>
		<rect x="1974.198" y="-58.839" fill-rule="evenodd" clip-rule="evenodd" fill="#E9F8FF" width="2177.755" height="453.917"/>
	</g>
	<g>
		<g>
			<path fill-rule="evenodd" clip-rule="evenodd" fill="#88A80D" d="M1877.438,387.529c-2.73,1.6-4.702,2.753-7.527,4.409
				c-28.362-2.84-46.346-30.393-44.318-62.025c2.051-31.959,21.404-48.999,58.358-53.44c0.579-4.243,0.591-8.775,1.884-12.972
				c3.854-12.525,12.512-22.358,22.744-30.862c17.562-14.604,38.143-24.504,62.018-24.135c25.675,0.395,50.016,6.355,67.932,25.453
				c2.524,2.689,4.767,5.598,7.141,8.405c21.896-20.325,46.956-31.71,75.444-33.382c30.171-1.771,60.157,1.402,84.228,21.531
				c3.719,3.106,6.203,1.963,8.237-0.815c18.147-24.822,46.87-31.382,75.904-37.037c19.519-3.802,39.329-6.093,59.36-3.901
				c33.055,3.614,60.785,16.926,83.423,39.312c2.591,2.564,5.075,5.215,7.711,7.93c13.31-19.459,34.619-27.234,56.792-33.369
				c41.148-11.385,74.053,23.079,114.185,37.37c11.153,3.975,10.808,119.517,7.114,119.36
				C2604.983,358.803,1874.932,384.507,1877.438,387.529z"/>
		</g>
	</g>
	<g>
		<path fill-rule="evenodd" clip-rule="evenodd" fill="#C6C6C6" d="M2048.43,400.697c-4.347,0.026-8.692,0.069-13.042,0.075
			c-7.236,0.01-14.473-0.01-21.713-0.006c-29.359,0.014-160.553,0.101-173.594,0.149c-11.25,0.041-22.527,0.028-33.789,0.061
			c-16.451,0.046-32.891,0.134-49.346,0.159c-15.642,0.023-37.295-0.018-52.944-0.014c-16.233,0.004-26.467,0.026-42.701,0.043
			c-14.599,0.016-145.899-0.137-162.37-0.149c-7.596-0.005-15.191-0.036-22.779-0.023c-8.66,0.015-17.307,0.081-25.968,0.097
			c-6.049,0.01-12.105-0.037-18.162-0.04c-6.751-0.005-106.524-0.022-121.559-0.017c-13.522,0.005-27.041,0-40.562-0.006
			c-19.113-0.009-121.499-0.027-133.902-0.043c-6.663-0.01-80.301-0.09-86.014-0.098c-4.819-0.007-9.646,0.043-14.473,0.047
			c-1.333,0.002-2.674-0.07-4.988-0.137c-3.929,0.301-30.17,0.268-37.4-0.125c-1.784,0.178-3.242,0.324-6.817,0.129
			c-2.226-0.121-7.106-0.083-9.47,0.054c-4.705,0.271-8.195,0.07-12.327-0.04c-1.592-0.041-62.223,0.169-69.133-0.016
			c-3.885-0.104-8.548,0.005-12.856,0.023c-10.673,0.047-21.343,0.121-32.022,0.138c-11.22,0.017-22.468,0.007-33.668-0.046
			c-6.534-0.031-158.066,0.286-165.246,0.314c-14.468,0.058-28.931,0.128-43.406,0.168c-9.604,0.028-19.229,0.001-28.837,0.022
			c-10.328,0.022-20.646,0.081-30.974,0.107c-2.557,0.007-415.335-0.83-415.916-0.856c-7.019-0.326-107.75,0.031-113.769,0.045
			c-5.801,0.012-11.594,0.049-17.648,0.076c-0.1-0.188,0.482-118.789,0.377-118.99c16.786-0.063,2039.367,0.279,2046.829,0.3
			c1.543,0.005-1.009,118.35,0.507,118.422C2048.64,400.581,2048.536,400.639,2048.43,400.697z"/>
		<path fill-rule="evenodd" clip-rule="evenodd" fill="#C6C6C6" d="M-1.391,1241.142c19.863,0.688,92.368,0.621,110.41,1.309
			c9.954,0.383,1016.54-0.338,1032.645-1.042c8.678-0.388,229.17,0.464,266.973,0.568c32.775,0.093,65.568-2.172,98.357-2.65
			c16.068-0.227,456.328,3.265,487.115,1.741c14.477-0.722,35.568-0.067,49.863,0.645c7.105,0.356,18.04,368.734-0.699,357.146
			c-49.686,2.688-2017.474,2.736-2046.987,0C-4.219,1553.444-3.705,1334.444-1.391,1241.142z"/>
	</g>
	<g>
		<g>
			<path fill-rule="evenodd" clip-rule="evenodd" fill="#515151" d="M2064.759,398.052c0,280.941,0,561.373,0,842.264
				c-743.234,0-1486.16,0-2229.649,0c0-375.652,0.172-651.885,0.172-842.752C578.174,397.563,1321.088,398.052,2064.759,398.052z"/>
			<g>
				<g display="none">
					<path display="inline" fill-rule="evenodd" clip-rule="evenodd" fill="#FFFFFF" d="M1009.144,535.442
						c-9.045,0-14.502-0.049-23.699,0c-13.666,0.073-26.848-0.459-40.5,0c-23.881,0.805-48.874-0.758-72.751,0
						c-16.77,0.531-33.134-0.134-49.916,0c-22.701,0.183-54.798-0.016-77.499,0.152c-2.188,0.085-2.188,0.085-2.163-2
						c-0.287-3.949-0.056-14.096-0.255-17.793c-0.035-14.5-0.001-33,0.496-45.062c87.938-0.768,177.227,0.775,266.287,0
						C1009.833,491.761,1009.529,513.261,1009.144,535.442z"/>
					<path display="inline" fill-rule="evenodd" clip-rule="evenodd" fill="#FFFFFF" d="M1010.691,596.548
						c0,10.203,0.037,21.001-0.008,31.803c-0.037,8.858-0.264,17.718-0.221,26.576c0.022,5.363-1.411,6.633-6.296,6.537
						c-11.919-0.234-23.849-0.059-35.771-0.092c-22.068-0.062-44.136-0.125-66.203-0.238c-14.689-0.075-27.897,0.582-42.583,0.356
						c-19.004-0.288-38,0.171-57-0.021c-18.733-0.188-38.952-0.18-58.499-0.18c0-20.823,0-42.868,0-64.742
						C831.849,596.548,920.524,596.548,1010.691,596.548z"/>
					<path display="inline" fill-rule="evenodd" clip-rule="evenodd" fill="#FFFFFF" d="M1009.052,793.509
						c-9.085,0-18.036,0.215-27.274,0.264c-13.721,0.074-27.458-0.08-41.168,0.383c-23.982,0.809-48.222-1.354-72.199-0.592
						c-16.841,0.535-33.701,0.438-50.555,0.57c-22.798,0.186-44.017-0.875-66.813-0.707c-7.391,0.053-7.779-0.314-8.105-8.59
						c-0.148-3.725-0.117-7.457-0.317-11.174c-0.634-11.645,0.326-24.209,0.248-36.494c-0.018-2.809-1.167-9.742,4.242-8.564
						c88.306-0.772,172.504,0.977,261.942,0.195C1010.412,749.077,1007.643,772.546,1009.052,793.509z"/>
					<path display="inline" fill-rule="evenodd" clip-rule="evenodd" fill="#FFFFFF" d="M1002.276,858.36
						c4.175,0.154,6.994,0.9,6.87,5.9c-0.224,9.02,0.034,19.123-0.003,28.041c-0.038,8.959-0.12,15.439-0.077,24.398
						c0.024,5.424-1.412,6.709-6.306,6.611c-11.939-0.236-23.208,0.775-35.151,0.74c-22.105-0.062-44.514,0.592-66.619,0.479
						c-14.716-0.076-29.431-0.152-44.141-0.381c-19.035-0.291-38.066-0.883-57.1-1.076c-18.766-0.189-37.534-0.043-57.119-0.043
						c0-20.459,0-39.688,0-61.102c0-3.568,1.113-2.893,3.646-2.834C834.168,859.095,911.951,858.36,1002.276,858.36z"/>
					<path display="inline" fill-rule="evenodd" clip-rule="evenodd" fill="#FFFFFF" d="M742.804,1112.413
						c9.084,0.002,18.036-0.213,27.274-0.26c13.72-0.07,27.458,0.086,41.168-0.375c23.982-0.805,48.221,1.363,72.199,0.605
						c16.841-0.531,33.701-0.432,50.554-0.561c22.798-0.184,44.017,0.883,66.813,0.717c7.393-0.053,7.78,0.316,8.104,8.592
						c0.146,3.725,0.116,7.457,0.317,11.176c0.631,11.645-0.332,24.207-0.256,36.492c0.018,2.809,1.165,9.742-4.245,8.564
						c-88.306,0.756-172.503-1.008-261.941-0.242C741.435,1156.845,744.208,1133.376,742.804,1112.413z"/>
					<path display="inline" fill-rule="evenodd" clip-rule="evenodd" fill="#FFFFFF" d="M750.59,1050.563
						c-4.175-0.156-6.993-0.902-6.868-5.902c0.225-9.02-0.031-19.123,0.008-28.041c0.039-8.959,0.033-22.9-0.008-31.859
						c8.887-0.363,29.604,0.08,41.547,0.117c22.106,0.066,44.513-0.586,66.62-0.467c14.715,0.08,29.431,0.156,44.14,0.389
						c19.035,0.295,38.067,0.889,57.099,1.086c18.768,0.193,37.534,0.049,57.121,0.053c-0.005,20.459-0.007,39.688-0.012,61.104
						c0,3.566-1.113,2.891-3.646,2.832C918.698,1049.858,840.916,1050.579,750.59,1050.563z"/>
				</g>
				<g>
					<path fill-rule="evenodd" clip-rule="evenodd" fill="#F2F2F2" d="M1368.017,846.989c-19.535,0.307-29.453-0.121-50.633-0.441
						c-21.778-0.031-30.155-0.982-47.166-1.076c-2.707-0.014-10.996,0.236-13.719-0.041c-3.288-0.338-1.373-1.371-2.07-4.297
						c-0.468-3.785,0.285-15.453,0.307-23.443c-0.162-1.223-0.592-15.641-0.021-22.777c0.282-3.52-0.256-3.914,3.962-3.842
						c16.75,0.285,36.715,0.973,51.465,1.061c19.162,0.117,38.323-0.094,57.482-0.361c3.239-0.047,3.56,1.568,3.518,3.715
						c-0.169,8.539-0.507,17.074-0.63,25.615c-0.096,6.668,0.031,22.533-0.105,24.264
						C1370.267,847.095,1368.017,846.94,1368.017,846.989z"/>
					<path fill-rule="evenodd" clip-rule="evenodd" fill="#FFFFFF" d="M1544.61,790.231c19.098-0.113,38.126-0.531,56.167-0.607
						c13.974-0.057,25.65-0.195,40.333-0.002c6.794-0.254,13.334-0.057,20.833,0.777c0,19.01,0,37.211,0,56.896
						c-16.182,0-31.657-0.189-47.132,0.047c-17.112,0.258-30.923-0.463-48.034,0.055c-4.864,0.145-13.031-0.844-17.876-0.379
						c-3.26,0.311-4.316-0.951-4.291-4.43C1544.728,826.032,1544.61,808.81,1544.61,790.231z"/>
					<path fill-rule="evenodd" clip-rule="evenodd" fill="#FFFFFF" d="M1828.901,790.493c20.098-0.119,33.501,0.201,50.542,0.131
						c13.974-0.057,26.65-0.195,41.333-0.002c6.794-0.254,13.334-0.057,20.833,0.775c0,19.012,0,37.213,0,56.898
						c-16.182,0-31.657-0.189-47.132,0.047c-17.112,0.258-30.923-0.463-48.034,0.055c-4.864,0.145-13.031-0.844-17.876-0.379
						c-3.26,0.311-4.316-0.951-4.291-4.43c0.104-14.715-0.131-34.326,0.268-50.701
						C1824.594,790.839,1826.37,790.466,1828.901,790.493z"/>
					<path fill-rule="evenodd" clip-rule="evenodd" fill="#FFFFFF" d="M244.7,840.782c-19.098,0.113-37.126,0.531-55.167,0.605
						c-13.974,0.059-26.65,0.197-41.333,0.002c-6.794,0.254-13.334,0.057-20.833-0.775c0-19.01,0-37.211,0-56.896
						c16.182,0,31.657,0.189,47.132-0.047c17.112-0.258,30.923,0.463,48.034-0.055c4.864-0.145,13.031,0.844,17.876,0.379
						c3.26-0.311,4.316,0.951,4.291,4.43C244.583,804.981,244.7,822.204,244.7,840.782z"/>
					<path fill-rule="evenodd" clip-rule="evenodd" fill="#FFFFFF" d="M411.659,784.575c19.098-0.113,32.501,0.205,50.542,0.131
						c13.974-0.057,26.65-0.195,41.333-0.002c6.794-0.254,13.334-0.057,20.833,0.775c0,19.012,0,37.213,0,56.898
						c-16.182,0-31.657-0.189-47.132,0.047c-17.112,0.258-30.923-0.463-48.034,0.055c-19.959,0.02-22.173-0.48-22.173-3.182
						c0.104-14.715-0.125-35.953,0.273-52.328C407.352,784.921,409.128,784.548,411.659,784.575z"/>
				</g>
				<path fill-rule="evenodd" clip-rule="evenodd" fill="#FFFFFF" d="M696.39,844.388c-9.326,0.34-7.074-1.869-7.37-8.867
					c-0.339-11.496-0.563-31.482-0.331-41.875c0.04-4.453-0.256-6.371,5.202-6.932c15.699-1.611,33.497-0.391,53.374-0.621
					c8.996-0.104,13.121-0.152,22.746-0.209c5.129-0.029,22.13-0.248,27.373-0.373c10.925,0.621,8.374-0.098,8.968,19.812
					c0.205,6.883,0.479,23.586-0.008,30.459c-0.693,9.871,0.746,7.551-15.079,7.736c-20.832,0.078-45.33,0.525-51.457,0.52
					C735.915,843.61,713.562,844.421,696.39,844.388z"/>
				<path fill-rule="evenodd" clip-rule="evenodd" fill="#FFFFFF" d="M1086.909,789.261c0,16.045,0.066,30.852,0.011,46.5
					c-0.031,9.121,0.855,7.686-6.024,7.936c-33.47,1.203-65.165,0.535-107.799,0.535c-6.627,1.279-5.302-2.221-5.302-5.471
					c-0.45-13.51,0-23.016,0.037-37.418c0.389-12.59-1.982-15.223,4.822-15.578c14.359-0.75,30.307,0,43.297,0
					c21.648,0,46.252,0,65.828,0C1086.942,785.765,1086.942,785.765,1086.909,789.261z"/>
			</g>
		</g>
		<rect x="41.412" y="-60.02" fill-rule="evenodd" clip-rule="evenodd" fill="#E9F8FF" width="2177.755" height="453.917"/>
		<g>
			<g>
				<path fill-rule="evenodd" clip-rule="evenodd" fill="#FFFFFF" d="M1019.599,87.683c-1.565,0.916-21.083-0.949-22.702,0
					c-16.256-1.628-26.562-17.419-25.4-35.548c1.176-18.316,12.268-28.083,33.447-30.628c0.332-2.432,0.338-5.03,1.08-7.435
					c2.209-7.179,7.17-12.814,13.035-17.688c10.064-8.37,21.859-14.043,35.543-13.832c14.715,0.226,28.665,3.643,38.934,14.588
					c1.446,1.541,2.731,3.208,4.092,4.817c12.549-11.648,26.912-18.173,43.238-19.132c17.293-1.015,24.718,3.143,38.514,14.679
					c2.131,1.78,52.561,66.216,12.158,75.979C1184.241,75.247,1018.162,85.95,1019.599,87.683z"/>
				<path fill-rule="evenodd" clip-rule="evenodd" fill="#FFFFFF" d="M1173.261,9.539c1.565-0.917,23.804,6.877,25.423,5.928
					c16.255,1.627,26.562,17.419,25.4,35.548c-1.176,18.316-12.268,28.082-33.447,30.627c-0.332,2.433-0.338,5.029-1.08,7.435
					c-2.209,7.179-7.17,12.814-13.035,17.688c-10.064,8.369-21.859,14.044-35.543,13.832c-14.715-0.226-28.665-3.643-38.934-14.588
					c-1.446-1.541-2.731-3.207-4.092-4.816c-12.55,11.648-26.912,18.174-43.239,19.131c-17.292,1.016-47.903-11.926-49.433-37.955
					c-2.131-1.779,30.324-39.773,22.937-59.849C1025.626,15.476,1166.383-4.126,1173.261,9.539z"/>
			</g>
			<g>
				<path fill-rule="evenodd" clip-rule="evenodd" fill="#FFFFFF" d="M342.695,87.583c-1.033,0.605-13.926-0.627-14.995,0
					c-10.737-1.074-17.546-11.506-16.778-23.48c0.777-12.099,8.104-18.55,22.094-20.231c0.219-1.606,0.224-3.322,0.713-4.911
					c1.459-4.742,4.736-8.464,8.61-11.684c6.649-5.528,14.44-9.276,23.478-9.137c9.721,0.149,18.936,2.406,25.718,9.636
					c0.956,1.018,1.804,2.119,2.703,3.182c8.29-7.694,17.776-12.004,28.562-12.638c11.422-0.67,22.773,0.531,31.886,8.151
					c1.408,1.176,2.349,0.743,3.118-0.309c6.871-9.397,17.744-11.88,28.736-14.021c7.389-1.439,14.889-2.307,22.472-1.477
					c12.514,1.368,23.012,6.407,31.581,14.882c0.981,0.971,22.43,43.15-4.259,49.599C531.514,76.312,341.747,86.439,342.695,87.583z
					"/>
				<path fill-rule="evenodd" clip-rule="evenodd" fill="#FFFFFF" d="M536.753,31.424c1.034-0.605,15.724,4.543,16.793,3.916
					c10.737,1.075,17.545,11.506,16.778,23.482c-0.777,12.098-8.104,18.549-22.094,20.23c-0.219,1.606-0.224,3.322-0.713,4.911
					c-1.459,4.741-4.736,8.464-8.61,11.683c-6.649,5.529-14.44,9.277-23.478,9.137c-9.721-0.148-18.936-2.406-25.718-9.635
					c-0.956-1.02-1.805-2.119-2.703-3.182c-8.29,7.693-17.776,12.004-28.562,12.637c-11.422,0.67-22.773-0.531-31.886-8.151
					c-1.408-1.176-2.349-0.743-3.118,0.31c-6.871,9.396-17.744,11.879-28.736,14.021c-7.389,1.438-27.402,0.938-34.985,0.108
					c-17.026-9.055-15.442-18.342-24.013-26.816c-0.98-0.971-1.922-1.974-2.919-3.002c-21.843-13.253-9.953-4.021-14.833-17.281
					C316.245,59.138,532.21,22.397,536.753,31.424z"/>
			</g>
			<g>
				<path fill-rule="evenodd" clip-rule="evenodd" fill="#FFFFFF" d="M1755.172,104.256c-1.211,0.71-16.327-0.735-17.581,0
					c-12.589-1.261-20.571-13.49-19.672-27.53c0.912-14.186,9.501-21.749,25.904-23.721c0.257-1.883,0.262-3.895,0.836-5.757
					c1.711-5.56,5.553-9.924,10.096-13.699c7.796-6.482,16.931-10.876,27.525-10.712c11.397,0.175,22.201,2.821,30.153,11.297
					c1.121,1.194,2.115,2.485,3.169,3.731c9.721-9.021,20.843-14.075,33.487-14.817c13.392-0.786,26.701,0.623,37.385,9.557
					c1.651,1.378,2.754,0.871,3.657-0.362c8.054-11.018,20.803-13.929,33.689-16.44c8.664-1.687,17.457-2.704,26.349-1.731
					c14.672,1.604,26.98,7.512,37.028,17.449c1.149,1.139,26.296,50.591-4.994,58.153
					C1976.555,91.04,1754.061,102.915,1755.172,104.256z"/>
				<path fill-rule="evenodd" clip-rule="evenodd" fill="#FFFFFF" d="M1982.696,38.411c1.212-0.71,18.435,5.326,19.689,4.591
					c12.589,1.26,20.57,13.491,19.671,27.53c-0.909,14.186-9.501,21.749-25.903,23.721c-0.258,1.883-0.262,3.895-0.836,5.758
					c-1.712,5.56-5.554,9.924-10.095,13.697c-7.795,6.482-16.93,10.877-27.528,10.713c-11.395-0.175-22.198-2.82-30.151-11.297
					c-1.12-1.195-2.116-2.484-3.169-3.73c-9.719,9.021-20.843,14.074-33.486,14.816c-13.393,0.786-26.702-0.623-37.386-9.557
					c-1.651-1.379-2.754-0.872-3.656,0.361c-8.056,11.018-20.804,13.93-33.692,16.439c-8.662,1.688-32.128,1.101-41.019,0.128
					c-19.963-10.618-18.105-21.505-28.153-31.441c-1.15-1.139-2.254-2.314-3.423-3.521c-25.609-15.538-11.669-4.714-17.391-20.262
					C1724.16,70.903,1977.37,27.828,1982.696,38.411z"/>
			</g>
		</g>
		<g>
			<path fill-rule="evenodd" clip-rule="evenodd" fill="#437419" d="M-572.981,369.566c-2.73,1.6-4.702,2.753-7.527,4.409
				c-28.362-2.84-46.346-30.393-44.318-62.025c2.051-31.959,21.404-48.998,58.358-53.441c0.579-4.242,0.591-8.774,1.884-12.971
				c3.854-12.525,12.512-22.359,22.744-30.861c17.562-14.604,38.143-24.505,62.018-24.136c25.675,0.396,50.016,6.354,67.932,25.452
				c2.524,2.689,4.767,5.6,7.141,8.406c21.896-20.326,46.956-31.71,75.444-33.381c30.171-1.771,60.157,1.401,84.228,21.529
				c3.719,3.107,6.203,1.965,8.237-0.814c18.147-24.822,46.87-31.383,75.904-37.037c19.519-3.802,39.329-6.094,59.36-3.902
				c33.055,3.615,60.785,16.928,83.423,39.314c2.591,2.562,5.075,5.214,7.711,7.929c13.31-19.46,34.619-27.234,56.792-33.369
				C87.497,173.284,2.595,358.827-1.099,358.671C-14.183,358.112-575.488,366.544-572.981,369.566z"/>
		</g>
		<g>
			<path fill-rule="evenodd" clip-rule="evenodd" fill="#53891F" d="M1044.362,372.763c15.116,26.927-26.675-170.628-19.179-172.23
				c14.951-3.197,71.774-20.105,86.721-16.166c12.617,3.325,24.825,8.524,36.806,13.842c3.582,1.592,5.675,1.838,8.844-0.031
				c20.607-12.149,42.703-19.646,66.646-21.156c14.248-0.9,28.207,1.328,41.445,6.21c16.075,5.929,31.643,13.253,47.542,19.693
				c2.41,0.979,5.452,0.784,8.152,0.545c7.818-0.688,15.914-0.626,23.344-2.782c12.603-3.653,24.684-9.059,37.146-13.236
				c22.092-7.408,44.55-8.791,67.704-5.209c18.382,2.844,36.602,5.818,52.947,15c10.448,5.871,20.004,13.352,29.749,19.969
				c8.68-6.648,17.988-14.762,28.232-21.402c17.873-11.585,37.764-16.744,59.044-18.674c23.89-2.165,45.812,3.369,67.106,12.92
				c13.508,6.052,26.2,13.671,36.771,24.316c2.6,2.615,4.437,1.924,7.402,0.438c18.666-9.354,36.914-20.021,56.43-27.08
				c26.784-9.685,54.868-8.939,82.854-4.22c19.714,3.323,38.603,8.673,55.509,19.817c1.472,0.971,3.293,1.793,4.204,3.182
				c5.114,7.791,10.415,4.733,16.55,1.179c31.491-18.259,65.317-24.479,101.083-18.006c17.011,3.079,33.228,8.643,46.446,20.849
				c1.4,1.291,4.802,1.331,6.914,0.709c8.825-2.596,17.383-6.184,26.286-8.436c12.958-3.277,25.706-0.251,38.394,2.678
				c15.308,3.531,27.132,13.289,38.969,22.6c9.4,7.398,15.261,18.275,17.704,29.781c3.701,17.476,5.74,35.33,7.952,53.09
				c0.518,4.184-0.551,8.823-1.894,12.921c-1.475,4.511,0.076,7.377,2.619,10.829c11.027,14.955,11.431,38.51-2.595,51.035
				c-2.662,2.374-6.292,3.939-9.741,4.986c-1.509,0.46-4.641-0.855-5.31-2.223C2212.459,387.065,1039.869,374.171,1044.362,372.763z
				"/>
			<path fill-rule="evenodd" clip-rule="evenodd" fill="#88A80D" d="M468.346,370.05c15.117,26.927-26.675-170.627-19.179-172.229
				c14.95-3.198,71.774-20.106,86.721-16.167c12.616,3.326,24.825,8.525,36.806,13.842c3.582,1.592,5.675,1.838,8.844-0.031
				c20.607-12.148,42.703-19.646,66.646-21.156c14.248-0.899,28.207,1.329,41.445,6.211c16.074,5.928,31.643,13.253,47.543,19.693
				c2.41,0.979,5.451,0.783,8.15,0.545c7.82-0.689,15.914-0.627,23.346-2.783c12.602-3.652,24.682-9.058,37.146-13.236
				c22.092-7.408,44.549-8.79,67.703-5.209c18.381,2.845,36.602,5.818,52.947,15c10.448,5.872,20.004,13.352,29.75,19.969
				c8.678-6.648,17.987-14.762,28.231-21.402c17.874-11.584,37.764-16.743,59.044-18.673c23.891-2.165,45.812,3.368,67.105,12.919
				c13.509,6.053,26.201,13.672,36.772,24.316c2.6,2.615,4.437,1.925,7.402,0.438c18.666-9.354,36.914-20.021,56.43-27.08
				c26.784-9.684,54.868-8.938,82.854-4.219c19.714,3.322,38.603,8.672,55.509,19.817c1.472,0.97,3.293,1.792,4.204,3.181
				c5.114,7.791,10.415,4.734,16.55,1.18c31.491-18.26,65.317-24.479,101.083-18.006c17.011,3.078,33.228,8.643,46.446,20.848
				c1.4,1.291,4.802,1.332,6.914,0.71c8.825-2.596,17.384-6.185,26.286-8.437c12.958-3.277,25.706-0.25,38.395,2.678
				c15.307,3.531,27.131,13.289,38.969,22.601c9.399,7.398,15.26,18.275,17.703,29.781c3.701,17.476,5.74,35.33,7.952,53.089
				c0.518,4.184-0.551,8.824-1.894,12.922c-1.475,4.51,0.076,7.377,2.619,10.828c11.027,14.955,11.431,38.51-2.595,51.036
				c-2.662,2.374-6.292,3.939-9.741,4.986c-1.509,0.46-4.641-0.855-5.31-2.224C1636.442,384.353,463.852,371.458,468.346,370.05z"/>
			<path fill-rule="evenodd" clip-rule="evenodd" fill="#437419" d="M554.636,397.585c-0.669,1.368-3.801,2.683-5.31,2.224
				c-3.449-1.047-7.079-2.613-9.741-4.986c-14.025-12.526-13.622-36.081-2.595-51.036c2.543-3.452,4.094-6.318,2.619-10.829
				c-1.343-4.098-2.411-8.737-1.894-12.921c2.212-17.76,4.251-35.614,7.952-53.09c2.443-11.506,8.304-22.383,17.703-29.781
				c11.838-9.311,23.662-19.068,38.969-22.6c12.688-2.929,25.437-5.955,38.395-2.678c8.902,2.252,17.461,5.84,26.286,8.436
				c2.112,0.622,5.514,0.582,6.914-0.709c13.219-12.206,29.436-17.77,46.446-20.849c35.766-6.474,69.592-0.253,101.083,18.006
				c6.135,3.555,11.436,6.612,16.55-1.179c0.911-1.389,2.732-2.211,4.204-3.182c16.906-11.145,35.795-16.494,55.509-19.817
				c27.985-4.72,56.069-5.465,82.854,4.22c19.516,7.059,37.765,17.726,56.43,27.08c2.966,1.486,4.802,2.178,7.402-0.438
				c10.571-10.646,23.264-18.265,36.772-24.316c21.294-9.551,43.215-15.085,67.105-12.92c21.28,1.93,41.171,7.089,59.044,18.674
				c10.244,6.641,19.553,14.754,28.232,21.402c9.745-6.617,19.301-14.098,29.749-19.969c16.346-9.182,34.565-12.156,52.947-15
				c23.154-3.582,45.612-2.199,67.704,5.209c12.463,4.178,24.544,9.583,37.146,13.236c7.43,2.156,15.525,2.094,23.344,2.782
				c2.7,0.239,5.742,0.435,8.152-0.545c15.899-6.44,31.467-13.765,47.542-19.693c13.238-4.882,27.197-7.11,41.446-6.21
				c23.941,1.51,46.039,9.007,66.645,21.156c3.17,1.869,5.262,1.623,8.846,0.031c11.98-5.317,24.188-10.517,36.805-13.842
				c14.946-3.939,30.22-1.346,45.17,1.852c7.496,1.603,7.256,213.472,22.372,186.545
				C1727.928,383.257,555.338,396.15,554.636,397.585z"/>
			<path fill-rule="evenodd" clip-rule="evenodd" fill="#437419" d="M-68.348,364.349c-2.73,1.6-4.702,2.753-7.527,4.409
				c-28.362-2.84-46.346-30.393-44.318-62.025c2.051-31.959,21.404-48.999,58.358-53.44c0.579-4.243,0.591-8.775,1.884-12.972
				c3.854-12.525,12.512-22.358,22.744-30.862c17.562-14.604,38.143-24.504,62.018-24.135c25.675,0.395,50.016,6.355,67.932,25.453
				c2.524,2.689,4.767,5.598,7.141,8.405c21.896-20.325,46.956-31.71,75.444-33.382c30.171-1.771,60.157,1.402,84.228,21.531
				c3.719,3.106,6.203,1.963,8.237-0.815c18.147-24.822,46.87-31.382,75.904-37.037c19.519-3.802,39.329-6.093,59.36-3.901
				c33.055,3.614,60.785,16.926,83.423,39.312c2.591,2.564,5.075,5.215,7.711,7.93c13.31-19.459,34.619-27.234,56.792-33.369
				c41.148-11.385,74.053,23.079,114.185,37.37c11.153,3.975,10.808,119.517,7.114,119.36
				C659.197,335.622-70.854,361.326-68.348,364.349z"/>
			<path fill-rule="evenodd" clip-rule="evenodd" fill="#53891F" d="M333.181,381.349c-2.73,1.6-4.702,2.754-7.527,4.41
				c-28.362-2.84-46.346-30.393-44.318-62.025c2.051-31.959,21.404-49,58.358-53.441c0.579-4.242,0.591-8.775,1.884-12.971
				c3.854-12.525,12.512-22.359,22.744-30.863c17.562-14.604,38.143-24.504,62.018-24.135c25.675,0.395,50.016,6.355,67.932,25.453
				c2.524,2.689,4.767,5.598,7.141,8.406c21.896-20.326,46.956-31.711,75.444-33.383c30.171-1.771,60.157,1.402,84.228,21.531
				c3.719,3.107,6.203,1.963,8.237-0.814c18.147-24.822,46.87-31.383,75.904-37.037c19.519-3.803,39.329-6.094,59.36-3.902
				c33.055,3.615,60.785,16.926,83.423,39.312c2.591,2.564,5.075,5.215,7.711,7.93c13.31-19.459,34.619-27.234,56.792-33.369
				c41.148-11.385,91.656,15.37,114.185,37.371c37.472,37.92,10.808,119.516,7.114,119.359
				C1060.726,352.622,330.674,378.327,333.181,381.349z"/>
			<path fill-rule="evenodd" clip-rule="evenodd" fill="#88A80D" d="M1679.325,233.96c16.424-7.852,22.482,148.268-41.013,133.897
				c-45.661-10.34-243.619-33.204-238.353-37.677c-3.149-2.58-6.041-5.082-9.107-7.418c-21.538-16.423-25.686-36.547-10.833-53.978
				c12.547-14.718,30.879-23.899,52.208-29.031c21.213-5.108,40.756,3.917,59.15,13.677c11.754,6.232,11.709,6.28,14.471-3.337
				c12.065-42.206,48.022-69.127,111.701-59.892C1646.021,194.325,1664.117,206.888,1679.325,233.96z"/>
			<path fill-rule="evenodd" clip-rule="evenodd" fill="#437419" d="M1577.743,369.349c-2.73,1.6-4.702,2.754-7.527,4.41
				c-28.362-2.841-46.346-30.393-44.318-62.026c2.051-31.958,21.404-48.998,58.358-53.44c0.579-4.242,0.591-8.775,1.884-12.971
				c3.854-12.525,12.512-22.359,22.744-30.862c17.562-14.604,38.143-24.505,62.018-24.136c25.675,0.396,50.016,6.355,67.932,25.453
				c2.524,2.689,4.767,5.599,7.141,8.406c21.896-20.326,46.956-31.711,75.444-33.382c30.171-1.771,60.157,1.401,84.228,21.53
				c3.719,3.107,6.203,1.964,8.237-0.814c18.147-24.822,46.87-31.383,75.904-37.037c19.519-3.803,39.329-6.094,59.36-3.902
				c33.055,3.615,60.785,16.927,83.423,39.313c2.591,2.563,5.075,5.214,7.711,7.929c13.31-19.459,34.619-27.234,56.792-33.369
				c41.148-11.384-43.754,174.16-47.447,174.004C2136.542,357.895,1575.236,366.327,1577.743,369.349z"/>
		</g>
		<g>
			<path fill-rule="evenodd" clip-rule="evenodd" fill="#C6C6C6" d="M2050.953,400.949c-4.347,0.026-8.692,0.069-13.042,0.075
				c-7.236,0.01-14.473-0.01-21.713-0.006c-29.359,0.014-160.553,0.101-173.594,0.149c-11.25,0.041-22.527,0.028-33.789,0.061
				c-16.451,0.046-32.891,0.134-49.346,0.159c-15.642,0.023-37.295-0.018-52.944-0.014c-16.233,0.004-26.467,0.026-42.701,0.043
				c-14.599,0.016-145.899-0.137-162.37-0.149c-7.596-0.005-15.191-0.036-22.779-0.023c-8.66,0.015-17.307,0.081-25.968,0.097
				c-6.049,0.01-12.105-0.037-18.162-0.04c-6.751-0.005-106.524-0.022-121.559-0.017c-13.522,0.005-27.041,0-40.562-0.006
				c-19.113-0.009-121.499-0.027-133.902-0.043c-6.663-0.01-80.301-0.09-86.014-0.098c-4.819-0.007-9.646,0.043-14.473,0.047
				c-1.333,0.002-2.674-0.07-4.988-0.137c-3.929,0.301-30.17,0.268-37.4-0.125c-1.783,0.178-3.242,0.324-6.816,0.129
				c-2.227-0.121-7.107-0.083-9.471,0.054c-4.705,0.271-8.195,0.07-12.327-0.04c-1.593-0.041-62.224,0.169-69.134-0.016
				c-3.885-0.104-8.548,0.005-12.855,0.023c-10.674,0.047-21.343,0.121-32.021,0.138c-11.221,0.017-22.469,0.007-33.669-0.046
				c-6.534-0.031-158.066,0.286-165.245,0.314c-14.469,0.058-28.932,0.128-43.406,0.168c-9.604,0.028-19.23,0.001-28.838,0.022
				c-10.328,0.022-20.646,0.081-30.975,0.107c-2.557,0.007-415.335-0.83-415.916-0.856c-7.018-0.326-107.75,0.031-113.768,0.045
				c-5.801,0.012-11.594,0.049-17.648,0.076c-0.1-0.188,0.482-118.789,0.377-118.99c16.785-0.062,2039.367,0.279,2046.829,0.301
				c1.543,0.005-1.009,118.35,0.507,118.422C2051.163,400.833,2051.06,400.891,2050.953,400.949z"/>
		</g>
		<g>
			<path fill-rule="evenodd" clip-rule="evenodd" fill="#53891F" d="M1012.488,1618.556
				c15.116,26.928-26.675-170.627-19.179-172.229c14.951-3.199,71.774-20.107,86.721-16.168
				c12.617,3.326,24.825,8.525,36.806,13.842c3.582,1.592,5.675,1.838,8.844-0.031c20.607-12.148,42.703-19.645,66.646-21.156
				c14.248-0.898,28.207,1.33,41.445,6.211c16.075,5.93,31.643,13.254,47.542,19.693c2.41,0.98,5.452,0.785,8.152,0.545
				c7.818-0.688,15.914-0.627,23.344-2.781c12.603-3.654,24.684-9.059,37.146-13.238c22.092-7.408,44.55-8.789,67.704-5.209
				c18.382,2.846,36.602,5.818,52.947,15.002c10.448,5.871,20.004,13.35,29.749,19.969c8.68-6.648,17.988-14.764,28.232-21.404
				c17.873-11.584,37.764-16.742,59.044-18.672c23.89-2.166,45.812,3.367,67.106,12.918c13.508,6.053,26.2,13.672,36.771,24.316
				c2.6,2.615,4.437,1.926,7.402,0.438c18.666-9.354,36.914-20.02,56.43-27.08c26.784-9.684,54.868-8.938,82.854-4.219
				c19.714,3.322,38.603,8.674,55.509,19.818c1.472,0.971,3.293,1.793,4.204,3.182c5.114,7.791,10.415,4.732,16.55,1.178
				c31.491-18.258,65.317-24.479,101.083-18.006c17.011,3.08,33.228,8.643,46.446,20.848c1.4,1.291,4.802,1.332,6.914,0.711
				c8.825-2.596,17.384-6.184,26.286-8.436c12.958-3.277,25.705-0.252,38.395,2.678c15.307,3.529,27.131,13.287,38.969,22.6
				c9.399,7.398,15.26,18.275,17.703,29.781c3.701,17.475,5.74,35.33,7.952,53.088c0.518,4.184-0.551,8.824-1.894,12.922
				c-1.475,4.512,0.076,7.377,2.619,10.83c11.027,14.955,11.431,38.508-2.595,51.035c-2.662,2.373-6.292,3.939-9.741,4.986
				c-1.509,0.459-4.641-0.855-5.31-2.223C2180.585,1632.858,1007.995,1619.964,1012.488,1618.556z"/>
			<path fill-rule="evenodd" clip-rule="evenodd" fill="#53891F" d="M436.472,1615.845c15.117,26.926-26.675-170.629-19.179-172.23
				c14.95-3.197,71.774-20.105,86.721-16.166c12.616,3.324,24.825,8.523,36.806,13.842c3.582,1.592,5.675,1.838,8.844-0.031
				c20.607-12.15,42.703-19.646,66.646-21.156c14.248-0.9,28.207,1.328,41.445,6.209c16.074,5.93,31.643,13.254,47.543,19.693
				c2.41,0.98,5.451,0.785,8.15,0.545c7.82-0.688,15.914-0.625,23.346-2.781c12.602-3.654,24.682-9.059,37.146-13.236
				c22.092-7.408,44.549-8.791,67.703-5.209c18.381,2.844,36.602,5.818,52.947,15c10.448,5.871,20.004,13.352,29.75,19.969
				c8.678-6.648,17.987-14.762,28.231-21.402c17.874-11.586,37.764-16.744,59.044-18.674c23.891-2.166,45.812,3.369,67.105,12.92
				c13.509,6.051,26.201,13.67,36.772,24.316c2.6,2.615,4.437,1.924,7.402,0.438c18.666-9.355,36.914-20.021,56.43-27.08
				c26.784-9.686,54.868-8.939,82.854-4.221c19.714,3.324,38.603,8.674,55.509,19.818c1.472,0.971,3.293,1.793,4.204,3.182
				c5.114,7.791,10.415,4.732,16.55,1.178c31.491-18.258,65.317-24.479,101.083-18.006c17.011,3.08,33.228,8.643,46.446,20.85
				c1.4,1.291,4.802,1.33,6.914,0.709c8.825-2.596,17.384-6.184,26.286-8.436c12.958-3.277,25.706-0.252,38.395,2.678
				c15.307,3.531,27.131,13.289,38.969,22.6c9.399,7.398,15.26,18.275,17.703,29.781c3.701,17.475,5.74,35.33,7.952,53.09
				c0.518,4.184-0.551,8.822-1.894,12.92c-1.475,4.512,0.076,7.377,2.619,10.83c11.027,14.955,11.431,38.51-2.595,51.035
				c-2.662,2.373-6.292,3.939-9.741,4.986c-1.509,0.459-4.641-0.855-5.31-2.223
				C1604.568,1630.147,431.978,1617.253,436.472,1615.845z"/>
			<path fill-rule="evenodd" clip-rule="evenodd" fill="#437419" d="M522.762,1643.38c-0.669,1.367-3.801,2.682-5.31,2.223
				c-3.449-1.047-7.079-2.613-9.741-4.986c-14.025-12.527-13.622-36.08-2.595-51.035c2.543-3.453,4.094-6.318,2.619-10.83
				c-1.343-4.098-2.411-8.738-1.894-12.922c2.212-17.758,4.251-35.613,7.952-53.088c2.443-11.506,8.304-22.383,17.703-29.781
				c11.838-9.312,23.662-19.07,38.969-22.6c12.688-2.93,25.437-5.955,38.395-2.678c8.902,2.252,17.461,5.84,26.286,8.436
				c2.112,0.621,5.514,0.58,6.914-0.711c13.219-12.205,29.436-17.768,46.446-20.848c35.766-6.473,69.592-0.252,101.083,18.006
				c6.135,3.555,11.436,6.613,16.55-1.178c0.911-1.389,2.732-2.211,4.204-3.182c16.906-11.145,35.795-16.496,55.509-19.818
				c27.985-4.719,56.069-5.465,82.854,4.219c19.516,7.061,37.765,17.727,56.43,27.08c2.966,1.488,4.802,2.178,7.402-0.438
				c10.571-10.645,23.264-18.264,36.772-24.316c21.294-9.551,43.215-15.084,67.105-12.918c21.28,1.93,41.171,7.088,59.044,18.672
				c10.244,6.641,19.553,14.756,28.232,21.404c9.745-6.619,19.301-14.098,29.749-19.969c16.346-9.184,34.565-12.156,52.947-15.002
				c23.154-3.58,45.612-2.199,67.704,5.209c12.463,4.18,24.544,9.584,37.146,13.238c7.43,2.154,15.525,2.094,23.344,2.781
				c2.7,0.24,5.742,0.436,8.152-0.545c15.899-6.439,31.467-13.764,47.542-19.693c13.238-4.881,27.197-7.109,41.446-6.211
				c23.941,1.512,46.039,9.008,66.645,21.156c3.17,1.869,5.262,1.623,8.846,0.031c11.98-5.316,24.188-10.516,36.805-13.842
				c14.946-3.939,30.22-1.346,45.17,1.854c7.496,1.602,7.256,213.471,22.372,186.543
				C1696.054,1629.05,523.464,1641.944,522.762,1643.38z"/>
			<path fill-rule="evenodd" clip-rule="evenodd" fill="#437419" d="M-100.222,1610.144c-2.73,1.6-4.702,2.752-7.527,4.408
				c-28.362-2.84-46.346-30.393-44.318-62.025c2.051-31.959,21.404-48.998,58.358-53.439c0.579-4.244,0.591-8.775,1.884-12.973
				c3.854-12.525,12.512-22.357,22.744-30.861c17.562-14.604,38.143-24.504,62.018-24.135c25.675,0.395,50.016,6.355,67.932,25.453
				c2.524,2.689,4.767,5.598,7.141,8.404c21.896-20.324,46.956-31.709,75.444-33.381c30.171-1.771,60.157,1.402,84.228,21.531
				c3.719,3.105,6.203,1.963,8.237-0.816c18.147-24.822,46.87-31.381,75.904-37.037c19.519-3.801,39.329-6.092,59.36-3.9
				c33.055,3.613,60.785,16.926,83.423,39.312c2.591,2.564,5.075,5.215,7.711,7.93c13.31-19.459,34.619-27.234,56.792-33.369
				c41.148-11.385,74.053,23.078,114.185,37.369c11.153,3.975,10.808,119.518,7.114,119.361
				C627.323,1581.417-102.729,1607.12-100.222,1610.144z"/>
			<path fill-rule="evenodd" clip-rule="evenodd" fill="#88A80D" d="M301.307,1627.144c-2.73,1.6-4.702,2.752-7.527,4.408
				c-28.362-2.84-46.346-30.393-44.318-62.025c2.051-31.959,21.404-48.998,58.358-53.439c0.579-4.244,0.591-8.775,1.884-12.973
				c3.854-12.525,12.512-22.357,22.744-30.861c17.562-14.604,38.143-24.504,62.018-24.135c25.675,0.395,50.016,6.355,67.932,25.453
				c2.524,2.689,4.767,5.598,7.141,8.404c21.896-20.324,46.956-31.709,75.444-33.381c30.171-1.771,60.157,1.402,84.228,21.531
				c3.719,3.105,6.203,1.963,8.237-0.816c18.147-24.822,46.87-31.381,75.904-37.037c19.519-3.801,39.329-6.092,59.36-3.9
				c33.055,3.613,60.785,16.926,83.423,39.312c2.591,2.564,5.075,5.215,7.711,7.93c13.31-19.459,34.619-27.234,56.792-33.369
				c41.148-11.385,91.656,15.369,114.185,37.369c37.472,37.922,10.808,119.518,7.114,119.361
				C1028.852,1598.417,298.8,1624.12,301.307,1627.144z"/>
			<path fill-rule="evenodd" clip-rule="evenodd" fill="#88A80D" d="M1647.451,1479.753c16.424-7.85,22.482,148.268-41.013,133.898
				c-45.661-10.34-243.619-33.205-238.353-37.676c-3.149-2.58-6.041-5.084-9.107-7.42c-21.538-16.422-25.686-36.545-10.833-53.977
				c12.547-14.717,30.879-23.9,52.208-29.031c21.213-5.109,40.756,3.918,59.15,13.678c11.754,6.232,11.709,6.279,14.471-3.338
				c12.065-42.205,48.022-69.127,111.701-59.891C1614.147,1440.12,1632.243,1452.683,1647.451,1479.753z"/>
			<path fill-rule="evenodd" clip-rule="evenodd" fill="#437419" d="M1545.869,1615.144c-2.73,1.6-4.702,2.754-7.527,4.408
				c-28.362-2.84-46.346-30.393-44.318-62.025c2.051-31.959,21.404-48.998,58.358-53.439c0.579-4.244,0.591-8.775,1.884-12.973
				c3.854-12.525,12.512-22.357,22.744-30.861c17.562-14.604,38.143-24.504,62.018-24.135c25.675,0.395,50.016,6.355,67.932,25.453
				c2.524,2.689,4.767,5.598,7.141,8.404c21.896-20.324,46.956-31.709,75.444-33.381c30.171-1.771,60.157,1.402,84.228,21.531
				c3.719,3.105,6.203,1.963,8.237-0.816c18.147-24.822,46.87-31.381,75.904-37.037c19.519-3.801,39.329-6.092,59.36-3.9
				c33.055,3.613,60.784,16.926,83.423,39.312c2.591,2.564,5.075,5.215,7.711,7.93c13.31-19.459,34.619-27.234,56.792-33.369
				c41.148-11.385-43.754,174.158-47.447,174.002C2104.668,1603.688,1543.362,1612.122,1545.869,1615.144z"/>
		</g>
	</g>
	<g>
		<path fill-rule="evenodd" clip-rule="evenodd" fill="#515151" d="M4092.44,401.126c0,280.941,0,561.373,0,842.263
			c-682.346,0-1364.409,0-2046.987,0c0-375.652,0.158-651.885,0.158-842.751C2727.643,400.637,3409.694,401.126,4092.44,401.126z"/>
		<g>
			<g>
				<path fill-rule="evenodd" clip-rule="evenodd" fill="#F2F2F2" d="M2161.118,844.145c-19.535,0.307-29.453-0.121-50.633-0.441
					c-21.778-0.031-30.155-0.982-47.166-1.076c-2.707-0.014-10.996,0.236-13.719-0.041c-3.288-0.338-1.373-1.371-2.07-4.297
					c-0.468-3.785,0.285-15.453,0.307-23.442c-0.162-1.224-0.592-15.641-0.021-22.777c0.282-3.521-0.256-3.915,3.962-3.842
					c15.75,0.268,35.715,0.967,51.465,1.061c19.162,0.116,38.323-0.094,57.482-0.361c3.239-0.047,3.56,1.568,3.518,3.715
					c-0.169,8.539-0.507,17.074-0.63,25.614c-0.096,6.668,0.031,22.533-0.105,24.264
					C2163.368,844.25,2161.118,844.096,2161.118,844.145z"/>
			</g>
		</g>
	</g>
	<g>
		<path fill-rule="evenodd" clip-rule="evenodd" fill="#C6C6C6" d="M2048.597,1243.022c19.863,0.688,92.368,0.621,110.41,1.309
			c9.954,0.383,1016.54-0.338,1032.645-1.042c8.678-0.388,229.17,0.464,266.973,0.568c32.775,0.093,65.568-2.172,98.357-2.65
			c16.068-0.227,449.685,3.817,480.472,2.294c14.477-0.722,40.692-0.824,54.987-0.112c7.105,0.356,19.559,368.938,0.82,357.351
			c-49.686,2.688-2017.474,2.736-2046.987,0C2045.768,1555.325,2046.282,1336.325,2048.597,1243.022z"/>
	</g>
	<g id="Layer_4">
		<g display="none">
			<path display="inline" fill-rule="evenodd" clip-rule="evenodd" fill="#53891F" d="M994.175,1629.762
				c15.117,26.928-26.675-170.627-19.179-172.229c14.951-3.199,71.774-20.107,86.721-16.168
				c12.617,3.326,24.825,8.525,36.806,13.842c3.582,1.592,5.675,1.838,8.844-0.031c20.607-12.148,42.703-19.645,66.646-21.156
				c14.248-0.898,28.207,1.33,41.445,6.211c16.075,5.929,31.643,13.254,47.542,19.693c2.41,0.98,5.452,0.784,8.152,0.545
				c7.818-0.688,15.914-0.627,23.344-2.782c12.603-3.653,24.684-9.058,37.146-13.237c22.092-7.408,44.55-8.789,67.704-5.209
				c18.382,2.846,36.602,5.818,52.947,15.001c10.448,5.872,20.004,13.351,29.749,19.969c8.68-6.648,17.988-14.763,28.232-21.403
				c17.873-11.584,37.764-16.742,59.044-18.672c23.89-2.166,45.812,3.367,67.106,12.918c13.508,6.053,26.2,13.672,36.771,24.316
				c2.6,2.615,4.437,1.926,7.402,0.438c18.666-9.354,36.914-20.021,56.43-27.08c26.784-9.684,54.868-8.938,82.854-4.219
				c19.714,3.322,38.603,8.673,55.509,19.818c1.472,0.97,3.293,1.792,4.204,3.181c5.114,7.791,10.415,4.733,16.55,1.179
				c31.491-18.259,65.317-24.479,101.083-18.006c17.011,3.079,33.228,8.643,46.446,20.848c1.4,1.291,4.802,1.332,6.914,0.711
				c8.825-2.596,37.158,34.848,49.847,37.776c15.307,3.53,41.965-30.247,53.803-20.935c9.399,7.398,15.26,18.275,17.703,29.781
				c3.701,17.475,5.74,35.33,7.952,53.088c0.518,4.184-0.551,8.824-1.894,12.922c-1.475,4.511,0.076,7.377,2.619,10.829
				c11.027,14.955,11.431,38.509-2.595,51.036c-2.662,2.373-6.292,3.939-9.741,4.986c-1.509,0.459-4.641-0.855-5.31-2.224
				C2162.272,1644.064,989.682,1631.17,994.175,1629.762z"/>
			<path display="inline" fill-rule="evenodd" clip-rule="evenodd" fill="#53891F" d="M418.159,1627.05
				c15.117,26.927-26.675-170.628-19.179-172.229c14.951-3.198,71.774-20.106,86.721-16.167
				c12.617,3.325,24.825,8.524,36.805,13.842c3.583,1.592,5.675,1.838,8.845-0.031c20.606-12.149,42.703-19.646,66.646-21.156
				c14.249-0.899,28.208,1.329,41.446,6.21c16.075,5.93,31.643,13.254,47.542,19.693c2.41,0.98,5.452,0.785,8.151,0.545
				c7.819-0.688,15.914-0.626,23.345-2.781c12.602-3.654,24.683-9.059,37.146-13.237c22.092-7.408,44.549-8.79,67.704-5.209
				c18.381,2.845,36.602,5.818,52.947,15.001c10.448,5.871,20.004,13.351,29.75,19.969c8.679-6.648,17.988-14.763,28.232-21.403
				c17.874-11.585,37.764-16.743,59.044-18.673c23.89-2.166,45.812,3.368,67.106,12.919c13.508,6.052,26.201,13.671,36.772,24.316
				c2.6,2.615,4.437,1.925,7.402,0.438c18.666-9.354,36.914-20.021,56.43-27.08c26.784-9.685,54.868-8.938,82.854-4.22
				c19.714,3.323,38.603,8.674,55.509,19.818c1.472,0.971,3.293,1.793,4.204,3.182c5.114,7.791,10.415,4.732,16.55,1.178
				c31.491-18.258,65.317-24.479,101.083-18.006c17.011,3.08,33.228,8.643,46.446,20.849c1.4,1.291,4.802,1.331,6.914,0.71
				c8.825-2.596,17.384-6.184,26.286-8.436c12.958-3.277,25.706-0.252,38.395,2.678c15.307,3.53,27.131,13.288,38.969,22.6
				c9.399,7.398,15.26,18.275,17.703,29.781c3.701,17.475,5.74,35.33,7.952,53.089c0.518,4.184-0.551,8.823-1.894,12.921
				c-1.475,4.512,0.076,7.377,2.619,10.83c11.027,14.955,11.431,38.509-2.595,51.035c-2.662,2.373-6.292,3.939-9.741,4.986
				c-1.509,0.459-4.641-0.855-5.31-2.223C1586.255,1641.353,413.665,1628.458,418.159,1627.05z"/>
			<path display="inline" fill-rule="evenodd" clip-rule="evenodd" fill="#437419" d="M504.449,1654.585
				c-0.669,1.368-3.801,2.683-5.31,2.224c-3.449-1.047-7.079-2.613-9.741-4.986c-14.025-12.527-13.622-36.081-2.595-51.036
				c2.543-3.452,4.094-6.318,2.619-10.829c-1.343-4.098-2.411-8.738-1.894-12.922c2.212-17.758,4.251-35.613,7.952-53.088
				c2.443-11.506,8.304-22.383,17.703-29.781c11.838-9.312,23.662-19.07,38.969-22.601c12.688-2.929,25.437-5.955,38.395-2.678
				c8.902,2.252,17.461,5.841,26.286,8.437c2.112,0.621,5.514,0.58,6.914-0.711c13.219-12.205,29.436-17.769,46.446-20.848
				c35.766-6.473,69.592-0.253,101.083,18.006c6.135,3.555,11.436,6.612,16.55-1.179c0.911-1.389,2.732-2.211,4.204-3.181
				c16.906-11.146,35.795-16.496,55.509-19.818c27.985-4.719,56.069-5.465,82.854,4.219c19.516,7.06,37.765,17.727,56.43,27.08
				c2.966,1.488,4.802,2.178,7.402-0.438c10.571-10.645,23.264-18.264,36.772-24.316c21.294-9.551,43.215-15.084,67.105-12.918
				c21.28,1.93,41.171,7.088,59.044,18.672c10.244,6.641,19.553,14.755,28.232,21.403c9.745-6.618,19.301-14.097,29.749-19.969
				c16.346-9.183,34.565-12.155,52.947-15.001c23.154-3.58,45.612-2.199,67.704,5.209c12.463,4.18,24.544,9.584,37.146,13.237
				c7.43,2.155,15.525,2.094,23.344,2.782c2.7,0.239,5.742,0.436,8.152-0.545c15.899-6.439,31.467-13.765,47.542-19.693
				c13.238-4.881,27.197-7.109,41.446-6.211c23.941,1.512,46.039,9.008,66.645,21.156c3.17,1.869,5.262,1.623,8.846,0.031
				c11.98-5.316,24.188-10.516,36.805-13.842c14.946-3.939,30.22-1.346,45.17,1.854c7.496,1.602,7.256,213.471,22.372,186.543
				C1677.741,1640.256,505.151,1653.15,504.449,1654.585z"/>
			<path display="inline" fill-rule="evenodd" clip-rule="evenodd" fill="#437419" d="M-118.535,1621.349
				c-2.73,1.6-4.702,2.753-7.527,4.409c-28.362-2.84-46.346-30.393-44.318-62.025c2.051-31.959,21.404-48.999,58.358-53.44
				c0.579-4.243,0.591-8.775,1.884-12.972c3.854-12.525,12.512-22.358,22.744-30.862c17.562-14.604,38.143-24.504,62.018-24.135
				c25.675,0.395,50.016,6.355,67.932,25.453c2.524,2.689,4.767,5.598,7.141,8.405c21.896-20.325,46.956-31.71,75.444-33.382
				c30.171-1.771,60.157,1.402,84.228,21.531c3.719,3.106,6.203,1.963,8.237-0.815c18.147-24.822,46.87-31.382,75.904-37.037
				c19.519-3.802,39.329-6.093,59.36-3.901c33.055,3.614,60.785,16.926,83.423,39.312c2.591,2.564,5.075,5.215,7.711,7.93
				c13.31-19.459,34.619-27.234,56.792-33.369c41.148-11.385,74.053,23.079,114.185,37.37c11.153,3.975,10.808,119.517,7.114,119.36
				C609.01,1592.622-121.042,1618.326-118.535,1621.349z"/>
			<path display="inline" fill-rule="evenodd" clip-rule="evenodd" fill="#88A80D" d="M282.994,1638.35
				c-2.73,1.6-4.702,2.752-7.527,4.408c-28.362-2.84-46.346-30.393-44.318-62.025c2.051-31.959,21.404-48.998,58.358-53.439
				c0.579-4.244,0.591-8.775,1.884-12.973c3.854-12.525,12.512-22.357,22.744-30.861c17.562-14.604,38.143-24.504,62.018-24.135
				c25.675,0.395,50.016,6.355,67.932,25.453c2.524,2.689,4.767,5.598,7.141,8.404c21.896-20.324,46.956-31.709,75.444-33.381
				c30.171-1.771,60.157,1.402,84.228,21.531c3.719,3.105,6.203,1.963,8.237-0.816c18.147-24.822,46.87-31.381,75.904-37.037
				c19.519-3.801,39.329-6.092,59.36-3.9c33.055,3.613,60.785,16.926,83.423,39.312c2.591,2.564,5.075,5.215,7.711,7.93
				c13.31-19.459,34.619-27.234,56.792-33.369c41.148-11.385,91.656,15.369,114.185,37.369
				c37.472,37.921,10.808,119.518,7.114,119.361C1010.539,1609.623,280.487,1635.326,282.994,1638.35z"/>
			<path display="inline" fill-rule="evenodd" clip-rule="evenodd" fill="#88A80D" d="M1629.138,1490.959
				c16.424-7.85,22.482,148.268-41.013,133.898c-45.661-10.34-243.619-33.205-238.353-37.677c-3.149-2.58-6.041-5.083-9.107-7.419
				c-21.538-16.422-25.686-36.546-10.833-53.977c12.547-14.717,30.879-23.9,52.208-29.031c21.213-5.109,40.756,3.918,59.15,13.677
				c11.754,6.232,11.709,6.28,14.471-3.337c12.065-42.206,48.022-69.127,111.701-59.892
				C1595.834,1451.326,1613.93,1463.889,1629.138,1490.959z"/>
			<path display="inline" fill-rule="evenodd" clip-rule="evenodd" fill="#437419" d="M1527.556,1626.35
				c-2.73,1.6-4.702,2.753-7.527,4.408c-28.362-2.84-46.346-30.393-44.318-62.025c2.051-31.959,21.404-48.998,58.358-53.44
				c0.579-4.243,0.591-8.774,1.884-12.972c3.854-12.525,12.512-22.358,22.744-30.861c17.562-14.604,38.143-24.504,62.018-24.135
				c25.675,0.395,50.016,6.354,67.932,25.452c2.524,2.689,4.767,5.599,7.141,8.405c21.896-20.325,46.956-31.709,75.444-33.381
				c30.171-1.771,60.157,1.402,84.228,21.53c3.719,3.106,6.203,1.964,8.237-0.815c18.147-24.822,46.87-31.382,75.904-37.037
				c19.519-3.801,39.329-6.093,59.36-3.901c33.055,3.614,60.785,16.927,83.423,39.313c2.591,2.563,5.075,5.215,7.711,7.93
				c13.31-19.46,59.015-21.806,91.402-6.415c98.613,128.609-78.364,147.204-82.057,147.048
				C2086.355,1614.895,1525.049,1623.327,1527.556,1626.35z"/>
		</g>
	</g>
	<path fill-rule="evenodd" clip-rule="evenodd" fill="#88A80D" d="M4358.726,1887.995c0.118,50.1-0.497,100.992-0.673,151.287
		c-0.155,47.632,1.893,218.622-0.501,254.405c0.346,54.876-56.798,55.989-91.794,57.891c-73.553,4.038-438.823-0.522-544.819-1.912
		c-82.325-1.085-797.221,1.295-868.997,2.898c-75.867,1.716-151.879,2.19-227.707,0.286c-131.025,1.236-95.024,5.973-132.225-64.244
		c-57.852-92.289-68.306-118.954-131.263-197.344c-44.149-54.964-66.863-78.992-136.042-138.51
		c-39.452-33.938-186.713-120.159-224.366-133.525c-42.376-17.005-48.216-21.514-47.301-46.68
		c2.431-66.105-0.128-79.84,1.989-145.945c1.45-45.238,0.923-90.548,1.076-135.833c0.138-38.844,16.395-65.633,61.209-72.703
		c30.502-4.784,221.001-0.584,285.901,0.152c97.307,1.094,889.708-0.854,926.874-0.704c71.273,0.293,966.515-6.008,1028.419-4.752
		c35.107,0.711,58.766,7.187,79.693,24.086c13.081,10.563,20.936,29.808,21.326,44.772c1.257,49.017,1.114,113.069-0.781,162.14
		C4358.337,1653.994,4358.586,1828.641,4358.726,1887.995z"/>
</g>
<g id="Layer_3" display="none">
	<g display="inline">
		<g>
			<g>
				<path fill-rule="evenodd" clip-rule="evenodd" fill="#0164C0" d="M2242.78,1148.941c-0.938-1.94-1.941-3.845-2.986-5.703
					c-3.055-5.437-6.581-10.973-11.149-15.072c-5.254-8.555-31.492-9.391-40.632-5.336c-39.103,8.613-38.829,57.074-38.829,57.074
					s-258.189,8.422-258.649,6.348c-4.044-18.239-15.111-44.991-23.574-51.072c-6.305-4.53-13.186-8.491-21.118-8.641
					c-12.275-0.232-23.503,3.414-33.551,10.748c-10.147,7.406-16.665,16.764-20.717,27.453l-86.921-0.37
					c-13.259-17.751-10.756-38.029-8.035-57.957c0.444-3.247,0.735-5.972,2.912-14.563c3.835-15.136,16.967-34.221,29.697-43.415
					c21.997-14.489,46.683-19.837,72.294-22.532c3.777-0.397,7.713-0.883,11.177-2.3c6.024-2.466,11.259-5.819,13.725-12.729
					c7.256-20.337,14.13-40.878,22.753-60.642c9.361-21.453,18.94-42.312,32.214-61.62c8.25-12,12.25-15,26.877-19.254
					c11.172-2.29,22.6-4.06,33.975-4.495c27.279-1.046,54.591-1.309,81.894-1.582c7.096-0.071,14.252,0.626,21.293,1.599
					c10.285,1.42,15.295,5.898,18.765,14.141c3.03,7.091,2.448,27.799,3.696,45.342c0.451,18.398,1.505,33.549,1.25,47.25
					c-0.272,14.63-0.138,27.571-0.25,42.201c-0.075,9.779,1.618,11.439,11.397,11.068c13.799-0.524,23.603,0.047,41.728-0.687
					c26.26-0.916,52.529-1.759,78.801-2.133c35.973-0.513,72.181-0.326,108.157-0.367c7.32,0.128,12.065-0.027,19.333,0.667
					c4.153,0.397,8,3.583,8.594,7.795c0.739,11.122,0.544,22.242,1.015,33.354c0.682,16.09,2.297,32.182,2.094,48.254
					c-0.149,11.829,1.173,25.55-6.121,35.015L2242.78,1148.941z"/>
			</g>
			<polygon fill-rule="evenodd" clip-rule="evenodd" fill="#F4F4F2" points="2157.058,1184.946 1894.224,1190.112 
				1894.224,1185.445 2155.891,1179.78 			"/>
			<path fill-rule="evenodd" clip-rule="evenodd" d="M1905.587,1022.011c0.008,0.23,20.616-0.164,30.885-0.944
				c17.548-1.334,35.068-3.02,52.613-4.397c3.803-0.299,4.869-1.718,4.812-5.607c-0.339-22.96-0.434-45.924-0.437-68.887
				c-0.002-15.983,0.28-31.968,0.424-47.951c0.032-3.511-0.634-6.934-4.48-7.958c-3.151-0.839-6.533-1.076-9.816-1.103
				c-9.657-0.079-19.401-0.708-28.952,0.341c-12.486,1.371-25.616,2.166-37.034,6.77c-17.771,7.165-28.806,22.466-36.641,39.649
				c-4.196,9.202-8.012,18.644-11.122,28.261c-6.009,18.587-11.312,37.399-17.093,56.062c-1.586,5.12,1.206,5.752,5.006,5.757
				C1871.03,1022.021,1888.309,1022.011,1905.587,1022.011z"/>
			<path fill-rule="evenodd" clip-rule="evenodd" d="M2055.179,942.166c0.104-0.009,0.207-0.018,0.31-0.027
				c-0.853-14.599-1.726-29.195-2.548-43.796c-0.405-7.207-1.981-9.415-9.362-10.106c-8.546-0.801-17.163-0.948-25.754-1.127
				c-7.208-0.15-7.703,0.437-7.642,7.562c0.226,26.569,0.434,53.141,0.778,79.709c0.167,12.964,0.637,25.924,0.938,38.886
				c0.102,4.399,2.502,6.068,6.672,6.255c7.641,0.342,15.267,0.999,22.907,1.367c14.763,0.71,15.576,0.014,15.292-14.905
				C2056.364,984.709,2055.721,963.438,2055.179,942.166z"/>
			<path fill-rule="evenodd" clip-rule="evenodd" fill="#0A0042" d="M1992.42,1039.956c3.22-20.595,5.459,148.119,2.388,124.432
				C1994.013,1122.911,1993.217,1081.434,1992.42,1039.956z"/>
			<path fill-rule="evenodd" clip-rule="evenodd" fill="#0A0042" d="M1974.06,1077.025c-2.504,1.912-12.138,1.532-14.22,0.954
				c-3.574-0.993-2.626-2.868,0.717-3.598C1965.116,1074.143,1975.516,1073.236,1974.06,1077.025z"/>
			<g>
				<path fill-rule="evenodd" clip-rule="evenodd" d="M1782.636,1179.904c1.248-19.543,13.754-37.043,24.922-44.341
					c10.048-7.334,38.945-18.909,64.833-2.202c20.862,13.043,30.926,41.018,23.424,66.403
					c-7.922,24.351-26.635,36.725-45.844,40.795c-26.831,3.802-47.524-7.817-56.081-19.948
					C1783.125,1204.492,1782.636,1195.111,1782.636,1179.904z"/>
			</g>
			<g>
				<path fill-rule="evenodd" clip-rule="evenodd" fill="#F4F4F2" d="M1785.979,1164.054c-2.921,8.474-4.171,16.057-3.002,28.479
					c-5.796,0.327-13.438,0.161-20.168,0.328c-9.614,0.239-18.134,0.261-27.75,0.167c-6.136-0.061-21.976-0.038-28.094-0.533
					c-8.074-0.008-11.236-6.633-11.199-13.553c0.294-7.847,2.641-14.318,10.986-14.888c8.587-0.585,26.888,0.325,35.511,0.308
					C1757.034,1164.333,1772.216,1164.054,1785.979,1164.054z"/>
			</g>
			<g>
				<path fill-rule="evenodd" clip-rule="evenodd" fill="#FFD629" d="M1697.454,1130.686c-0.066-10.906-0.001-22.573,5.078-38.836
					c3.022-0.054,9.942,1.139,12.994,1.646c14.165,2.355,19.365,18.051,12.53,29.635c-5.677,7.029-14.4,7.341-22.798,8.046
					C1703.38,1131.334,1700.751,1131.232,1697.454,1130.686z"/>
			</g>
			<g>
				<path fill-rule="evenodd" clip-rule="evenodd" fill="#DCEBF4" d="M1853.752,1022.002c-3.8-0.005-6.592-0.637-5.006-5.757
					c5.781-18.662,11.084-37.475,17.093-56.062c3.109-9.617,6.926-19.059,11.122-28.261c7.835-17.184,18.883-38.611,36.655-45.776
					c11.417-4.604,24.547-5.398,37.034-6.77c9.55-1.049,19.295-0.42,28.952-0.341c3.284,0.026,6.666,0.264,9.816,1.103
					c3.846,1.024,4.512,4.447,4.48,7.958c-0.144,15.983-0.44,38.095-0.438,54.078c0.003,22.963,0.098,50.933,0.437,73.893
					c0.057,3.89-1.009,5.309-4.812,5.607c-22.694,1.483-38.569,0.889-57.194,0.889c-13.375,0.139-28.25-0.466-39.5-0.327
					C1892.382,1022.006,1871.03,1022.021,1853.752,1022.002z"/>
				<path fill-rule="evenodd" clip-rule="evenodd" fill="#DCEBF4" d="M2056.81,941.111c0.542,21.272-0.446,43.598-0.041,64.872
					c0.284,14.919,0.135,17.461-14.628,16.751c-9.75,0.106-13.75,0.157-23.828-0.032c-4.173-0.078-6.57-1.855-6.672-6.255
					c-0.301-12.962-0.513-29.103-0.681-42.066c-0.344-26.568-0.398-61.138-0.625-87.707c-0.061-7.126,0.434-7.713,7.642-7.562
					c8.591,0.179,23.117-0.819,31.663-0.019c7.381,0.691,5.457,3.657,5.862,10.864
					C2056.325,904.558,2056.81,941.111,2056.81,941.111z"/>
			</g>
		</g>
		<path fill-rule="evenodd" clip-rule="evenodd" fill="#F4F4F2" d="M1810.04,1183.297c0.657-10.281,7.236-19.488,13.111-23.327
			c5.287-3.858,20.489-9.948,34.108-1.159c10.976,6.862,16.271,21.58,12.323,34.936c-4.168,12.811-14.013,19.32-24.118,21.462
			c-14.115,2-25.002-4.112-29.504-10.495C1810.297,1196.233,1810.04,1191.298,1810.04,1183.297z"/>
	</g>
</g>
<g id="Layer_2" display="none">
	<g display="inline">
		<g>
			<path fill-rule="evenodd" clip-rule="evenodd" fill="#E9F8FF" d="M2044.963,12.844c-1.166-1.703,11.785-19.992,12.767-18.84
				C2061.208-5.996,2047.001,13.649,2044.963,12.844z"/>
		</g>
	</g>
</g>
</svg>
