<?xml version="1.0" encoding="utf-8"?>
<!-- Generator: Adobe Illustrator 16.0.4, SVG Export Plug-In . SVG Version: 6.00 Build 0)  -->
<!DOCTYPE svg PUBLIC "-//W3C//DTD SVG 1.0//EN" "http://www.w3.org/TR/2001/REC-SVG-20010904/DTD/svg10.dtd">
<svg version="1.0" xmlns="http://www.w3.org/2000/svg" xmlns:xlink="http://www.w3.org/1999/xlink" x="0px" y="0px" width="2048px"
	 height="1536px" viewBox="0 0 2048 1536" enable-background="new 0 0 2048 1536" xml:space="preserve">
<g id="Layer_1">
	<g>
		<g>
			<path fill-rule="evenodd" clip-rule="evenodd" fill="#515151" d="M6585.488,153.537c0,482.985,0,965.092,0,1447.987
				c-2232.096,0-4463.267,0-6696.124,0c0-645.808,0-1235.197,0-1563.328C2120.432,38.196,4352.083,153.537,6585.488,153.537z"/>
			<g>
				<g>
					<path fill-rule="evenodd" clip-rule="evenodd" fill="#F2F2F2" d="M2161.653,844.144c-19.535,0.307-29.453-0.121-50.633-0.441
						c-21.778-0.031-30.155-0.982-47.166-1.076c-2.707-0.014-10.996,0.236-13.719-0.041c-3.288-0.338-1.373-1.371-2.07-4.297
						c-0.468-3.785,0.285-15.453,0.307-23.442c-0.162-1.224-0.592-15.641-0.021-22.777c0.282-3.521-0.256-3.915,3.962-3.842
						c15.75,0.268,35.715,0.967,51.465,1.061c19.162,0.116,38.323-0.094,57.482-0.361c3.239-0.047,3.56,1.568,3.518,3.715
						c-0.169,8.539-0.507,17.074-0.63,25.614c-0.096,6.668,0.031,22.533-0.105,24.264
						C2163.903,844.249,2161.653,844.095,2161.653,844.144z"/>
				</g>
			</g>
		</g>
	</g>
	<path fill-rule="evenodd" clip-rule="evenodd" fill="#C6C6C6" d="M2303.04,29.409c0.081,40.134-0.336,80.902-0.454,121.189
		c-0.107,38.159,1.283,175.132-0.342,203.8c0.241,43.96-38.579,44.848-62.351,46.374c-49.959,3.233-298.072-0.422-370.067-1.534
		c-55.93-0.867-1311.293-1.537-1360.048-0.248c-51.538,1.375-103.167,1.758-154.674,0.229c-89,0.984-64.542,4.779-89.815-51.47
		c-39.293-73.922-58.782-108.984-102.714-158.419c-34.647-38.989-47.671-51.213-93.743-91.027
		C40.315,73.661-47.551,24.388-73.127,13.679c-19.633-4.23-32.754-17.231-32.132-37.39c1.651-52.954,4.365-105.892,5.801-158.853
		c0.987-36.234,0.627-72.533,0.734-108.807c0.09-31.119,11.127-52.582,41.574-58.238c20.718-3.84,150.116-0.473,194.2,0.12
		c66.096,0.875,1374.114,1.889,1399.36,2.008c48.41,0.238,656.513-4.812,698.556-3.807c23.843,0.571,39.923,5.757,54.136,19.291
		c8.885,8.471,14.222,23.883,14.486,35.868c0.854,39.271,0.76,90.576-0.538,129.89C2302.777-158.041,2302.943-18.137,2303.04,29.409
		z"/>
	<g>
		<path fill-rule="evenodd" clip-rule="evenodd" fill="#C6C6C6" d="M3284.155,401.268c-177.026,0.075-2191.555,0.297-2215.702,0.267
			c-6.663-0.009-80.301-0.089-86.014-0.097c-4.819-0.007-9.646,0.042-14.473,0.047c-1.333,0.001-2.674-0.07-4.988-0.136
			c-3.929,0.3-30.17,0.267-37.4-0.125c-1.784,0.178-3.242,0.325-6.817,0.129c-2.226-0.122-7.106-0.083-9.47,0.054
			c-4.705,0.271-8.195,0.07-12.327-0.04c-1.592-0.042-62.223,0.168-69.133-0.016c-3.885-0.104-8.548,0.004-12.856,0.023
			c-10.673,0.046-21.343,0.122-32.022,0.138c-11.22,0.017-22.468,0.007-33.668-0.046c-6.534-0.031-158.066,0.287-165.246,0.315
			c-14.468,0.058-28.931,0.128-43.406,0.168c-9.604,0.028-19.229,0-28.837,0.022c-10.328,0.022-20.646,0.081-30.974,0.107
			c-2.557,0.006-7.368-0.399-13.423-0.371c-0.1-0.189,0.362-472.445,0.257-472.646c16.786-0.063,2838.05-0.081,2845.512-0.06
			l0.269,446L3284.155,401.268z"/>
		<path fill-rule="evenodd" clip-rule="evenodd" fill="#C6C6C6" d="M413.429,1240.494c19.863,0.688,92.368,0.621,110.41,1.309
			c9.954,0.383,2733.87,2.289,2749.975,1.585l39.737,43.464c-1.22,102.023,12.459,323.626-3.072,314.021
			c-49.686,2.688-2869.86,0.074-2899.373-2.662C410.601,1552.797,411.115,1333.797,413.429,1240.494z"/>
	</g>
	<g>
		<g>
			<path fill-rule="evenodd" clip-rule="evenodd" fill="#88A80D" d="M3131.221-92.457c0.091,37.793-0.374,76.182-0.507,114.122
				c-0.118,35.931,1.427,164.914-0.379,191.911c0.261,41.395-42.842,42.234-69.242,43.667
				c-55.486,3.045-331.023-0.394-410.981-1.443c-62.103-0.815-601.376,0.978-655.521,2.189
				c-57.229,1.293-114.568,1.652-171.769,0.215c-98.838,0.931-412.725,2.78-506.333,0.928
				c-1.606-59.217-0.669-419.692,0.021-438.673c1.834-49.869-0.096-60.228,1.501-110.095c1.093-34.125,0.696-68.304,0.812-102.461
				c0.104-29.304,12.367-49.514,46.173-54.842c23.009-3.614,166.71-0.445,215.667,0.111c73.403,0.825,671.144-0.644,699.181-0.529
				c53.764,0.221,729.083-4.535,775.777-3.587c26.483,0.536,44.332,5.422,60.117,18.169c9.867,7.97,15.795,22.487,16.088,33.774
				c0.945,36.977,0.842,85.292-0.59,122.31C3130.929-268.974,3131.116-137.231,3131.221-92.457z"/>
		</g>
		<g>
			<g>
				<path fill-rule="evenodd" clip-rule="evenodd" fill="#F4E00A" d="M2001.355,41.888c-0.89-1.481-4.848-2.719-7.553-5.682
					c-7.496-8.207-2.97-24.117,9.569-27.362c10.099-2.611,16.035-0.024,16.035-0.024c9.244-23.971,40.513-14.729,39.866,1.585
					c0.496,2.227-1.457,11.702-4.631,14.588c3.754,8.011,3.969,10.228,4.93,19.132c1.313,12.204-9.751,24.739-22.612,20.526
					c-3.258-1.067-4.052-2.951-4.885-2.041c-7.192,7.869-17.723,7.917-22.952,5.055
					C2001.556,63.159,1997.166,54.162,2001.355,41.888z"/>
				<path fill-rule="evenodd" clip-rule="evenodd" fill="#F47527" d="M2095.435,167.487c5.415,3.643,9.625,7.324,9.531,16.205
					c-3.25,11.264-11.265,15.378-24.261,10.397c-1.442-0.125-2.642,3.655-4.019,4.415c-7.678,9.231-28.904,2.642-24.356-15.679
					c0.484-1.95-5.199,1.299-11.48-4.115c-9.266-7.579-8.449-20.579,1.298-25.127c5.501-2.568,6.716-2.816,11.915-1.517
					c-5.634-11.914,12.347-26.208,21.877-9.963c1.734-3.032,6.724-3.808,7.798-3.898
					C2096.07,137.172,2106.699,150.126,2095.435,167.487z"/>
				<path fill-rule="evenodd" clip-rule="evenodd" fill="#FFFFFF" d="M1949.65,101.815c4.677-7.089,10.632-12.555,19.948-9.186
					c7.291,2.637,8.714,5.224,10.5,12.652c2.15,8.935-2.815,12.915-9.096,15.812c4.987,1.082,9.096,17.761,4.113,22.744
					c-4.78,4.781-14.727,9.097-22.438,2.418c-3.655-2.819-3.122-5.668-8.676-0.761c-13.724,6.139-27.583-4.907-17.621-23.102
					c-5.415-5.189-4.995-4.839-5.748-10.18C1920.632,95.967,1935.794,92.934,1949.65,101.815z"/>
				<path fill-rule="evenodd" clip-rule="evenodd" fill="#F47527" d="M2028.068,25.569c-7.821,0-7.821,12.129,0,12.129
					S2035.889,25.569,2028.068,25.569z"/>
				<path fill-rule="evenodd" clip-rule="evenodd" fill="#F32842" d="M1950.092,115.679c-7.821,0-7.821,12.128,0,12.128
					C1957.913,127.807,1957.913,115.679,1950.092,115.679z"/>
			</g>
		</g>
	</g>
	<g>
		<path fill-rule="evenodd" clip-rule="evenodd" fill="#F2F2F2" d="M1590.843,846.604c-19.535,0.306-29.453-0.121-50.633-0.441
			c-21.778-0.031-30.155-0.983-47.166-1.076c-2.707-0.014-10.996,0.235-13.719-0.042c-3.288-0.338-1.373-1.371-2.07-4.297
			c-0.468-3.784,0.285-15.453,0.307-23.442c-0.162-1.224-0.592-15.641-0.021-22.777c0.282-3.521-0.256-3.915,3.962-3.842
			c16.75,0.284,36.715,0.973,51.465,1.061c19.162,0.116,38.323-0.094,57.482-0.361c3.239-0.047,3.56,1.568,3.518,3.715
			c-0.169,8.539-0.507,17.074-0.63,25.614c-0.096,6.668,0.031,22.534-0.105,24.265
			C1593.093,846.709,1590.843,846.555,1590.843,846.604z"/>
		<path fill-rule="evenodd" clip-rule="evenodd" fill="#FFFFFF" d="M1767.437,789.846c19.098-0.113,38.126-0.532,56.167-0.607
			c13.974-0.057,25.65-0.195,40.333-0.002c6.794-0.254,13.334-0.057,20.833,0.776c0,19.011,0,37.212,0,56.896
			c-16.182,0-31.657-0.188-47.132,0.048c-17.112,0.258-30.923-0.463-48.034,0.055c-4.864,0.145-13.031-0.844-17.876-0.38
			c-3.26,0.311-4.316-0.95-4.291-4.43C1767.554,825.646,1767.437,808.423,1767.437,789.846z"/>
		<path fill-rule="evenodd" clip-rule="evenodd" fill="#F2F2F2" d="M173.601,840.685c-19.535,0.307-29.453-0.121-50.633-0.441
			c-21.778-0.031-30.155-0.982-47.166-1.076c-2.707-0.014-10.996,0.236-13.719-0.041c-3.288-0.338-1.373-1.371-2.07-4.297
			c-0.468-3.785,0.285-15.453,0.307-23.442c-0.162-1.224-0.592-15.641-0.021-22.777c0.282-3.521-0.256-3.915,3.962-3.842
			c15.75,0.268,35.715,0.967,51.465,1.061c19.162,0.116,38.323-0.094,57.482-0.361c3.239-0.047,3.56,1.568,3.518,3.715
			c-0.169,8.539-0.507,17.074-0.63,25.614c-0.096,6.668,0.031,22.533-0.105,24.264C175.851,840.79,173.601,840.636,173.601,840.685z
			"/>
		<path fill-rule="evenodd" clip-rule="evenodd" fill="#FFFFFF" d="M467.526,840.396c-19.098,0.113-37.126,0.531-55.167,0.606
			c-13.974,0.058-26.65,0.196-41.333,0.002c-6.794,0.254-13.334,0.057-20.833-0.776c0-19.01,0-37.211,0-56.896
			c16.182,0,31.657,0.189,47.132-0.047c17.112-0.258,30.923,0.463,48.034-0.055c4.864-0.145,13.031,0.844,17.876,0.379
			c3.26-0.311,4.316,0.951,4.291,4.43C467.409,804.595,467.526,821.817,467.526,840.396z"/>
		<path fill-rule="evenodd" clip-rule="evenodd" fill="#FFFFFF" d="M634.485,784.188c19.098-0.113,32.501,0.206,50.542,0.132
			c13.974-0.057,26.65-0.195,41.333-0.002c6.794-0.254,13.334-0.057,20.833,0.775c0,19.012,0,37.212,0,56.897
			c-16.182,0-31.657-0.189-47.132,0.047c-17.112,0.258-30.923-0.463-48.034,0.055c-19.959,0.02-22.173-0.48-22.173-3.182
			c0.104-14.715-0.125-35.952,0.273-52.327C630.178,784.534,631.954,784.162,634.485,784.188z"/>
	</g>
	<path fill-rule="evenodd" clip-rule="evenodd" fill="#FFFFFF" d="M919.215,844.001c-9.325,0.341-7.073-1.869-7.37-8.867
		c-0.339-11.496-0.563-31.481-0.331-41.875c0.04-4.452-0.256-6.371,5.202-6.932c15.699-1.611,33.498-0.39,53.374-0.62
		c8.997-0.104,13.122-0.152,22.747-0.209c5.128-0.03,22.129-0.249,27.373-0.373c10.925,0.62,8.375-0.098,8.968,19.812
		c0.206,6.883,0.479,23.586-0.008,30.46c-0.693,9.87,0.747,7.551-15.079,7.735c-20.833,0.079-45.33,0.525-51.458,0.52
		C958.741,843.225,936.389,844.034,919.215,844.001z"/>
	<path fill-rule="evenodd" clip-rule="evenodd" fill="#FFFFFF" d="M1309.735,788.875c0,16.045,0.066,30.852,0.011,46.5
		c-0.031,9.121,0.855,7.685-6.024,7.935c-33.47,1.204-65.165,0.535-107.799,0.535c-6.627,1.28-5.302-2.22-5.302-5.47
		c-0.45-13.51,0-23.016,0.037-37.419c0.389-12.59-1.982-15.223,4.822-15.578c14.359-0.749,30.307,0,43.297,0
		c21.648,0,46.252,0,65.828,0C1309.769,785.378,1309.769,785.378,1309.735,788.875z"/>
	<g>
		<g>
			<path fill-rule="evenodd" clip-rule="evenodd" fill="#C6C6C6" d="M2607.878,1645.569c-1.39,76.391,0.88,325.531,0,399.258
				c-0.929,78.057,14.012,357.502,5.82,438.766c0.832,30.535-4.191,73.326-61.264,71.584c-47.273,2.107-467.885,2.324-518.453,0.311
				c-24.131-0.967-1698.18,1.949-1744.308,1.404c-37.184-0.438-328.163-1.521-350.213-15
				c-23.107-14.105-26.132-48.365-26.825-71.408c-0.8-26.826-0.383-271.625-0.1-310.592c0.094-14.08,0.387-481.996-0.327-504.779
				c-0.729-23.531-4.052-44.66,23.517-50.367c49.881-22.822,94.582-47.494,141.996-83.148
				c24.443-23.934,52.939-43.822,76.627-68.477c17.367-18.082,77.156-101.344,92.116-121.461
				c24.458-42.395,30.163-58.291,36.688-71.742c11.409-24.453,22.489-19.387,51.606-19.775
				c33.32-0.283,1361.978,0.078,1414.65,0.342c36.475,0.186,493.75-1.432,517.713-0.832c27.549,0.691,222.034-1.805,257.063,2.115
				c68.542,2.773,81.579,6.814,84.912,67.945C2610.089,1350.868,2608.976,1585.169,2607.878,1645.569z"/>
			<path fill-rule="evenodd" clip-rule="evenodd" fill="#88A80D" d="M3163.32,1734.812c-1.15,60.498,0.726,257.803,0,316.195
				c-0.767,61.812,11.556,283.121,4.802,347.473c0.684,24.186-3.455,58.072-50.524,56.691c-38.988,1.67-385.87,1.844-427.581,0.248
				c-19.897-0.77-2231.475,1.505-2269.519,1.075c-30.668-0.348-270.639-1.203-288.828-11.881
				c-19.055-11.17-21.548-38.305-22.122-56.553c-0.661-21.248-0.312-215.111-0.083-245.969
				c0.078-11.154-1.974-355.643-2.564-373.682c-0.603-18.639-3.34-35.367,19.395-39.889c41.138-18.076,72.265-38.717,111.368-66.947
				c20.158-18.961,43.659-34.711,63.197-54.234c14.322-14.318,63.632-80.262,75.971-96.191
				c20.167-33.576,24.875-46.16,30.251-56.811c16.482-41.207,26.583-40.338,50.598-40.643c27.48-0.227,1954.21,0.099,1997.65,0.306
				c30.087,0.148,407.205-1.131,426.969-0.652c22.715,0.543,183.11-1.434,212.003,1.672c56.522,2.193,67.272,5.4,70.024,53.812
				C3165.145,1501.422,3164.225,1686.98,3163.32,1734.812z"/>
		</g>
	</g>
	<path fill-rule="evenodd" clip-rule="evenodd" fill="#88A80D" d="M1794.472,12.344c0.066,27.474-0.272,55.381-0.368,82.962
		c-0.086,26.12,1.037,119.888-0.276,139.511c0.19,30.092-147.107,27.467-205.234,26.706c-45.146-0.594-942.771-4.743-982.133-3.862
		c-41.605,0.94-83.289,1.202-124.871,0.156c-71.848,0.678-52.106,3.276-72.51-35.23c-31.721-50.609-37.458-65.23-71.979-108.219
		c-24.211-30.14-36.665-43.316-74.602-75.955C240.862,19.801,160.109-27.48,139.463-34.81
		c-23.241-9.324-26.441-11.798-25.938-25.598c1.331-36.25-0.073-43.781,1.089-80.032c0.793-24.809,0.507-49.655,0.587-74.488
		c0.078-21.3,8.993-35.991,33.57-39.868c16.724-2.623,121.19-0.321,156.78,0.084c53.361,0.6,993.49,4.983,1013.872,5.065
		c39.084,0.16,386.146,0.697,420.091,1.384c19.252,0.391,32.228,3.941,43.703,13.209c7.173,5.793,11.479,16.348,11.695,24.553
		c0.688,26.879,0.609,62.004-0.43,88.914C1794.262-115.976,1794.395-20.206,1794.472,12.344z"/>
	<g>
		<g display="none">
			<g display="inline">
				<path fill-rule="evenodd" clip-rule="evenodd" fill="#437419" d="M1867.973,365.528c-2.73,1.6-4.702,2.753-7.527,4.409
					c-28.362-2.84-46.346-30.393-44.318-62.025c2.051-31.959,21.404-48.999,58.358-53.44c0.579-4.243,0.591-8.775,1.884-12.972
					c3.854-12.525,12.512-22.358,22.744-30.862c17.562-14.604,38.143-24.504,62.018-24.135c25.675,0.395,50.016,6.355,67.932,25.453
					c2.524,2.689,4.767,5.598,7.141,8.405c21.896-20.325,46.956-31.71,75.444-33.382c30.171-1.771,60.157,1.402,84.228,21.531
					c3.719,3.106,6.203,1.963,8.237-0.815c18.147-24.822,46.87-31.382,75.904-37.037c19.519-3.802,39.329-6.093,59.36-3.901
					c33.055,3.614,60.785,16.926,83.423,39.312c2.591,2.564,5.075,5.215,7.711,7.93c13.31-19.459,34.619-27.234,56.792-33.369
					c41.148-11.385,74.053,23.079,114.185,37.37c11.153,3.975,10.808,119.517,7.114,119.36
					C2595.518,336.802,1865.466,362.506,1867.973,365.528z"/>
			</g>
		</g>
		<g>
			<g>
				<path fill-rule="evenodd" clip-rule="evenodd" fill="#53891F" d="M1645.8,1606.005c15.117,26.927-26.675-170.628-19.179-172.229
					c14.95-3.198,71.774-20.106,86.721-16.167c12.616,3.325,24.825,8.524,36.806,13.842c3.582,1.592,5.675,1.838,8.844-0.031
					c20.607-12.149,42.703-19.646,66.646-21.156c14.248-0.899,28.207,1.329,41.445,6.21c16.074,5.93,31.643,13.254,47.543,19.693
					c2.41,0.98,5.451,0.785,8.15,0.545c7.82-0.688,15.914-0.626,23.346-2.781c12.602-3.654,24.682-9.059,37.146-13.237
					c22.092-7.408,44.549-8.79,67.703-5.209c18.381,2.845,36.602,5.818,52.947,15.001c10.448,5.871,20.004,13.351,29.75,19.969
					c8.678-6.648,17.987-14.763,28.231-21.403c17.874-11.585,37.764-16.743,59.044-18.673c23.891-2.166,45.812,3.368,67.105,12.919
					c13.509,6.052,26.201,13.671,36.772,24.316c2.6,2.615,4.437,1.925,7.402,0.438c18.666-9.354,36.914-20.021,56.43-27.08
					c26.784-9.685,54.868-8.938,82.854-4.22c19.714,3.323,38.603,8.674,55.509,19.818c1.472,0.971,3.293,1.793,4.204,3.182
					c5.114,7.791,10.415,4.732,16.55,1.178c31.491-18.258,65.317-24.479,101.083-18.006c17.011,3.08,33.228,8.643,46.446,20.849
					c1.4,1.291,4.802,1.331,6.914,0.71c8.825-2.596,17.384-6.184,26.286-8.436c12.958-3.277,25.706-0.252,38.395,2.678
					c15.307,3.53,27.131,13.288,38.969,22.6c9.399,7.398,15.26,18.275,17.703,29.781c3.701,17.475,5.74,35.33,7.952,53.089
					c0.518,4.184-0.551,8.823-1.894,12.921c-1.475,4.512,0.076,7.377,2.619,10.83c11.027,14.955,11.431,38.509-2.595,51.035
					c-2.662,2.373-6.292,3.939-9.741,4.986c-1.509,0.459-4.641-0.855-5.31-2.223
					C2813.896,1620.308,1641.306,1607.413,1645.8,1606.005z"/>
				<path fill-rule="evenodd" clip-rule="evenodd" fill="#437419" d="M2052.926,1586.424c-3.693,0.156-12.346-149.547-1.192-153.521
					c40.132-14.291,81.343-14.594,122.491-3.209c22.173,6.135,43.482,13.91,56.792,33.369c2.636-2.715,5.12-5.365,7.711-7.93
					c22.638-22.387,50.368-35.698,83.423-39.312c20.031-2.191,39.842,0.1,59.36,3.901c29.034,5.655,57.757,12.215,75.904,37.037
					c2.034,2.778,4.519,3.922,8.237,0.815c24.07-20.129,54.057-23.303,84.228-21.531c28.488,1.672,53.548,13.057,75.444,33.382
					c2.374-2.808,4.616-5.716,7.141-8.405c17.916-19.098,42.257-25.059,67.932-25.453c23.875-0.369,44.455,9.531,62.018,24.135
					c10.232,8.504,18.89,18.337,22.744,30.862c1.293,4.196,1.305,8.729,1.884,12.972c36.954,4.441,56.308,21.481,58.358,53.44
					c2.027,31.633-15.956,59.186-44.318,62.025c-2.825-1.656-4.797-2.81-7.527-4.409
					C2796.062,1611.569,2066.01,1585.865,2052.926,1586.424z"/>
			</g>
		</g>
	</g>
	<path fill-rule="evenodd" clip-rule="evenodd" fill="#53891F" d="M411.557,1623.706c-0.67,1.367-3.801,2.682-5.311,2.223
		c-3.449-1.047-7.078-2.613-9.74-4.986c-14.025-12.526-13.623-36.08-2.596-51.035c2.543-3.453,4.094-6.318,2.619-10.83
		c-1.342-4.098-2.41-8.737-1.893-12.921c2.211-17.759,4.25-35.614,7.951-53.089c2.443-11.506,8.305-22.383,17.703-29.781
		c11.838-9.312,23.662-19.069,38.969-22.6c12.689-2.93,25.438-5.955,38.395-2.678c8.902,2.252,17.461,5.84,26.287,8.436
		c2.111,0.621,5.514,0.581,6.914-0.71c13.219-12.206,29.436-17.769,46.445-20.849c35.766-6.473,69.592-0.252,101.084,18.006
		c6.135,3.555,11.436,6.613,16.549-1.178c0.912-1.389,2.732-2.211,4.205-3.182c16.906-11.145,35.795-16.495,55.508-19.818
		c27.986-4.719,56.07-5.465,82.854,4.22c19.516,7.06,37.764,17.726,56.43,27.08c2.967,1.487,4.803,2.178,7.402-0.438
		c10.572-10.646,23.264-18.265,36.773-24.316c21.293-9.551,43.215-15.085,67.105-12.919c21.279,1.93,41.17,7.088,59.043,18.673
		c10.244,6.641,19.555,14.755,28.232,21.403c9.746-6.618,19.301-14.098,29.75-19.969c16.346-9.183,34.566-12.156,52.947-15.001
		c23.154-3.581,45.611-2.199,67.703,5.209c12.465,4.179,24.545,9.583,37.146,13.237c7.432,2.155,15.525,2.094,23.346,2.781
		c2.699,0.24,5.74,0.436,8.15-0.545c15.9-6.439,31.469-13.764,47.543-19.693c13.238-4.881,27.197-7.109,41.445-6.21
		c23.943,1.511,46.039,9.007,66.646,21.156c3.168,1.869,5.262,1.623,8.844,0.031c11.98-5.317,24.189-10.517,36.805-13.842
		c14.947-3.939,71.771,12.969,86.721,16.167c7.496,1.602-34.295,199.156-19.178,172.229
		C1584.85,1609.377,412.258,1622.271,411.557,1623.706z"/>
	<path fill-rule="evenodd" clip-rule="evenodd" fill="#437419" d="M432.6,1607.568c-2.73,1.6-4.701,2.753-7.527,4.409
		c-28.361-2.84-46.346-30.393-44.318-62.025c2.051-31.959,21.404-48.999,58.359-53.44c0.578-4.243,0.59-8.775,1.883-12.972
		c3.855-12.525,12.512-22.358,22.744-30.862c17.562-14.604,38.143-24.504,62.018-24.135c25.676,0.395,50.016,6.355,67.932,25.453
		c2.525,2.689,4.768,5.598,7.141,8.405c21.896-20.325,46.957-31.71,75.445-33.382c30.17-1.771,60.156,1.402,84.227,21.531
		c3.719,3.106,6.203,1.963,8.238-0.815c18.146-24.822,46.869-31.382,75.904-37.037c19.518-3.802,39.328-6.093,59.359-3.901
		c33.055,3.614,60.785,16.926,83.424,39.312c2.59,2.564,5.074,5.215,7.711,7.93c13.309-19.459,34.619-27.234,56.791-33.369
		c41.148-11.385,102.143-10.798,127.723,33.65c11.152,3.975-2.73,123.236-6.424,123.08
		C1160.145,1578.842,430.094,1604.546,432.6,1607.568z"/>
	<path fill-rule="evenodd" clip-rule="evenodd" fill="#53891F" d="M1362.843,1633.253c15.521,26.696-29.238-170.208-21.768-171.922
		c14.9-3.423,71.464-21.184,86.468-17.47c12.665,3.136,24.95,8.15,37.009,13.287c3.606,1.537,5.702,1.753,8.844-0.165
		c20.422-12.458,42.401-20.285,66.32-22.156c14.233-1.113,28.223,0.904,41.533,5.586c16.163,5.688,31.839,12.777,47.834,18.976
		c2.425,0.944,5.463,0.703,8.158,0.423c7.809-0.806,15.902-0.865,23.301-3.132c12.546-3.843,24.543-9.429,36.943-13.794
		c21.979-7.74,44.412-9.459,67.617-6.228c18.421,2.568,36.686,5.268,53.167,14.203c10.535,5.714,20.202,13.049,30.047,19.52
		c8.577-6.778,17.763-15.032,27.906-21.826c17.698-11.852,37.508-17.309,58.756-19.559c23.856-2.524,45.857,2.679,67.293,11.908
		c13.599,5.848,26.404,13.275,37.134,23.761c2.64,2.575,7.517,171.235,6.827,169.878
		C1857.966,1634.447,1358.37,1634.729,1362.843,1633.253z"/>
	<path fill-rule="evenodd" clip-rule="evenodd" fill="#437419" d="M1064.083,1630.136c15.348,26.796,13.29-185.062,20.772-186.729
		c14.922-3.326,30.173-6.05,45.152-2.24c12.645,3.219,24.896,8.312,36.921,13.526c3.598,1.561,5.691,1.789,8.846-0.107
		c20.501-12.324,42.533-20.01,66.461-21.727c14.24-1.021,28.218,1.087,41.498,5.855c16.125,5.79,31.755,12.98,47.709,19.285
		c2.419,0.959,5.459,0.736,8.156,0.475c7.812-0.756,15.908-0.764,23.32-2.983c12.57-3.76,24.604-9.269,37.03-13.554
		c22.028-7.599,44.474-9.172,67.658-5.789c18.405,2.687,36.649,5.503,53.073,14.545c10.498,5.782,20.117,13.18,29.92,19.713
		c8.622-6.723,17.861-14.916,28.048-21.645c17.772-11.735,37.618-17.066,58.881-19.178c23.871-2.37,45.839,2.976,67.214,12.343
		c13.561,5.937,26.317,13.446,36.979,24.001c2.623,2.592,4.452,1.886,7.405,0.374c18.585-9.514,36.742-20.338,56.196-27.563
		c26.7-9.913,54.789-9.408,82.813-4.929c19.742,3.152,38.676,8.34,55.678,19.341c1.48,0.956,3.309,1.763,4.23,3.144
		c5.182,7.748,10.456,4.646,16.56,1.038c31.333-18.529,65.104-25.038,100.925-18.871c17.037,2.932,33.3,8.356,46.623,20.447
		c1.412,1.28,4.814,1.291,6.92,0.65c8.803-2.671,17.33-6.333,26.213-8.66c12.93-3.39,25.703-0.471,38.416,2.348
		c15.337,3.4,27.244,13.056,39.162,22.266c9.463,7.317,15.416,18.145,17.957,29.628c3.852,17.443,6.043,35.28,8.408,53.019
		c0.553,4.18-0.476,8.829-1.783,12.938c-1.437,4.522,0.139,7.376,2.713,10.805c11.153,14.86,11.759,38.411-2.158,51.057
		c-2.643,2.397-6.258,3.993-9.697,5.07c-1.506,0.473-4.648-0.816-5.328-2.179
		C2232.261,1634.422,1059.603,1631.582,1064.083,1630.136z"/>
</g>
<g id="Layer_3" display="none">
	<g display="inline">
		<g>
			<g>
				<path fill-rule="evenodd" clip-rule="evenodd" fill="#0164C0" d="M2243.315,1148.94c-0.938-1.94-1.941-3.845-2.986-5.703
					c-3.055-5.437-6.581-10.973-11.149-15.072c-5.254-8.555-31.492-9.391-40.632-5.336c-39.103,8.613-38.829,57.074-38.829,57.074
					s-258.189,8.422-258.649,6.348c-4.044-18.239-15.111-44.991-23.574-51.072c-6.305-4.53-13.186-8.491-21.118-8.641
					c-12.275-0.232-23.503,3.414-33.551,10.748c-10.147,7.406-16.665,16.764-20.717,27.453l-86.921-0.37
					c-13.259-17.751-10.756-38.029-8.035-57.957c0.444-3.247,0.735-5.972,2.912-14.563c3.835-15.136,16.967-34.221,29.697-43.415
					c21.997-14.489,46.683-19.837,72.294-22.532c3.777-0.397,7.713-0.883,11.177-2.3c6.024-2.466,11.259-5.819,13.725-12.729
					c7.256-20.337,14.13-40.878,22.753-60.642c9.361-21.453,18.94-42.312,32.214-61.62c8.25-12,12.25-15,26.877-19.254
					c11.172-2.29,22.6-4.06,33.975-4.495c27.279-1.046,54.591-1.309,81.894-1.582c7.096-0.071,14.252,0.626,21.293,1.599
					c10.285,1.42,15.295,5.898,18.765,14.141c3.03,7.091,2.448,27.799,3.696,45.342c0.451,18.398,1.505,33.549,1.25,47.25
					c-0.272,14.63-0.138,27.571-0.25,42.201c-0.075,9.779,1.618,11.439,11.397,11.068c13.799-0.524,23.603,0.047,41.728-0.687
					c26.26-0.916,52.529-1.759,78.801-2.133c35.973-0.513,72.181-0.326,108.157-0.367c7.32,0.128,12.065-0.027,19.333,0.667
					c4.153,0.397,8,3.583,8.594,7.795c0.739,11.122,0.544,22.242,1.015,33.354c0.682,16.09,2.297,32.182,2.094,48.254
					c-0.149,11.829,1.173,25.55-6.121,35.015L2243.315,1148.94z"/>
			</g>
			<polygon fill-rule="evenodd" clip-rule="evenodd" fill="#F4F4F2" points="2157.592,1184.945 1894.759,1190.111 
				1894.759,1185.444 2156.425,1179.779 			"/>
			<path fill-rule="evenodd" clip-rule="evenodd" d="M1906.122,1022.01c0.008,0.23,20.616-0.164,30.885-0.944
				c17.548-1.334,35.068-3.02,52.613-4.397c3.803-0.299,4.869-1.718,4.812-5.607c-0.339-22.96-0.434-45.924-0.437-68.887
				c-0.002-15.983,0.28-31.968,0.424-47.951c0.032-3.511-0.634-6.934-4.48-7.958c-3.151-0.839-6.533-1.076-9.816-1.103
				c-9.657-0.079-19.401-0.708-28.952,0.341c-12.486,1.371-25.616,2.166-37.034,6.77c-17.771,7.165-28.806,22.466-36.641,39.649
				c-4.196,9.202-8.012,18.644-11.122,28.261c-6.009,18.587-11.312,37.399-17.093,56.062c-1.586,5.12,1.206,5.752,5.006,5.757
				C1871.565,1022.021,1888.843,1022.01,1906.122,1022.01z"/>
			<path fill-rule="evenodd" clip-rule="evenodd" d="M2055.713,942.165c0.104-0.009,0.207-0.018,0.31-0.027
				c-0.853-14.599-1.726-29.195-2.548-43.796c-0.405-7.207-1.981-9.415-9.362-10.106c-8.546-0.801-17.163-0.948-25.754-1.127
				c-7.208-0.15-7.703,0.437-7.642,7.562c0.226,26.569,0.434,53.141,0.778,79.709c0.167,12.964,0.637,25.924,0.938,38.886
				c0.102,4.399,2.502,6.068,6.672,6.255c7.641,0.342,15.267,0.999,22.907,1.367c14.763,0.71,15.576,0.014,15.292-14.905
				C2056.898,984.708,2056.255,963.438,2055.713,942.165z"/>
			<path fill-rule="evenodd" clip-rule="evenodd" fill="#0A0042" d="M1992.955,1039.955c3.22-20.595,5.459,148.119,2.388,124.432
				C1994.547,1122.91,1993.751,1081.433,1992.955,1039.955z"/>
			<path fill-rule="evenodd" clip-rule="evenodd" fill="#0A0042" d="M1974.594,1077.024c-2.504,1.912-12.138,1.532-14.22,0.954
				c-3.574-0.993-2.626-2.868,0.717-3.598C1965.651,1074.142,1976.05,1073.235,1974.594,1077.024z"/>
			<g>
				<path fill-rule="evenodd" clip-rule="evenodd" d="M1783.171,1179.903c1.248-19.543,13.754-37.043,24.922-44.341
					c10.048-7.334,38.945-18.909,64.833-2.202c20.862,13.043,30.926,41.018,23.424,66.403
					c-7.922,24.351-26.635,36.725-45.844,40.795c-26.831,3.802-47.524-7.817-56.081-19.948
					C1783.659,1204.491,1783.171,1195.11,1783.171,1179.903z"/>
			</g>
			<g>
				<path fill-rule="evenodd" clip-rule="evenodd" fill="#F4F4F2" d="M1786.513,1164.053c-2.921,8.474-4.171,16.057-3.002,28.479
					c-5.796,0.327-13.438,0.161-20.168,0.328c-9.614,0.239-18.134,0.261-27.75,0.167c-6.136-0.061-21.976-0.038-28.094-0.533
					c-8.074-0.008-11.236-6.633-11.199-13.553c0.294-7.847,2.641-14.318,10.986-14.888c8.587-0.585,26.888,0.325,35.511,0.308
					C1757.569,1164.332,1772.75,1164.053,1786.513,1164.053z"/>
			</g>
			<g>
				<path fill-rule="evenodd" clip-rule="evenodd" fill="#FFD629" d="M1697.988,1130.685c-0.066-10.906-0.001-22.573,5.078-38.836
					c3.022-0.054,9.942,1.139,12.994,1.646c14.165,2.355,19.365,18.051,12.53,29.635c-5.677,7.029-14.4,7.341-22.798,8.046
					C1703.915,1131.333,1701.286,1131.231,1697.988,1130.685z"/>
			</g>
			<g>
				<path fill-rule="evenodd" clip-rule="evenodd" fill="#DCEBF4" d="M1854.287,1022.001c-3.8-0.005-6.592-0.637-5.006-5.757
					c5.781-18.662,11.084-37.475,17.093-56.062c3.109-9.617,6.926-19.059,11.122-28.261c7.835-17.184,18.883-38.611,36.655-45.776
					c11.417-4.604,24.547-5.398,37.034-6.77c9.55-1.049,19.295-0.42,28.952-0.341c3.284,0.026,6.666,0.264,9.816,1.103
					c3.846,1.024,4.512,4.447,4.48,7.958c-0.144,15.983-0.44,38.095-0.438,54.078c0.003,22.963,0.098,50.933,0.437,73.893
					c0.057,3.89-1.009,5.309-4.812,5.607c-22.694,1.483-38.569,0.889-57.194,0.889c-13.375,0.139-28.25-0.466-39.5-0.327
					C1892.917,1022.005,1871.565,1022.021,1854.287,1022.001z"/>
				<path fill-rule="evenodd" clip-rule="evenodd" fill="#DCEBF4" d="M2057.345,941.11c0.542,21.272-0.446,43.598-0.041,64.872
					c0.284,14.919,0.135,17.461-14.628,16.751c-9.75,0.106-13.75,0.157-23.828-0.032c-4.173-0.078-6.57-1.855-6.672-6.255
					c-0.301-12.962-0.513-29.103-0.681-42.066c-0.344-26.568-0.398-61.138-0.625-87.707c-0.061-7.126,0.434-7.713,7.642-7.562
					c8.591,0.179,23.117-0.819,31.663-0.019c7.381,0.691,5.457,3.657,5.862,10.864
					C2056.859,904.557,2057.345,941.11,2057.345,941.11z"/>
			</g>
		</g>
		<path fill-rule="evenodd" clip-rule="evenodd" fill="#F4F4F2" d="M1810.575,1183.296c0.657-10.281,7.236-19.488,13.111-23.327
			c5.287-3.858,20.489-9.948,34.108-1.159c10.976,6.862,16.271,21.58,12.323,34.936c-4.168,12.811-14.013,19.32-24.118,21.462
			c-14.115,2-25.002-4.112-29.504-10.495C1810.832,1196.232,1810.575,1191.297,1810.575,1183.296z"/>
	</g>
</g>
<g id="Layer_2" display="none">
	<g display="inline">
		<g>
			<path fill-rule="evenodd" clip-rule="evenodd" fill="#E9F8FF" d="M2045.498,12.843c-1.166-1.703,11.785-19.992,12.767-18.84
				C2061.743-5.997,2047.536,13.648,2045.498,12.843z"/>
		</g>
	</g>
</g>
</svg>
